<?xml version="1.0" encoding="utf-8"?>
<!-- Generator: Adobe Illustrator 25.2.0, SVG Export Plug-In . SVG Version: 6.00 Build 0)  -->
<svg version="1.1" id="Calque_1" xmlns="http://www.w3.org/2000/svg" xmlns:xlink="http://www.w3.org/1999/xlink" x="0px" y="0px"
	 viewBox="0 0 391.5 73.9" style="enable-background:new 0 0 391.5 73.9;" xml:space="preserve">
<style type="text/css">
	.st0{fill:#2E2150;}
</style>
<path class="st0" d="M30.4,21.8h-4.4v-4.4h-4.4v-4.4h-4.4V8.7H8.7v4.4h8.7v4.4h4.4v4.4h4.4v17.4h-4.4v4.4h8.7v4.4h4.4v4.4h4.4v4.3
	h4.4v4.4h-4.4v4.4h-4.4v4.4h-4.4v-4.4h-4.4v-4.4h-4.4v-4.3h-13v-4.4h8.7v-4.3h4.4v-4.3h-13v-4.4H4.4v-8.7h4.4v8.7h8.6v-4.4H13v-4.4
	H8.7v-4.4H4.4v-4.4H0v-13h4.4V4.4h8.7V0h21.8v4.4h4.4v4.4h4.4v21.8h-4.4v8.7h-4.4v4.4h-4.4L30.4,21.8L30.4,21.8z M69.6,65.3h-4.4
	v4.4h-4.4v-4.4h-8.7v-4.4h-4.4v-4.3h-4.4v-4.4h4.4V8.7h4.4V4.4h8.7v47.9h4.4v4.4h4.4V65.3z M65.3,4.4h-4.4V0H74v4.4h4.4v8.7H74v4.4
	h-8.7V4.4z M74,56.6h-4.4v-4.4H74V56.6z"/>
<path class="st0" d="M87,4.4h8.7V0h21.8v4.4h4.4v4.4h4.4v17.4h8.7v-4.4h4.4v-8.7h-4.4V4.4h-4.4v4.4h-4.4V0h17.4v4.4h8.7v8.7h8.7v4.4
	h-8.7v4.4h-8.7v4.4h8.7v4.4h8.7v8.7h4.4v13.1H161v8.7h-4.4v4.4h-8.7v-4.4h4.4v-13h-4.4v-8.7h-4.4v-4.4h-4.4v-4.4h-13.1v-4.4h-4.4
	v13.1h-4.4v4.4h-4.4V21.8h-4.4v-4.4h-4.4v-4.4H100V8.7h-8.6v4.4h8.7v4.4h4.3v4.4h4.4v17.4h-4.4v4.4h-13v-4.4H87v-8.7h4.4v8.7h8.7
	v-4.4h-4.4v-4.4h-4.3v-4.4H87v-4.4h-4.4v-13H87L87,4.4z M95.7,65.3v4.4H87v-4.4h-4.4v-13H87v4.3h13.1v8.7H95.7z M130.5,56.6v4.4h8.7
	v4.4h8.7v4.4h-30.5v-4.4h-8.7v-4.4h-4.4v-4.3H100v-4.4H87v-4.3h21.8v-4.3h4.4v4.4h8.7v4.4h4.4v4.3H130.5z"/>
<path class="st0" d="M182.7,74v-4.4H174v-4.3h-4.4v-4.4h4.4V30.5h4.4v-4.4h4.4v-4.4h4.4v34.8h4.3v4.4h4.4v4.4h-4.4v4.4H187V74
	L182.7,74z M200.1,56.6v4.4h-4.4V26.1h-4.4v-4.4H187v-4.4h4.4V13h8.7v4.4h4.4v4.4h4.4v30.5h-4.4v4.4H200.1z"/>
<path class="st0" d="M252.3,26.1v34.8h4.4v4.4h-4.4v4.4h-4.4V74h-4.4v-4.4h-4.4v-4.4h-4.4v4.4h-4.4V74h-4.4v-4.4h-4.4v-4.4h-4.4
	V30.5h-4.4v-8.7h4.4v-4.4h4.4V13h4.4v4.4h4.4v39.2h4.4v4.4h4.4V30.5h-4.4v-8.7h4.4v-4.4h4.4V13h4.4v4.4h4.4v4.4h4.4v4.4H252.3z"/>
<path class="st0" d="M287.1,21.8h-8.7v34.8h4.4v4.4h4.4v4.4h-4.4v4.4h-4.4V74H274v-4.4h-4.4v-4.4h-4.3V21.8H261v-4.4h4.4V8.7h4.4
	V4.4h4.4V0h4.3v13.1h8.7L287.1,21.8z"/>
<path class="st0" d="M343.6,26.1v34.8h4.4v4.4h-4.4v4.4h-4.4V74h-4.4v-4.4h-4.4v-4.4h-4.4v4.4h-4.4V74h-4.4v-4.4h-4.4v-4.4h-4.4
	V30.5h-4.4v-8.7h4.4v-4.4h4.4V13h4.4v4.4h4.4v39.2h4.4v4.4h4.4V30.5h-4.4v-8.7h4.4v-4.4h4.4V13h4.4v4.4h4.4v4.4h4.4v4.4H343.6z"/>
<path class="st0" d="M387.2,4.4v13.1h-4.3v4.4h-4.3v4.4h4.3v4.4h4.3v8.7h4.3v13.1h-4.3v8.7h-4.3v4.4h-4.3V43.6h-4.3v-4.4h-8.7v4.4
	H361v-4.4h-4.4v-4.4h-4.3v-8.7h4.4v-4.4h4.4v-4.4h4.3V13h4.3V8.7h4.3V13h8.7V8.7h-4.3V4.3h-13V0h17.4v4.4L387.2,4.4z M378.5,65.3
	v4.4h-4.3V74h-4.3v-4.4h-8.7v-4.4h-4.4v-4.4h-4.3v-13h4.4v-4.3h4.4v8.7h8.7v4.3h4.3v8.7H378.5z M361.1,8.7V4.4h4.3v4.4H361.1z
	 M374.1,34.8v-4.4h4.3v-4.4h-8.7v-4.4h-4.4v4.4h4.3v8.7H374.1z"/>
</svg>
