<?xml version="1.0" encoding="utf-8"?>
<!-- Generator: Adobe Illustrator 25.2.0, SVG Export Plug-In . SVG Version: 6.00 Build 0)  -->
<svg version="1.1" id="Calque_1" xmlns="http://www.w3.org/2000/svg" xmlns:xlink="http://www.w3.org/1999/xlink" x="0px" y="0px"
	 viewBox="0 0 2080 3413.2" style="enable-background:new 0 0 2080 3413.2;" xml:space="preserve">
<style type="text/css">
	.st0{fill:#B1A7EA;}
	.st1{fill:#F2C475;}
	.st2{fill:#745EA8;}
	.st3{fill:#8873C9;}
	.st4{fill:#7D57F2;}
	.st5{fill:#614C89;}
	.st6{fill:#F29D14;}
	.st7{fill:#48306D;}
	.st8{fill:#21093A;}
	.st9{fill:#EFA42B;}
	.st10{fill:#2F1551;}
	.st11{clip-path:url(#SVGID_2_);}
	.st12{clip-path:url(#SVGID_4_);}
	.st13{clip-path:url(#SVGID_6_);}
	.st14{clip-path:url(#SVGID_8_);}
	.st15{clip-path:url(#SVGID_10_);}
	.st16{clip-path:url(#SVGID_12_);}
	.st17{clip-path:url(#SVGID_14_);}
	.st18{clip-path:url(#SVGID_16_);}
	.st19{clip-path:url(#SVGID_18_);}
	.st20{clip-path:url(#SVGID_20_);}
	.st21{clip-path:url(#SVGID_22_);}
	.st22{clip-path:url(#SVGID_24_);}
	.st23{clip-path:url(#SVGID_26_);}
	.st24{clip-path:url(#SVGID_28_);}
	.st25{clip-path:url(#SVGID_30_);}
	.st26{clip-path:url(#SVGID_32_);}
	.st27{clip-path:url(#SVGID_34_);}
	.st28{clip-path:url(#SVGID_36_);}
	.st29{clip-path:url(#SVGID_38_);}
	.st30{clip-path:url(#SVGID_40_);}
	.st31{clip-path:url(#SVGID_42_);}
	.st32{clip-path:url(#SVGID_44_);}
	.st33{clip-path:url(#SVGID_46_);}
	.st34{clip-path:url(#SVGID_48_);}
	.st35{clip-path:url(#SVGID_50_);}
	.st36{clip-path:url(#SVGID_52_);}
	.st37{clip-path:url(#SVGID_54_);}
	.st38{clip-path:url(#SVGID_56_);}
	.st39{clip-path:url(#SVGID_58_);}
	.st40{clip-path:url(#SVGID_60_);}
	.st41{clip-path:url(#SVGID_62_);}
	.st42{clip-path:url(#SVGID_64_);}
	.st43{clip-path:url(#SVGID_66_);}
	.st44{clip-path:url(#SVGID_68_);}
	.st45{clip-path:url(#SVGID_70_);}
	.st46{clip-path:url(#SVGID_72_);}
	.st47{clip-path:url(#SVGID_74_);}
	.st48{clip-path:url(#SVGID_76_);}
	.st49{clip-path:url(#SVGID_78_);}
	.st50{clip-path:url(#SVGID_80_);}
	.st51{clip-path:url(#SVGID_82_);}
	.st52{clip-path:url(#SVGID_84_);}
	.st53{fill:#2D2150;}
	.st54{fill:#745FA5;}
	.st55{fill:#F2C474;}
	.st56{fill:#F39D13;}
	.st57{fill:#F2C373;}
	.st58{fill:#2E2150;}
</style>
<g id="fond">
	<rect x="1.7" class="st0" width="2076.5" height="3413.2"/>
</g>
<g id="bandeaujaune_x24_">
	<rect x="-16.5" y="471.3" class="st1" width="2096.5" height="779.4"/>
</g>
<g id="monastère">
	<g>
		<polyline class="st2" points="1738.9,750.1 1738.9,742 1747.1,742 1747.1,733.8 1755.2,733.8 1755.2,725.7 1763.4,725.7 
			1763.4,717.5 1771.6,717.5 1771.6,709.4 1779.7,709.4 1779.7,701.2 1787.9,701.2 1787.9,693.1 1796,693.1 1796,701.2 
			1804.2,701.2 1804.2,709.4 1812.3,709.4 1812.3,717.5 1820.5,717.5 1820.5,725.7 1828.6,725.7 1828.6,733.8 1836.8,733.8 
			1836.8,742 1845,742 1845,750.1 1861.3,750.1 1861.3,815.4 1853.1,815.4 1853.1,913.3 1861.3,913.3 1861.3,921.4 1869.4,921.4 
			1869.4,978.5 1877.6,978.5 1877.6,1011.1 1869.4,1011.1 1869.4,1035.6 1877.6,1035.6 1877.6,1060.1 1885.7,1060.1 1885.7,1068.2 
			1893.9,1068.2 1893.9,1157.9 1690,1157.9 1690,1068.2 1698.2,1068.2 1698.2,1060.1 1706.3,1060.1 1706.3,1035.6 1714.5,1035.6 
			1714.5,1011.1 1706.3,1011.1 1706.3,978.5 1714.5,978.5 1714.5,921.4 1722.6,921.4 1722.6,913.3 1730.8,913.3 1730.8,815.4 
			1722.6,815.4 1722.6,750.1 1738.9,750.1 		"/>
		<polygon class="st0" points="1771.6,815.4 1771.6,913.3 1763.4,913.3 1763.4,970.3 1755.2,970.3 1755.2,978.5 1747.1,978.5 
			1747.1,1060.1 1738.9,1060.1 1738.9,1157.9 1690,1157.9 1690,1068.2 1698.2,1068.2 1698.2,1060.1 1706.3,1060.1 1706.3,1035.6 
			1714.5,1035.6 1714.5,1011.1 1706.3,1011.1 1706.3,978.5 1714.5,978.5 1714.5,921.4 1722.6,921.4 1722.6,913.3 1730.8,913.3 
			1730.8,815.4 1722.6,815.4 1722.6,750.1 1755.2,750.1 1755.2,807.2 1763.4,807.2 1763.4,815.4 		"/>
		<polygon class="st3" points="1828.6,750.1 1828.6,807.2 1820.5,807.2 1820.5,815.4 1812.3,815.4 1812.3,913.3 1820.5,913.3 
			1820.5,970.3 1828.6,970.3 1828.6,978.5 1836.8,978.5 1836.8,1060.1 1845,1060.1 1845,1157.9 1738.9,1157.9 1738.9,1060.1 
			1747.1,1060.1 1747.1,978.5 1755.2,978.5 1755.2,970.3 1763.4,970.3 1763.4,913.3 1771.6,913.3 1771.6,815.4 1763.4,815.4 
			1763.4,807.2 1755.2,807.2 1755.2,750.1 		"/>
		<rect x="1730.8" y="774.6" class="st3" width="8.2" height="32.6"/>
		<polygon class="st3" points="1738.9,913.3 1738.9,888.8 1747.1,888.8 1747.1,880.6 1755.2,880.6 1755.2,888.8 1763.4,888.8 
			1763.4,913.3 		"/>
		<rect x="1722.6" y="937.7" class="st3" width="8.2" height="32.6"/>
		<rect x="1738.9" y="937.7" class="st4" width="8.2" height="32.6"/>
		<rect x="1714.5" y="986.7" class="st3" width="8.2" height="16.3"/>
		<rect x="1730.8" y="986.7" class="st3" width="8.2" height="16.3"/>
		<rect x="1714.5" y="1043.7" class="st2" width="8.2" height="8.2"/>
		<rect x="1730.8" y="1043.7" class="st2" width="8.2" height="8.2"/>
		<polygon class="st3" points="1698.2,1133.5 1698.2,1109 1706.3,1109 1706.3,1100.8 1722.6,1100.8 1722.6,1109 1730.8,1109 
			1730.8,1133.5 1730.8,1149.8 1698.2,1149.8 		"/>
		<rect x="1755.2" y="888.8" class="st2" width="8.2" height="24.5"/>
		<rect x="1722.6" y="962.2" class="st2" width="8.2" height="8.2"/>
		<rect x="1738.9" y="962.2" class="st2" width="8.2" height="8.2"/>
		<rect x="1706.3" y="1100.8" class="st2" width="16.3" height="8.2"/>
		<rect x="1722.6" y="1109" class="st2" width="8.2" height="40.8"/>
		<rect x="1730.8" y="799.1" class="st2" width="8.2" height="8.2"/>
		<rect x="1730.8" y="815.4" class="st3" width="40.8" height="8.2"/>
		<rect x="1714.5" y="921.4" class="st3" width="48.9" height="8.2"/>
		<rect x="1714.5" y="1011.1" class="st3" width="32.6" height="8.2"/>
		<rect x="1690" y="1149.8" class="st3" width="48.9" height="8.2"/>
		<rect x="1698.2" y="1060.1" class="st3" width="40.8" height="8.2"/>
		<rect x="1747.1" y="856.2" class="st1" width="8.2" height="16.3"/>
		<rect x="1747.1" y="839.9" class="st3" width="8.2" height="8.2"/>
		<rect x="1845" y="774.6" class="st5" width="8.2" height="32.6"/>
		<polygon class="st5" points="1845,913.3 1845,888.8 1836.8,888.8 1836.8,880.6 1828.6,880.6 1828.6,888.8 1820.5,888.8 
			1820.5,913.3 		"/>
		<rect x="1853.1" y="937.7" class="st5" width="8.2" height="32.6"/>
		<rect x="1836.8" y="937.7" class="st5" width="8.2" height="32.6"/>
		<rect x="1861.3" y="986.7" class="st5" width="8.2" height="16.3"/>
		<rect x="1845" y="986.7" class="st5" width="8.2" height="16.3"/>
		<rect x="1861.3" y="1043.7" class="st6" width="8.2" height="8.2"/>
		<rect x="1845" y="1043.7" class="st6" width="8.2" height="8.2"/>
		<polygon class="st5" points="1885.7,1133.5 1885.7,1109 1877.6,1109 1877.6,1100.8 1861.3,1100.8 1861.3,1109 1853.1,1109 
			1853.1,1133.5 1853.1,1149.8 1885.7,1149.8 		"/>
		<rect x="1820.5" y="888.8" class="st7" width="8.2" height="24.5"/>
		<rect x="1853.1" y="962.2" class="st7" width="8.2" height="8.2"/>
		<rect x="1836.8" y="962.2" class="st7" width="8.2" height="8.2"/>
		<rect x="1861.3" y="1100.8" class="st7" width="16.3" height="8.2"/>
		<rect x="1853.1" y="1109" class="st7" width="8.2" height="40.8"/>
		<rect x="1845" y="799.1" class="st7" width="8.2" height="8.2"/>
		<rect x="1812.3" y="815.4" class="st5" width="40.8" height="8.2"/>
		<rect x="1820.5" y="921.4" class="st5" width="48.9" height="8.2"/>
		<rect x="1836.8" y="1011.1" class="st5" width="32.6" height="8.2"/>
		<rect x="1845" y="1149.8" class="st7" width="48.9" height="8.2"/>
		<rect x="1845" y="1060.1" class="st5" width="40.8" height="8.2"/>
		<rect x="1828.6" y="856.2" class="st4" width="8.2" height="16.3"/>
		<rect x="1828.6" y="839.9" class="st4" width="8.2" height="8.2"/>
		<polygon class="st3" points="1755.2,750.1 1763.4,750.1 1763.4,742 1771.6,742 1771.6,733.8 1779.7,733.8 1779.7,725.7 
			1787.9,725.7 1787.9,717.5 1796,717.5 1796,725.7 1804.2,725.7 1804.2,733.8 1812.3,733.8 1812.3,742 1820.5,742 1820.5,750.1 
			1828.6,750.1 1828.6,758.3 1755.2,758.3 		"/>
		<rect x="1763.4" y="774.6" class="st2" width="16.3" height="24.5"/>
		<rect x="1787.9" y="774.6" class="st2" width="8.2" height="24.5"/>
		<rect x="1804.2" y="774.6" class="st2" width="16.3" height="24.5"/>
		<rect x="1787.9" y="839.9" class="st1" width="8.2" height="8.2"/>
		<rect x="1787.9" y="856.2" class="st1" width="8.2" height="8.2"/>
		<rect x="1787.9" y="872.5" class="st2" width="8.2" height="8.2"/>
		<rect x="1771.6" y="937.7" class="st4" width="8.2" height="32.6"/>
		<rect x="1787.9" y="937.7" class="st2" width="8.2" height="32.6"/>
		<rect x="1804.2" y="937.7" class="st2" width="8.2" height="32.6"/>
		<rect x="1763.4" y="986.7" class="st2" width="16.3" height="16.3"/>
		<rect x="1804.2" y="986.7" class="st2" width="16.3" height="16.3"/>
		<rect x="1787.9" y="986.7" class="st1" width="8.2" height="16.3"/>
		<rect x="1787.9" y="1027.4" class="st4" width="8.2" height="24.5"/>
		<rect x="1763.4" y="1027.4" class="st2" width="16.3" height="24.5"/>
		<rect x="1804.2" y="1027.4" class="st2" width="16.3" height="24.5"/>
		<rect x="1763.4" y="1100.8" class="st2" width="57.1" height="40.8"/>
		<polygon class="st2" points="1763.4,1092.7 1820.5,1092.7 1820.5,1084.5 1812.3,1084.5 1812.3,1076.4 1771.6,1076.4 
			1771.6,1084.5 1763.4,1084.5 		"/>
		<rect x="1763.4" y="1141.6" class="st3" width="57.1" height="8.2"/>
		<rect x="1755.2" y="1149.8" class="st5" width="73.4" height="8.2"/>
		<polygon class="st0" points="1755.2,1092.7 1828.6,1092.7 1828.6,1149.8 1820.5,1149.8 1820.5,1100.8 1763.4,1100.8 
			1763.4,1149.8 1755.2,1149.8 		"/>
		<polygon class="st2" points="1747.1,1060.1 1845,1060.1 1845,1068.2 1738.9,1068.2 1738.9,1060.1 		"/>
		<rect x="1747.1" y="1011.1" class="st2" width="89.7" height="8.2"/>
		<rect x="1763.4" y="921.4" class="st2" width="57.1" height="8.2"/>
		<rect x="1771.6" y="815.4" class="st2" width="40.8" height="8.2"/>
		<polygon class="st1" points="1779.7,742 1779.7,750.1 1787.9,750.1 1787.9,766.5 1796,766.5 1796,750.1 1804.2,750.1 1804.2,742 
			1796,742 1796,733.8 1787.9,733.8 1787.9,742 		"/>
		<polygon class="st2" points="1763.4,1100.8 1747.1,1100.8 1747.1,1157.9 1755.2,1157.9 1755.2,1109 1763.4,1109 		"/>
		<polygon class="st2" points="1820.5,1100.8 1836.8,1100.8 1836.8,1157.9 1828.6,1157.9 1828.6,1109 1820.5,1109 		"/>
		<rect x="1763.4" y="1043.7" class="st5" width="16.3" height="8.2"/>
		<rect x="1787.9" y="1043.7" class="st5" width="8.2" height="8.2"/>
		<rect x="1804.2" y="1043.7" class="st5" width="16.3" height="8.2"/>
		<polygon class="st5" points="1763.4,1109 1771.6,1109 1771.6,1100.8 1812.3,1100.8 1812.3,1109 1820.5,1109 1820.5,1141.6 
			1763.4,1141.6 		"/>
		<rect x="1771.6" y="962.2" class="st5" width="8.2" height="8.2"/>
		<rect x="1787.9" y="962.2" class="st5" width="8.2" height="8.2"/>
		<rect x="1804.2" y="962.2" class="st5" width="8.2" height="8.2"/>
		<rect x="1787.9" y="888.8" class="st5" width="8.2" height="8.2"/>
		<rect x="1787.9" y="905.1" class="st6" width="8.2" height="8.2"/>
		<rect x="1763.4" y="790.9" class="st5" width="16.3" height="8.2"/>
		<rect x="1787.9" y="790.9" class="st5" width="8.2" height="8.2"/>
		<rect x="1804.2" y="790.9" class="st5" width="16.3" height="8.2"/>
		<rect x="1796" y="701.2" class="st5" width="8.2" height="8.2"/>
		<rect x="1804.2" y="709.4" class="st5" width="8.2" height="8.2"/>
		<rect x="1812.3" y="717.5" class="st5" width="8.2" height="8.2"/>
		<rect x="1820.5" y="725.7" class="st5" width="8.2" height="8.2"/>
		<rect x="1828.6" y="733.8" class="st5" width="8.2" height="8.2"/>
		<rect x="1836.8" y="742" class="st5" width="8.2" height="8.2"/>
		<polygon class="st0" points="1690,1068.2 1551.4,1068.2 1551.4,1076.4 1543.2,1076.4 1543.2,1084.5 1535,1084.5 1535,1092.7 
			1526.9,1092.7 1526.9,1157.9 1690,1157.9 		"/>
		<polygon class="st3" points="1649.2,1133.5 1649.2,1109 1657.4,1109 1657.4,1100.8 1673.7,1100.8 1673.7,1109 1681.8,1109 
			1681.8,1133.5 1681.8,1149.8 1649.2,1149.8 		"/>
		<rect x="1657.4" y="1100.8" class="st2" width="16.3" height="8.2"/>
		<rect x="1673.7" y="1109" class="st2" width="8.2" height="40.8"/>
		<rect x="1641.1" y="1149.8" class="st3" width="48.9" height="8.2"/>
		<polygon class="st3" points="1600.3,1133.5 1600.3,1109 1608.4,1109 1608.4,1100.8 1624.8,1100.8 1624.8,1109 1632.9,1109 
			1632.9,1133.5 1632.9,1149.8 1600.3,1149.8 		"/>
		<rect x="1608.4" y="1100.8" class="st2" width="16.3" height="8.2"/>
		<rect x="1624.8" y="1109" class="st2" width="8.2" height="40.8"/>
		<rect x="1592.1" y="1149.8" class="st3" width="48.9" height="8.2"/>
		<polygon class="st3" points="1551.4,1133.5 1551.4,1109 1559.5,1109 1559.5,1100.8 1575.8,1100.8 1575.8,1109 1584,1109 
			1584,1133.5 1584,1149.8 1551.4,1149.8 		"/>
		<rect x="1559.5" y="1100.8" class="st2" width="16.3" height="8.2"/>
		<rect x="1575.8" y="1109" class="st2" width="8.2" height="40.8"/>
		<rect x="1543.2" y="1149.8" class="st3" width="48.9" height="8.2"/>
		<rect x="1551.4" y="1084.5" class="st3" width="187.6" height="8.2"/>
		<rect x="1559.5" y="1076.4" class="st3" width="187.6" height="8.2"/>
		<rect x="1575.8" y="1076.4" class="st2" width="130.5" height="8.2"/>
		<rect x="1567.7" y="1068.2" class="st2" width="171.3" height="8.2"/>
		<rect x="1714.5" y="1060.1" class="st3" width="24.5" height="24.5"/>
		<rect x="1584" y="1068.2" class="st5" width="114.2" height="8.2"/>
		<rect x="1535" y="1100.8" class="st4" width="8.2" height="8.2"/>
		<rect x="1535" y="1117.1" class="st4" width="8.2" height="8.2"/>
		<rect x="1535" y="1133.5" class="st5" width="8.2" height="8.2"/>
		<rect x="1535" y="1149.8" class="st5" width="8.2" height="8.2"/>
		<polygon class="st3" points="1584,1068.2 1584,1060.1 1567.7,1060.1 1559.5,1060.1 1559.5,1068.2 		"/>
		<rect x="1567.7" y="1051.9" class="st3" width="8.2" height="8.2"/>
	</g>
</g>
<g id="arbres">
</g>
<g id="Calque_6">
	<rect x="-111.5" y="2676.4" class="st8" width="2320.4" height="310.7"/>
</g>
<g id="bandeaumerci">
	<g>
		<rect x="405.5" y="3058.3" class="st1" width="93.3" height="132.3"/>
		<rect x="420.9" y="3073.9" class="st6" width="15.6" height="31.1"/>
		<rect x="436.6" y="3073.9" class="st9" width="15.6" height="31.1"/>
		<rect x="467.7" y="3073.9" class="st9" width="15.6" height="31.1"/>
		<rect x="389.8" y="3073.9" class="st6" width="15.5" height="31.1"/>
		<rect x="452.2" y="3073.9" class="st6" width="15.6" height="31.1"/>
		<rect x="483.3" y="3073.9" class="st6" width="15.6" height="31.1"/>
		<rect x="498.8" y="3073.9" class="st9" width="15.6" height="31.1"/>
		<rect x="405.5" y="3073.9" class="st9" width="15.6" height="31.1"/>
		<rect x="420.9" y="3105" width="15.6" height="15.6"/>
		<rect x="467.7" y="3105" width="15.6" height="15.6"/>
		<g id="corps">
			<polygon class="st10" points="389.8,3136.1 452.2,3136.1 452.2,3167.2 436.6,3167.2 436.6,3182.9 452.2,3182.9 452.2,3213.9 
				467.7,3213.9 467.7,3182.9 483.3,3182.9 483.3,3167.2 467.7,3167.2 467.7,3136.1 514.4,3136.1 514.4,3245 374.4,3245 
				374.4,3213.9 389.8,3213.9 389.8,3182.9 405.5,3182.9 405.5,3151.8 389.8,3151.8 			"/>
			<rect x="374.4" y="3245" class="st7" width="140" height="15.6"/>
			<polygon class="st6" points="452.2,3151.8 467.7,3151.8 467.7,3167.2 483.3,3167.2 483.3,3182.9 467.7,3182.9 467.7,3213.9 
				452.2,3213.9 452.2,3182.9 436.6,3182.9 436.6,3167.2 452.2,3167.2 			"/>
		</g>
	</g>
	<g>
		<rect x="192.5" y="3058.3" class="st1" width="93.3" height="124.5"/>
		<rect x="208" y="3073.9" class="st6" width="15.6" height="31.1"/>
		<rect x="223.6" y="3073.9" class="st9" width="15.6" height="31.1"/>
		<rect x="254.7" y="3073.9" class="st9" width="15.6" height="31.1"/>
		<rect x="176.9" y="3073.9" class="st6" width="15.5" height="31.1"/>
		<rect x="239.2" y="3073.9" class="st6" width="15.6" height="31.1"/>
		<rect x="270.3" y="3073.9" class="st6" width="15.6" height="31.1"/>
		<rect x="285.8" y="3073.9" class="st9" width="15.6" height="31.1"/>
		<rect x="192.5" y="3073.9" class="st9" width="15.6" height="31.1"/>
		<rect x="208" y="3105" width="15.6" height="15.6"/>
		<rect x="254.7" y="3105" width="15.6" height="15.6"/>
		<polygon class="st3" points="176.9,3136.1 239.2,3136.1 239.2,3167.2 223.6,3167.2 223.6,3182.9 239.2,3182.9 239.2,3213.9 
			254.7,3213.9 254.7,3182.9 270.3,3182.9 270.3,3167.2 254.7,3167.2 254.7,3136.1 301.4,3136.1 301.4,3245 161.4,3245 
			161.4,3213.9 176.9,3213.9 176.9,3182.9 192.5,3182.9 192.5,3151.8 176.9,3151.8 		"/>
		<rect x="161.4" y="3245" class="st2" width="140" height="15.6"/>
		<polygon class="st6" points="239.2,3151.8 254.7,3151.8 254.7,3167.2 270.3,3167.2 270.3,3182.9 254.7,3182.9 254.7,3213.9 
			239.2,3213.9 239.2,3182.9 223.6,3182.9 223.6,3167.2 239.2,3167.2 		"/>
	</g>
	<g>
		<rect x="625.4" y="3058.3" class="st1" width="93.3" height="161.9"/>
		<rect x="640.8" y="3073.9" class="st6" width="15.6" height="31.1"/>
		<rect x="656.5" y="3073.9" class="st9" width="15.6" height="31.1"/>
		<rect x="687.6" y="3073.9" class="st9" width="15.6" height="31.1"/>
		<rect x="609.8" y="3073.9" class="st6" width="15.5" height="31.1"/>
		<rect x="672.1" y="3073.9" class="st6" width="15.6" height="31.1"/>
		<rect x="703.2" y="3073.9" class="st6" width="15.6" height="31.1"/>
		<rect x="718.7" y="3073.9" class="st9" width="15.6" height="31.1"/>
		<rect x="625.4" y="3073.9" class="st9" width="15.6" height="31.1"/>
		<rect x="640.8" y="3105" width="15.6" height="15.6"/>
		<rect x="687.6" y="3105" width="15.6" height="15.6"/>
		<g id="corps_1_">
			<polygon class="st2" points="609.8,3136.1 672.1,3136.1 672.1,3167.2 656.5,3167.2 656.5,3182.9 672.1,3182.9 672.1,3213.9 
				687.6,3213.9 687.6,3182.9 703.2,3182.9 703.2,3167.2 687.6,3167.2 687.6,3136.1 734.3,3136.1 734.3,3245 594.3,3245 
				594.3,3213.9 609.8,3213.9 609.8,3182.9 625.4,3182.9 625.4,3151.8 609.8,3151.8 			"/>
			<rect x="594.3" y="3245" class="st3" width="140" height="15.6"/>
			<polygon class="st6" points="672.1,3151.8 687.6,3151.8 687.6,3167.2 703.2,3167.2 703.2,3182.9 687.6,3182.9 687.6,3213.9 
				672.1,3213.9 672.1,3182.9 656.5,3182.9 656.5,3167.2 672.1,3167.2 			"/>
		</g>
	</g>
	<g>
		<rect x="1563.9" y="3058.3" class="st1" width="93.3" height="132.3"/>
		<rect x="1626.1" y="3073.9" class="st6" width="15.6" height="31.1"/>
		<rect x="1610.5" y="3073.9" class="st9" width="15.6" height="31.1"/>
		<rect x="1579.4" y="3073.9" class="st9" width="15.6" height="31.1"/>
		<rect x="1657.4" y="3073.9" class="st6" width="15.5" height="31.1"/>
		<rect x="1594.8" y="3073.9" class="st6" width="15.6" height="31.1"/>
		<rect x="1563.7" y="3073.9" class="st6" width="15.6" height="31.1"/>
		<rect x="1548.3" y="3073.9" class="st9" width="15.6" height="31.1"/>
		<rect x="1641.6" y="3073.9" class="st9" width="15.6" height="31.1"/>
		<rect x="1626.1" y="3105" width="15.6" height="15.6"/>
		<rect x="1579.4" y="3105" width="15.6" height="15.6"/>
		<g id="corps_3_">
			<polygon class="st10" points="1672.8,3136.1 1610.5,3136.1 1610.5,3167.2 1626.1,3167.2 1626.1,3182.9 1610.5,3182.9 
				1610.5,3213.9 1595,3213.9 1595,3182.9 1579.4,3182.9 1579.4,3167.2 1595,3167.2 1595,3136.1 1548.3,3136.1 1548.3,3245 
				1688.3,3245 1688.3,3213.9 1672.8,3213.9 1672.8,3182.9 1657.2,3182.9 1657.2,3151.8 1672.8,3151.8 			"/>
			<rect x="1548.3" y="3245" class="st7" width="140" height="15.6"/>
			<polygon class="st6" points="1610.5,3151.8 1595,3151.8 1595,3167.2 1579.4,3167.2 1579.4,3182.9 1595,3182.9 1595,3213.9 
				1610.5,3213.9 1610.5,3182.9 1626.1,3182.9 1626.1,3167.2 1610.5,3167.2 			"/>
		</g>
	</g>
	<g>
		<rect x="1776.9" y="3058.3" class="st1" width="93.3" height="124.5"/>
		<rect x="1839.1" y="3073.9" class="st6" width="15.6" height="31.1"/>
		<rect x="1823.4" y="3073.9" class="st9" width="15.6" height="31.1"/>
		<rect x="1792.4" y="3073.9" class="st9" width="15.6" height="31.1"/>
		<rect x="1870.3" y="3073.9" class="st6" width="15.5" height="31.1"/>
		<rect x="1807.8" y="3073.9" class="st6" width="15.6" height="31.1"/>
		<rect x="1776.7" y="3073.9" class="st6" width="15.6" height="31.1"/>
		<rect x="1761.3" y="3073.9" class="st9" width="15.6" height="31.1"/>
		<rect x="1854.5" y="3073.9" class="st9" width="15.6" height="31.1"/>
		<rect x="1839.1" y="3105" width="15.6" height="15.6"/>
		<rect x="1792.4" y="3105" width="15.6" height="15.6"/>
		<polygon class="st3" points="1885.8,3136.1 1823.4,3136.1 1823.4,3167.2 1839.1,3167.2 1839.1,3182.9 1823.4,3182.9 
			1823.4,3213.9 1808,3213.9 1808,3182.9 1792.4,3182.9 1792.4,3167.2 1808,3167.2 1808,3136.1 1761.3,3136.1 1761.3,3245 
			1901.3,3245 1901.3,3213.9 1885.8,3213.9 1885.8,3182.9 1870.2,3182.9 1870.2,3151.8 1885.8,3151.8 		"/>
		<rect x="1761.3" y="3245" class="st2" width="140" height="15.6"/>
		<polygon class="st6" points="1823.4,3151.8 1808,3151.8 1808,3167.2 1792.4,3167.2 1792.4,3182.9 1808,3182.9 1808,3213.9 
			1823.4,3213.9 1823.4,3182.9 1839.1,3182.9 1839.1,3167.2 1823.4,3167.2 		"/>
	</g>
	<g>
		<rect x="1344" y="3058.3" class="st1" width="93.3" height="161.9"/>
		<rect x="1406.2" y="3073.9" class="st6" width="15.6" height="31.1"/>
		<rect x="1390.6" y="3073.9" class="st9" width="15.6" height="31.1"/>
		<rect x="1359.5" y="3073.9" class="st9" width="15.6" height="31.1"/>
		<rect x="1437.5" y="3073.9" class="st6" width="15.5" height="31.1"/>
		<rect x="1374.9" y="3073.9" class="st6" width="15.6" height="31.1"/>
		<rect x="1343.8" y="3073.9" class="st6" width="15.6" height="31.1"/>
		<rect x="1328.4" y="3073.9" class="st9" width="15.6" height="31.1"/>
		<rect x="1421.6" y="3073.9" class="st9" width="15.6" height="31.1"/>
		<rect x="1406.2" y="3105" width="15.6" height="15.6"/>
		<rect x="1359.5" y="3105" width="15.6" height="15.6"/>
		<g id="corps_2_">
			<polygon class="st2" points="1452.9,3136.1 1390.6,3136.1 1390.6,3167.2 1406.2,3167.2 1406.2,3182.9 1390.6,3182.9 
				1390.6,3213.9 1375.1,3213.9 1375.1,3182.9 1359.5,3182.9 1359.5,3167.2 1375.1,3167.2 1375.1,3136.1 1328.4,3136.1 1328.4,3245 
				1468.4,3245 1468.4,3213.9 1452.9,3213.9 1452.9,3182.9 1437.3,3182.9 1437.3,3151.8 1452.9,3151.8 			"/>
			<rect x="1328.4" y="3245" class="st3" width="140" height="15.6"/>
			<polygon class="st6" points="1390.6,3151.8 1375.1,3151.8 1375.1,3167.2 1359.5,3167.2 1359.5,3182.9 1375.1,3182.9 
				1375.1,3213.9 1390.6,3213.9 1390.6,3182.9 1406.2,3182.9 1406.2,3167.2 1390.6,3167.2 			"/>
		</g>
	</g>
</g>
<g id="merci">
	<g>
		<path class="st0" d="M823.3,2798.3h-16.5v66h8.2v8.2h8.2v8.2H815v8.2h-8.2v8.2h-8.2v-8.2h-8.2v-8.2h-8.2v-24.8v-8.2v-41.2v-8.2
			H774v-8.2h8.2v-16.5h8.2v-8.2h8.2v-8.2h8.2v24.8h16.5V2798.3z"/>
		<path class="st0" d="M881.1,2880.8h-8.2v8.2h-8.2v8.2h-8.2v-8.2H840v-8.2h-8.2v-8.2h8.2v-8.2v-16.5v-41.2v-49.5h-8.2v-8.2h8.2v8.2
			h8.2v-8.2h8.2v-8.2h16.5v8.2h-8.2v49.5h8.2v8.2h-8.2v57.7h8.2v8.2h8.2V2880.8z M914.1,2864.3h-8.2v24.7h-8.2v16.5h-8.2v8.2h-8.2
			v8.2h-8.2v-16.5h8.2v-8.2v-8.2h8.2v-8.2v-16.5v-8.2v-16.5v-24.7h-8.2v-8.2v-8.2h-8.2v-8.2h8.2v-8.2h8.2h8.2v8.2h8.2v16.5h8.2
			V2864.3z"/>
		<path class="st0" d="M996.6,2880.8h-8.2v8.2h-8.2v8.2H972v-8.2h-8.2v-8.2h-8.2v8.2h-8.2v8.2h-8.2v-8.2H931v-8.2h-8.2V2856v-16.5
			V2823h8.2v-8.2h8.2v-8.2h8.2v57.7h8.2v8.2h8.2V2856v-8.2v-8.2v-8.2v-16.5h-8.2v-8.2h-8.2v-8.2h8.2v-8.2h8.2v-8.2h8.2v8.2h8.2v8.2
			h16.5v8.2h-8.2v66h8.2L996.6,2880.8L996.6,2880.8z"/>
		<path class="st0" d="M1046.1,2814.8v57.7h8.2v8.2h-8.2v8.2h-8.2v8.2h-8.2v-8.2h-8.2v-8.2h-8.2v-8.2h8.2v-57.7h-8.2v-8.2h-8.2v-8.2
			h8.2v-8.2h8.2v-8.2h8.2v8.2h8.2v8.2h8.2v8.2h8.2v8.2L1046.1,2814.8L1046.1,2814.8z M1087.3,2814.8v57.7h8.2v8.2h-8.2v8.2h-8.2v8.2
			h-8.2v-8.2h-8.2v-24.7v-8.2v-8.2v-41.2h-8.2v-16.5h8.2v-8.2h8.2v8.2h8.2v8.2h8.2v8.2h8.2v8.2L1087.3,2814.8L1087.3,2814.8z"/>
		<path class="st0" d="M1153.3,2880.8h-8.2v8.2h-8.2v8.2h-8.2v-8.2h-16.5v-24.7v-24.7v-49.5v-33h-8.2v-8.2h8.2v8.2h8.2v-8.2h8.2
			v-8.2h24.7v8.2h-16.5v8.2h8.2h16.5v16.5h-8.2v8.2h-8.2v-16.5h-8.2v16.5h8.2v8.2h16.5v16.5h-24.7v57.7h8.2v8.2h8.2V2880.8z
			 M1112.1,2880.8h-8.2v-8.2h8.2V2880.8z M1161.6,2872.6h-8.2v-8.2h8.2V2872.6z"/>
		<path class="st0" d="M1235.8,2765.3v24.7h-8.2v8.2h-8.2v8.2h8.2v8.2h8.2v16.5h8.2v24.7h-8.2v16.5h-8.2v8.2h-8.2v-8.2v-16.5v-16.5
			h-8.2v-8.2h-16.5v8.2h-8.2v-8.2h-8.2v-8.2h-8.2v-16.5h8.2v-8.2h8.2v-8.2h8.2v-8.2h8.2v-8.2h8.2v8.2h16.5v-8.2h-8.2v-8.2h-24.7
			v-8.2h8.2h8.2h8.2h8.2v8.2L1235.8,2765.3L1235.8,2765.3z M1219.3,2880.8v8.2h-8.2v8.2h-8.2v-8.2h-16.5v-8.2h-8.2v-8.2h-8.2v-24.8
			h8.2v-8.2h8.2v16.5h8.2h8.2v8.2h8.2v16.5L1219.3,2880.8L1219.3,2880.8z M1186.3,2773.6v-8.2h8.2v8.2H1186.3z M1211.1,2823.1v-8.2
			h8.2v-8.2h-16.5v-8.2h-8.2v8.2h8.2v16.5h8.3V2823.1z"/>
		<path class="st0" d="M1326.6,2765.3v8.2h8.2v74.2h-8.2v8.2h-8.2v-33h-8.2v-16.5v-24.7v-16.5h8.2h8.2V2765.3z M1334.8,2872.6v16.5
			h-8.2v8.2h-8.2v-8.2h-8.2v-8.2v-8.2h8.2v-8.2h8.2v8.2L1334.8,2872.6L1334.8,2872.6z"/>
	</g>
</g>
<g id="croquis">
	<g>
		<g>
			<defs>
				<circle id="SVGID_1_" cx="362.6" cy="1757.7" r="187.1"/>
			</defs>
			<clipPath id="SVGID_2_">
				<use xlink:href="#SVGID_1_"  style="overflow:visible;"/>
			</clipPath>
			<g class="st11">
				<g>
					<g>
						<defs>
							<rect id="SVGID_3_" x="57.8" y="1516.1" width="1487.2" height="1051.2"/>
						</defs>
						<clipPath id="SVGID_4_">
							<use xlink:href="#SVGID_3_"  style="overflow:visible;"/>
						</clipPath>
						<g class="st12">
							<g>
								<defs>
									<rect id="SVGID_5_" x="57.8" y="1516.1" width="1487.2" height="1051.2"/>
								</defs>
								<clipPath id="SVGID_6_">
									<use xlink:href="#SVGID_5_"  style="overflow:visible;"/>
								</clipPath>
								<g class="st13">
								</g>
							</g>
						</g>
					</g>
					<g>
						<defs>
							<rect id="SVGID_7_" x="57.8" y="1516.1" width="1487.2" height="1051.2"/>
						</defs>
						<clipPath id="SVGID_8_">
							<use xlink:href="#SVGID_7_"  style="overflow:visible;"/>
						</clipPath>
						<g class="st14">
							<g>
								<defs>
									<rect id="SVGID_9_" x="623.9" y="1573.1" width="844.3" height="934.3"/>
								</defs>
								<clipPath id="SVGID_10_">
									<use xlink:href="#SVGID_9_"  style="overflow:visible;"/>
								</clipPath>
								<g class="st15">
								</g>
							</g>
						</g>
					</g>
					<g>
						<defs>
							<rect id="SVGID_11_" x="57.8" y="1516.1" width="1487.2" height="1051.2"/>
						</defs>
						<clipPath id="SVGID_12_">
							<use xlink:href="#SVGID_11_"  style="overflow:visible;"/>
						</clipPath>
						<g class="st16">
							<g>
								<defs>
									<rect id="SVGID_13_" x="357.6" y="1539.5" width="1141.8" height="845.5"/>
								</defs>
								<clipPath id="SVGID_14_">
									<use xlink:href="#SVGID_13_"  style="overflow:visible;"/>
								</clipPath>
								<g class="st17">
								</g>
							</g>
						</g>
					</g>
					<g>
						<defs>
							<rect id="SVGID_15_" x="57.8" y="1516.1" width="1487.2" height="1051.2"/>
						</defs>
						<clipPath id="SVGID_16_">
							<use xlink:href="#SVGID_15_"  style="overflow:visible;"/>
						</clipPath>
						<g class="st18">
							<g>
								<defs>
									<rect id="SVGID_17_" x="434.4" y="1675.1" width="1024.3" height="696.8"/>
								</defs>
								<clipPath id="SVGID_18_">
									<use xlink:href="#SVGID_17_"  style="overflow:visible;"/>
								</clipPath>
								<g class="st19">
								</g>
							</g>
						</g>
					</g>
				</g>
			</g>
		</g>
	</g>
	<g>
		<g>
			<defs>
				<circle id="SVGID_19_" cx="811.8" cy="1757.7" r="187.1"/>
			</defs>
			<clipPath id="SVGID_20_">
				<use xlink:href="#SVGID_19_"  style="overflow:visible;"/>
			</clipPath>
			<g class="st20">
				<g>
					<g>
						<defs>
							<rect id="SVGID_21_" x="304.5" y="-526.3" width="1940.3" height="2744.9"/>
						</defs>
						<clipPath id="SVGID_22_">
							<use xlink:href="#SVGID_21_"  style="overflow:visible;"/>
						</clipPath>
						<g class="st21">
							<g>
								<defs>
									<rect id="SVGID_23_" x="304.5" y="-526.3" width="1940.3" height="2744.9"/>
								</defs>
								<clipPath id="SVGID_24_">
									<use xlink:href="#SVGID_23_"  style="overflow:visible;"/>
								</clipPath>
								<g class="st22">
								</g>
							</g>
						</g>
					</g>
					<g>
						<defs>
							<rect id="SVGID_25_" x="304.5" y="-526.3" width="1940.3" height="2744.9"/>
						</defs>
						<clipPath id="SVGID_26_">
							<use xlink:href="#SVGID_25_"  style="overflow:visible;"/>
						</clipPath>
						<g class="st23">
							<g>
								<defs>
									<rect id="SVGID_27_" x="777.1" y="-172.1" width="896.5" height="2266.8"/>
								</defs>
								<clipPath id="SVGID_28_">
									<use xlink:href="#SVGID_27_"  style="overflow:visible;"/>
								</clipPath>
								<g transform="matrix(1 0 0 1 1.220703e-04 0)" class="st24">
								</g>
							</g>
						</g>
					</g>
					<g>
						<defs>
							<rect id="SVGID_29_" x="304.5" y="-526.3" width="1940.3" height="2744.9"/>
						</defs>
						<clipPath id="SVGID_30_">
							<use xlink:href="#SVGID_29_"  style="overflow:visible;"/>
						</clipPath>
						<g class="st25">
							<g>
								<defs>
									<rect id="SVGID_31_" x="715.1" y="-428.8" width="1022.7" height="2284.5"/>
								</defs>
								<clipPath id="SVGID_32_">
									<use xlink:href="#SVGID_31_"  style="overflow:visible;"/>
								</clipPath>
								<g class="st26">
								</g>
							</g>
						</g>
					</g>
					<g>
						<defs>
							<rect id="SVGID_33_" x="304.5" y="-526.3" width="1940.3" height="2744.9"/>
						</defs>
						<clipPath id="SVGID_34_">
							<use xlink:href="#SVGID_33_"  style="overflow:visible;"/>
						</clipPath>
						<g class="st27">
							<g>
								<defs>
									<rect id="SVGID_35_" x="887.8" y="27.2" width="703.9" height="1753.2"/>
								</defs>
								<clipPath id="SVGID_36_">
									<use xlink:href="#SVGID_35_"  style="overflow:visible;"/>
								</clipPath>
								<g transform="matrix(1 0 0 1 -1.220703e-04 3.814697e-06)" class="st28">
								</g>
							</g>
						</g>
					</g>
					<g>
						<defs>
							<rect id="SVGID_37_" x="304.5" y="-526.3" width="1940.3" height="2744.9"/>
						</defs>
						<clipPath id="SVGID_38_">
							<use xlink:href="#SVGID_37_"  style="overflow:visible;"/>
						</clipPath>
						<g class="st29">
							<g>
								<defs>
									<rect id="SVGID_39_" x="615.5" y="372.5" width="243.5" height="278.9"/>
								</defs>
								<clipPath id="SVGID_40_">
									<use xlink:href="#SVGID_39_"  style="overflow:visible;"/>
								</clipPath>
								<g class="st30">
								</g>
							</g>
						</g>
					</g>
				</g>
			</g>
		</g>
	</g>
	<g>
		<g>
			<defs>
				<circle id="SVGID_41_" cx="1261.1" cy="1757.7" r="187.1"/>
			</defs>
			<clipPath id="SVGID_42_">
				<use xlink:href="#SVGID_41_"  style="overflow:visible;"/>
			</clipPath>
			<g class="st31">
				<g>
					<g>
						<defs>
							<rect id="SVGID_43_" x="516.3" y="-503.6" width="1940.3" height="2744.9"/>
						</defs>
						<clipPath id="SVGID_44_">
							<use xlink:href="#SVGID_43_"  style="overflow:visible;"/>
						</clipPath>
						<g class="st32">
							<g>
								<defs>
									<rect id="SVGID_45_" x="516.3" y="-503.6" width="1940.3" height="2744.9"/>
								</defs>
								<clipPath id="SVGID_46_">
									<use xlink:href="#SVGID_45_"  style="overflow:visible;"/>
								</clipPath>
								<g class="st33">
								</g>
							</g>
						</g>
					</g>
					<g>
						<defs>
							<rect id="SVGID_47_" x="516.3" y="-503.6" width="1940.3" height="2744.9"/>
						</defs>
						<clipPath id="SVGID_48_">
							<use xlink:href="#SVGID_47_"  style="overflow:visible;"/>
						</clipPath>
						<g class="st34">
							<g>
								<defs>
									<rect id="SVGID_49_" x="988.9" y="-149.4" width="896.5" height="2266.8"/>
								</defs>
								<clipPath id="SVGID_50_">
									<use xlink:href="#SVGID_49_"  style="overflow:visible;"/>
								</clipPath>
								<g class="st35">
								</g>
							</g>
						</g>
					</g>
					<g>
						<defs>
							<rect id="SVGID_51_" x="516.3" y="-503.6" width="1940.3" height="2744.9"/>
						</defs>
						<clipPath id="SVGID_52_">
							<use xlink:href="#SVGID_51_"  style="overflow:visible;"/>
						</clipPath>
						<g class="st36">
							<g>
								<defs>
									<rect id="SVGID_53_" x="926.9" y="-406.2" width="1022.7" height="2284.5"/>
								</defs>
								<clipPath id="SVGID_54_">
									<use xlink:href="#SVGID_53_"  style="overflow:visible;"/>
								</clipPath>
								<g transform="matrix(1 0 0 1 1.220703e-04 0)" class="st37">
								</g>
							</g>
						</g>
					</g>
					<g>
						<defs>
							<rect id="SVGID_55_" x="516.3" y="-503.6" width="1940.3" height="2744.9"/>
						</defs>
						<clipPath id="SVGID_56_">
							<use xlink:href="#SVGID_55_"  style="overflow:visible;"/>
						</clipPath>
						<g class="st38">
							<g>
								<defs>
									<rect id="SVGID_57_" x="1099.6" y="49.8" width="703.9" height="1753.2"/>
								</defs>
								<clipPath id="SVGID_58_">
									<use xlink:href="#SVGID_57_"  style="overflow:visible;"/>
								</clipPath>
								<g class="st39">
								</g>
							</g>
						</g>
					</g>
					<g>
						<defs>
							<rect id="SVGID_59_" x="516.3" y="-503.6" width="1940.3" height="2744.9"/>
						</defs>
						<clipPath id="SVGID_60_">
							<use xlink:href="#SVGID_59_"  style="overflow:visible;"/>
						</clipPath>
						<g class="st40">
							<g>
								<defs>
									<rect id="SVGID_61_" x="827.3" y="395.2" width="243.5" height="278.9"/>
								</defs>
								<clipPath id="SVGID_62_">
									<use xlink:href="#SVGID_61_"  style="overflow:visible;"/>
								</clipPath>
								<g class="st41">
								</g>
							</g>
						</g>
					</g>
				</g>
			</g>
		</g>
	</g>
	<g>
		<g>
			<defs>
				<circle id="SVGID_63_" cx="1710.4" cy="1757.7" r="187.1"/>
			</defs>
			<clipPath id="SVGID_64_">
				<use xlink:href="#SVGID_63_"  style="overflow:visible;"/>
			</clipPath>
			<g class="st42">
				<g>
					<g>
						<defs>
							<rect id="SVGID_65_" x="740.2" y="-503.6" width="1940.3" height="2744.9"/>
						</defs>
						<clipPath id="SVGID_66_">
							<use xlink:href="#SVGID_65_"  style="overflow:visible;"/>
						</clipPath>
						<g class="st43">
							<g>
								<defs>
									<rect id="SVGID_67_" x="740.2" y="-503.6" width="1940.3" height="2744.9"/>
								</defs>
								<clipPath id="SVGID_68_">
									<use xlink:href="#SVGID_67_"  style="overflow:visible;"/>
								</clipPath>
								<g class="st44">
								</g>
							</g>
						</g>
					</g>
					<g>
						<defs>
							<rect id="SVGID_69_" x="740.2" y="-503.6" width="1940.3" height="2744.9"/>
						</defs>
						<clipPath id="SVGID_70_">
							<use xlink:href="#SVGID_69_"  style="overflow:visible;"/>
						</clipPath>
						<g class="st45">
							<g>
								<defs>
									<rect id="SVGID_71_" x="1212.9" y="-149.4" width="896.5" height="2266.8"/>
								</defs>
								<clipPath id="SVGID_72_">
									<use xlink:href="#SVGID_71_"  style="overflow:visible;"/>
								</clipPath>
								<g class="st46">
								</g>
							</g>
						</g>
					</g>
					<g>
						<defs>
							<rect id="SVGID_73_" x="740.2" y="-503.6" width="1940.3" height="2744.9"/>
						</defs>
						<clipPath id="SVGID_74_">
							<use xlink:href="#SVGID_73_"  style="overflow:visible;"/>
						</clipPath>
						<g class="st47">
							<g>
								<defs>
									<rect id="SVGID_75_" x="1150.9" y="-406.2" width="1022.7" height="2284.5"/>
								</defs>
								<clipPath id="SVGID_76_">
									<use xlink:href="#SVGID_75_"  style="overflow:visible;"/>
								</clipPath>
								<g class="st48">
								</g>
							</g>
						</g>
					</g>
					<g>
						<defs>
							<rect id="SVGID_77_" x="740.2" y="-503.6" width="1940.3" height="2744.9"/>
						</defs>
						<clipPath id="SVGID_78_">
							<use xlink:href="#SVGID_77_"  style="overflow:visible;"/>
						</clipPath>
						<g class="st49">
							<g>
								<defs>
									<rect id="SVGID_79_" x="1323.5" y="49.8" width="703.9" height="1753.2"/>
								</defs>
								<clipPath id="SVGID_80_">
									<use xlink:href="#SVGID_79_"  style="overflow:visible;"/>
								</clipPath>
								<g class="st50">
								</g>
							</g>
						</g>
					</g>
					<g>
						<defs>
							<rect id="SVGID_81_" x="740.2" y="-503.6" width="1940.3" height="2744.9"/>
						</defs>
						<clipPath id="SVGID_82_">
							<use xlink:href="#SVGID_81_"  style="overflow:visible;"/>
						</clipPath>
						<g class="st51">
							<g>
								<defs>
									<rect id="SVGID_83_" x="1051.3" y="395.2" width="243.5" height="278.9"/>
								</defs>
								<clipPath id="SVGID_84_">
									<use xlink:href="#SVGID_83_"  style="overflow:visible;"/>
								</clipPath>
								<g class="st52">
								</g>
							</g>
						</g>
					</g>
				</g>
			</g>
		</g>
	</g>
</g>
<g id="croquismoines">
	<g>
		<path class="st10" d="M218.3,1409.5h-5.7v39.9h5.7v5.7h-5.7v5.7h-5.7v5.7h-5.7v-5.7h-5.7v-5.7h-5.7v-5.7h5.7v-17.1v-5.7v-17.1
			h-5.7v-5.7h-5.7v-5.7h5.7v-5.7h5.7v-5.7h5.7v5.7h5.7v5.7h5.7v5.7h5.7V1409.5z M246.8,1409.5h-5.7v39.9h5.7v5.7h-5.7v5.7h-5.7v5.7
			h-5.7v-5.7H224v-11.4v-5.7v-17.1v-5.7v-11.4v-5.7h-5.7v-11.4h5.7v-5.7h5.7v5.7h5.7v5.7h5.7v5.7h5.7L246.8,1409.5L246.8,1409.5z
			 M275.3,1409.5h-5.7v39.9h5.7v5.7h-5.7v5.7h-5.7v5.7h-5.7v-5.7h-5.7v-11.4v-5.7v-5.7v-22.8v-11.4h-5.7v-5.7v-5.7h5.7v-5.7h5.7v5.7
			h5.7v5.7h5.7v5.7h5.7V1409.5z"/>
		<path class="st10" d="M298.1,1466.5v-5.7h-11.4v-5.7H281v-5.7h5.7v-5.7v-11.4v-5.7v-17.1h5.7v-5.7h5.7v-5.7h5.7v45.6h5.7v5.7h5.7
			v5.7h-5.7v5.7h-5.7v5.7L298.1,1466.5L298.1,1466.5z M320.9,1443.7v5.7h-5.7v-17.1v-5.7v-17.1v-5.7h-5.7v-5.7h-5.7v-5.7h5.7v-5.7
			h5.7h5.7v5.7h5.7v5.7h5.7v39.9h-5.7v5.7L320.9,1443.7L320.9,1443.7z"/>
		<path class="st10" d="M366.5,1409.5v39.9h5.7v5.7h-5.7v5.7h-5.7v5.7h-5.7v-5.7h-5.7v-5.7h-5.7v-5.7h5.7v-39.9h-5.7v-5.7H338v-5.7
			h5.7v-5.7h5.7v-5.7h5.7v5.7h5.7v5.7h5.7v5.7h5.7v5.7H366.5z M395,1409.5v39.9h5.7v5.7H395v5.7h-5.7v5.7h-5.7v-5.7h-5.7v-17.1v-5.7
			v-5.7v-28.5h-5.7v-11.4h5.7v-5.7h5.7v5.7h5.7v5.7h5.7v5.7h5.7v5.7L395,1409.5L395,1409.5z"/>
		<path class="st10" d="M440.6,1455.1h-5.7v5.7h-5.7v5.7h-5.7v-5.7h-11.4v-17.1v-17.1v-34.2v-22.8h-5.7v-5.7h5.7v5.7h5.7v-5.7h5.7
			v-5.7h17.1v5.7h-11.4v5.7h5.7h11.4v11.4h-5.7v5.7h-5.7v-11.4h-5.7v11.4h5.7v5.7h11.4v11.4h-17.1v39.9h5.7v5.7h5.7V1455.1z
			 M412.1,1455.1h-5.7v-5.7h5.7V1455.1z M446.3,1449.4h-5.7v-5.7h5.7V1449.4z"/>
		<path class="st10" d="M514.7,1375.3v17.1H509v5.7h-5.7v5.7h5.7v5.7h5.7v11.4h5.7v17.1h-5.7v11.4H509v5.7h-5.7v-5.7V1438v-11.4
			h-5.7v-5.7h-11.4v5.7h-5.7v-5.7h-5.7v-5.7h-5.7v-11.4h5.7v-5.7h5.7v-5.7h5.7v-5.7h5.7v-5.7h5.7v5.7H509v-5.7h-5.7v-5.7h-17.1v-5.7
			h5.7h5.7h5.7h5.7v5.7L514.7,1375.3L514.7,1375.3z M503.3,1455.1v5.7h-5.7v5.7h-5.7v-5.7h-11.4v-5.7h-5.7v-5.7h-5.7v-17.1h5.7v-5.7
			h5.7v11.4h5.7h5.7v5.7h5.7v11.4L503.3,1455.1L503.3,1455.1z M480.5,1381v-5.7h5.7v5.7H480.5z M497.6,1415.2v-5.7h5.7v-5.7h-11.4
			v-5.7h-5.7v5.7h5.7v11.4L497.6,1415.2L497.6,1415.2z"/>
		<path class="st10" d="M560.3,1455.1h-5.7v5.7h-5.7v5.7h-5.7v-5.7h-11.4v-17.1v-17.1v-34.2v-22.8h-5.7v-5.7h5.7v5.7h5.7v-5.7h5.7
			v-5.7h17.1v5.7h-11.4v5.7h5.7H566v11.4h-5.7v5.7h-5.7v-11.4h-5.7v11.4h5.7v5.7H566v11.4h-17.1v39.9h5.7v5.7h5.7L560.3,1455.1
			L560.3,1455.1z M531.8,1455.1h-5.7v-5.7h5.7V1455.1z M566,1449.4h-5.7v-5.7h5.7V1449.4z"/>
		<path class="st10" d="M588.8,1466.5v-5.7h-5.7v-5.7h-5.7v-5.7h-5.7v-5.7v-5.7v-5.7v-11.4v-11.4h5.7v-5.7h5.7v-5.7h5.7v22.8h5.7
			v5.7h-5.7v11.4h5.7v5.7h5.7v5.7h5.7v5.7h-5.7v5.7h-5.7v5.7L588.8,1466.5L588.8,1466.5z M600.2,1415.2v-5.7h-5.7v-5.7v-5.7h-5.7
			v-5.7h5.7v-5.7h5.7h5.7v5.7h5.7v11.4h5.7v5.7h-5.7v5.7L600.2,1415.2L600.2,1415.2z M594.5,1420.9v-5.7h5.7v5.7H594.5z"/>
		<path class="st10" d="M657.2,1398.1h-11.4v45.6h5.7v5.7h5.7v5.7h-5.7v5.7h-5.7v5.7h-5.7v-5.7h-5.7v-5.7h-5.7V1438v-5.7v-28.5v-5.7
			H623v-5.7h5.7V1381h5.7v-5.7h5.7v-5.7h5.7v17.1h11.4L657.2,1398.1L657.2,1398.1z"/>
		<path class="st10" d="M680,1466.5v-5.7h-5.7v-5.7h-5.7v-5.7h-5.7v-5.7v-5.7v-5.7v-11.4v-11.4h5.7v-5.7h5.7v-5.7h5.7v39.9h5.7v5.7
			h5.7v5.7h5.7v5.7h-5.7v5.7h-5.7v5.7L680,1466.5L680,1466.5z M680,1398.1v-5.7h5.7v5.7H680z M691.4,1415.2v-5.7h-5.7v-17.1v-5.7
			h11.4v5.7h5.7v5.7h5.7v5.7h-5.7v5.7h-5.7v5.7L691.4,1415.2L691.4,1415.2z M697.1,1449.4v-5.7h5.7v5.7H697.1z"/>
		<path class="st10" d="M748.4,1455.1h-5.7v5.7H737v5.7h-5.7v-5.7h-11.4v-5.7h-5.7v-5.7h5.7v-5.7v-11.4v-28.5v-34.2h-5.7v-5.7h5.7
			v5.7h5.7v-5.7h5.7v-5.7h11.4v5.7H737v34.2h5.7v5.7H737v39.9h5.7v5.7h5.7V1455.1z M771.2,1443.7h-5.7v17.1h-5.7v11.4h-5.7v5.7h-5.7
			v5.7h-5.7v-11.4h5.7v-5.7v-5.7h5.7v-5.7v-11.4v-5.7v-11.4v-17.1h-5.7v-5.7v-5.7h-5.7v-5.7h5.7v-5.7h5.7h5.7v5.7h5.7v11.4h5.7
			V1443.7z"/>
		<path class="st10" d="M794,1466.5v-5.7h-5.7v-5.7h-5.7v-5.7h-5.7v-5.7v-5.7v-5.7v-11.4v-11.4h5.7v-5.7h5.7v-5.7h5.7v22.8h5.7v5.7
			H794v11.4h5.7v5.7h5.7v5.7h5.7v5.7h-5.7v5.7h-5.7v5.7L794,1466.5L794,1466.5z M805.4,1415.2v-5.7h-5.7v-5.7v-5.7H794v-5.7h5.7
			v-5.7h5.7h5.7v5.7h5.7v11.4h5.7v5.7h-5.7v5.7L805.4,1415.2L805.4,1415.2z M799.7,1420.9v-5.7h5.7v5.7H799.7z"/>
		<path class="st10" d="M873.8,1375.3v17.1h-5.7v5.7h-5.7v5.7h5.7v5.7h5.7v11.4h5.7v17.1h-5.7v11.4h-5.7v5.7h-5.7v-5.7V1438v-11.4
			h-5.7v-5.7h-11.4v5.7h-5.7v-5.7h-5.7v-5.7h-5.7v-11.4h5.7v-5.7h5.7v-5.7h5.7v-5.7h5.7v-5.7h5.7v5.7h11.4v-5.7h-5.7v-5.7h-17.1
			v-5.7h5.7h5.7h5.7h5.7v5.7L873.8,1375.3L873.8,1375.3z M862.4,1455.1v5.7h-5.7v5.7H851v-5.7h-11.4v-5.7h-5.7v-5.7h-5.7v-17.1h5.7
			v-5.7h5.7v11.4h5.7h5.7v5.7h5.7v11.4L862.4,1455.1L862.4,1455.1z M839.6,1381v-5.7h5.7v5.7H839.6z M856.7,1415.2v-5.7h5.7v-5.7
			H851v-5.7h-5.7v5.7h5.7v11.4L856.7,1415.2L856.7,1415.2z"/>
	</g>
</g>
<g id="boutons">
	<g>
		<g>
			<polygon class="st53" points="1356.8,2320.1 1339.1,2320.1 1339.1,2337.6 1321.3,2337.5 1321.3,2461.5 1339.1,2461.5 
				1339.1,2479.2 1356.8,2479.1 1357,2496.7 1480.8,2496.7 1480.8,2479.2 1498.5,2479.2 1498.5,2461.5 1516.1,2461.5 1516.1,2337.6 
				1498.5,2337.5 1498.5,2320.1 1480.5,2320.1 1480.5,2302.4 1357,2302.4 			"/>
			<polygon class="st54" points="1374.5,2320.2 1374.5,2337.9 1356.7,2337.9 1356.7,2355.4 1339.1,2355.4 1339.1,2443.7 
				1356.7,2443.7 1356.7,2461.6 1374.5,2461.6 1374.5,2479.3 1463.1,2479.3 1463.1,2461.6 1480.9,2461.6 1480.9,2443.7 
				1498.5,2443.7 1498.5,2355.4 1480.9,2355.4 1480.9,2337.9 1463.1,2337.9 1463.1,2320.2 			"/>
			<polygon class="st55" points="1392.2,2355.5 1392.2,2443.7 1409.9,2443.7 1409.9,2426.3 1427.8,2426.3 1427.8,2408.3 
				1445.4,2408.3 1445.4,2390.7 1427.8,2390.7 1427.8,2373.2 1409.9,2373.2 1409.9,2355.5 			"/>
			<polygon class="st56" points="1409.8,2355.4 1409.8,2443.7 1427.5,2443.7 1427.5,2426.2 1445.5,2426.2 1445.5,2408.3 
				1463.1,2408.3 1463.1,2390.6 1445.5,2390.6 1445.5,2373.1 1427.5,2373.1 1427.5,2355.4 			"/>
		</g>
		<polygon class="st4" points="1632.5,2320.1 1614.8,2320.1 1614.8,2337.6 1597,2337.5 1597,2461.5 1614.8,2461.5 1614.8,2479.2 
			1632.5,2479.1 1632.7,2496.7 1756.5,2496.7 1756.5,2479.2 1774.2,2479.2 1774.2,2461.5 1791.8,2461.5 1791.8,2337.6 
			1774.2,2337.5 1774.2,2320.1 1756.2,2320.1 1756.2,2302.4 1632.7,2302.4 		"/>
		<polygon class="st8" points="1650.2,2320.2 1650.2,2337.9 1632.5,2337.9 1632.5,2355.4 1614.8,2355.4 1614.8,2443.7 
			1632.5,2443.7 1632.5,2461.6 1650.2,2461.6 1650.2,2479.3 1738.8,2479.3 1738.8,2461.6 1756.6,2461.6 1756.6,2443.7 
			1774.2,2443.7 1774.2,2355.4 1756.6,2355.4 1756.6,2337.9 1738.8,2337.9 1738.8,2320.2 		"/>
		<polygon class="st9" points="1667.9,2355.5 1667.9,2443.7 1685.6,2443.7 1685.6,2426.3 1703.6,2426.3 1703.6,2408.3 
			1721.2,2408.3 1721.2,2390.7 1703.6,2390.7 1703.6,2373.2 1685.6,2373.2 1685.6,2355.5 		"/>
		<polygon class="st1" points="1685.6,2355.4 1685.6,2443.7 1703.2,2443.7 1703.2,2426.2 1721.2,2426.2 1721.2,2408.3 
			1738.8,2408.3 1738.8,2390.6 1721.2,2390.6 1721.2,2373.1 1703.2,2373.1 1703.2,2355.4 		"/>
		<g>
			<polygon class="st54" points="797.2,2320.1 779.4,2320.1 779.4,2337.6 761.6,2337.5 761.6,2461.5 779.4,2461.5 779.4,2479.2 
				797.2,2479.1 797.4,2496.7 921.1,2496.7 921.1,2479.2 938.8,2479.2 938.8,2461.5 956.5,2461.5 956.5,2337.6 938.8,2337.5 
				938.8,2320.1 920.9,2320.1 920.9,2302.4 797.4,2302.4 			"/>
			<polygon class="st53" points="814.8,2320.2 814.8,2337.9 797.1,2337.9 797.1,2355.4 779.5,2355.4 779.5,2443.7 797.1,2443.7 
				797.1,2461.6 814.8,2461.6 814.8,2479.3 903.4,2479.3 903.4,2461.6 921.3,2461.6 921.3,2443.7 938.9,2443.7 938.9,2355.4 
				921.3,2355.4 921.3,2337.9 903.4,2337.9 903.4,2320.2 			"/>
			<polygon class="st55" points="832.5,2355.5 832.5,2443.7 850.2,2443.7 850.2,2426.3 868.2,2426.3 868.2,2408.3 885.8,2408.3 
				885.8,2390.7 868.2,2390.7 868.2,2373.2 850.2,2373.2 850.2,2355.5 			"/>
			<polygon class="st56" points="850.2,2355.4 850.2,2443.7 867.9,2443.7 867.9,2426.2 885.8,2426.2 885.8,2408.3 903.5,2408.3 
				903.5,2390.6 885.8,2390.6 885.8,2373.1 867.9,2373.1 867.9,2355.4 			"/>
		</g>
		<g>
			<polygon class="st54" points="1077,2320.1 1059.2,2320.1 1059.2,2337.6 1041.5,2337.5 1041.5,2461.5 1059.2,2461.5 
				1059.2,2479.2 1077,2479.1 1077.2,2496.7 1200.9,2496.7 1200.9,2479.2 1218.7,2479.2 1218.7,2461.5 1236.3,2461.5 1236.3,2337.6 
				1218.7,2337.5 1218.7,2320.1 1200.7,2320.1 1200.7,2302.4 1077.2,2302.4 			"/>
			<polygon class="st53" points="1094.6,2320.1 1094.6,2337.8 1076.9,2337.8 1076.9,2355.4 1059.3,2355.4 1059.3,2443.6 
				1076.9,2443.6 1076.9,2461.6 1094.6,2461.6 1094.6,2479.3 1183.3,2479.3 1183.3,2461.6 1201.1,2461.6 1201.1,2443.6 
				1218.7,2443.6 1218.7,2355.4 1201.1,2355.4 1201.1,2337.8 1183.3,2337.8 1183.3,2320.1 			"/>
			<polygon class="st54" points="1112.4,2355.4 1112.4,2443.6 1130,2443.6 1130,2426.2 1148,2426.2 1148,2408.2 1165.6,2408.2 
				1165.6,2390.6 1148,2390.6 1148,2373.1 1130,2373.1 1130,2355.4 			"/>
			<polygon class="st56" points="1130,2355.4 1130,2443.6 1147.7,2443.6 1147.7,2426.2 1165.7,2426.2 1165.7,2408.2 1183.3,2408.2 
				1183.3,2390.6 1165.7,2390.6 1165.7,2373.1 1147.7,2373.1 1147.7,2355.4 			"/>
		</g>
		<g>
			<polygon class="st55" points="237.5,2320.1 219.8,2320.1 219.8,2337.6 202,2337.5 202,2461.5 219.8,2461.5 219.8,2479.2 
				237.5,2479.1 237.7,2496.7 361.5,2496.7 361.5,2479.2 379.2,2479.2 379.2,2461.5 396.8,2461.5 396.8,2337.6 379.2,2337.5 
				379.2,2320.1 361.2,2320.1 361.2,2302.4 237.7,2302.4 			"/>
			<polygon class="st56" points="255.1,2319.9 255.1,2337.6 237.4,2337.6 237.4,2355.2 219.7,2355.2 219.7,2443.4 237.4,2443.4 
				237.4,2461.4 255.1,2461.4 255.1,2479.1 343.7,2479.1 343.7,2461.4 361.5,2461.4 361.5,2443.4 379.2,2443.4 379.2,2355.2 
				361.5,2355.2 361.5,2337.6 343.7,2337.6 343.7,2319.9 			"/>
			<polygon class="st55" points="272.8,2355.3 272.8,2443.5 290.5,2443.5 290.5,2426.1 308.5,2426.1 308.5,2408.1 326.1,2408.1 
				326.1,2390.5 308.5,2390.5 308.5,2373 290.5,2373 290.5,2355.3 			"/>
			<polygon class="st7" points="290.5,2355.2 290.5,2443.4 308.1,2443.4 308.1,2426 326.1,2426 326.1,2408 343.7,2408 343.7,2390.4 
				326.1,2390.4 326.1,2372.9 308.1,2372.9 308.1,2355.2 			"/>
		</g>
		<g>
			<polygon class="st55" points="517.4,2320.1 499.6,2320.1 499.6,2337.6 481.8,2337.5 481.8,2461.5 499.6,2461.5 499.6,2479.2 
				517.4,2479.1 517.5,2496.7 641.3,2496.7 641.3,2479.2 659,2479.2 659,2461.5 676.6,2461.5 676.6,2337.6 659,2337.5 659,2320.1 
				641,2320.1 641,2302.4 517.5,2302.4 			"/>
			<polygon class="st56" points="534.9,2320.5 534.9,2338.2 517.2,2338.2 517.2,2355.7 499.6,2355.7 499.6,2443.9 517.2,2443.9 
				517.2,2461.9 534.9,2461.9 534.9,2479.6 623.5,2479.6 623.5,2461.9 641.4,2461.9 641.4,2443.9 659,2443.9 659,2355.7 
				641.4,2355.7 641.4,2338.2 623.5,2338.2 623.5,2320.5 			"/>
			<polygon class="st54" points="552.6,2355.8 552.6,2444 570.3,2444 570.3,2426.6 588.3,2426.6 588.3,2408.6 605.9,2408.6 
				605.9,2391 588.3,2391 588.3,2373.5 570.3,2373.5 570.3,2355.8 			"/>
			<polygon class="st7" points="570.3,2355.7 570.3,2443.9 588,2443.9 588,2426.5 605.9,2426.5 605.9,2408.5 623.5,2408.5 
				623.5,2390.9 605.9,2390.9 605.9,2373.4 588,2373.4 588,2355.7 			"/>
		</g>
	</g>
</g>
<g id="tstsboutons">
	<g>
		<path class="st10" d="M238.4,2116.7v17.1h-5.7v5.7H227v5.7h5.7v5.7h5.7v11.4h5.7v17.1h-5.7v11.4h-5.7v5.7H227v-5.7v-11.4V2168
			h-5.7v-5.7h-11.4v5.7h-5.7v-5.7h-5.7v-5.7h-5.7v-11.4h5.7v-5.7h5.7v-5.7h5.7v-5.7h5.7v-5.7h5.7v5.7h11.4v-5.7H227v-5.7h-17.1v-5.7
			h5.7h5.7h5.7h5.7v5.7L238.4,2116.7L238.4,2116.7z M227,2196.5v5.7h-5.7v5.7h-5.7v-5.7h-11.4v-5.7h-5.7v-5.7h-5.7v-17.1h5.7v-5.7
			h5.7v11.4h5.7h5.7v5.7h5.7v11.4L227,2196.5L227,2196.5z M204.2,2122.4v-5.7h5.7v5.7H204.2z M221.3,2156.6v-5.7h5.7v-5.7h-11.4
			v-5.7h-5.7v5.7h5.7v11.4H221.3z"/>
		<path class="st10" d="M266.9,2207.9v-5.7h-11.4v-5.7h-5.7v-5.7h5.7v-5.7v-11.4v-5.7v-17.1h5.7v-5.7h5.7v-5.7h5.7v45.6h5.7v5.7h5.7
			v5.7h-5.7v5.7h-5.7v5.7L266.9,2207.9L266.9,2207.9z M289.7,2185.1v5.7H284v-17.1v-5.7v-17.1v-5.7h-5.7v-5.7h-5.7v-5.7h5.7v-5.7
			h5.7h5.7v5.7h5.7v5.7h5.7v39.9h-5.7v5.7L289.7,2185.1L289.7,2185.1z"/>
		<path class="st10" d="M341,2150.9h-5.7v39.9h5.7v5.7h-5.7v5.7h-5.7v5.7h-5.7v-5.7h-5.7v-5.7h-5.7v-5.7h5.7v-17.1v-5.7v-17.1h-5.7
			v-5.7h-5.7v-5.7h5.7v-5.7h5.7v-5.7h5.7v5.7h5.7v5.7h5.7v5.7h5.7V2150.9z M369.5,2150.9h-5.7v39.9h5.7v5.7h-5.7v5.7h-5.7v5.7h-5.7
			v-5.7h-5.7v-11.4v-5.7V2168v-5.7v-11.4v-5.7H341v-11.4h5.7v-5.7h5.7v5.7h5.7v5.7h5.7v5.7h5.7L369.5,2150.9L369.5,2150.9z
			 M398,2150.9h-5.7v39.9h5.7v5.7h-5.7v5.7h-5.7v5.7h-5.7v-5.7h-5.7v-11.4v-5.7v-5.7v-22.8v-11.4h-5.7v-5.7v-5.7h5.7v-5.7h5.7v5.7
			h5.7v5.7h5.7v5.7h5.7V2150.9z"/>
		<path class="st10" d="M420.8,2207.9v-5.7h-5.7v-5.7h-5.7v-5.7h-5.7v-5.7v-5.7v-5.7v-11.4v-11.4h5.7v-5.7h5.7v-5.7h5.7v22.8h5.7
			v5.7h-5.7v11.4h5.7v5.7h5.7v5.7h5.7v5.7h-5.7v5.7h-5.7v5.7L420.8,2207.9L420.8,2207.9z M432.2,2156.6v-5.7h-5.7v-5.7v-5.7h-5.7
			v-5.7h5.7v-5.7h5.7h5.7v5.7h5.7v11.4h5.7v5.7h-5.7v5.7H432.2z M426.5,2162.3v-5.7h5.7v5.7H426.5z"/>
		<path class="st10" d="M506.3,2196.5h-5.7v5.7h-5.7v5.7h-5.7v-5.7h-11.4v-5.7h-5.7v-5.7h5.7v-5.7v-11.4v-5.7v-28.5v-22.8v-5.7h-5.7
			v-5.7h5.7v5.7h5.7v-5.7h5.7v-5.7h11.4v5.7h-5.7v34.2h5.7v5.7h-5.7v39.9h5.7v5.7h5.7V2196.5z M523.4,2179.4h-5.7v5.7H512v5.7h-5.7
			v-17.1v-11.4v-11.4v-11.4h-5.7v-5.7h5.7v-5.7h11.4v5.7h5.7V2179.4z"/>
		<path class="st10" d="M580.4,2145.2v45.6h5.7v5.7h-5.7v5.7h-5.7v5.7H569v-5.7h-5.7v-5.7h-5.7v5.7h-5.7v5.7h-5.7v-5.7h-5.7v-5.7
			h-5.7v-5.7v-5.7v-34.2h-5.7v-5.7v-5.7h5.7v-5.7h5.7v-5.7h5.7v5.7h5.7v51.3h5.7v5.7h5.7v-11.4v-17.1v-5.7v-5.7h-5.7v-5.7v-5.7h5.7
			v-5.7h5.7v-5.7h5.7v5.7h5.7v5.7h5.7v5.7L580.4,2145.2L580.4,2145.2z"/>
		<path class="st10" d="M626,2139.5h-11.4v45.6h5.7v5.7h5.7v5.7h-5.7v5.7h-5.7v5.7h-5.7v-5.7h-5.7v-5.7h-5.7v-17.1v-5.7v-28.5v-5.7
			h-5.7v-5.7h5.7v-11.4h5.7v-5.7h5.7v-5.7h5.7v17.1H626V2139.5z"/>
		<path class="st10" d="M665.9,2139.5h-11.4v45.6h5.7v5.7h5.7v5.7h-5.7v5.7h-5.7v5.7h-5.7v-5.7h-5.7v-5.7h-5.7v-17.1v-5.7v-28.5
			v-5.7h-5.7v-5.7h5.7v-11.4h5.7v-5.7h5.7v-5.7h5.7v17.1h11.4V2139.5z"/>
		<path class="st10" d="M688.7,2207.9v-5.7h-11.4v-5.7h-5.7v-5.7h5.7v-5.7v-11.4v-5.7v-17.1h5.7v-5.7h5.7v-5.7h5.7v45.6h5.7v5.7h5.7
			v5.7h-5.7v5.7h-5.7v5.7L688.7,2207.9L688.7,2207.9z M711.5,2185.1v5.7h-5.7v-17.1v-5.7v-17.1v-5.7h-5.7v-5.7h-5.7v-5.7h5.7v-5.7
			h5.7h5.7v5.7h5.7v5.7h5.7v39.9h-5.7v5.7L711.5,2185.1L711.5,2185.1z"/>
		<path class="st10" d="M757.1,2150.9v39.9h5.7v5.7h-5.7v5.7h-5.7v5.7h-5.7v-5.7H740v-5.7h-5.7v-5.7h5.7v-39.9h-5.7v-5.7h-5.7v-5.7
			h5.7v-5.7h5.7v-5.7h5.7v5.7h5.7v5.7h5.7v5.7h5.7v5.7H757.1z M785.6,2150.9v39.9h5.7v5.7h-5.7v5.7h-5.7v5.7h-5.7v-5.7h-5.7v-17.1
			v-5.7v-5.7v-28.5h-5.7v-11.4h5.7v-5.7h5.7v5.7h5.7v5.7h5.7v5.7h5.7v5.7L785.6,2150.9L785.6,2150.9z"/>
		<path class="st10" d="M842.6,2116.7v17.1h-5.7v5.7h-5.7v5.7h5.7v5.7h5.7v11.4h5.7v17.1h-5.7v11.4h-5.7v5.7h-5.7v-5.7v-11.4V2168
			h-5.7v-5.7h-11.4v5.7h-5.7v-5.7h-5.7v-5.7H797v-11.4h5.7v-5.7h5.7v-5.7h5.7v-5.7h5.7v-5.7h5.7v5.7h11.4v-5.7h-5.7v-5.7h-17.1v-5.7
			h5.7h5.7h5.7h5.7v5.7L842.6,2116.7L842.6,2116.7z M831.2,2196.5v5.7h-5.7v5.7h-5.7v-5.7h-11.4v-5.7h-5.7v-5.7H797v-17.1h5.7v-5.7
			h5.7v11.4h5.7h5.7v5.7h5.7v11.4L831.2,2196.5L831.2,2196.5z M808.4,2122.4v-5.7h5.7v5.7H808.4z M825.5,2156.6v-5.7h5.7v-5.7h-11.4
			v-5.7h-5.7v5.7h5.7v11.4H825.5z"/>
	</g>
</g>
<g id="repères">
</g>
<g id="backstage">
	<g>
		<path class="st57" d="M178.1,200.5h19.4v-9.7H246v9.7h9.7v9.7h9.7V249h19.4v-9.7h9.7v-19.4h-9.7v-19.4h-9.7v9.7h-9.7v-19.4h38.8
			v9.7h19.4v19.4H343v9.7h-19.4v9.7h-19.4v9.7h19.4v9.7H343v19.4h9.7v29.1H343v19.4h-9.7v9.7h-19.4v-9.7h9.7v-29.1h-9.7v-19.4h-9.7
			v-9.7h-9.7v-9.7h-29.1V249h-9.7v29.1H246v9.7h-9.7v-48.5h-9.7v-9.7h-9.7v-9.7h-9.7v-9.7h-19.4v9.7h19.4v9.7h9.7v9.7h9.7v38.8h-9.7
			v9.7h-29.1v-9.7h-9.7v-19.4h9.7v19.4h19.4v-9.7h-9.7v-9.7h-9.7V249h-9.7v-9.7h-9.7v-29.1h9.7L178.1,200.5L178.1,200.5z
			 M197.5,336.3v9.7h-19.4v-9.7h-9.7v-29.1h9.7v9.7h29.1v19.4H197.5z M275.1,316.9v9.7h19.4v9.7h19.4v9.7H246v-9.7h-19.4v-9.7h-9.7
			v-9.7h-9.7v-9.7h-29.1v-9.7h48.5v-9.7h9.7v9.7h19.4v9.7h9.7v9.7H275.1z"/>
		<path class="st57" d="M449.6,336.3h-9.7v9.7h-9.7v9.7h-9.7V346h-9.7v-9.7h-9.7v9.7h-9.7v9.7h-9.7V346H372v-9.7h-9.7v-67.9h9.7
			v-9.7h9.7V249h9.7v67.9h9.7v9.7h9.7v-67.9h-9.7V249h-9.7v-9.7h9.7v-9.7h9.7v-9.7h9.7v9.7h9.7v9.7h19.4v9.7H440v77.6h9.7
			L449.6,336.3z"/>
		<path class="st57" d="M488.4,355.7V346h-9.7v-9.7H469v-9.7h-9.7v-67.9h9.7V249h9.7v-9.7h9.7v67.9h9.7v9.7h9.7v9.7h9.7v9.7h-9.7
			v9.7h-9.7v9.7H488.4z M488.4,239.3v-9.7h9.7v9.7H488.4z M507.8,268.4v-9.7h-9.7v-38.8h19.4v9.7h9.7v9.7h9.7v9.7h-9.7v9.7h-9.7v9.7
			L507.8,268.4z M517.5,326.6v-9.7h9.7v9.7H517.5z"/>
		<path class="st57" d="M604.8,336.3h-9.7v9.7h-9.7v9.7h-9.7V346h-19.4V190.8h-9.7v-9.7h9.7v9.7h9.7v-9.7h9.7v-9.7h29.1v9.7h-19.4
			v9.7h29.1v19.4h-9.7v9.7h-9.7v-19.4h-9.7v19.4h9.7v9.7h19.4V249h-29.1v67.9h9.7v9.7h9.7V336.3z M556.3,336.3h-9.7v-9.7h9.7V336.3z
			 M614.5,326.6h-9.7v-9.7h9.7V326.6z"/>
		<path class="st57" d="M701.8,200.5v29.1h-9.7v9.7h-9.7v9.7h9.7v9.7h9.7v19.4h9.7v29.1h-9.7v19.4h-9.7v9.7h-9.7v-48.5h-9.7v-9.7
			h-19.4v9.7h-9.7v-9.7h-9.7v-9.7h-9.7V249h9.7v-9.7h9.7v-9.7h9.7v-9.7h9.8v-9.7h9.7v9.7h19.4v-9.7h-9.7v-9.7h-29.2v-9.7h38.8v9.7
			H701.8z M682.4,336.3v9.7h-9.7v9.7H663V346h-19.4v-9.7h-9.7v-9.7h-9.7v-29.1h9.7v-9.7h9.7v19.4H663v9.7h9.7v19.4H682.4z
			 M643.6,210.2v-9.7h9.7v9.7H643.6z M672.7,268.4v-9.7h9.7V249H663v-9.7h-9.7v9.7h9.7v19.4H672.7z"/>
		<path class="st57" d="M779.4,239.3H760v77.6h9.7v9.7h9.7v9.7h-9.7v9.7H760v9.7h-9.7V346h-9.7v-9.7H731v-97h-9.7v-9.7h9.7v-19.4
			h9.7v-9.7h9.7v-9.7h9.7v29.1h19.4L779.4,239.3z"/>
		<path class="st57" d="M876.4,336.3h-9.7v9.7h-9.6v9.7h-9.7V346h-9.7v-9.7H828v9.7h-9.7v9.7h-9.7V346h-9.7v-9.7h-9.7v-67.9h9.7
			v-9.7h9.7V249h9.7v67.9h9.7v9.7h9.7v-67.9H828V249h-9.7v-9.7h9.7v-9.7h9.7v-9.7h9.7v9.7h9.7v9.7h19.4v9.7h-9.7v77.6h9.7
			L876.4,336.3z"/>
		<path class="st57" d="M954.1,355.7h-9.7V346h-9.7v-9.7H925v9.7h-9.7v9.7h-9.7V346h-9.7v-9.7h-9.7v-67.9h9.7v-9.7h9.7V249h9.7v67.9
			h9.7v9.7h9.7v-67.9H925V249h-9.7v-9.7h9.7v-9.7h9.7v-9.7h9.7v9.7h9.7v9.7h19.4v9.7h-9.7v87.3h9.7v9.7h9.7v29.1h-9.7v9.7h-77.6
			v-9.7h-9.7v-19.4h19.4v9.7h9.7v9.7h38.8L954.1,355.7L954.1,355.7z"/>
		<path class="st57" d="M1012.2,355.7V346h-9.7v-9.7h-9.7v-9.7h-9.7v-67.9h9.7V249h9.7v-9.7h9.7v38.8h9.7v9.7h-9.7v19.4h9.7v9.7h9.7
			v9.7h9.7v9.7h-9.7v9.7h-9.7v9.7H1012.2z M1031.6,268.4v-9.7h-9.7v-19.4h-9.7v-9.7h9.7v-9.7h19.4v9.7h9.7V249h9.7v9.7h-9.7v9.7
			H1031.6z M1021.9,278.1v-9.7h9.7v9.7H1021.9z"/>
		<path class="st58" d="M168.5,190.7h19.4V181h48.5v9.7h9.7v9.7h9.7v38.8h19.4v-9.7h9.7v-19.4h-9.7v-19.4h-9.7v9.7h-9.7V181h38.8
			v9.7H314v19.4h19.4v9.7H314v9.7h-19.4v9.7H314v9.7h19.4v19.4h9.7v29.1h-9.7v19.4h-9.7v9.7h-19.4v-9.7h9.7v-29.1h-9.7v-19.4h-9.7
			v-9.8h-9.7v-9.7h-29.1v-9.7h-9.7v29.1h-9.7v9.7h-9.7v-48.5H217v-9.7h-9.7V210h-9.7v-9.7h-19.4v9.7h19.4v9.7h9.7v9.7h9.7v38.8h-9.7
			v9.7h-29.1v-9.7h-9.7v-19.4h9.7v19.4h19.4v-9.7h-9.7v-9.7h-9.7v-9.7h-9.7v-9.7h-9.7v-29.1h9.7V190.7z M187.9,326.5v9.7h-19.4v-9.7
			h-9.7v-29.1h9.7v9.7h29.1v19.4H187.9z M265.5,307.1v9.7h19.4v9.7h19.4v9.7h-67.9v-9.7H217v-9.7h-9.7v-9.7h-9.7v-9.7h-29.1v-9.7
			H217V278h9.7v9.7h19.4v9.7h9.7v9.7H265.5z"/>
		<path class="st58" d="M440.1,326.5h-9.7v9.7h-9.7v9.7H411v-9.7h-9.7v-9.7h-9.7v9.7h-9.7v9.7h-9.7v-9.7h-9.7v-9.7h-9.7v-67.9h9.7
			v-9.7h9.7v-9.7h9.7v67.9h9.7v9.7h9.7v-67.9h-9.7v-9.7h-9.7v-9.7h9.7v-9.7h9.7v-9.7h9.7v9.7h9.7v9.7h19.4v9.7h-9.7v77.6h9.7V326.5z
			"/>
		<path class="st58" d="M478.9,345.9v-9.7h-9.7v-9.7h-9.7v-9.7h-9.7v-67.9h9.7v-9.7h9.7v-9.7h9.7v67.9h9.7v9.7h9.7v9.7h9.7v9.7h-9.7
			v9.7h-9.7v9.7H478.9z M478.9,229.5v-9.7h9.7v9.7H478.9z M498.3,258.6v-9.7h-9.7v-38.8H508v9.7h9.7v9.7h9.7v9.7h-9.7v9.7H508v9.7
			L498.3,258.6z M508,316.8v-9.7h9.7v9.7H508z"/>
		<path class="st58" d="M595.3,326.5h-9.7v9.7h-9.7v9.7h-9.7v-9.7h-19.4V181h-9.7v-9.7h9.7v9.7h9.7v-9.7h9.7v-9.8h29.1v9.7h-19.4
			v9.7H605v19.4h-9.7v9.7h-9.7v-19.4h-9.7V210h9.7v9.7H605v19.4h-29.1V307h9.7v9.7h9.7V326.5z M546.8,326.5h-9.7v-9.7h9.7V326.5z
			 M605,316.8h-9.7v-9.7h9.7V316.8z"/>
		<path class="st58" d="M692.3,190.7v29.1h-9.7v9.7h-9.7v9.7h9.7v9.7h9.7v19.4h9.7v29.1h-9.7v19.4h-9.7v9.7h-9.7V278h-9.7v-9.7
			h-19.4v9.7h-9.7v-9.7h-9.7v-9.8h-9.7v-19.4h9.7v-9.7h9.7v-9.7h9.7V210h9.7v-9.7h9.7v9.7h19.4v-9.7h-9.7v-9.7h-29.1v-9.7h38.8v9.7
			L692.3,190.7z M672.9,326.5v9.7h-9.7v9.7h-9.7v-9.7h-19.4v-9.7h-9.7v-9.7h-9.7v-29.1h9.7V278h9.7v19.4h19.4v9.7h9.7v19.4H672.9z
			 M634.1,200.4v-9.7h9.7v9.7H634.1z M663.2,258.6v-9.7h9.7v-9.7h-19.4v-9.7h-9.7v9.7h9.7v19.4L663.2,258.6z"/>
		<path class="st58" d="M769.9,229.5h-19.4v77.6h9.7v9.7h9.7v9.7h-9.7v9.7h-9.7v9.7h-9.7v-9.7h-9.7v-9.7h-9.7v-97h-9.7v-9.7h9.7
			v-19.4h9.7v-9.7h9.7V181h9.7v29.1h19.4V229.5z"/>
		<path class="st58" d="M866.9,326.5h-9.7v9.7h-9.7v9.7h-9.7v-9.7h-9.7v-9.7h-9.7v9.7h-9.7v9.7H799v-9.7h-9.7v-9.7h-9.7v-67.9h9.7
			v-9.7h9.7v-9.7h9.7v67.9h9.7v9.7h9.7v-67.9h-9.7v-9.7h-9.7v-9.7h9.7v-9.7h9.7v-9.7h9.7v9.7h9.7v9.7h19.4v9.7h-9.7v77.6h9.7
			L866.9,326.5z"/>
		<path class="st58" d="M944.5,345.9h-9.7v-9.7h-9.7v-9.7h-9.7v9.7h-9.7v9.7H896v-9.7h-9.7v-9.7h-9.7v-67.9h9.7v-9.7h9.7v-9.7h9.7
			v67.9h9.7v9.7h9.7v-67.9h-9.7v-9.7h-9.7v-9.7h9.7v-9.7h9.7v-9.7h9.7v9.7h9.7v9.7h19.4v9.7h-9.7v87.3h9.7v9.7h9.7v29.1h-9.7v9.7
			h-77.6v-9.7h-9.7v-19.4H896v9.7h9.7v9.7h38.8V345.9L944.5,345.9z"/>
		<path class="st58" d="M1002.7,345.9v-9.7H993v-9.7h-9.7v-9.7h-9.7v-67.9h9.7v-9.7h9.7v-9.7h9.7v38.8h9.7v9.7h-9.7v19.4h9.7v9.7
			h9.7v9.7h9.7v9.7h-9.7v9.7h-9.7v9.7H1002.7z M1022.1,258.6v-9.7h-9.7v-19.4h-9.7v-9.7h9.7v-9.7h19.4v9.7h9.7v19.4h9.7v9.7h-9.7
			v9.7L1022.1,258.6L1022.1,258.6z M1012.4,268.3v-9.7h9.7v9.7H1012.4z"/>
	</g>
	<g>
		<path class="st10" d="M231,591.8v12.8h-4.2v16.8h-4.2V634H214v-12.6h-8.2V634h-8.6v-12.6H193v-16.8h-4.2v-12.8h8.6v12.6h4.2v16.8
			h4V617h4.2v-12.4h-4.2v-12.8h8.6v12.6h4.2v16.8h4v-29.4L231,591.8L231,591.8z"/>
		<path class="st10" d="M260.3,625.4v4.3h-4.2v4.2h-16.9v-4.2H235v-21.2h4.2v-4.2h16.9v4.2h4.2v8.6h-4.2v4.2h-12.6v8.3H256v-4.2
			L260.3,625.4L260.3,625.4z M243.5,608.7v8.3h8.3v-8.3H243.5z"/>
		<path class="st10" d="M277.1,633.9h-8.6v-42.1h8.6V633.9z"/>
		<path class="st10" d="M289.6,633.9v-4.2h-4.2v-21.2h4.2v-4.2h16.9v8.6h-4.3v-4.2h-8.3v20.9h8.3v-4.2h4.3v4.3h-4.2v4.2L289.6,633.9
			L289.6,633.9z"/>
		<path class="st10" d="M314.8,608.6h4.2v-4.2h16.9v4.2h4.2v21.2h-4.2v4.2H319v-4.2h-4.2V608.6z M323.3,608.7v20.9h8.3v-20.9H323.3z
			"/>
		<path class="st10" d="M386.3,604.4v4.2h4.2v25.3H382v-25.2h-4v4.2h-4.2v21h-8.6v-25.2h-4v4.2H357v21h-8.6v-29.5h8.6v4.2h4v-4.2
			h8.6v4.2h8.3v-4.2H386.3z"/>
		<path class="st10" d="M424.1,625.4v4.3h-4.2v4.2H403v-4.2h-4.2v-21.2h4.2v-4.2h16.9v4.2h4.2v8.6h-4.2v4.2h-12.6v8.3h12.5v-4.2
			L424.1,625.4L424.1,625.4z M407.3,608.7v8.3h8.3v-8.3H407.3z"/>
		<path class="st10" d="M440.8,604.4h4.2V596h8.6v8.4h4.2v4.3h-4.2v25.2H445v-25.2h-4.2V604.4z"/>
		<path class="st10" d="M461.7,608.6h4.2v-4.2h16.9v4.2h4.2v21.2h-4.2v4.2H466v-4.2h-4.2L461.7,608.6L461.7,608.6z M470.3,608.7
			v20.9h8.3v-20.9H470.3z"/>
		<path class="st10" d="M503.8,604.4h4.2V596h8.6v8.4h4.2v4.3h-4.2v25.2H508v-25.2h-4.2V604.4z"/>
		<path class="st10" d="M533.3,613v21h-8.6v-42.1h8.6v16.8h4v-4.2h8.6v4.2h4.2V634h-8.6v-25.2h-4v4.2H533.3z"/>
		<path class="st10" d="M583.7,625.4v4.3h-4.2v4.2h-16.9v-4.2h-4.2v-21.2h4.2v-4.2h16.9v4.2h4.2v8.6h-4.2v4.2h-12.6v8.3h12.5v-4.2
			L583.7,625.4L583.7,625.4z M566.9,608.7v8.3h8.3v-8.3H566.9z"/>
		<path class="st10" d="M613.1,604.4h12.6v4.2h4.2v21.2h-4.2v4.2h-21.2v-42.1h8.6L613.1,604.4L613.1,604.4z M613.1,608.7v20.9h8.3
			v-20.9H613.1z"/>
		<path class="st10" d="M638.1,617h4.2v-4.2h12.6v-4.1h-12.6v-4.3h16.9v4.2h4.2v25.3h-21.2v-4.2H638L638.1,617L638.1,617z
			 M646.6,617.2v12.4h8.3v-12.4H646.6z"/>
		<path class="st10" d="M675.9,633.9v-4.2h-4.2v-21.2h4.2v-4.2h16.9v8.6h-4.3v-4.2h-8.3v20.9h8.3v-4.2h4.3v4.3h-4.2v4.2L675.9,633.9
			L675.9,633.9z"/>
		<path class="st10" d="M726.5,604.4v4.3h-4.2v4.2h-4.2v8.3h4.2v4.2h4.2v8.6h-8.6v-8.4h-4.2v-4.2h-4V634h-8.6v-42.1h8.6v25.2h4v-4.2
			h4.2v-4.2h4.2v-4.2L726.5,604.4L726.5,604.4z"/>
		<path class="st10" d="M739.1,629.6h8.2v-4h-4.2v-4.2h-4.2v-4.2h-4.2v-8.6h4.2v-4.2h16.9v8.6h-4.3v-4.2h-8.3v4h4.2v4.2h4.2v4.2h4.2
			v8.6h-4.2v4.2h-17v-8.6h4.4L739.1,629.6L739.1,629.6z"/>
		<path class="st10" d="M759.9,604.4h4.2V596h8.6v8.4h4.2v4.3h-4.2v25.2h-8.6v-25.2h-4.2V604.4z"/>
		<path class="st10" d="M780.9,617h4.2v-4.2h12.6v-4.1h-12.6v-4.3H802v4.2h4.2v25.3H785v-4.2h-4.2L780.9,617L780.9,617z
			 M789.5,617.2v12.4h8.3v-12.4H789.5z"/>
		<path class="st10" d="M831.3,633.9h-12.6v-4.2h-4.2v-21.2h4.2v-4.2h25.4v4.3h-4.2V638h-4.2v4.2h-16.9v-4.4h12.6L831.3,633.9
			L831.3,633.9z M823,608.7v20.9h8.3v-20.9H823z"/>
		<path class="st10" d="M873.4,625.4v4.3h-4.2v4.2h-16.9v-4.2h-4.2v-21.2h4.2v-4.2h16.9v4.2h4.2v8.6h-4.2v4.2h-12.6v8.3h12.5v-4.2
			L873.4,625.4L873.4,625.4z M856.6,608.7v8.3h8.3v-8.3H856.6z"/>
		<path class="st10" d="M894.2,608.6h4.2v-4.2h16.9v4.2h4.2v21.2h-4.2v4.2h-16.9v-4.2h-4.2V608.6z M902.8,608.7v20.9h8.3v-20.9
			H902.8z"/>
		<path class="st10" d="M923.7,604.4h4.2V596h4.2v-4.2h12.8v4.3h-8.4v8.3h8.4v4.3h-8.4v25.2h-8.6v-25.2h-4.2V604.4z"/>
		<path class="st10" d="M957.2,604.4h4.2V596h8.6v8.4h4.2v4.3H970v25.2h-8.6v-25.2h-4.2V604.4z"/>
		<path class="st10" d="M986.8,613v21h-8.6v-42.1h8.6v16.8h4v-4.2h8.6v4.2h4.2V634H995v-25.2h-4v4.2H986.8z"/>
		<path class="st10" d="M1037.2,625.4v4.3h-4.2v4.2h-17v-4.2h-4.2v-21.2h4.2v-4.2h17v4.2h4.2v8.6h-4.2v4.2h-12.6v8.3h12.5v-4.2
			L1037.2,625.4L1037.2,625.4z M1020.4,608.7v8.3h8.3v-8.3H1020.4z"/>
		<path class="st10" d="M1074.8,633.9h-12.6v-4.2h-4.2v-21.2h4.2v-4.2h25.4v4.3h-4.2V638h-4.2v4.2h-16.9v-4.4h12.6L1074.8,633.9
			L1074.8,633.9z M1066.5,608.7v20.9h8.3v-20.9H1066.5z"/>
		<path class="st10" d="M1091.5,617h4.2v-4.2h12.6v-4.1h-12.6v-4.3h16.9v4.2h4.2v25.3h-21.2v-4.2h-4.2L1091.5,617L1091.5,617z
			 M1100.1,617.2v12.4h8.3v-12.4H1100.1z"/>
		<path class="st10" d="M1163.1,604.4v4.2h4.2v25.3h-8.6v-25.2h-4v4.2h-4.2v21h-8.6v-25.2h-4v4.2h-4.2v21h-8.6v-29.5h8.6v4.2h4v-4.2
			h8.6v4.2h8.3v-4.2H1163.1z"/>
		<path class="st10" d="M1200.9,625.4v4.3h-4.2v4.2h-16.9v-4.2h-4.2v-21.2h4.2v-4.2h16.9v4.2h4.2v8.6h-4.2v4.2h-12.6v8.3h12.5v-4.2
			L1200.9,625.4L1200.9,625.4z M1184.1,608.7v8.3h8.3v-8.3H1184.1z"/>
		<path class="st10" d="M1217.7,625.6h-8.6v-33.8h8.6V625.6z M1217.7,633.9h-8.6v-4.3h8.6V633.9z"/>
		<path class="st10" d="M204.8,716h-4v4h-12.2v-40.1h12.2v4h4V716z M192.7,683.9v31.9h7.9v-31.9H192.7z"/>
		<path class="st10" d="M216.7,687.9h-4.1v-4.1h4.1V687.9z M216.7,719.9h-4.1v-28.1h4.1V719.9z"/>
		<path class="st10" d="M228.7,703.8h8.1v4h4v8.2h-4v4h-8.3v-4h-4v-4.1h4.1v4h7.9V708h-8.1v-4h-4v-8.2h4v-4h8.3v4h4v4.1h-4.1v-4
			h-7.9V703.8z"/>
		<path class="st10" d="M252.7,715.8h7.9v-4h4.1v4.1h-4v4h-8.3v-4h-4v-20.2h4v-4h8.3v4h4v4.1h-4.1v-4h-7.9V715.8z"/>
		<path class="st10" d="M284.8,691.8v4h4V716h-4v4h-8.3v-4h-4v-20.2h4v-4H284.8z M276.7,715.8h7.9v-19.9h-7.9V715.8z"/>
		<path class="st10" d="M316.7,691.8v8.2h-4v12h-4v8h-4.2v-8h-4.1v-12h-4v-8.2h4.1v8h4v12h3.9v-12h4v-8H316.7z"/>
		<path class="st10" d="M336.8,691.8v4h4v12.1h-12.1v7.9h7.9v-4h4.1v4.1h-4v4h-8.3v-4h-4v-20.2h4v-4h8.4V691.8z M328.7,703.8h7.9
			v-7.9h-7.9V703.8L328.7,703.8z"/>
		<path class="st10" d="M360.8,691.8v4.1h-4v4h-4v20h-4.1v-28.1h4.1v4h3.9v-4H360.8z"/>
		<path class="st10" d="M380.8,719.9h-4.1v-40.1h4.1v12h8.1v4h4v24.1h-4.1v-24h-7.9v24H380.8z"/>
		<path class="st10" d="M412.9,691.8v4h4v12.1h-12.1v7.9h7.9v-4h4.1v4.1h-4v4h-8.3v-4h-4v-20.2h4v-4h8.4V691.8z M404.8,703.8h7.9
			v-7.9h-7.9V703.8z"/>
		<path class="st10" d="M436.8,691.8v4.1h-4v4h-4v20h-4.1v-28.1h4.1v4h3.9v-4H436.8z"/>
		<path class="st10" d="M452.9,691.8v4h4v12.1h-12.1v7.9h7.9v-4h4.1v4.1h-4v4h-8.3v-4h-4v-20.2h4v-4h8.4V691.8z M444.8,703.8h7.9
			v-7.9h-7.9V703.8z"/>
		<path class="st10" d="M480.8,703.8h8.1v4h4v8.2h-4v4h-8.3v-4h-4v-4.1h4.1v4h7.9V708h-8.1v-4h-4v-8.2h4v-4h8.3v4h4v4.1h-4.1v-4
			h-7.9V703.8z"/>
		<path class="st10" d="M512.9,691.8v4h4V716h-4v4h-8.3v-4h-4v-20.2h4v-4H512.9z M504.8,715.8h7.9v-19.9h-7.9V715.8z"/>
		<path class="st10" d="M548.8,691.8v4h4v24.1h-4.1v-24h-7.9v24h-4.1v-24h-7.9v24h-4.1v-28.1h12.2v4h3.8v-4H548.8z"/>
		<path class="st10" d="M572.9,691.8v4h4v12.1h-12.1v7.9h7.9v-4h4.1v4.1h-4v4h-8.3v-4h-4v-20.2h4v-4h8.4V691.8z M564.8,703.8h7.9
			v-7.9h-7.9V703.8z"/>
		<path class="st10" d="M608.9,691.8v4h4v12.1h-12.1v7.9h7.9v-4h4.1v4.1h-4v4h-8.3v-4h-4v-20.2h4v-4h8.4V691.8z M600.8,703.8h7.9
			v-7.9h-7.9V703.8z"/>
		<path class="st10" d="M636.8,691.8v8.2h-4v7.9h4V720h-4.1v-12h-7.9v12h-4.1v-12.1h4V700h-4v-8.2h4.1v8h7.9v-8H636.8z"/>
		<path class="st10" d="M644.6,691.8h4v-8h4.1v8h4v4.1h-4v24h-4.1v-24h-4V691.8z"/>
		<path class="st10" d="M676.8,691.8v4.1h-4v4h-4v20h-4.1v-28.1h4.1v4h3.9v-4H676.8z"/>
		<path class="st10" d="M684.6,691.8h8.3v4h4v24.1h-12.2v-4h-4v-12.2h4v-4h8.1v-3.9h-8.1L684.6,691.8L684.6,691.8z M692.7,704h-7.9
			v11.8h7.9V704z"/>
		<path class="st10" d="M708.8,715.8h7.9v-4h4.1v4.1h-4v4h-8.3v-4h-4v-20.2h4v-4h8.3v4h4v4.1h-4.1v-4h-7.9V715.8z"/>
		<path class="st10" d="M724.6,691.8h4v-8h4.1v8h4v4.1h-4v24h-4.1v-24h-4V691.8z"/>
		<path class="st10" d="M748.7,703.8h8.1v4h4v8.2h-4v4h-8.3v-4h-4v-4.1h4.1v4h7.9V708h-8.1v-4h-4v-8.2h4v-4h8.3v4h4v4.1h-4.1v-4
			h-7.9V703.8z"/>
		<path class="st10" d="M792.8,691.8v4h4V716h-4v4h-8.3v-4h-4v-20.2h4v-4H792.8z M784.7,715.8h7.9v-19.9h-7.9V715.8z"/>
		<path class="st10" d="M816.7,679.8v4.1h-8v7.9h4v4.1h-4v24h-4.1v-24h-4v-4.1h4v-8h4v-4H816.7z"/>
		<path class="st10" d="M844.8,691.8v4h4V716h-4v4h-8.3v-4h-4v-20.2h4v-4H844.8z M836.7,715.8h7.9v-19.9h-7.9V715.8z"/>
		<path class="st10" d="M856.6,691.8h4.1v24h7.9v-24h4.1v28.1h-12.2v-4h-4v-24.1H856.6z"/>
		<path class="st10" d="M892.8,691.8v4.1h-4v4h-4v20h-4.1v-28.1h4.1v4h3.9v-4H892.8z"/>
		<path class="st10" d="M912.8,715.8h7.9v-4h4.1v4.1h-4v4h-8.3v-4h-4v-20.2h4v-4h8.3v4h4v4.1h-4.1v-4h-7.9V715.8z"/>
		<path class="st10" d="M944.8,691.8v4.1h-4v4h-4v20h-4.1v-28.1h4.1v4h3.9v-4H944.8z"/>
		<path class="st10" d="M960.9,691.8v4h4v12.1h-12.1v7.9h7.9v-4h4.1v4.1h-4v4h-8.3v-4h-4v-20.2h4v-4h8.4V691.8z M952.8,703.8h7.9
			v-7.9h-7.9V703.8z"/>
		<path class="st10" d="M976.6,691.8h8.3v4h4v24.1h-12.2v-4h-4v-12.2h4v-4h8.1v-3.9h-8.1L976.6,691.8L976.6,691.8z M984.7,704h-7.9
			v11.8h7.9V704z"/>
		<path class="st10" d="M996.6,691.8h4v-8h4.1v8h4v4.1h-4v24h-4.1v-24h-4V691.8z"/>
		<path class="st10" d="M1020.8,687.9h-4.1v-4.1h4.1V687.9z M1020.8,719.9h-4.1v-28.1h4.1V719.9z"/>
		<path class="st10" d="M1040.9,691.8v4h4V716h-4v4h-8.3v-4h-4v-20.2h4v-4H1040.9z M1032.8,715.8h7.9v-19.9h-7.9V715.8z"/>
		<path class="st10" d="M1056.8,719.9h-4.1v-28.1h12.2v4h4v24.1h-4.1v-24h-7.9L1056.8,719.9L1056.8,719.9z"/>
		<path class="st10" d="M1104.8,716h-4v4h-8.1v8h-4.1v-36.2h12.2v4h4V716z M1092.8,695.9v19.9h7.9v-19.9H1092.8z"/>
		<path class="st10" d="M1124.8,691.8v4.1h-4v4h-4v20h-4.1v-28.1h4.1v4h3.9v-4H1124.8z"/>
		<path class="st10" d="M1140.9,691.8v4h4V716h-4v4h-8.3v-4h-4v-20.2h4v-4H1140.9z M1132.8,715.8h7.9v-19.9h-7.9V715.8z"/>
		<path class="st10" d="M1156.8,715.8h7.9v-4h4.1v4.1h-4v4h-8.3v-4h-4v-20.2h4v-4h8.3v4h4v4.1h-4.1v-4h-7.9V715.8z"/>
		<path class="st10" d="M1188.9,691.8v4h4v12.1h-12.1v7.9h7.9v-4h4.1v4.1h-4v4h-8.3v-4h-4v-20.2h4v-4h8.4V691.8z M1180.8,703.8h7.9
			v-7.9h-7.9V703.8z"/>
		<path class="st10" d="M1204.8,703.8h8.1v4h4v8.2h-4v4h-8.3v-4h-4v-4.1h4.1v4h7.9V708h-8.1v-4h-4v-8.2h4v-4h8.3v4h4v4.1h-4.1v-4
			h-7.9V703.8z"/>
		<path class="st10" d="M1228.8,703.8h8.1v4h4v8.2h-4v4h-8.3v-4h-4v-4.1h4.1v4h7.9V708h-8.1v-4h-4v-8.2h4v-4h8.3v4h4v4.1h-4.1v-4
			h-7.9V703.8z"/>
		<path class="st10" d="M1252.8,719.9h-4.1v-8.2h4.1V719.9z"/>
		<path class="st10" d="M208.7,751.8v8.2h-4v8h-4v24h-4.2v-24h-4.1v-8h-4v-8.2h4.1v8h4v8h3.9v-8h4v-8H208.7z"/>
		<path class="st10" d="M224.8,763.8v4h4V788h-4v4h-8.3v-4h-4v-20.2h4v-4H224.8z M216.7,787.8h7.9v-19.9h-7.9V787.8z"/>
		<path class="st10" d="M236.6,763.8h4.1v24h7.9v-24h4.1v28.1h-12.2v-4h-4L236.6,763.8L236.6,763.8z"/>
		<path class="st10" d="M264.7,764h-4.1v-12.2h4.1V764z"/>
		<path class="st10" d="M276.7,791.9h-4.1v-40.1h4.1V791.9z"/>
		<path class="st10" d="M288.7,791.9h-4.1v-40.1h4.1V791.9z"/>
		<path class="st10" d="M324.8,751.8v4.1h-12.1v7.9h12.1v28.1h-4.1v-24h-7.9v24h-4.1v-24h-4v-4.1h4v-8h4v-4H324.8z"/>
		<path class="st10" d="M336.7,791.9h-4.1v-28.1h12.2v4h4v24.1h-4.1v-24h-7.9v24H336.7z"/>
		<path class="st10" d="M368.6,763.8v-12h4.1v40.1h-12.2v-4h-4v-20.2h4v-4h8.1V763.8z M368.6,767.9h-7.9v19.9h7.9V767.9z"/>
		<path class="st10" d="M396.7,791.9h-4.1v-40.1h4.1v12h8.1v4h4v24.1h-4.1v-24h-7.9v24H396.7z"/>
		<path class="st10" d="M428.8,763.8v4h4v12.1h-12.1v7.9h7.9v-4h4.1v4.1h-4v4h-8.3v-4h-4v-20.2h4v-4h8.4V763.8z M420.7,775.8h7.9
			v-7.9h-7.9V775.8z"/>
		<path class="st10" d="M452.8,763.8v4.1h-4v4h-4v20h-4.1v-28.1h4.1v4h3.9v-4H452.8z"/>
		<path class="st10" d="M468.8,763.8v4h4v12.1h-12.1v7.9h7.9v-4h4.1v4.1h-4v4h-8.3v-4h-4v-20.2h4v-4h8.4V763.8z M460.7,775.8h7.9
			v-7.9h-7.9V775.8z"/>
		<path class="st10" d="M508.8,788h-4v4h-8.1v8h-4.1v-36.2h12.2v4h4V788z M496.7,767.9v19.9h7.9v-19.9H496.7z"/>
		<path class="st10" d="M528.8,763.8v4.1h-4v4h-4v20h-4.1v-28.1h4.1v4h3.9v-4H528.8z"/>
		<path class="st10" d="M544.9,763.8v4h4v12.1h-12.1v7.9h7.9v-4h4.1v4.1h-4v4h-8.3v-4h-4v-20.2h4v-4h8.4V763.8z M536.8,775.8h7.9
			v-7.9h-7.9V775.8z"/>
		<path class="st10" d="M560.8,791.9h-4.1v-40.1h4.1V791.9z"/>
		<path class="st10" d="M572.8,759.9h-4.1v-4.1h4.1V759.9z M572.8,791.9h-4.1v-28.1h4.1V791.9z"/>
		<path class="st10" d="M604.8,763.8v4h4v24.1h-4.1v-24h-7.9v24h-4.1v-24h-7.9v24h-4.1v-28.1h12.2v4h3.8v-4H604.8z"/>
		<path class="st10" d="M620.8,759.9h-4.1v-4.1h4.1V759.9z M620.8,791.9h-4.1v-28.1h4.1V791.9z"/>
		<path class="st10" d="M632.8,791.9h-4.1v-28.1h12.2v4h4v24.1h-4.1v-24h-7.9v24H632.8z"/>
		<path class="st10" d="M656.6,763.8h8.3v4h4v24.1h-12.2v-4h-4v-12.2h4v-4h8.1v-3.9h-8.1L656.6,763.8L656.6,763.8z M664.7,776h-7.9
			v11.8h7.9V776z"/>
		<path class="st10" d="M688.8,763.8v4.1h-4v4h-4v20h-4.1v-28.1h4.1v4h3.9v-4H688.8z"/>
		<path class="st10" d="M696.8,759.9h-4.1v-4.1h4.1V759.9z M696.8,791.9h-4.1v-28.1h4.1V791.9z"/>
		<path class="st10" d="M716.9,763.8v4h4v12.1h-12.1v7.9h7.9v-4h4.1v4.1h-4v4h-8.3v-4h-4v-20.2h4v-4h8.4V763.8z M708.8,775.8h7.9
			v-7.9h-7.9V775.8z"/>
		<path class="st10" d="M732.8,775.8h8.1v4h4v8.2h-4v4h-8.3v-4h-4v-4.1h4.1v4h7.9V780h-8.1v-4h-4v-8.2h4v-4h8.3v4h4v4.1h-4.1v-4
			h-7.9V775.8z"/>
		<path class="st10" d="M768.8,775.8h8.1v4h4v8.2h-4v4h-8.3v-4h-4v-4.1h4.1v4h7.9V780h-8.1v-4h-4v-8.2h4v-4h8.3v4h4v4.1h-4.1v-4
			h-7.9V775.8z"/>
		<path class="st10" d="M804.8,763.8v8.2h-4v4h-4v3.8h4v4h4v8.2h-4.1v-8h-4v-4h-3.9v12h-4.1v-40.1h4.1v24h3.9v-4h4v-8h4.1V763.8z"/>
		<path class="st10" d="M824.9,763.8v4h4v12.1h-12.1v7.9h7.9v-4h4.1v4.1h-4v4h-8.3v-4h-4v-20.2h4v-4h8.4V763.8z M816.8,775.8h7.9
			v-7.9h-7.9V775.8z"/>
		<path class="st10" d="M836.6,763.8h4v-8h4.1v8h4v4.1h-4v24h-4.1v-24h-4V763.8z"/>
		<path class="st10" d="M860.7,787.8h7.9v-4h4.1v4.1h-4v4h-8.3v-4h-4v-20.2h4v-4h8.3v4h4v4.1h-4.1v-4h-7.9V787.8z"/>
		<path class="st10" d="M884.7,791.9h-4.1v-40.1h4.1v12h8.1v4h4v24.1h-4.1v-24h-7.9L884.7,791.9L884.7,791.9z"/>
		<path class="st10" d="M916.8,763.8v4h4v12.1h-12.1v7.9h7.9v-4h4.1v4.1h-4v4h-8.3v-4h-4v-20.2h4v-4h8.4V763.8z M908.7,775.8h7.9
			v-7.9h-7.9V775.8z"/>
		<path class="st10" d="M932.7,775.8h8.1v4h4v8.2h-4v4h-8.3v-4h-4v-4.1h4.1v4h7.9V780h-8.1v-4h-4v-8.2h4v-4h8.3v4h4v4.1h-4.1v-4
			h-7.9V775.8z"/>
		<path class="st10" d="M976.8,763.8v4h4V788h-4v4h-8.3v-4h-4v-20.2h4v-4H976.8z M968.7,787.8h7.9v-19.9h-7.9V787.8z"/>
		<path class="st10" d="M1000.7,751.8v4.1h-8v7.9h4v4.1h-4v24h-4.1v-24h-4v-4.1h4v-8h4v-4H1000.7z"/>
		<path class="st10" d="M1028.9,763.8v4h4V788h-4v4h-8.3v-4h-4v-20.2h4v-4H1028.9z M1020.8,787.8h7.9v-19.9h-7.9V787.8z"/>
		<path class="st10" d="M1040.6,763.8h4.1v24h7.9v-24h4.1v28.1h-12.2v-4h-4L1040.6,763.8L1040.6,763.8z"/>
		<path class="st10" d="M1076.8,763.8v4.1h-4v4h-4v20h-4.1v-28.1h4.1v4h3.9v-4H1076.8z"/>
		<path class="st10" d="M1096.8,791.9h-4.1v-40.1h4.1V791.9z"/>
		<path class="st10" d="M1108.8,759.9h-4.1v-4.1h4.1V759.9z M1108.8,791.9h-4.1v-28.1h4.1V791.9z"/>
		<path class="st10" d="M1116.6,763.8h4v-8h4.1v8h4v4.1h-4v24h-4.1v-24h-4V763.8z"/>
		<path class="st10" d="M1132.6,763.8h4v-8h4.1v8h4v4.1h-4v24h-4.1v-24h-4V763.8z"/>
		<path class="st10" d="M1156.7,791.9h-4.1v-40.1h4.1V791.9z"/>
		<path class="st10" d="M1176.8,763.8v4h4v12.1h-12.1v7.9h7.9v-4h4.1v4.1h-4v4h-8.3v-4h-4v-20.2h4v-4h8.4V763.8z M1168.7,775.8h7.9
			v-7.9h-7.9V775.8z"/>
		<path class="st10" d="M212.8,835.8v4h4v24.1h-4.1v-24h-7.9v24h-4.1v-24h-7.9v24h-4.1v-28.1h12.2v4h3.8v-4H212.8z"/>
		<path class="st10" d="M236.8,835.8v4h4V860h-4v4h-8.3v-4h-4v-20.2h4v-4H236.8z M228.7,859.8h7.9v-19.9h-7.9V859.8z"/>
		<path class="st10" d="M252.7,863.9h-4.1v-28.1h12.2v4h4v24.1h-4.1v-24h-7.9L252.7,863.9L252.7,863.9z"/>
		<path class="st10" d="M288.8,835.8v8.2h-4v4h-4v3.8h4v4h4v8.2h-4.1v-8h-4v-4h-3.9v12h-4.1v-40.1h4.1v24h3.9v-4h4v-8h4.1V835.8z"/>
		<path class="st10" d="M300.7,847.8h8.1v4h4v8.2h-4v4h-8.3v-4h-4v-4.1h4.1v4h7.9V852h-8.1v-4h-4v-8.2h4v-4h8.3v4h4v4.1h-4.1v-4
			h-7.9V847.8z"/>
		<path class="st10" d="M320.6,863.9v-4.1h8.1v8.2h-4v4h-4.1v-4.2h4V864h-4V863.9z"/>
		<path class="st10" d="M348.6,835.8h4v-8h4.1v8h4v4.1h-4v24h-4.1v-24h-4V835.8z"/>
		<path class="st10" d="M380.8,835.8v4h4v12.1h-12.1v7.9h7.9v-4h4.1v4.1h-4v4h-8.3v-4h-4v-20.2h4v-4h8.4V835.8z M372.7,847.8h7.9
			v-7.9h-7.9V847.8z"/>
		<path class="st10" d="M396.7,847.8h8.1v4h4v8.2h-4v4h-8.3v-4h-4v-4.1h4.1v4h7.9V852h-8.1v-4h-4v-8.2h4v-4h8.3v4h4v4.1h-4.1v-4
			h-7.9V847.8z"/>
		<path class="st10" d="M412.6,835.8h4v-8h4.1v8h4v4.1h-4v24h-4.1v-24h-4V835.8z"/>
		<path class="st10" d="M436.7,847.8h8.1v4h4v8.2h-4v4h-8.3v-4h-4v-4.1h4.1v4h7.9V852h-8.1v-4h-4v-8.2h4v-4h8.3v4h4v4.1h-4.1v-4
			h-7.9V847.8z"/>
		<path class="st10" d="M480.8,835.8v4h4V860h-4v4h-8.3v-4h-4v-20.2h4v-4H480.8z M472.7,859.8h7.9v-19.9h-7.9V859.8z"/>
		<path class="st10" d="M504.7,823.8v4.1h-8v7.9h4v4.1h-4v24h-4.1v-24h-4v-4.1h4v-8h4v-4H504.7z"/>
		<path class="st10" d="M524.7,859.8h7.9v-4h4.1v4.1h-4v4h-8.3v-4h-4v-20.2h4v-4h8.3v4h4v4.1h-4.1v-4h-7.9V859.8z"/>
		<path class="st10" d="M548.7,863.9h-4.1v-40.1h4.1V863.9z"/>
		<path class="st10" d="M560.7,831.9h-4.1v-4.1h4.1V831.9z M560.7,863.9h-4.1v-28.1h4.1V863.9z"/>
		<path class="st10" d="M572.7,859.8h7.9v-4h4.1v4.1h-4v4h-8.3v-4h-4v-20.2h4v-4h8.3v4h4v4.1h-4.1v-4h-7.9V859.8z"/>
		<path class="st10" d="M608.8,835.8v8.2h-4v4h-4v3.8h4v4h4v8.2h-4.1v-8h-4v-4h-3.9v12h-4.1v-40.1h4.1v24h3.9v-4h4v-8h4.1V835.8z"/>
		<path class="st10" d="M620.5,835.8h8.3v4h4v24.1h-12.2v-4h-4v-12.2h4v-4h8.1v-3.9h-8.1L620.5,835.8L620.5,835.8z M628.6,848h-7.9
			v11.8h7.9V848z"/>
		<path class="st10" d="M640.5,863.9v-40.1h4.1v12h8.1v4h4V860h-4v4h-12.2V863.9z M644.7,859.8h7.9v-19.9h-7.9V859.8z"/>
		<path class="st10" d="M668.7,863.9h-4.1v-40.1h4.1V863.9z"/>
		<path class="st10" d="M688.8,835.8v4h4v12.1h-12.1v7.9h7.9v-4h4.1v4.1h-4v4h-8.3v-4h-4v-20.2h4v-4h8.4V835.8z M680.7,847.8h7.9
			v-7.9h-7.9V847.8z"/>
		<path class="st10" d="M712.5,863.9v-40.1h4.1v12h8.1v4h4V860h-4v4h-12.2V863.9z M716.7,859.8h7.9v-19.9h-7.9V859.8z"/>
		<path class="st10" d="M736.5,835.8h4.1v24h7.9v-24h4.1v28.1h-12.2v-4h-4v-24.1H736.5z"/>
		<path class="st10" d="M760.5,835.8h4v-8h4.1v8h4v4.1h-4v24h-4.1v-24h-4V835.8z"/>
		<path class="st10" d="M776.5,835.8h4v-8h4.1v8h4v4.1h-4v24h-4.1v-24h-4V835.8z"/>
		<path class="st10" d="M808.7,835.8v4h4V860h-4v4h-8.3v-4h-4v-20.2h4v-4H808.7z M800.6,859.8h7.9v-19.9h-7.9V859.8z"/>
		<path class="st10" d="M824.6,863.9h-4.1v-28.1h12.2v4h4v24.1h-4.1v-24h-7.9v24H824.6z"/>
		<path class="st10" d="M848.6,847.8h8.1v4h4v8.2h-4v4h-8.3v-4h-4v-4.1h4.1v4h7.9V852h-8.1v-4h-4v-8.2h4v-4h8.3v4h4v4.1h-4.1v-4
			h-7.9V847.8z"/>
		<path class="st10" d="M884.4,835.8h8.3v4h4v24.1h-12.2v-4h-4v-12.2h4v-4h8.1v-3.9h-8.1L884.4,835.8L884.4,835.8z M892.5,848h-7.9
			v11.8h7.9V848z"/>
		<path class="st10" d="M908.6,863.9h-4.1v-28.1h12.2v4h4v24.1h-4.1v-24h-7.9v24H908.6z"/>
		<path class="st10" d="M940.5,835.8v-12h4.1v40.1h-12.2v-4h-4v-20.2h4v-4h8.1V835.8z M940.5,839.9h-7.9v19.9h7.9V839.9z"/>
		<path class="st10" d="M964.5,835.8h4v-8h4.1v8h4v4.1h-4v24h-4.1v-24h-4V835.8z"/>
		<path class="st10" d="M988.6,863.9h-4.1v-40.1h4.1v12h8.1v4h4v24.1h-4.1v-24h-7.9L988.6,863.9L988.6,863.9z"/>
		<path class="st10" d="M1020.7,835.8v4h4v12.1h-12.1v7.9h7.9v-4h4.1v4.1h-4v4h-8.3v-4h-4v-20.2h4v-4h8.4V835.8z M1012.6,847.8h7.9
			v-7.9h-7.9V847.8z"/>
		<path class="st10" d="M1060.7,823.8v4.1h-12.1v7.9h12.1v28.1h-4.1v-24h-7.9v24h-4.1v-24h-4v-4.1h4v-8h4v-4H1060.7z"/>
		<path class="st10" d="M1080.6,835.8v4.1h-4v4h-4v20h-4.1v-28.1h4.1v4h3.9v-4H1080.6z"/>
		<path class="st10" d="M1088.6,847.8h8.1v4h4v8.2h-4v4h-8.3v-4h-4v-4.1h4.1v4h7.9V852h-8.1v-4h-4v-8.2h4v-4h8.3v4h4v4.1h-4.1v-4
			h-7.9V847.8z"/>
		<path class="st10" d="M1104.5,835.8h4v-8h4.1v8h4v4.1h-4v24h-4.1v-24h-4V835.8z"/>
		<path class="st10" d="M1156.6,835.8v8.2h-4v12h-4v8h-4.2v-8h-4.1v-12h-4v-8.2h4.1v8h4v12h3.9v-12h4v-8H1156.6z"/>
		<path class="st10" d="M1176.7,835.8v4h4v12.1h-12.1v7.9h7.9v-4h4.1v4.1h-4v4h-8.3v-4h-4v-20.2h4v-4h8.4V835.8z M1168.6,847.8h7.9
			v-7.9h-7.9V847.8z"/>
		<path class="st10" d="M1200.6,835.8v4.1h-4v4h-4v20h-4.1v-28.1h4.1v4h3.9v-4H1200.6z"/>
		<path class="st10" d="M1208.6,847.8h8.1v4h4v8.2h-4v4h-8.3v-4h-4v-4.1h4.1v4h7.9V852h-8.1v-4h-4v-8.2h4v-4h8.3v4h4v4.1h-4.1v-4
			h-7.9V847.8z"/>
		<path class="st10" d="M1232.6,831.9h-4.1v-4.1h4.1V831.9z M1232.6,863.9h-4.1v-28.1h4.1V863.9z"/>
		<path class="st10" d="M1252.7,835.8v4h4V860h-4v4h-8.3v-4h-4v-20.2h4v-4H1252.7z M1244.6,859.8h7.9v-19.9h-7.9V859.8z"/>
		<path class="st10" d="M1268.6,863.9h-4.1v-28.1h12.2v4h4v24.1h-4.1v-24h-7.9L1268.6,863.9L1268.6,863.9z"/>
		<path class="st10" d="M1312.7,835.8v4h4V860h-4v4h-8.3v-4h-4v-20.2h4v-4H1312.7z M1304.6,859.8h7.9v-19.9h-7.9V859.8z"/>
		<path class="st10" d="M1336.6,823.8v4.1h-8v7.9h4v4.1h-4v24h-4.1v-24h-4v-4.1h4v-8h4v-4H1336.6z"/>
		<path class="st10" d="M188.6,907.8h4v-8h4.1v8h4v4.1h-4v24h-4.1v-24h-4V907.8z"/>
		<path class="st10" d="M212.7,935.9h-4.1v-40.1h4.1v12h8.1v4h4v24.1h-4.1v-24h-7.9v24H212.7z"/>
		<path class="st10" d="M244.8,907.8v4h4v12.1h-12.1v7.9h7.9v-4h4.1v4.1h-4v4h-8.3v-4h-4v-20.2h4v-4h8.4V907.8z M236.7,919.8h7.9
			v-7.9h-7.9V919.8z"/>
		<path class="st10" d="M280.8,907.8v4h4v12.1h-12.1v7.9h7.9v-4h4.1v4.1h-4v4h-8.3v-4h-4v-20.2h4v-4h8.4V907.8z M272.7,919.8h7.9
			v-7.9h-7.9V919.8z"/>
		<path class="st10" d="M296.7,935.9h-4.1v-28.1h12.2v4h4v24.1h-4.1v-24h-7.9L296.7,935.9L296.7,935.9z"/>
		<path class="st10" d="M320.7,903.9h-4.1v-4.1h4.1V903.9z M320.7,935.9h-4.1v-28.1h4.1V935.9z"/>
		<path class="st10" d="M328.6,911.8h4v-4h12.2V940h-4v4h-8.3v-4.2h8.1V936h-8.1v-4h-4v-20.2H328.6z M340.6,931.8v-19.9h-7.9v19.9
			H340.6z"/>
		<path class="st10" d="M376.7,907.8v4h4v24.1h-4.1v-24h-7.9v24h-4.1v-24h-7.9v24h-4.1v-28.1h12.2v4h3.8v-4H376.7z"/>
		<path class="st10" d="M392.5,907.8h8.3v4h4v24.1h-12.2v-4h-4v-12.2h4v-4h8.1v-3.9h-8.1L392.5,907.8L392.5,907.8z M400.6,920h-7.9
			v11.8h7.9V920z"/>
		<path class="st10" d="M412.6,899.9v-4.1h8.1v8.2h-4v4h-4.1v-4.1h4V900h-4V899.9z"/>
		<path class="st10" d="M428.7,919.8h8.1v4h4v8.2h-4v4h-8.3v-4h-4v-4.1h4.1v4h7.9V924h-8.1v-4h-4v-8.2h4v-4h8.3v4h4v4.1h-4.1v-4
			h-7.9V919.8z"/>
		<path class="st10" d="M472.7,907.8v4.1h-4v4h-4v20h-4.1v-28.1h4.1v4h3.9v-4H472.7z"/>
		<path class="st10" d="M488.8,907.8v4h4v12.1h-12.1v7.9h7.9v-4h4.1v4.1h-4v4h-8.3v-4h-4v-20.2h4v-4h8.4V907.8z M480.7,919.8h7.9
			v-7.9h-7.9V919.8z"/>
		<path class="st10" d="M504.7,919.8h8.1v4h4v8.2h-4v4h-8.3v-4h-4v-4.1h4.1v4h7.9V924h-8.1v-4h-4v-8.2h4v-4h8.3v4h4v4.1h-4.1v-4
			h-7.9V919.8z"/>
		<path class="st10" d="M536.8,907.8v4h4V932h-4v4h-8.3v-4h-4v-20.2h4v-4H536.8z M528.7,931.8h7.9v-19.9h-7.9V931.8z"/>
		<path class="st10" d="M552.7,935.9h-4.1v-40.1h4.1V935.9z"/>
		<path class="st10" d="M560.6,907.8h4.1v24h7.9v-24h4.1v28.1h-12.2v-4h-4L560.6,907.8L560.6,907.8z"/>
		<path class="st10" d="M584.6,907.8h4v-8h4.1v8h4v4.1h-4v24h-4.1v-24h-4V907.8z"/>
		<path class="st10" d="M608.7,903.9h-4.1v-4.1h4.1V903.9z M608.7,935.9h-4.1v-28.1h4.1V935.9z"/>
		<path class="st10" d="M628.8,907.8v4h4V932h-4v4h-8.3v-4h-4v-20.2h4v-4H628.8z M620.7,931.8h7.9v-19.9h-7.9V931.8z"/>
		<path class="st10" d="M644.7,935.9h-4.1v-28.1h12.2v4h4v24.1h-4.1v-24h-7.9v24H644.7z"/>
		<path class="st10" d="M668.7,935.9h-4.1v-8.2h4.1V935.9z"/>
		<path class="st10" d="M200.7,985.9h-8v11.9h8v4.1h-8v15.8h8v4.1h-12.1v-40.1h12.1V985.9z"/>
		<path class="st10" d="M212.7,1021.9h-4.1v-28.1h12.2v4h4v24.1h-4.1v-24h-7.9L212.7,1021.9L212.7,1021.9z"/>
		<path class="st10" d="M236.7,993.8v32.2h-4v4h-4.1v-4.2h4v-32H236.7z M236.7,989.9h-4.1v-4.1h4.1V989.9z"/>
		<path class="st10" d="M256.8,993.8v4h4v20.2h-4v4h-8.3v-4h-4v-20.2h4v-4H256.8z M248.7,1017.8h7.9v-19.9h-7.9V1017.8z"/>
		<path class="st10" d="M288.7,993.8v8.2h-4v12h-4v8h-4.1v8h-4.2v-8.2h4v-7.9h-4v-12h-4v-8.2h4.1v8h4v12h3.9v-12h4v-8h4.3V993.8z"/>
		<path class="st10" d="M320.8,993.8v4.1h-4v4h-4v20h-4.1v-28.1h4.1v4h3.9v-4H320.8z"/>
		<path class="st10" d="M336.8,993.8v4h4v12.1h-12.1v7.9h7.9v-4h4.1v4.1h-4v4h-8.3v-4h-4v-20.2h4v-4h8.4V993.8z M328.7,1005.8h7.9
			v-7.9h-7.9V1005.8L328.7,1005.8z"/>
		<path class="st10" d="M352.6,993.8h8.3v4h4v24.1h-12.2v-4h-4v-12.2h4v-4h8.1v-3.9h-8.1L352.6,993.8L352.6,993.8z M360.7,1006h-7.9
			v11.8h7.9V1006z"/>
		<path class="st10" d="M384.7,993.8v-12h4.1v40.1h-12.2v-4h-4v-20.2h4v-4h8.1V993.8z M384.7,997.9h-7.9v19.9h7.9V997.9z"/>
		<path class="st10" d="M400.7,989.9h-4.1v-4.1h4.1V989.9z M400.7,1021.9h-4.1v-28.1h4.1V1021.9z"/>
		<path class="st10" d="M412.7,1021.9h-4.1v-28.1h12.2v4h4v24.1h-4.1v-24h-7.9v24H412.7z"/>
		<path class="st10" d="M432.6,997.8h4v-4h12.2v32.2h-4v4h-8.3v-4.2h8.1v-3.8h-8.1v-4h-4L432.6,997.8L432.6,997.8z M444.7,1017.8
			v-19.9h-7.9v19.9H444.7z"/>
		<path class="st10" d="M472.7,1006h-4.1v-8.2h4.1V1006z M472.7,1021.9h-4.1v-8.2h4.1V1021.9z"/>
		<path class="st10" d="M480.7,977.8h4.1v4h4v4h4v36.1h-4v4h-4v4h-4.1v-4.2h4v-4h4v-35.9h-4v-4h-4V977.8z"/>
		<path class="st10" d="M191.2,1109.5h3.4v-10h6.8v10h3.3v10h3.4v13.4h-6.8v-10h-9.9v10h-3.5v-13.4h3.3
			C191.2,1119.5,191.2,1109.5,191.2,1109.5z M194.7,1109.6v9.9h3.2v-9.9H194.7z"/>
		<path class="st10" d="M214.6,1109.5h6.8v20h6.6v-20h6.8v20.1h-3.4v3.3H218v-3.3h-3.4L214.6,1109.5L214.6,1109.5z"/>
		<path class="st10" d="M241.2,1112.8h3.4v-3.4h6.8v3.4H248v16.6h6.6v-30h6.8v33.4h-16.8v-3.3h-3.4L241.2,1112.8L241.2,1112.8z"/>
		<path class="st10" d="M274.7,1112.8h3.2v-3.4h3.5v6.8h-6.7v16.6h-6.8v-23.3h6.8V1112.8z"/>
		<path class="st10" d="M304.7,1126.2v3.5h-3.4v3.3h-13.4v-3.3h-3.4v-16.8h3.4v-3.4h13.4v3.4h3.4v6.8h-3.4v3.3h-10v6.6h9.9v-3.3
			L304.7,1126.2L304.7,1126.2z M291.3,1112.9v6.6h6.6v-6.6H291.3z"/>
		<path class="st10" d="M321.2,1129.6h-3.3v-6.7h-3.4v-6.6h-3.4v-6.8h6.8v6.6h3.4v6.7h3.2v-13.3h6.8v6.8H328v10h-3.3v10h-3.4v3.4
			h-6.8v-6.8h6.6v-3.3H321.2z"/>
		<path class="st10" d="M337.8,1132.9v-6.8h6.8v10.1h-3.3v3.4h-3.5v-3.5h3.4v-3.2H337.8z"/>
		<path class="st10" d="M378,1102.8h3.4v26.8H378v3.3h-6.8v-3.4h3.4v-26.6H368v30h-6.8v-33.4H378V1102.8z"/>
		<path class="st10" d="M387.8,1112.8h3.4v-3.4h13.4v3.4h3.4v16.8h-3.4v3.3h-13.4v-3.3h-3.4V1112.8z M394.6,1112.9v16.6h6.6v-16.6
			H394.6z"/>
		<path class="st10" d="M421.3,1112.8h3.2v-3.4h3.5v6.8h-6.7v16.6h-6.8v-23.3h6.8V1112.8z"/>
		<path class="st10" d="M437.9,1106.3h-6.8v-3.4h6.8V1106.3z M437.9,1132.9h-6.8v-23.4h6.8V1132.9z"/>
		<path class="st10" d="M444.5,1119.5h3.4v-3.3h10v-3.2h-10v-3.4h13.4v3.4h3.4v20.1h-16.8v-3.3h-3.4V1119.5z M451.3,1119.6v9.9h6.6
			v-9.9H451.3z"/>
		<path class="st10" d="M484.5,1112.8v-3.4h6.8v23.4h-6.8v-16.6h-3.2v3.3h-3.4v13.3h-6.8v-23.3h6.8v6.7h3.2v-3.3L484.5,1112.8
			L484.5,1112.8z"/>
		<path class="st10" d="M524.6,1099.5v6.8h-3.4v-3.4h-6.6v9.9h3.4v3.4h-3.4v13.2h6.6v-10h6.8v3.4h-3.4v6.6h3.4v3.4h-3.4v-3.3h-3.2
			v3.3h-10.1v-3.3h-3.4V1116h3.4v-3.2h-3.4v-10.1h3.4v-3.4h13.3V1099.5z"/>
		<path class="st10" d="M561.2,1106.3h-3.4v-3.4h-6.6v9.9h6.7v3.3h3.3v13.5h-3.3v3.3h-10.1v-3.3h-3.4v-3.5h3.5v3.3h6.5v-9.9h-6.6
			v-3.4h-3.4v-13.4h3.4v-3.4h10.1v3.4h3.3V1106.3z"/>
		<path class="st10" d="M567.8,1119.5h3.4v-3.3h10v-3.2h-10v-3.4h13.4v3.4h3.4v20.1h-16.8v-3.3h-3.4V1119.5z M574.6,1119.6v9.9h6.6
			v-9.9H574.6z"/>
		<path class="st10" d="M621.1,1112.8v-3.4h6.8v23.4h-6.8v-16.6h-3.2v3.3h-3.4v13.3h-6.8v-16.6h-3.2v3.3h-3.4v13.3h-6.8v-23.3h6.8
			v6.7h3.2v-3.3h3.4v-3.4h6.8v6.7h3.2v-3.3L621.1,1112.8L621.1,1112.8z"/>
		<path class="st10" d="M634.4,1109.5h6.8v20h6.6v-20h6.8v20.1h-3.4v3.3h-13.4v-3.3h-3.4L634.4,1109.5L634.4,1109.5z"/>
		<path class="st10" d="M681.2,1126.2v3.5h-3.4v3.3h-13.4v-3.3H661v-16.8h3.4v-3.4h13.4v3.4h3.4v6.8h-3.4v3.3h-10v6.6h9.9v-3.3
			L681.2,1126.2L681.2,1126.2z M667.9,1112.9v6.6h6.6v-6.6H667.9z"/>
		<path class="st10" d="M694.5,1132.9h-6.8v-33.4h6.8V1132.9z"/>
	</g>
</g>
<g id="home">
	<g>
		<g id="Calque_2_2_">
			<g id="Calque_2-2_1_">
				<polygon class="st2" points="962.4,3093.2 944.6,3093.2 944.6,3110.7 926.9,3110.6 926.9,3234.8 944.6,3234.8 944.6,3252.5 
					962.4,3252.3 962.6,3270 1086.5,3270 1086.5,3252.5 1104.2,3252.5 1104.2,3234.8 1121.9,3234.8 1121.9,3110.7 1104.2,3110.6 
					1104.2,3093.2 1086.2,3093.2 1086.2,3075.5 962.6,3075.5 				"/>
				<polygon class="st8" points="980.1,3093.3 980.1,3111 962.3,3111 962.3,3128.5 944.7,3128.5 944.7,3216.9 962.3,3216.9 
					962.3,3234.9 980.1,3234.9 980.1,3252.6 1068.8,3252.6 1068.8,3234.9 1086.6,3234.9 1086.6,3216.9 1104.3,3216.9 1104.3,3128.5 
					1086.6,3128.5 1086.6,3111 1068.8,3111 1068.8,3093.3 				"/>
				<rect x="1017.1" y="3123.6" class="st0" width="12" height="12"/>
				<rect x="1017.1" y="3135.6" class="st0" width="12" height="12"/>
				<rect x="1017.1" y="3147.6" class="st0" width="12" height="12"/>
				<rect x="1005" y="3135.6" class="st0" width="12" height="12"/>
				<rect x="1005" y="3147.6" class="st0" width="12" height="12"/>
				<rect x="993" y="3147.6" class="st0" width="12" height="12"/>
				<rect x="993" y="3147.6" class="st0" width="12" height="12"/>
				<rect x="993" y="3159.6" class="st0" width="12" height="12"/>
				<rect x="1005" y="3159.6" class="st0" width="12" height="12"/>
				<rect x="1017.1" y="3159.6" class="st0" width="12" height="12"/>
				<rect x="1029.1" y="3159.6" class="st0" width="12" height="12"/>
				<rect x="1041.1" y="3159.6" class="st0" width="12" height="12"/>
				<rect x="1053.1" y="3159.6" class="st0" width="12" height="12"/>
				<rect x="1041.1" y="3147.6" class="st0" width="12" height="12"/>
				<rect x="1029.1" y="3147.6" class="st0" width="12" height="12"/>
				<rect x="1029.1" y="3135.6" class="st0" width="12" height="12"/>
				<rect x="1029.1" y="3171.7" class="st0" width="12" height="12"/>
				<rect x="1017.1" y="3171.7" class="st0" width="12" height="12"/>
				<rect x="1005" y="3171.7" class="st0" width="12" height="12"/>
				<rect x="993" y="3171.7" class="st0" width="12" height="12"/>
				<rect x="1041.1" y="3171.7" class="st0" width="12" height="12"/>
				<rect x="1041.1" y="3183.7" class="st0" width="12" height="12"/>
				<rect x="1041.1" y="3195.7" class="st0" width="12" height="12"/>
				<rect x="1029.1" y="3195.7" class="st0" width="12" height="12"/>
				<rect x="1029.1" y="3183.7" class="st0" width="12" height="12"/>
				<rect x="1005" y="3183.7" class="st0" width="12" height="12"/>
				<rect x="1005" y="3195.7" class="st0" width="12" height="12"/>
				<rect x="993" y="3195.7" class="st0" width="12" height="12"/>
				<rect x="993" y="3183.7" class="st0" width="12" height="12"/>
				<rect x="981" y="3159.6" class="st0" width="12" height="12"/>
			</g>
		</g>
	</g>
</g>
<g id="torche">
	<g>
		<rect x="1891.4" y="270.4" class="st1" width="16.4" height="49.3"/>
		<rect x="1858.5" y="336.1" class="st10" width="16.4" height="49.3"/>
		<rect x="1842.1" y="319.7" class="st7" width="49.3" height="16.4"/>
		<rect x="1825.7" y="303.2" class="st10" width="82.2" height="16.4"/>
		<rect x="1825.7" y="188.2" class="st1" width="16.4" height="16.4"/>
		<rect x="1858.5" y="171.7" class="st9" width="16.4" height="16.4"/>
		<rect x="1875" y="237.5" class="st9" width="16.4" height="16.4"/>
		<rect x="1875" y="221" class="st1" width="16.4" height="16.4"/>
		<rect x="1891.4" y="204.6" class="st1" width="16.4" height="16.4"/>
		<polygon class="st1" points="1891.4,221 1891.4,237.5 1875,237.5 1875,253.9 1858.5,253.9 1858.5,303.2 1825.7,303.2 
			1825.7,286.8 1842.1,286.8 1842.1,270.4 1825.7,270.4 1825.7,253.9 1842.1,253.9 1842.1,204.6 1875,204.6 1875,221 		"/>
		<polygon class="st9" points="1891.4,270.4 1891.4,303.2 1858.5,303.2 1858.5,253.9 1875,253.9 1875,270.4 		"/>
		<rect x="1875" y="253.9" class="st1" width="16.4" height="16.4"/>
		<rect x="1891.4" y="237.5" class="st1" width="16.4" height="16.4"/>
	</g>
</g>
</svg>
