<svg id="Calque_1" data-name="Calque 1" xmlns="http://www.w3.org/2000/svg" viewBox="0 0 901.92 223.24"><defs><style>.cls-1{fill:#f2c373;}.cls-2{fill:#2e2150;}</style></defs><title>backstages</title><path class="cls-1" d="M195,348.26h19.4v-9.7h48.5v9.7h9.7V358h9.7v38.8h19.4v-9.7h9.7v-19.4h-9.7v-19.4H292V358h-9.7v-19.4h38.8v9.7h19.4v19.4h19.4v9.7h-19.4v9.7h-19.4v9.7h19.4v9.7h19.4v19.4h9.7V455h-9.7v19.4h-9.7v9.7h-19.4v-9.7h9.7v-29.1h-9.7v-19.4h-9.7v-9.7h-9.7v-9.7h-29.1v-9.7h-9.7v29.1h-9.7v9.7h-9.7v-48.5h-9.7v-9.7h-9.7v-9.7h-9.7V358h-19.4v9.7h19.4v9.7h9.7v9.7h9.7v38.8h-9.7v9.7h-29.1v-9.7H195v-19.4h9.7v19.4h19.4v-9.7h-9.7v-9.7h-9.7v-9.7H195v-9.7h-9.7V358H195Zm19.4,135.8v9.7H195v-9.7h-9.7V455H195v9.7h29.1v19.4Zm77.6-19.4v9.7h19.4v9.7h19.4v9.7h-67.9v-9.7h-19.4v-9.7h-9.7v-9.7h-9.7V455H195v-9.7h48.5v-9.7h9.7v9.7h19.4V455h9.7v9.7Z" transform="translate(-175.73 -309.33)"/><path class="cls-1" d="M466.56,484.06h-9.7v9.7h-9.7v9.7h-9.7v-9.7h-9.7v-9.7h-9.7v9.7h-9.7v9.7h-9.7v-9.7H389v-9.7h-9.7v-67.9H389v-9.7h9.7v-9.7h9.7v67.9h9.7v9.7h9.7v-67.9h-9.7v-9.7h-9.7v-9.7h9.7v-9.7h9.7v-9.7h9.7v9.7h9.7v9.7h19.4v9.7h-9.7v77.6h9.7Z" transform="translate(-175.73 -309.33)"/><path class="cls-1" d="M505.36,503.46v-9.7h-9.7v-9.7H486v-9.7h-9.7v-67.9H486v-9.7h9.7v-9.7h9.7V455h9.7v9.7h9.7v9.7h9.7v9.7h-9.7v9.7h-9.7v9.7Zm0-116.4v-9.7h9.7v9.7Zm19.4,29.1v-9.7h-9.7v-38.8h19.4v9.7h9.7v9.7h9.7v9.7h-9.7v9.7h-9.7v9.7Zm9.7,58.2v-9.7h9.7v9.7Z" transform="translate(-175.73 -309.33)"/><path class="cls-1" d="M621.76,484.06h-9.7v9.7h-9.7v9.7h-9.7v-9.7h-19.4V338.56h-9.7v-9.7h9.7v9.7H583v-9.7h9.7v-9.7h29.1v9.7h-19.4v9.7h29.1V358h-9.7v9.7h-9.7v-19.4h-9.7v19.4h9.7v9.7h19.4v19.4h-29.1v67.9h9.7v9.7h9.7Zm-48.5,0h-9.7v-9.7h9.7Zm58.2-9.7h-9.7v-9.7h9.7Z" transform="translate(-175.73 -309.33)"/><path class="cls-1" d="M718.76,348.26v29.1h-9.7v9.7h-9.7v9.7h9.7v9.7h9.7v19.4h9.69V455h-9.69v19.4h-9.7v9.7h-9.7v-48.5h-9.7v-9.7H670.25v9.7h-9.69v-9.7h-9.7v-9.7h-9.7v-19.4h9.7v-9.7h9.7v-9.7h9.69v-9.7H680V358h9.71v9.7h19.4V358h-9.7v-9.7H670.25v-9.7h38.81v9.7Zm-19.4,135.8v9.7h-9.7v9.7H680v-9.7H660.56v-9.7h-9.7v-9.7h-9.7v-29.1h9.7v-9.7h9.7V455H680v9.7h9.71v19.4ZM660.56,358v-9.7h9.69V358Zm29.1,58.2v-9.7h9.7v-9.7H680v-9.7h-9.7v9.7H680v19.4Z" transform="translate(-175.73 -309.33)"/><path class="cls-1" d="M796.36,387.06H777v77.6h9.71v9.7h9.7v9.7h-9.7v9.7H777v9.7h-9.7v-9.7h-9.69v-9.7h-9.7v-97h-9.7v-9.7h9.7V358h9.7v-9.7h9.69v-9.7H777v29.1h19.41Z" transform="translate(-175.73 -309.33)"/><path class="cls-1" d="M893.35,484.06h-9.7v9.7H874v9.7h-9.7v-9.7h-9.7v-9.7h-9.7v9.7h-9.7v9.7h-9.7v-9.7h-9.7v-9.7h-9.7v-67.9h9.7v-9.7h9.7v-9.7h9.7v67.9h9.7v9.7h9.7v-67.9h-9.7v-9.7h-9.7v-9.7h9.7v-9.7h9.7v-9.7h9.7v9.7H874v9.7h19.4v9.7h-9.7v77.6h9.7Z" transform="translate(-175.73 -309.33)"/><path class="cls-1" d="M971,503.46h-9.7v-9.7h-9.7v-9.7h-9.7v9.7h-9.7v9.7h-9.7v-9.7h-9.7v-9.7h-9.7v-67.9h9.7v-9.7h9.7v-9.7h9.7v67.9h9.7v9.7h9.7v-67.9h-9.7v-9.7h-9.7v-9.7h9.7v-9.7h9.7v-9.7h9.7v9.7H971v9.7h19.4v9.7h-9.7v87.3h9.7v9.7h9.7v29.1h-9.7v9.7h-77.6v-9.7h-9.7v-19.4h19.4v9.7h9.7v9.7H971v-19.4Z" transform="translate(-175.73 -309.33)"/><path class="cls-1" d="M1029.15,503.46v-9.7h-9.7v-9.7h-9.7v-9.7h-9.7v-67.9h9.7v-9.7h9.7v-9.7h9.7v38.8h9.7v9.7h-9.7V455h9.7v9.7h9.7v9.7h9.7v9.7h-9.7v9.7h-9.7v9.7Zm19.4-87.3v-9.7h-9.7v-19.4h-9.7v-9.7h9.7v-9.7h19.4v9.7h9.7v19.4h9.7v9.7H1068v9.7Zm-9.7,9.7v-9.7h9.7v9.7Z" transform="translate(-175.73 -309.33)"/><path class="cls-2" d="M185.43,338.43h19.4v-9.7h48.5v9.7H263v9.7h9.7v38.8h19.4v-9.7h9.7v-19.4h-9.7v-19.4h-9.7v9.7h-9.7v-19.4h38.8v9.7h19.4v19.4h19.4v9.7h-19.4v9.7h-19.4v9.7h19.4v9.7h19.4V416H360v29.1h-9.7v19.4h-9.7v9.7h-19.4v-9.7h9.7v-29.1h-9.7V416h-9.7v-9.7h-9.7v-9.7h-29.1v-9.7H263V416h-9.7v9.7h-9.7v-48.5h-9.7v-9.7h-9.7v-9.7h-9.7v-9.7h-19.4v9.7h19.4v9.7h9.7v9.7h9.7V416h-9.7v9.7h-29.1V416h-9.7v-19.4h9.7V416h19.4v-9.7h-9.7v-9.7h-9.7v-9.7h-9.7v-9.7h-9.7v-29.1h9.7Zm19.4,135.8v9.7h-19.4v-9.7h-9.7v-29.1h9.7v9.7h29.1v19.4Zm77.6-19.4v9.7h19.4v9.7h19.4v9.7h-67.9v-9.7h-19.4v-9.7h-9.7v-9.7h-9.7v-9.7h-29.1v-9.7h48.5v-9.7h9.7v9.7H263v9.7h9.7v9.7Z" transform="translate(-175.73 -309.33)"/><path class="cls-2" d="M457,474.23h-9.7v9.7h-9.7v9.7h-9.7v-9.7h-9.7v-9.7h-9.7v9.7h-9.7v9.7h-9.7v-9.7h-9.7v-9.7h-9.7v-67.9h9.7v-9.7h9.7v-9.7h9.7v67.9h9.7v9.7h9.7v-67.9h-9.7v-9.7h-9.7v-9.7h9.7v-9.7h9.7v-9.7h9.7v9.7h9.7v9.7H457v9.7h-9.7v77.6H457Z" transform="translate(-175.73 -309.33)"/><path class="cls-2" d="M495.83,493.63v-9.7h-9.7v-9.7h-9.7v-9.7h-9.7v-67.9h9.7v-9.7h9.7v-9.7h9.7v67.9h9.7v9.7h9.7v9.7h9.7v9.7h-9.7v9.7h-9.7v9.7Zm0-116.4v-9.7h9.7v9.7Zm19.4,29.1v-9.7h-9.7v-38.8h19.4v9.7h9.7v9.7h9.7v9.7h-9.7v9.7h-9.7v9.7Zm9.7,58.2v-9.7h9.7v9.7Z" transform="translate(-175.73 -309.33)"/><path class="cls-2" d="M612.23,474.23h-9.7v9.7h-9.7v9.7h-9.7v-9.7h-19.4V328.73H554V319h9.7v9.7h9.7V319h9.7v-9.7h29.1V319h-19.4v9.7h29.1v19.4h-9.7v9.7h-9.7v-19.4h-9.7v19.4h9.7v9.7h19.4v19.4h-29.1v67.9h9.7v9.7h9.7Zm-48.5,0H554v-9.7h9.7Zm58.2-9.7h-9.7v-9.7h9.7Z" transform="translate(-175.73 -309.33)"/><path class="cls-2" d="M709.23,338.43v29.1h-9.7v9.7h-9.7v9.7h9.7v9.7h9.7V416h9.7v29.1h-9.7v19.4h-9.7v9.7h-9.7v-48.5h-9.7V416h-19.4v9.7H651V416h-9.7v-9.7h-9.7v-19.4h9.7v-9.7H651v-9.7h9.7v-9.7h9.7v-9.7h9.7v9.7h19.4v-9.7h-9.7v-9.7h-29.1v-9.7h38.8v9.7Zm-19.4,135.8v9.7h-9.7v9.7h-9.7v-9.7H651v-9.7h-9.7v-9.7h-9.7v-29.1h9.7v-9.7H651v19.4h19.4v9.7h9.7v19.4ZM651,348.13v-9.7h9.7v9.7Zm29.1,58.2v-9.7h9.7v-9.7h-19.4v-9.7h-9.7v9.7h9.7v19.4Z" transform="translate(-175.73 -309.33)"/><path class="cls-2" d="M786.83,377.23h-19.4v77.6h9.7v9.7h9.7v9.7h-9.7v9.7h-9.7v9.7h-9.7v-9.7H748v-9.7h-9.7v-97h-9.7v-9.7h9.7v-19.4H748v-9.7h9.7v-9.7h9.7v29.1h19.4Z" transform="translate(-175.73 -309.33)"/><path class="cls-2" d="M883.82,474.23h-9.69v9.7h-9.7v9.7h-9.7v-9.7H845v-9.7h-9.71v9.7h-9.7v9.7h-9.69v-9.7h-9.7v-9.7h-9.7v-67.9h9.7v-9.7h9.7v-9.7h9.69v67.9h9.7v9.7H845v-67.9h-9.71v-9.7h-9.7v-9.7h9.7v-9.7H845v-9.7h9.7v9.7h9.7v9.7h19.39v9.7h-9.69v77.6h9.69Z" transform="translate(-175.73 -309.33)"/><path class="cls-2" d="M961.43,493.63h-9.7v-9.7H942v-9.7h-9.71v9.7h-9.7v9.7h-9.69v-9.7h-9.7v-9.7h-9.7v-67.9h9.7v-9.7h9.7v-9.7h9.69v67.9h9.7v9.7H942v-67.9h-9.71v-9.7h-9.7v-9.7h9.7v-9.7H942v-9.7h9.7v9.7h9.7v9.7h19.39v9.7h-9.69v87.3h9.69v9.7h9.71V513h-9.71v9.7H903.23V513h-9.7v-19.4h19.4v9.7h9.69V513h38.81v-19.4Z" transform="translate(-175.73 -309.33)"/><path class="cls-2" d="M1019.62,493.63v-9.7h-9.69v-9.7h-9.7v-9.7h-9.7v-67.9h9.7v-9.7h9.7v-9.7h9.69V416h9.7v9.7h-9.7v19.4h9.7v9.7H1039v9.7h9.7v9.7H1039v9.7h-9.71v9.7Zm19.41-87.3v-9.7h-9.71v-19.4h-9.7v-9.7h9.7v-9.7h19.41v9.7h9.7v19.4h9.7v9.7h-9.7v9.7Zm-9.71,9.7v-9.7H1039V416Z" transform="translate(-175.73 -309.33)"/></svg>