<?xml version="1.0" encoding="utf-8"?>
<!-- Generator: Adobe Illustrator 25.2.0, SVG Export Plug-In . SVG Version: 6.00 Build 0)  -->
<svg version="1.1" id="Calque_1" xmlns="http://www.w3.org/2000/svg" xmlns:xlink="http://www.w3.org/1999/xlink" x="0px" y="0px"
	 viewBox="0 0 185.3 168.1" style="enable-background:new 0 0 185.3 168.1;" xml:space="preserve">
<style type="text/css">
	.st0{fill:#2E2150;}
</style>
<path class="st0" d="M14.2,51.3v-2.9H8.6v-2.9H5.7v-5.7H2.8v-5.7H0V20h2.9v-5.7h2.9v-2.9h2.9V8.6h5.7V5.7h8.6v2.9h2.9V5.7h5.7v2.9
	h8.6V5.7h2.9v5.7h-2.9v2.9h-2.9v2.8h-8.6v-2.9h-2.9v-2.9h-2.9V8.5h-5.7v2.9h-2.9v5.7h-2.8v17.1h2.9v5.7h2.9v2.9h5.7v2.9h5.7v-2.9
	h5.7v-2.9h5.7v-2.8h2.9v5.7h-2.9v2.9h-2.9v2.9h-2.9v2.8L14.2,51.3z M25.6,28.5h-2.9v-2.9h-2.9v-2.9h-2.9v-8.6h2.9v-2.9h2.9v2.9h2.9
	v2.8h2.9v2.9h2.9v2.9h2.9v2.9h2.9v8.6h-2.9v2.9h-2.9v2.9H20v-2.9h-2.9v-2.9h-2.9v-5.7h2.9v5.7H20v2.9h2.9v-2.9h2.9L25.6,28.5
	L25.6,28.5z M17.1,28.5v-2.9h2.9v2.9H17.1z"/>
<path class="st0" d="M62.7,48.5h-2.9v2.8H57v2.9h-2.9v-2.9h-5.7v-2.9h-2.9v-2.9h2.9V5.7h-2.9V2.8h2.9v2.9h2.9V2.8h2.9V0h5.7v2.9H57
	v17.1h2.9v2.9H57v19.9h2.9v2.9h2.9L62.7,48.5z M74.1,42.8h-2.9v8.5h-2.8V57h-2.9v2.9h-2.9v2.9h-2.9V57h2.9v-5.7h2.9V25.7h-2.9V20
	h-2.9v-2.9h2.9v-2.9h5.7v2.9h2.9v5.7h2.9L74.1,42.8z"/>
<path class="st0" d="M85.5,54.2v-2.9h-5.7v-2.9h-2.9v-2.9h2.9V25.7h2.9v-2.9h2.9v-2.9h2.9v22.8h2.9v2.9h2.9v2.9h-2.9v2.8h-2.9v2.9
	H85.5z M96.9,42.8v2.9H94V22.8h-2.9V20h-2.9v-2.9h2.9v-2.9h5.7v2.9h2.9v2.9h2.9v19.9h-2.9v2.9L96.9,42.8z"/>
<path class="st0" d="M114,54.2v-2.9h-5.7v-2.9h-2.9v-2.9h2.9V25.7h2.9v-2.9h2.9v-2.9h2.9v22.8h2.9v2.9h2.9v2.9h-2.9v2.8h-2.9v2.9
	H114z M125.4,42.8v2.9h-2.9V22.8h-2.9V20h-2.9v-2.9h2.9v-2.9h5.7v2.9h2.9v2.9h2.9v19.9h-2.9v2.9L125.4,42.8z"/>
<path class="st0" d="M156.8,8.6v8.5h-2.9v2.9H151v2.9h2.9v2.9h2.9v5.7h2.9v8.6h-2.9v5.7h-2.9v2.9H151V34.2h-2.9v-2.9h-5.7v2.9h-2.9
	v-2.9h-2.9v-2.9h-2.9v-5.7h2.9v-2.9h2.9v-2.9h2.9v-2.9h2.9v-2.9h2.9v2.9h5.7v-2.9H151V8.5h-8.5V5.7h11.4v2.9L156.8,8.6z M151,48.5
	v2.9h-2.9v2.9h-2.9v-2.9h-5.7v-2.9h-2.9v-2.9h-2.9v-8.5h2.9v-2.9h2.9v5.7h5.7v2.9h2.9v5.7L151,48.5z M139.6,11.4V8.6h2.9v2.9H139.6z
	 M148.2,28.5v-2.9h2.9v-2.9h-5.7V20h-2.9v2.9h2.9v5.7L148.2,28.5z"/>
<path class="st0" d="M171,54.2v-2.9h-2.9v-2.9h-2.9v-2.9h-2.9V25.7h2.9v-2.9h2.9v-2.9h2.9v11.4h2.9v2.9H171v5.7h2.9v2.9h2.9v2.9h2.9
	v2.9h-2.9v2.8h-2.9v2.9H171z M176.7,28.5v-2.9h-2.9V20H171v-2.9h2.9v-2.9h5.7v2.9h2.9v5.7h2.9v2.9h-2.9v2.9L176.7,28.5z M173.9,31.4
	v-2.9h2.9v2.9H173.9z"/>
<path class="st0" d="M14.2,105.4v2.8h-2.9v2.9H8.5v-2.9H2.8v-2.9H0v-2.9h2.9V76.9H0v-8.6h2.9v-2.9h5.7v2.9H5.7v2.9h2.9v2.8h2.9v2.9
	h2.9v2.9h-2.9v19.9h2.9v2.9h2.9v2.9L14.2,105.4z M17.1,116.9v2.9h-2.9V114h2.9v-5.7h2.9V82.6h-2.9v-5.7h-2.9v-2.9h2.9v-2.9h5.7v2.9
	h2.9v5.7h2.9v19.9h-2.9v8.5h-2.9v5.7h-2.9v2.9L17.1,116.9z"/>
<path class="st0" d="M39.9,111.1v-2.9h-5.7v-2.9h-2.9v-2.9h2.9V82.6H37v-2.9h2.9v-2.9h2.9v22.8h2.9v2.9h2.9v2.9h-2.9v2.8h-2.9v2.9
	H39.9z M51.3,99.7v2.9h-2.9V79.8h-2.9v-2.9h-2.8v-2.9h2.9v-2.9h5.7v2.9h2.9v2.9H57v19.9h-2.9v2.9L51.3,99.7z"/>
<path class="st0" d="M85.5,79.8v22.8h2.9v2.9h-2.9v2.9h-2.9v2.9h-2.9v-2.9h-2.9v-2.9h-2.9v2.9h-2.9v2.9h-2.9v-2.9h-2.9v-2.9h-2.8
	V82.6h-2.9v-5.7h2.9v-2.9h2.9v-2.9h2.9v2.9h2.9v25.6h2.9v2.9h2.9V82.6h-2.9v-5.7h2.9v-2.9h2.8v-2.9h2.9v2.9h2.9v2.9h2.9v2.9
	L85.5,79.8z"/>
<path class="st0" d="M99.8,111.1v-2.9h-5.7v-2.9h-2.9v-2.9H94V82.6h-2.9v-5.7H94v-2.9h2.9v-2.9h2.9v2.9h2.9v2.9h2.9v-2.9h2.9v-2.9
	h2.9v2.9h2.9v8.6h-2.9v2.9h-2.9v-2.9h-2.9v-2.9h-2.9v19.9h2.9v2.9h2.9v2.9h-2.9v2.9h-2.9v2.9L99.8,111.1z"/>
<path class="st0" d="M29.6,162.4h-2.9v2.8h-2.9v2.9h-2.9v-2.9h-2.9v-2.9h-2.9v2.9h-2.9v2.9H9.7v-2.9H6.8v-2.9H4v-20h2.9v-2.9h2.9
	v-2.9h2.9v19.9h2.8v2.9h2.9v-19.9h-2.9v-2.9h-2.9v-2.9h2.9v-2.9h2.9v-2.9h2.9v2.9h2.9v2.9h5.7v2.9h-2.9v22.8h2.9V162.4z"/>
<path class="st0" d="M41,168.1v-2.9h-2.9v-2.9h-2.8v-2.9h-2.9v-19.9h2.9v-2.9h2.9v-2.9h2.9v19.9h2.9v2.9h2.9v2.9h2.9v2.9h-2.9v2.8
	h-2.9v2.9H41z M41,133.9v-2.9h2.9v2.9L41,133.9z M46.7,142.5v-2.9h-2.9v-11.4h5.7v2.8h2.9v2.9h2.9v2.9h-2.9v2.9h-2.9v2.9L46.7,142.5
	z M49.6,159.6v-2.9h2.9v2.9H49.6z"/>
<path class="st0" d="M75.2,133.9h-5.7v22.8h2.9v2.9h2.9v2.9h-2.9v2.9h-2.8v2.9h-2.9v-2.9h-2.8v-2.9H61v-28.5h-2.9v-2.9H61v-5.7h2.8
	v-2.9h2.8v-2.9h2.8v8.6h5.7L75.2,133.9z"/>
<path class="st0" d="M86.6,168.1v-2.9h-2.8v-2.9h-2.8v-22.8h-2.9v-5.7h2.8v-2.9h2.8v-2.9h2.8v2.9h2.8v2.9h2.9v2.9h-2.9v19.9h2.9v2.9
	h2.8v2.9h-2.8v2.8h-2.9v2.9L86.6,168.1z M80.9,119.7V114h8.5v8.6h-2.8v2.9h-2.8v-5.7L80.9,119.7z"/>
<path class="st0" d="M106.6,168.1v-2.9h-5.7v-2.9H98v-2.9h2.8v-19.9h2.8v-2.9h2.8v-2.9h2.8v22.8h2.8v2.9h2.8v2.9h-2.8v2.8h-2.8v2.9
	H106.6z M118,156.7v2.9h-2.8v-22.8h-2.9v-2.9h-2.8v-2.9h2.8v-2.9h5.7v2.9h2.8v2.9h2.8v19.9h-2.8v2.9L118,156.7z"/>
<path class="st0" d="M140.8,139.6v19.9h2.8v2.9h-2.8v2.8h-2.8v2.9h-2.9v-2.9h-2.8v-2.9h-2.9v-2.9h2.8v-19.9h-2.8v-2.9h-2.8v-2.9h2.8
	v-2.9h2.8v-2.9h2.8v2.9h2.8v2.9h2.8v2.9h2.8v2.9L140.8,139.6z M155,139.6v19.9h2.8v2.9H155v2.8h-2.9v2.9h-2.8v-2.9h-2.9v-28.5h-2.8
	v-5.7h2.8v-2.9h2.9v2.9h2.8v2.9h2.8v2.9h2.8v2.9L155,139.6z"/>
</svg>
