<svg id="Calque_1" data-name="Calque 1" xmlns="http://www.w3.org/2000/svg" viewBox="0 0 595.95 95.71"><defs><style>.cls-1{fill:#2e2150;}</style></defs><title>congratulation</title><path class="cls-1" d="M259.18,349.4v-4.35h-8.7V340.7h-4.35V332h-4.35v-8.7h-4.35V301.55h4.35v-8.71h4.35v-4.35h4.35v-4.35h8.7v-4.35h13.05v4.35h4.35v-4.35h8.7v4.35h13.05v-4.35h4.35v8.7h-4.35v4.35H294v4.36H280.93v-4.36h-4.35v-4.35h-4.35v-4.35h-8.7v4.35h-4.35v8.71h-4.35v26.1h4.35V332h4.35v4.35h8.7v4.35h8.7v-4.35h8.7V332h8.7v-4.35h4.35v8.7h-4.35v4.35H294v4.35h-4.35v4.35Zm17.4-34.8h-4.35v-4.35h-4.35V305.9h-4.35V292.84h4.35v-4.35h4.35v4.35h4.35v4.36h4.35v4.35h4.35v4.35h4.35v4.35H294V323.3h-4.35v4.35h-4.35V332h-17.4v-4.35h-4.35V323.3h-4.35v-8.7h4.35v8.7h4.35v4.35h4.35V323.3h4.35v-8.7Zm-13.05,0v-4.35h4.35v4.35Z" transform="translate(-237.43 -271.09)"/><path class="cls-1" d="M320.08,353.75V349.4h-8.7v-4.35H307V340.7h4.35V310.25h4.35V305.9h4.35v-4.35h4.35v34.8h4.35v4.35h4.35v4.35h-4.35v4.35h-4.35v4.35Zm17.4-17.4v4.35h-4.35V305.9h-4.35v-4.35h-4.35V297.2h4.35v-4.36h8.7v4.36h4.35v4.35h4.35V332h-4.35v4.35Z" transform="translate(-237.43 -271.09)"/><path class="cls-1" d="M372.28,310.25V340.7h4.35v4.35h-4.35v4.35h-4.35v4.35h-4.35V349.4h-4.35v-4.35h-4.35V340.7h4.35V310.25h-4.35V305.9h-4.35v-4.35h4.35V297.2h4.35v-4.36h4.35v4.36h4.35v4.35h4.35v4.35h4.35v4.35Zm21.75,0V340.7h4.35v4.35H394v4.35h-4.35v4.35h-4.35V349.4H381V305.9h-4.35v-8.7H381v-4.36h4.35v4.36h4.35v4.35H394v4.35h4.35v4.35Z" transform="translate(-237.43 -271.09)"/><path class="cls-1" d="M433.18,353.75h-4.35V349.4h-4.35v-4.35h-4.35v4.35h-4.35v4.35h-4.35V349.4h-4.35v-4.35h-4.35V314.6h4.35v-4.35h4.35V305.9h4.35v30.45h4.35v4.35h4.35V310.25h-4.35V305.9h-4.35v-4.35h4.35V297.2h4.35v-4.36h4.35v4.36h4.35v4.35h8.7v4.35h-4.35v39.15h4.35v4.35h4.35v13.05h-4.35v4.35h-34.8v-4.35h-4.35v-8.7h8.7v4.35h4.35v4.35h17.4v-8.7Z" transform="translate(-237.43 -271.09)"/><path class="cls-1" d="M459.28,353.75V349.4h-8.7v-4.35h-4.35V340.7h4.35V310.25h-4.35v-8.7h4.35V297.2h4.35v-4.36h4.35v4.36h4.35v4.35H468V297.2h4.35v-4.36h4.35v4.36H481v13.05h-4.35v4.35h-4.35v-4.35H468V305.9h-4.35v30.45H468v4.35h4.35v4.35H468v4.35h-4.35v4.35Z" transform="translate(-237.43 -271.09)"/><path class="cls-1" d="M524.53,345.05h-4.35v4.35h-4.35v4.35h-4.35V349.4h-4.35v-4.35h-4.35v4.35h-4.35v4.35h-4.35V349.4h-4.35v-4.35h-4.35V314.6h4.35v-4.35h4.35V305.9h4.35v30.45h4.35v4.35h4.35V310.25h-4.35V305.9h-4.35v-4.35h4.35V297.2h4.35v-4.36h4.35v4.36h4.35v4.35h8.7v4.35h-4.35v34.8h4.35Z" transform="translate(-237.43 -271.09)"/><path class="cls-1" d="M555,301.55h-8.7v34.8h4.35v4.35H555v4.35h-4.35v4.35h-4.35v4.35h-4.35V349.4h-4.35v-4.35h-4.35v-43.5h-4.35V297.2h4.35v-8.71h4.35v-4.35h4.35v-4.35h4.35v13H555Z" transform="translate(-237.43 -271.09)"/><path class="cls-1" d="M598.48,305.9v34.8h4.35v4.35h-4.35v4.35h-4.35v4.35h-4.35V349.4h-4.35v-4.35h-4.35v4.35h-4.35v4.35h-4.35V349.4H568v-4.35h-4.35v-34.8h-4.35v-8.7h4.35V297.2H568v-4.36h4.35v4.36h4.35v39.15h4.35v4.35h4.35V310.25h-4.35v-8.7h4.35V297.2h4.35v-4.36h4.35v4.36h4.35v4.35h4.35v4.35Z" transform="translate(-237.43 -271.09)"/><path class="cls-1" d="M611.53,314.6V279.79h-4.35v-4.35h4.35v4.35h4.35v-4.35h4.35v-4.35h8.7v4.35h-4.35v60.91h4.35v4.35h4.35v4.35h-4.35v4.35h-4.35v4.35h-4.35V349.4h-4.35v-4.35h-4.35V340.7h-4.35v-4.35h4.35Z" transform="translate(-237.43 -271.09)"/><path class="cls-1" d="M676.78,345.05h-4.35v4.35h-4.35v4.35h-4.35V349.4h-4.35v-4.35H655v4.35h-4.35v4.35h-4.35V349.4H642v-4.35h-4.36V314.6H642v-4.35h4.35V305.9h4.35v30.45H655v4.35h4.35V310.25H655V305.9h-4.35v-4.35H655V297.2h4.35v-4.36h4.35v4.36h4.35v4.35h8.7v4.35h-4.35v34.8h4.35Z" transform="translate(-237.43 -271.09)"/><path class="cls-1" d="M707.23,301.55h-8.7v34.8h4.35v4.35h4.35v4.35h-4.35v4.35h-4.35v4.35h-4.35V349.4h-4.35v-4.35h-4.35v-43.5h-4.36V297.2h4.36v-8.71h4.35v-4.35h4.35v-4.35h4.35v13h8.7Z" transform="translate(-237.43 -271.09)"/><path class="cls-1" d="M724.62,353.75V349.4h-4.35v-4.35h-4.35v-34.8h-4.35v-8.7h4.35V297.2h4.35v-4.36h4.35v4.36H729v4.35h4.35v4.35H729v30.45h4.35v4.35h4.35v4.35h-4.35v4.35H729v4.35Zm-8.7-74v-8.7H729v13.05h-4.36v4.35h-4.35v-8.7Z" transform="translate(-237.43 -271.09)"/><path class="cls-1" d="M755.07,353.75V349.4h-8.7v-4.35H742V340.7h4.35V310.25h4.35V305.9h4.35v-4.35h4.35v34.8h4.35v4.35h4.35v4.35h-4.35v4.35h-4.35v4.35Zm17.41-17.4v4.35h-4.36V305.9h-4.35v-4.35h-4.35V297.2h4.35v-4.36h8.71v4.36h4.35v4.35h4.35V332h-4.35v4.35Z" transform="translate(-237.43 -271.09)"/><path class="cls-1" d="M807.27,310.25V340.7h4.35v4.35h-4.35v4.35h-4.35v4.35h-4.35V349.4h-4.35v-4.35h-4.35V340.7h4.35V310.25h-4.35V305.9h-4.35v-4.35h4.35V297.2h4.35v-4.36h4.35v4.36h4.35v4.35h4.35v4.35h4.35v4.35Zm21.76,0V340.7h4.35v4.35H829v4.35h-4.35v4.35h-4.35V349.4H816V305.9h-4.36v-8.7H816v-4.36h4.35v4.36h4.35v4.35H829v4.35h4.35v4.35Z" transform="translate(-237.43 -271.09)"/></svg>