<svg id="Calque_1" data-name="Calque 1" xmlns="http://www.w3.org/2000/svg" viewBox="0 0 457.64 89.09"><defs><style>.cls-1{fill:#fff;}</style></defs><title>theenigmablanctypotitre</title><path class="cls-1" d="M303.59,313.61v-4.05h4.05v4.05Zm0,4.05v-4.05h4.05v4.05Zm4.05,44.55v-4h-4.05v-8.1h4.05v4.05h8.1v8.1Zm0-52.65v-4.05h4.05v4.05Zm20.25,52.65v-4h-8.1v-4.05h-4.05v-4.05h-8.1V342h4.05v-4h12.15v4h8.1V346H336v4.05H340v4.05h16.2v-4.05h4V342h-8.09v-4h8.09v4h4.05v12.15h-4.05v4.05h-4v4ZM340,342V346H336v-8.1h-4.05v-4.05h-4.05v-4.05h-4.05V317.66h4.05v-4.05H336v-4.05h-4.05v-4.05H311.69v-4.05h4.05v-4h28.35v4h8.1v4.05h4.05v4.05h8.09v8.1h-4.05v4H348.14v-4h-4.05v-4.05h-4v12.15h4v4.05h4.05v8.1h-4.05v4Zm8.1,4.05V342h4.05V346Zm20.24-44.55v8.1h-4.05v-4.05h-8.09v-8.1h8.09v4Z" transform="translate(-303.59 -289.31)"/><path class="cls-1" d="M396.74,358.16h-4.05v4h-4.05v4.05h-4.05v-4.05h-8.1v-4h-4.05v-4.05h4.05v-56.7h-4.05v-4.05h4.05v4.05h4.05v-4.05h4v-4.05h8.1v4.05h-4.05v24.3h4.05v4h-4.05v28.35h4.05v4.05h4.05Zm16.2-8.1h-4.05v12.15h-4.05v8.1h-4v4.05h-4.05v4.05h-4.05v-8.1h4.05v-8.1h4.05V325.76h-4.05v-8.1h-4.05v-4.05h4.05v-4.05h8.1v4.05h4.05v8.1h4.05Z" transform="translate(-303.59 -289.31)"/><path class="cls-1" d="M429.14,366.26v-4.05h-4.05v-4h-4v-4.05H417V325.76H421v-4.05h4v-4h4.05v16.2h4.05v4.05h-4.05V346h4.05v4.05h4.05v4.05h4.05v4.05h-4.05v4h-4.05v4.05Zm8.1-36.45v-4.05h-4.05v-8.1h-4.05v-4.05h4.05v-4.05h8.1v4.05h4v8.1h4.05v4.05h-4.05v4.05Zm-4.05,4.05v-4.05h4.05v4.05Z" transform="translate(-303.59 -289.31)"/><path class="cls-1" d="M485.83,362.21v-4h-8.09v-4.05h-4.05V346h-4.05v-8.1h-4.05V317.66h4.05v-8.1h4.05v-4.05h4.05v-4.05h8.09v-4H498v4h4v-4h8.1v4h12.15v-4h4.05v8.1h-4.05v4.05h-4v4.05H506.08v-4.05H502v-4.05h-4v-4.05h-8.1v4.05h-4.05v8.1h-4v24.3h4V346h4.05v4.05H498v4.05h8.1v-4.05h8.1V346h8.1V342h4.05v8.1h-4.05v4.05h-4v4.05h-4.05v4Zm16.2-32.4h-4v-4.05h-4.05v-4.05h-4.05V309.56h4.05v-4.05H498v4.05h4v4.05h4.05v4.05h4.05v4h4v4.05h4.05v12.15h-4.05v4h-4V346h-16.2V342h-4.05v-4h-4.05v-8.1h4.05v8.1h4.05v4H498v-4h4Zm-12.15,0v-4.05h4.05v4.05Zm24.3-8.1v-4h4.05v4Zm8.1,8.1v-4.05h-4v-8.1h8.1v4h4v8.1Zm8.1-8.1v-4h4v4Z" transform="translate(-303.59 -289.31)"/><path class="cls-1" d="M558.73,325.76v28.35h4v4.05h-4v4h-4.05v4.05h-4v-4.05h-4v-4h-4.05v-4.05h4.05V325.76h-4.05v-4.05h-4v-4h4v-4.05h4.05v-4.05h4v4.05h4v4.05h4.05v4h4v4.05Zm20.25,0v28.35h4v4.05h-4v4h-4.05v4.05h-4v-4.05h-4v-40.5h-4.05v-8.1h4.05v-4.05h4v4.05h4v4.05H579v4h4v4.05Z" transform="translate(-303.59 -289.31)"/><path class="cls-1" d="M599.23,366.26v-4.05h-4.05v-4h-4v-32.4h-4v-8.1h4v-4.05h4v-4.05h4.05v4.05h4v4.05h4.05v4h-4.05v28.35h4.05v4.05h4v4.05h-4v4h-4.05v4.05Zm-8.1-68.85v-8.1h12.15v12.15h-4v4.05h-4.05v-8.1Z" transform="translate(-303.59 -289.31)"/><path class="cls-1" d="M643.78,366.26h-4v-4.05h-4.05v-4h-4v4h-4v4.05h-4.05v-4.05h-4v-4h-4.05V329.81h4.05v-4.05h4v-4.05h4.05v28.35h4v4.05h4V325.76h-4v-4.05h-4v-4h4v-4.05h4v-4.05h4.05v4.05h4v4.05h8.1v4h-4v36.45h4v4h4v12.15h-4v4.05h-32.4v-4.05h-4.05v-8.1h8.1v4.05h4.05v4.05h16.2v-8.1Z" transform="translate(-303.59 -289.31)"/><path class="cls-1" d="M680.23,325.76h-4.05v28.35h4.05v4.05h-4.05v4h-4v4.05h-4v-4.05H664v-4h-4v-4.05h4V325.76h-4v-4.05h-4.05v-4H660v-4.05h4v-4.05h4.05v4.05h4v4.05h4v4h4.05Zm20.25,0h-4.05v28.35h4.05v4.05h-4.05v4h-4v4.05h-4v-4.05h-4.05v-40.5h-4v-8.1h4v-4.05h4.05v4.05h4v4.05h4v4h4.05Zm20.25,0h-4.05v28.35h4.05v4.05h-4.05v4h-4v4.05h-4v-4.05h-4.05v-40.5h-4v-8.1h4v-4.05h4.05v4.05h4v4.05h4v4h4.05Z" transform="translate(-303.59 -289.31)"/><path class="cls-1" d="M761.23,358.16h-4.05v4h-4v4.05h-4v-4.05H745v-4h-4v4h-4.05v4.05h-4v-4.05h-4v-4h-4.05V329.81h4.05v-4.05h4v-4.05h4v28.35H741v4.05h4V325.76h-4v-4.05h-4.05v-4H741v-4.05h4v-4.05h4.05v4.05h4v4.05h8.1v4h-4.05v32.4h4.05Z" transform="translate(-303.59 -289.31)"/></svg>