<?xml version="1.0" encoding="utf-8"?>
<!-- Generator: Adobe Illustrator 25.2.0, SVG Export Plug-In . SVG Version: 6.00 Build 0)  -->
<svg version="1.1" id="Calque_1" xmlns="http://www.w3.org/2000/svg" xmlns:xlink="http://www.w3.org/1999/xlink" x="0px" y="0px"
	 viewBox="0 0 939.6 165.7" style="enable-background:new 0 0 939.6 165.7;" xml:space="preserve">
<style type="text/css">
	.st0{display:none;}
	.st1{display:inline;fill:#F29D14;}
	.st2{fill:#FFFFFF;}
</style>
<g id="Calque_1_1_" class="st0">
	<rect x="110.6" y="138.2" class="st1" width="9.2" height="9.1"/>
	<rect x="110.6" y="138.2" class="st1" width="9.2" height="9.1"/>
	<polygon class="st1" points="110.6,156.5 101.4,156.5 101.4,165.8 83,165.8 83,174.9 55.4,174.9 55.4,165.7 37,165.8 37,156.5 
		27.8,156.5 27.8,147.3 18.4,147.3 18.4,128.9 9.2,128.9 9.2,92 18.4,92 18.4,73.6 27.8,73.6 27.8,55.3 37,55.3 37,46.1 46.2,46.1 
		46.2,64.5 36.9,64.5 37,73.6 37,101.4 46.2,101.4 46.2,128.9 55.4,128.9 55.4,138.2 64.6,138.2 64.6,147.3 83,147.3 110.6,147.3 	
		"/>
	<polygon class="st1" points="129.1,174.9 129.1,101.4 92.2,101.4 92.2,92 101.4,92 101.4,83 147.5,83 147.5,92 156.8,92 
		156.8,147.3 147.5,147.3 147.5,156.5 138.2,156.6 138.3,174.9 	"/>
	<polygon class="st1" points="64.6,128.9 64.6,64.4 73.8,64.4 73.8,55.3 83,55.3 83,119.7 73.8,119.7 73.8,128.9 	"/>
	<polygon class="st1" points="146.7,27.8 129.1,27.8 129.1,18.4 101.4,18.4 101.4,9.4 73.8,9.4 73.8,18.4 64.6,18.4 64.6,27.8 
		55.4,27.8 55.4,37 73.8,37 83,37 83,46.1 129.1,46.1 129.1,37 147.5,37 147.5,27.8 	"/>
	<polygon class="st1" points="636,156.5 626.8,156.5 626.8,165.8 608.4,165.8 608.4,174.9 580.9,174.9 580.9,165.7 562.4,165.8 
		562.4,156.5 553.2,156.5 553.2,147.3 543.9,147.3 543.9,128.9 534.6,128.9 534.6,92 543.9,92 543.9,73.6 553.2,73.6 553.2,55.3 
		562.4,55.3 562.4,46.1 571.6,46.1 571.6,64.5 562.4,64.5 562.4,73.6 562.4,101.4 571.6,101.4 571.6,128.9 580.9,128.9 580.9,138.2 
		590,138.2 590,147.3 608.4,147.3 636,147.3 	"/>
	<polygon class="st1" points="590,128.9 590,64.5 599.2,64.5 599.2,55.3 608.4,55.3 608.4,119.7 599.2,119.7 599.2,128.9 	"/>
	<rect x="636" y="138.2" class="st1" width="9.2" height="9.1"/>
	<polygon class="st1" points="590.2,27.6 599.4,27.6 599.4,18.3 617.8,18.3 617.8,9.2 645.4,9.2 645.4,18.4 663.9,18.3 663.9,27.6 
		673,27.6 673,36.8 682.4,36.8 682.4,55.2 691.6,55.2 691.6,92.1 682.4,92.1 682.4,110.5 673,110.5 673,128.8 663.9,128.8 
		663.9,138 654.6,138 654.6,119.6 663.9,119.6 663.9,110.5 663.9,82.7 654.6,82.7 654.6,55.2 645.4,55.2 645.4,45.9 636.2,45.9 
		636.2,36.8 617.8,36.8 590.2,36.8 	"/>
	<path class="st1" d="M248.7,156.5h-9.2v9.2h-9.2v9.2h-9.2v-9.2h-9.2v-9.2h-9.2v9.2h-9.2v9.2h-9.2v-9.2h-9.2v-9.2h-9.2V92.1h9.2
		v-9.2h9.2v-9.2h9.2v64.4h9.2v9.2h9.2V82.9h-9.2v-9.2h-9.2v-9.2h9.2v-9.2h9.2v-9.2h9.2v9.2h9.2v9.2h18.4v9.2h-9.2v73.6h9.2V156.5z"
		/>
	<path class="st1" d="M313.1,82.9h-9.2v64.4h9.2v9.2h-9.2v9.2h-9.2v9.2h-9.2v-9.2h-9.2v-9.2h-9.2v-9.2h9.2V82.9h-9.2v-9.2h-9.2v-9.2
		h9.2v-9.2h9.2v-9.2h9.2v9.2h9.2v9.2h9.2v9.2h9.2V82.9z M359.1,82.9h-9.2v64.4h9.2v9.2h-9.2v9.2h-9.2v9.2h-9.2v-9.2h-9.2v-92h-9.2
		V55.3h9.2v-9.2h9.2v9.2h9.2v9.2h9.2v9.2h9.2V82.9z M405.1,82.9h-9.2v64.4h9.2v9.2h-9.2v9.2h-9.2v9.2h-9.2v-9.2h-9.2v-92h-9.2V55.3
		h9.2v-9.2h9.2v9.2h9.2v9.2h9.2v9.2h9.2V82.9z"/>
	<path class="st1" d="M441.9,174.9v-9.2h-9.2v-9.2h-9.2v-9.2h-9.2V82.9h9.2v-9.2h9.2v-9.2h9.2v36.8h9.2v9.2h-9.2v18.4h9.2v9.2h9.2
		v9.2h9.2v9.2h-9.2v9.2h-9.2v9.2L441.9,174.9L441.9,174.9z M460.3,92.1v-9.2h-9.2V64.5h-9.2v-9.2h9.2v-9.2h18.4v9.2h9.2v18.4h9.2
		v9.2h-9.2v9.2C478.7,92.1,460.3,92.1,460.3,92.1z M451.1,101.3v-9.2h9.2v9.2H451.1z"/>
	<path class="st1" d="M728,174.9v-9.2h-18.4v-9.2h-9.2v-9.2h9.2V64.5h-9.2V36.9h9.2v-9.2H728v9.2h-9.2v9.2h9.2v9.2h9.2v9.2h9.2v-9.2
		h9.2v-9.2h9.2v9.2h9.2v9.2h9.2v64.4H774v9.2h-9.2v9.2h-9.2V82.9h-9.2v-9.2h-9.2v64.4h9.2v9.2h9.2v9.2h-9.2v9.2h-9.2v9.2H728z"/>
	<path class="st1" d="M820,174.9v-9.2h-9.2v-9.2h-9.2v-9.2h-9.2V82.9h9.2v-9.2h9.2v-9.2h9.2v36.8h9.2v9.2H820v18.4h9.2v9.2h9.2v9.2
		h9.2v9.2h-9.2v9.2h-9.2v9.2L820,174.9L820,174.9z M838.4,92.1v-9.2h-9.2V64.5H820v-9.2h9.2v-9.2h18.4v9.2h9.2v18.4h9.2v9.2h-9.2
		v9.2C856.8,92.1,838.4,92.1,838.4,92.1z M829.2,101.3v-9.2h9.2v9.2H829.2z"/>
	<path class="st1" d="M902.8,174.9v-9.2h-18.4v-9.2h-9.2v-9.2h9.2V82.9h-9.2V64.5h9.2v-9.2h9.2v-9.2h9.2v9.2h9.2v9.2h9.2v-9.2h9.2
		v-9.2h9.2v9.2h9.2v27.6h-9.2v9.2h-9.2v-9.2h-9.2v-9.2H912v64.4h9.2v9.2h9.2v9.2h-9.2v9.2H912v9.2H902.8z"/>
</g>
<g id="Calque_2_1_">
	<rect x="101.3" y="129" class="st2" width="9.2" height="9.1"/>
	<rect x="101.3" y="129" class="st2" width="9.2" height="9.1"/>
	<polygon class="st2" points="101.3,147.3 92.2,147.3 92.2,156.6 73.8,156.6 73.8,165.7 46.2,165.7 46.2,156.5 27.7,156.6 
		27.7,147.3 18.6,147.3 18.6,138.1 9.2,138.1 9.2,119.7 0,119.7 0,82.8 9.2,82.8 9.2,64.4 18.6,64.4 18.6,46.1 27.7,46.1 27.7,36.9 
		37,36.9 37,55.3 27.7,55.3 27.7,64.4 27.7,92.2 37,92.2 37,119.7 46.2,119.7 46.2,129 55.4,129 55.4,138.1 73.8,138.1 101.3,138.1 
			"/>
	<polygon class="st2" points="119.9,165.7 119.9,92.2 82.9,92.2 82.9,82.8 92.2,82.8 92.2,73.7 138.3,73.7 138.3,82.8 147.5,82.8 
		147.5,138.1 138.3,138.1 138.3,147.3 129,147.4 129.1,165.7 	"/>
	<polygon class="st2" points="55.4,119.7 55.4,55.2 64.6,55.2 64.6,46.1 73.8,46.1 73.8,110.5 64.6,110.5 64.6,119.7 	"/>
	<polygon class="st2" points="137.5,18.6 119.9,18.6 119.9,9.2 92.2,9.2 92.2,0.2 64.6,0.2 64.6,9.2 55.4,9.2 55.4,18.6 46.2,18.6 
		46.2,27.8 64.6,27.8 73.8,27.8 73.8,36.9 119.9,36.9 119.9,27.7 138.3,27.8 138.3,18.6 	"/>
	<polygon class="st2" points="626.8,147.3 617.6,147.3 617.6,156.6 599.2,156.6 599.2,165.7 571.7,165.7 571.7,156.5 553.2,156.6 
		553.2,147.3 544,147.3 544,138.1 534.7,138.1 534.7,119.7 525.4,119.7 525.4,82.8 534.7,82.8 534.7,64.4 544,64.4 544,46.1 
		553.2,46.1 553.2,36.9 562.4,36.9 562.4,55.3 553.2,55.3 553.2,64.4 553.2,92.2 562.4,92.2 562.4,119.7 571.7,119.7 571.7,129 
		580.8,129 580.8,138.1 599.2,138.1 626.8,138.1 	"/>
	<polygon class="st2" points="580.8,119.7 580.8,55.3 590,55.3 590,46.1 599.2,46.1 599.2,110.5 590,110.5 590,119.7 	"/>
	<rect x="626.8" y="129" class="st2" width="9.2" height="9.1"/>
	<polygon class="st2" points="581,18.4 590.2,18.4 590.2,9.1 608.6,9.1 608.6,0 636.2,0 636.2,9.2 654.7,9.1 654.7,18.4 663.8,18.4 
		663.8,27.6 673.2,27.6 673.2,46 682.4,46 682.4,82.9 673.2,82.9 673.2,101.3 663.8,101.3 663.8,119.6 654.7,119.6 654.7,128.8 
		645.4,128.8 645.4,110.4 654.7,110.4 654.7,101.3 654.7,73.5 645.4,73.5 645.4,46 636.2,46 636.2,36.7 627,36.7 627,27.6 
		608.6,27.6 581,27.6 	"/>
	<path class="st2" d="M239.5,147.3h-9.2v9.2h-9.2v9.2h-9.2v-9.2h-9.2v-9.2h-9.2v9.2h-9.2v9.2h-9.2v-9.2h-9.2v-9.2h-9.2V82.9h9.2
		v-9.2h9.2v-9.2h9.2v64.4h9.2v9.2h9.2V73.7h-9.2v-9.2h-9.2v-9.2h9.2v-9.2h9.2v-9.2h9.2v9.2h9.2v9.2h18.4v9.2h-9.2v73.6h9.2V147.3z"
		/>
	<path class="st2" d="M303.9,73.7h-9.2v64.4h9.2v9.2h-9.2v9.2h-9.2v9.2h-9.2v-9.2h-9.2v-9.2h-9.2v-9.2h9.2V73.7h-9.2v-9.2h-9.2v-9.2
		h9.2v-9.2h9.2v-9.2h9.2v9.2h9.2v9.2h9.2v9.2h9.2V73.7z M349.9,73.7h-9.2v64.4h9.2v9.2h-9.2v9.2h-9.2v9.2h-9.2v-9.2h-9.2v-92h-9.2
		V46.1h9.2v-9.2h9.2v9.2h9.2v9.2h9.2v9.2h9.2V73.7z M395.9,73.7h-9.2v64.4h9.2v9.2h-9.2v9.2h-9.2v9.2h-9.2v-9.2h-9.2v-92h-9.2V46.1
		h9.2v-9.2h9.2v9.2h9.2v9.2h9.2v9.2h9.2V73.7z"/>
	<path class="st2" d="M432.7,165.7v-9.2h-9.2v-9.2h-9.2v-9.2h-9.2V73.7h9.2v-9.2h9.2v-9.2h9.2v36.8h9.2v9.2h-9.2v18.4h9.2v9.2h9.2
		v9.2h9.2v9.2h-9.2v9.2h-9.2v9.2L432.7,165.7z M451.1,82.9v-9.2h-9.2V55.3h-9.2v-9.2h9.2v-9.2h18.4v9.2h9.2v18.4h9.2v9.2h-9.2v9.2
		C469.5,82.9,451.1,82.9,451.1,82.9z M441.9,92.1v-9.2h9.2v9.2H441.9z"/>
	<path class="st2" d="M718.8,165.7v-9.2h-18.4v-9.2h-9.2v-9.2h9.2V55.3h-9.2V27.7h9.2v-9.2h18.4v9.2h-9.2v9.2h9.2v9.2h9.2v9.2h9.2
		v-9.2h9.2v-9.2h9.2v9.2h9.2v9.2h9.2v64.4h-9.2v9.2h-9.2v9.2h-9.2V73.7h-9.2v-9.2H728v64.4h9.2v9.2h9.2v9.2h-9.2v9.2H728v9.2
		L718.8,165.7z"/>
	<path class="st2" d="M810.8,165.7v-9.2h-9.2v-9.2h-9.2v-9.2h-9.2V73.7h9.2v-9.2h9.2v-9.2h9.2v36.8h9.2v9.2h-9.2v18.4h9.2v9.2h9.2
		v9.2h9.2v9.2h-9.2v9.2H820v9.2L810.8,165.7z M829.2,82.9v-9.2H820V55.3h-9.2v-9.2h9.2v-9.2h18.4v9.2h9.2v18.4h9.2v9.2h-9.2v9.2
		C847.6,82.9,829.2,82.9,829.2,82.9z M820,92.1v-9.2h9.2v9.2H820z"/>
	<path class="st2" d="M893.6,165.7v-9.2h-18.4v-9.2H866v-9.2h9.2V73.7H866V55.3h9.2v-9.2h9.2v-9.2h9.2v9.2h9.2v9.2h9.2v-9.2h9.2
		v-9.2h9.2v9.2h9.2v27.6h-9.2v9.2h-9.2v-9.2H912v-9.2h-9.2v64.4h9.2v9.2h9.2v9.2H912v9.2h-9.2v9.2L893.6,165.7z"/>
</g>
</svg>
