<?xml version="1.0" encoding="utf-8"?>
<!-- Generator: Adobe Illustrator 25.2.0, SVG Export Plug-In . SVG Version: 6.00 Build 0)  -->
<svg version="1.1" id="Calque_1" xmlns="http://www.w3.org/2000/svg" xmlns:xlink="http://www.w3.org/1999/xlink" x="0px" y="0px"
	 viewBox="0 0 148.2 38" style="enable-background:new 0 0 148.2 38;" xml:space="preserve">
<style type="text/css">
	.st0{fill:#2D2150;}
</style>
<path class="st0" d="M20.9,24.7v1.9h3.8v-1.9h1.9v-1.9h1.9v5.7h-1.9v1.9H15.2v-1.9h-3.8v-1.9H9.5v-1.9H7.6v-1.9H1.9V19H0v-3.8h1.9
	v1.9h1.9V19h1.9v-1.9h1.9v-1.9H5.7v-3.8H3.8V7.6h1.9V3.8h1.9V1.9h1.9V0h13.3v1.9h1.9v1.9h1.9v7.6h-1.9v1.9h-1.9v1.9h1.9v1.9h1.9V19
	h-5.7v-1.9H19v-1.9h-1.9V9.5H19V5.7h1.9V3.8H19V1.9h-5.7v1.9h-1.9v3.8h1.9v3.8h1.9V19h-1.9v1.9h3.8v1.9H19v1.9L20.9,24.7z M5.7,28.5
	v1.9H1.9v-1.9H0v-5.7h1.9v1.9h5.7v3.8L5.7,28.5z M26.6,17.1v-3.8h1.9v3.8H26.6z"/>
<path class="st0" d="M36.1,32.3v-1.9h-1.9v-1.9h-1.9v-1.9h-1.9V13.3h1.9v-1.9h1.9V9.5h1.9v7.6H38V19h-1.9v3.8H38v1.9h1.9v1.9h1.9
	v1.9h-1.9v1.9H38v1.9H36.1z M39.9,15.3v-1.9H38V9.5h-1.9V7.6H38V5.7h3.8v1.9h1.9v3.8h1.9v1.9h-1.9v1.9L39.9,15.3z M38,17.2v-1.9h1.9
	v1.9H38z"/>
<path class="st0" d="M58.9,9.5h-3.8v15.2H57v1.9h1.9v1.9H57v1.9h-1.9v2h-1.9v-1.9h-1.9v-1.9h-1.9v-19h-1.9v-2h1.9V3.8h1.9V1.9h1.9V0
	h1.9v5.7h3.8C58.9,5.7,58.9,9.5,58.9,9.5z"/>
<path class="st0" d="M68.4,9.5h-1.9V7.6h-1.9V5.7h-1.9V3.8h1.9V1.9h1.9v1.9h1.9V9.5z M66.5,11.4h-1.9V9.5h1.9V11.4z"/>
<path class="st0" d="M85.5,1.9v5.7h-1.9v1.9h-1.9v1.9h1.9v1.9h1.9v3.8h1.9v5.7h-1.9v3.8h-1.9v1.9h-1.9V19h-1.9v-1.9H76V19h-1.9v-1.9
	h-1.9v-1.9h-1.9v-3.8h1.9V9.5h1.9V7.6H76V5.7h1.9V3.8h1.9v1.9h3.8V3.8h-1.9V1.9H76V0h7.6v1.9H85.5z M81.7,28.5v1.9h-1.9v2h-1.9v-1.9
	h-3.8v-1.9h-1.9v-1.9h-1.9V21h1.9v-2h1.9v3.8h3.8v1.9h1.9v3.8L81.7,28.5z M74.1,3.8V1.9H76v1.9H74.1z M79.8,15.2v-1.9h1.9v-1.9h-3.8
	V9.5H76v1.9h1.9v3.8H79.8z"/>
<path class="st0" d="M108.3,32.3h-1.9v-1.9h-1.9v-1.9h-1.9v1.9h-1.9v1.9h-1.9v-1.9h-1.9v-1.9H95V15.2h1.9v-1.9h1.9v-1.9h1.9v13.3
	h1.9v1.9h1.9V13.3h-1.9v-1.9h-1.9V9.5h1.9V7.6h1.9V5.7h1.9v1.9h1.9v1.9h3.8v1.9h-1.9v17.1h1.9v1.9h1.9v5.7h-1.9V38H96.9v-1.9H95
	v-3.8h3.8v1.9h1.9v1.9h7.6V32.3L108.3,32.3z"/>
<path class="st0" d="M119.7,32.3v-1.9h-3.8v-1.9H114v-1.9h1.9V13.3h1.9v-1.9h1.9V9.5h1.9v15.2h1.9v1.9h1.9v1.9h-1.9v1.9h-1.9v1.9
	H119.7z M127.3,24.7v1.9h-1.9V11.4h-1.9V9.5h-1.9V7.6h1.9V5.7h3.8v1.9h1.9v1.9h1.9v13.3h-1.9v1.9L127.3,24.7z"/>
<path class="st0" d="M146.3,1.9v1.9h1.9v17.1h-1.9v1.9h-1.9v-7.6h-1.9V1.9H146.3L146.3,1.9z M148.2,26.6v3.8h-1.9v2h-1.9v-1.9h-1.9
	v-3.8h1.9v-1.9h1.9v1.9L148.2,26.6z"/>
</svg>
