<?xml version="1.0" encoding="utf-8"?>
<!-- Generator: Adobe Illustrator 25.2.0, SVG Export Plug-In . SVG Version: 6.00 Build 0)  -->
<svg version="1.1" xmlns="http://www.w3.org/2000/svg" xmlns:xlink="http://www.w3.org/1999/xlink" x="0px" y="0px"
	 viewBox="0 0 684.2 254.8" style="enable-background:new 0 0 684.2 254.8;" xml:space="preserve">
<style type="text/css">
	.st0{fill:#48306D;}
	.st1{fill:#8473B2;}
	.st2{fill:#2E2150;}
	.st3{fill:#FFFFFF;}
	.st4{fill:#AFA5D1;stroke:#745FA5;stroke-width:6.3971;stroke-miterlimit:10;}
	.st5{fill:#F2C474;}
	.st6{fill:#F29D13;}
	.st7{fill:#EFA42B;}
	.st8{fill:#8473B2;stroke:#624D89;stroke-width:6.3971;stroke-miterlimit:10;}
	.st9{fill:#624D89;}
	.st10{fill:#745FA5;}
	.st11{fill:#48306D;stroke:#8473B2;stroke-width:6.3971;stroke-miterlimit:10;}
	.st12{fill:#2D2150;stroke:#8473B2;stroke-width:6.3971;stroke-miterlimit:10;}
	.st13{fill:#AFA5D1;}
</style>
<g id="Calque_1">
	<polygon class="st0" points="170.3,19.4 170.3,241.8 163.8,241.8 163.8,248.3 157.3,248.3 157.3,254.7 19.7,254.7 19.7,248.3 
		13.2,248.3 13.2,12.9 19.7,12.9 19.7,6.3 157.3,6.3 157.3,12.9 163.8,12.9 163.8,19.4 	"/>
	<rect x="6.7" y="19.4" class="st1" width="6.5" height="222.4"/>
	<polygon class="st2" points="163.8,12.9 163.8,235.4 157.2,235.4 157.2,241.9 150.8,241.9 150.8,248.3 13.2,248.3 13.2,241.9 
		6.7,241.9 6.7,235.4 0.2,235.4 0.2,12.9 6.7,12.9 6.7,6.5 13.2,6.5 13.2,-0.1 150.8,-0.1 150.8,6.5 157.2,6.5 157.2,12.9 	"/>
	<g>
		<path class="st3" d="M63.9,30.5h-1.1v-2.1h1.1v-1.1H65v-1.1h1.1v1.1h1.1v1.1h1.1v1.1h-1.1v12.8h1.1v1.1h-1.1v-1.1h-1.1v1.1H65v1.1
			h-2.1v-1.1H64v-2.1v-1.1v-1.1v-3.2v-1.1L63.9,30.5L63.9,30.5z M67,24.1h-1.1v1.1h-1.1v-2.1h-1.1V21h3.2L67,24.1L67,24.1z"/>
		<path class="st3" d="M72.4,41.1V40h-2.1v-1.1h-1.1v-1.1h1.1v-1.1v-2.1v-1.1v-3.2h1.1v-1.1h1.1v-1.1h1.1v8.5h1.1v1.1h1.1v1.1h-1.3
			v1.1h-1.1V41L72.4,41.1L72.4,41.1z M76.6,36.9V38h-1.1v-3.2v-1.1v-3.2v-1.1h-1v-1.1h-1.1v-1.1h1.1v-1.1h1.1h1.1v1.1h1.1v1.1h1.1
			v7.5h-1.1v1.1H76.6z"/>
		<path class="st3" d="M83,41.1V40h-1.1v-1.1h-1.1v-1.1h-1.1v-1.1v-1.1v-1.1v-1.9v-2.1h1.1v-1.1h1.1v-1.1H83v4.3h1.1v1.1H83v2.1h1.1
			v1.1h1.1V38h1.1v1.1h-1.1v1.1h-1.1v1.1H83V41.1z M85.2,31.5v-1.1h-1.1v-1.1v-1.1H83v-1.1h1.1V26h1.1h1.1v1.1h1.1v2.1h1.1v1.1h-1.1
			v1.1L85.2,31.5L85.2,31.5z M84.1,32.6v-1.1h1.1v1.1H84.1z"/>
		<path class="st3" d="M98,39h1.1h1.1v1.1h-7.5V39h2.1v-1.1v-1.1v-1.1v-2.1v-4.3h-1.1v-1.1h1.1v-1.1h1.1V26H97h1.1v13H98z
			 M93.7,30.5h-1.1v-1.1h1.1V30.5z"/>
	</g>
	<polygon class="st4" points="146.8,78.2 146.8,222.1 140.3,222.1 140.3,228.5 133.8,228.5 133.8,235.1 35.5,235.1 35.5,228.7 
		28.9,228.7 28.9,222.1 22.4,222.1 22.4,78.1 28.9,78.1 28.9,71.7 35.5,71.7 35.5,65.2 133.8,65.2 133.8,71.5 140.3,71.5 
		140.3,78.2 	"/>
	<g>
		<rect x="56.3" y="180.8" class="st0" width="56.7" height="6.3"/>
		<rect x="68.9" y="105.2" class="st5" width="37.8" height="37.8"/>
		<rect x="75.2" y="111.5" class="st6" width="6.3" height="12.6"/>
		<rect x="81.4" y="111.5" class="st7" width="6.3" height="12.6"/>
		<rect x="94" y="111.5" class="st7" width="6.3" height="12.6"/>
		<rect x="62.6" y="111.5" class="st6" width="6.3" height="12.6"/>
		<rect x="87.7" y="111.5" class="st6" width="6.3" height="12.6"/>
		<rect x="100.3" y="111.5" class="st6" width="6.3" height="12.6"/>
		<rect x="106.6" y="111.5" class="st7" width="6.3" height="12.6"/>
		<rect x="68.9" y="111.5" class="st7" width="6.3" height="12.6"/>
		<rect x="75.2" y="124.1" width="6.3" height="6.3"/>
		<rect x="94" y="124.1" width="6.3" height="6.3"/>
		<polygon class="st2" points="62.6,136.7 87.7,136.7 87.7,149.3 81.5,149.3 81.5,155.6 87.7,155.6 87.7,168.2 94,168.2 94,155.6 
			100.3,155.6 100.3,149.3 94,149.3 94,136.7 112.9,136.7 112.9,180.8 56.3,180.8 56.3,168.2 62.6,168.2 62.6,155.6 68.9,155.6 
			68.9,143 62.6,143 		"/>
		<polygon class="st6" points="87.7,143 94,143 94,149.3 100.3,149.3 100.3,155.6 94,155.6 94,168.2 87.7,168.2 87.7,155.6 
			81.5,155.6 81.5,149.3 87.7,149.3 		"/>
	</g>
</g>
<g id="Calque_2">
	<rect x="176.6" y="19.5" class="st1" width="6.5" height="222.4"/>
	<polygon class="st0" points="340.2,19.5 340.2,241.9 333.6,241.9 333.6,248.4 327.2,248.4 327.2,254.8 189.6,254.8 189.6,248.4 
		183.1,248.4 183.1,13 189.6,13 189.6,6.4 327.2,6.4 327.2,13 333.6,13 333.6,19.5 	"/>
	<polygon class="st2" points="333.6,13 333.6,235.5 327.1,235.5 327.1,242 320.6,242 320.6,248.4 183.1,248.4 183.1,242 176.6,242 
		176.6,235.5 170.1,235.5 170.1,13 176.6,13 176.6,6.6 183.1,6.6 183.1,0 320.6,0 320.6,6.6 327.1,6.6 327.1,13 	"/>
	<g>
		<path class="st3" d="M217.8,30.6h-1.1v-2.1h1.1v-1.1h1.1v-1.1h1.1v1.1h1.1v1.1h1.1v1.1H221v12.8h1.1v1.1H221v-1.1h-1.1v1.1h-1.1
			v1.1h-2.1v-1.1h1.1v-2.1v-1.1v-1.1V36v-1.1L217.8,30.6L217.8,30.6z M220.9,24.2h-1.1v1.1h-1v-2.1h-1.1v-2.1h3.2V24.2z"/>
		<path class="st3" d="M232.8,39.1h-1.1v1.1h-1.1v1.1h-1.1v-1.1h-1.1v-1.1h-1.1v1.1h-1.1v1.1h-1.1v-1.1H224v-1.1h-1.1v-3.2v-2.1
			v-2.1h1.1v-1.1h1.1v-1.1h1.1V37h1.1v1.1h1.1V36v-1.1v-1.1v-1.1v-2.1h-1.1v-1.1h-1.1v-1.1h1.1v-1.1h1.1v-1.1h1.1v1.1h1.1v1.1h2.1
			v1.1h-1.1V38h1.1v1.1H232.8z"/>
		<path class="st3" d="M240.1,30.6H239v7.5h1.1v1.1H239v1.1h-1.1v1.1h-1.1v-1.1h-1.1v-1.1h-0.9v-1.1h1.1v-3.2v-1.1v-3.2h-1.1v-1.1
			h-1.1v-1.1h1.1v-1.1h1.1v-1.1h1.1v1.1h1.1v1.1h1.1v1.1h1.1v1.1H240.1z M245.5,30.6h-1.1v7.5h1.1v1.1h-1.1v1.1h-1.1v1.1h-1.1v-1.1
			h-1.1v-2.1v-1.1v-3.2v-1.2v-2.1v-1.1H240v-2.1h1.1v-1.1h1.1v1.1h1.1v1.1h1.1v1.1h1.1V30.6z M250.8,30.6h-1.1v7.5h1.1v1.1h-1.1v1.1
			h-1.1v1.1h-1.1v-1.1h-1.1v-2.1v-1.1V36v-4.3v-2.1h-1.1v-1.1v-1.1h1.1v-1.1h1.1v1.1h1.1v1.1h1.1v1.1h1.1V30.6z"/>
		<path class="st3" d="M255.1,41.2v-1.1H254V39h-1.1v-1.1h-1.1v-1.1v-1.1v-1.1v-1.9v-2.1h1.1v-1.1h1.1v-1.1h1.1v4.3h1.1v1.1h-1.1
			v2.1h1.1V37h1.1v1.1h1.1v1.1h-1.1v1.1h-1.1v1.1h-1.1V41.2z M257.2,31.6v-1.1h-1.1v-1.1v-1.1H255v-1.1h1.1v-1.1h1.1h1.1v1.1h1.1
			v2.1h1.1v1.1h-1.1v1.1L257.2,31.6L257.2,31.6z M256.1,32.7v-1.1h1.1v1.1H256.1z"/>
		<path class="st3" d="M270,24.2v3.2h-1.1v1.1h-1.1v1.1h1.1v1.1h1.1v2h1.1v3.2H270V38h-1.1v1.1h-1.1V38v-2.1v-2.1h-1v-1.1h-2.1v1.1
			h-1.1v-1.1h-1.1v-1.1h-1.1v-2.1h1.1v-1.1h1.1v-1.1h1.1v-1.1h1.1v-1.1h1.1v1.1h2.1v-1.1H268V24h-3.2v-1.1h1.1h1.1h1.1h1.1V24h0.9
			V24.2z M268,39.1v1.1h-1.1v1.1h-1.1v-1.1h-2.1v-1.1h-1.1V38h-1.1v-3.2h1.1v-1.1h1.1v2.1h1.1h1.1v1.1h1.1V39h1V39.1z M263.6,25.2
			v-1.1h1.1v1.1H263.6z M266.9,31.6v-1.1h1.1v-1.1h-2.1v-1.1h-1.1v1.1h1.1v2.1L266.9,31.6L266.9,31.6z"/>
		<path class="st3" d="M280.8,32.7v-1.1h1.1v-2.1v-1.1h-1.1v-1.1h-2.1v3.2h-3.2v-1.1v-1.1h1.1v-1.1h1.1v-1.1h2.1h1.1h1.1h1.1v1.1
			h1.1v1.1h1.1v3.2h-1.4v1.2h-1v1.1h-2.1v1.1h-1.1V36h1.1v1.1h1.1v1.1h2.1v-1.1h1.1v2.1h-1.2v1.1h-5.3v-1.1h-2.1v1.1h-1.1v-2.1h1.1
			v-2.1h1.1V35h1.1v-1.1h1.1v-1.2H280.8z M286,35.9V37h-1.1v-1.1H286z"/>
	</g>
	<polygon class="st8" points="317.4,78.3 317.4,222.2 310.9,222.2 310.9,228.6 304.4,228.6 304.4,235.2 206,235.2 206,228.8 
		199.5,228.8 199.5,222.2 192.9,222.2 192.9,78.2 199.5,78.2 199.5,71.8 206,71.8 206,65.3 304.4,65.3 304.4,71.6 310.9,71.6 
		310.9,78.3 	"/>
	<rect x="239.4" y="105.9" class="st5" width="37.8" height="37.8"/>
	<rect x="245.7" y="112.2" class="st6" width="6.3" height="12.6"/>
	<rect x="252" y="112.2" class="st7" width="6.3" height="12.6"/>
	<rect x="264.6" y="112.2" class="st7" width="6.3" height="12.6"/>
	<rect x="233.1" y="112.2" class="st6" width="6.3" height="12.6"/>
	<rect x="258.4" y="112.2" class="st6" width="6.3" height="12.6"/>
	<rect x="271" y="112.2" class="st6" width="6.3" height="12.6"/>
	<rect x="277.2" y="112.2" class="st7" width="6.3" height="12.6"/>
	<rect x="239.4" y="112.2" class="st7" width="6.3" height="12.6"/>
	<rect x="245.7" y="124.8" width="6.3" height="6.3"/>
	<rect x="264.6" y="124.8" width="6.3" height="6.3"/>
	<polygon class="st9" points="233.1,137.4 258.4,137.4 258.4,150 252,150 252,156.3 258.4,156.3 258.4,168.8 264.6,168.8 
		264.6,156.3 271,156.3 271,150 264.6,150 264.6,137.4 283.5,137.4 283.5,181.4 226.8,181.4 226.8,168.8 233.1,168.8 233.1,156.3 
		239.4,156.3 239.4,143.7 233.1,143.7 	"/>
	<rect x="226.8" y="181.4" class="st10" width="56.7" height="6.3"/>
	<polygon class="st6" points="258.4,143.7 264.6,143.7 264.6,150 271,150 271,156.3 264.6,156.3 264.6,168.8 258.4,168.8 
		258.4,156.3 252,156.3 252,150 258.4,150 	"/>
</g>
<g id="Calque_3">
	<polygon class="st0" points="510.4,19.4 510.4,241.9 503.9,241.9 503.9,248.4 497.4,248.4 497.4,254.8 359.9,254.8 359.9,248.4 
		353.4,248.4 353.4,12.9 359.9,12.9 359.9,6.4 497.4,6.4 497.4,12.9 503.9,12.9 503.9,19.4 	"/>
	<polygon class="st2" points="503.9,13 503.9,235.5 497.4,235.5 497.4,241.9 490.9,241.9 490.9,248.4 353.4,248.4 353.4,241.9 
		346.9,241.9 346.9,235.5 340.3,235.5 340.3,13 346.9,13 346.9,6.5 353.4,6.5 353.4,0 490.9,0 490.9,6.5 497.4,6.5 497.4,13 	"/>
	<g>
		<path class="st3" d="M394.9,30.5h-1.1v-2.1h1.1v-1.1h1.1v-1.1h1.1v1.1h1.1v1.1h1.1v1.1h-1.1v12.8h1.1v1.1h-1.1v-1.1h-1.1v1.1H396
			v1.1h-2.1v-1.1h1.1v-2.2v-1.1V39v-3.2v-1.1v-4.2H394.9z M398.1,24.1H397v1.1h-1.1v-2.1h-1.1V21h3.2v3.1H398.1z"/>
		<path class="st3" d="M403.5,41.2v-1.1h-2.1V39h-1.1v-1.1h1.1v-1.1v-2.1v-1.1v-3.2h1.1v-1.1h1.1v-1.1h1.1v8.5h1.1v1.1h1.1v1.1h-1.1
			V40h-1.3v1.2H403.5z M407.8,36.9V38h-1.1v-3.2v-1.1v-3.2v-1.1h-1.1v-1.1h-1v-1.1h1.1v-1.1h1.1h1.1v1.1h1.1v1.1h1.1v7.5H409v1.1
			H407.8z"/>
		<path class="st3" d="M417.4,39.1h-1.1v1.1h-1.1v1H414v-1.1h-2.1V39h-1.1v-1.1h1.1v-1.1v-2.1v-5.3V23h-1.1v-1.1h1.1V23h1.1v-1.1
			h1.1v-1.1h2.1v1.1h-1.1v6.4h1.1v1.1h-1.1v7.5h1.1V38h1.1V39.1z M421.6,36.9h-1.1v3.2h-1.1v2.1h-1.1v1.1h-1.1v1.1h-1.1v-2.1h1.1
			v-1.1v-1.1h1.1V39v-2.1v-1.1v-2.1v-3.2h-1.1v-1.1v-1.1h-1.1v-1.1h1.1v-1.1h1.1h1.1v1.1h1.1v2.1h1.1V36.9z"/>
		<path class="st3" d="M428,30.5V38h1.1v1.1H428v1.1h-1.1v1h-1.1v-1.1h-1.1V39h-1.1v-1.1h1.1v-7.5h-1.1v-1.1h-1.1v-1.1h1.1v-1.1h1.1
			V26h1.1v1.1h1.1v1.1h1.1v1.1h1.1v1.1L428,30.5L428,30.5z M433.4,30.5V38h1.1v1.1h-1.1v1.1h-1.1v1h-1.1v-1.1H430v-3.2v-1.1v-1.1
			v-5.3h-1.1v-2.1h1.1v-1.1h1.1v1.1h1.1v1.1h1.1v1.1h1.1v1.1h-1.1V30.5z"/>
		<path class="st3" d="M446.1,32.7v1.1h1.1v1.1h1.1v6.3h-1.1v1.1h-1.1v1.1h-5.3v-1.1h-1.1v-1.1h-1.1v-1.1V39h1.1h2.1v2.2h1.1v1.1
			h1.1h1.1v-2.1v-2.1V37v-1.1h-1.1v-1.1H442v1.1h-2.1v-1.1v-7.5h1.1v-1.1h1.1v1.1h1.1h1.1v1.1h1.1h1.1v-1.1h1.1v2.1h-1.1v1.1h-3.2
			v-1.1h-2.1v3.2h1.1v1.1h1.1v-1.1h1.1L446.1,32.7L446.1,32.7z M448.2,26.3v1.1h-1.1v-1.1H448.2z"/>
	</g>
	<polygon class="st11" points="484.4,78.2 484.4,222.1 477.9,222.1 477.9,228.6 471.4,228.6 471.4,235.2 373,235.2 373,228.8 
		366.5,228.8 366.5,222.1 359.9,222.1 359.9,78.2 366.5,78.2 366.5,71.8 373,71.8 373,65.3 471.4,65.3 471.4,71.6 477.9,71.6 
		477.9,78.2 	"/>
	<rect x="406.2" y="106.2" class="st5" width="37.8" height="37.8"/>
	<rect x="412.5" y="112.5" class="st6" width="6.3" height="12.6"/>
	<rect x="418.9" y="112.5" class="st7" width="6.3" height="12.6"/>
	<rect x="431.4" y="112.5" class="st7" width="6.3" height="12.6"/>
	<rect x="399.9" y="112.5" class="st6" width="6.3" height="12.6"/>
	<rect x="425.1" y="112.5" class="st6" width="6.3" height="12.6"/>
	<rect x="437.8" y="112.5" class="st6" width="6.3" height="12.6"/>
	<rect x="443.9" y="112.5" class="st7" width="6.3" height="12.6"/>
	<rect x="406.2" y="112.5" class="st7" width="6.3" height="12.6"/>
	<rect x="412.5" y="125.1" width="6.3" height="6.3"/>
	<rect x="431.4" y="125.1" width="6.3" height="6.3"/>
	<polygon class="st10" points="399.9,137.7 425.1,137.7 425.1,150.2 418.9,150.2 418.9,156.5 425.1,156.5 425.1,169.1 431.4,169.1 
		431.4,156.5 437.8,156.5 437.8,150.2 431.4,150.2 431.4,137.7 450.2,137.7 450.2,181.7 393.6,181.7 393.6,169.1 399.9,169.1 
		399.9,156.5 406.2,156.5 406.2,144 399.9,144 	"/>
	<rect x="393.6" y="181.7" class="st1" width="56.7" height="6.3"/>
	<polygon class="st6" points="425.1,144 431.4,144 431.4,150.2 437.8,150.2 437.8,156.5 431.4,156.5 431.4,169.1 425.1,169.1 
		425.1,156.5 418.9,156.5 418.9,150.2 425.1,150.2 	"/>
</g>
<g id="Calque_4">
	<polygon class="st0" points="680.8,19.5 680.8,241.9 674.3,241.9 674.3,248.4 667.8,248.4 667.8,254.8 530.3,254.8 530.3,248.4 
		523.8,248.4 523.8,13 530.3,13 530.3,6.4 667.8,6.4 667.8,13 674.3,13 674.3,19.5 	"/>
	<polygon class="st2" points="674.3,13 674.3,235.5 667.8,235.5 667.8,242 661.3,242 661.3,248.4 523.8,248.4 523.8,242 517.3,242 
		517.3,235.5 510.8,235.5 510.8,13 517.3,13 517.3,6.6 523.8,6.6 523.8,0 661.3,0 661.3,6.6 667.8,6.6 667.8,13 	"/>
	<g>
		<path class="st3" d="M570.7,30.6h-1.1v-2.1h1.1v-1.1h1.1v-1.1h1.1v1.1h1.1v1.1h1.1v1.1H574v12.8h1.1v1.1H574v-1.1h-1.1v1.1h-1.1
			v1.1h-2.1v-1.1h1.1v-2.1v-1.1v-1.1V36v-1.1L570.7,30.6L570.7,30.6z M573.9,24.2h-1.1v1.1h-1.1v-2.1h-1v-2.1h3.2V24.2z"/>
		<path class="st3" d="M579.2,41.2v-1.1h-1.1V39H577v-3.2v-4.3v-1.1h-1.1v-2.1h1.1v-1.1h1.1v-1.1h1.1v1.1h1.1v1.1h1.1v1.1h-1.1v7.5
			h1.1V38h1.1v1.1h-1.1v1.1h-1.1v1.1L579.2,41.2L579.2,41.2z M577.1,23.1V21h1.1h1.1h1.1v3.2h-1.1v1.1h-1.1v-1.1v-1.1
			C578.2,23.1,577.1,23.1,577.1,23.1z"/>
		<path class="st3" d="M589.9,30.6h-1.1v7.5h1.1v1.1h-1.1v1.1h-1.1v1.1h-1v-1.1h-1.1v-1.1h-1.1v-1.1h1.1v-3.2v-1.1v-3.2h-1.1v-1.1
			h-1.1v-1.1h1.1v-1.1h1.1v-1.1h1.1v1.1h1.1v1.1h1.1v1.1h1.1v1.1H589.9z M595.2,30.6h-1.1v7.5h1.1v1.1h-1.1v1.1H593v1.1h-1.1v-1.1
			h-1.1v-2.1v-1.1v-3.2v-1.2v-2.1v-1.1h-1.1v-2.1h1.1v-1.1h1.1v1.1h1.1v1.1h1.1v1.1h1.1V30.6z M600.5,30.6h-1.1v7.5h1.1v1.1h-1.1
			v1.1h-1.1v1.1h-1.1v-1.1h-1.1v-2.1v-1.1V36v-4.3v-2.1H595v-1.1v-1.1h1.1v-1.1h1.1v1.1h1.1v1.1h1.1v1.1h1.1V30.6z"/>
		<path class="st3" d="M606.9,31.6v-1.1h-1.1v-1.1h-1.1v-3.2v-1.1h1.1V24h1.1v-1.1h2.1h1.1h2.1V24h1.1v1.1h1.1v4.3h-1.1v1.1h-1.1
			v1.1h1.1v1.1h1.1V38h-1.1v1.1h-1.1v1.1h-5.3v-1.1h-1.1V38h-1.1v-2.1v-1.1v-1.1v-1h1.1v-1.1H606.9z M611.2,30.6v-2.1v-3.2h-1.1
			v-1.1H608v5.3h1.1v1.1h1.1H611.2z M611.2,32.7h-1.1v-1.1H608V38h1.1v1.1h1.1h1.1V37v-1.1v-1.1v-1.1L611.2,32.7L611.2,32.7z"/>
	</g>
	<polygon class="st12" points="657.1,78.3 657.1,222.2 650.5,222.2 650.5,228.6 644.1,228.6 644.1,235.2 545.8,235.2 545.8,228.8 
		539.2,228.8 539.2,222.2 532.7,222.2 532.7,78.2 539.2,78.2 539.2,71.8 545.8,71.8 545.8,65.3 644.1,65.3 644.1,71.6 650.5,71.6 
		650.5,78.3 	"/>
	<rect x="572.9" y="110" class="st6" width="6.3" height="12.6"/>
	<rect x="579.1" y="103.7" class="st5" width="37.8" height="37.8"/>
	<rect x="585.4" y="110" class="st6" width="6.3" height="12.6"/>
	<rect x="591.7" y="110" class="st7" width="6.3" height="12.6"/>
	<rect x="604.3" y="110" class="st7" width="6.3" height="12.6"/>
	<rect x="598" y="110" class="st6" width="6.3" height="12.6"/>
	<rect x="610.6" y="110" class="st6" width="6.3" height="12.6"/>
	<rect x="616.9" y="110" class="st7" width="6.3" height="12.6"/>
	<rect x="579.1" y="110" class="st7" width="6.3" height="12.6"/>
	<rect x="585.4" y="122.6" width="6.3" height="6.3"/>
	<rect x="604.3" y="122.6" width="6.3" height="6.3"/>
	<polygon class="st1" points="572.9,135.1 598,135.1 598,147.7 591.7,147.7 591.7,154 598,154 598,166.6 604.3,166.6 604.3,154 
		610.6,154 610.6,147.7 604.3,147.7 604.3,135.1 623.2,135.1 623.2,179.2 566.6,179.2 566.6,166.6 572.9,166.6 572.9,154 579.1,154 
		579.1,141.4 572.9,141.4 	"/>
	<rect x="566.6" y="179.2" class="st13" width="56.7" height="6.3"/>
	<polygon class="st6" points="598,141.4 604.3,141.4 604.3,147.7 610.6,147.7 610.6,154 604.3,154 604.3,166.6 598,166.6 598,154 
		591.7,154 591.7,147.7 598,147.7 	"/>
</g>
</svg>
