<?xml version="1.0" encoding="utf-8"?>
<!-- Generator: Adobe Illustrator 25.2.0, SVG Export Plug-In . SVG Version: 6.00 Build 0)  -->
<svg version="1.1" id="Calque_1" xmlns="http://www.w3.org/2000/svg" xmlns:xlink="http://www.w3.org/1999/xlink" x="0px" y="0px"
	 viewBox="0 0 283.5 283.5" style="enable-background:new 0 0 283.5 283.5;" xml:space="preserve">
<style type="text/css">
	.st0{fill:#8473B2;}
	.st1{fill:#48306D;}
	.st2{fill:#2E2150;}
	.st3{fill:#FFFFFF;}
	.st4{fill:#8473B2;stroke:#624D89;stroke-width:6.3971;stroke-miterlimit:10;}
	.st5{fill:#F2C474;}
	.st6{fill:#F29D13;}
	.st7{fill:#EFA42B;}
	.st8{fill:#624D89;}
	.st9{fill:#745FA5;}
</style>
<rect x="70.8" y="33.8" class="st0" width="6.5" height="222.4"/>
<polygon class="st1" points="234.4,33.8 234.4,256.2 227.8,256.2 227.8,262.7 221.4,262.7 221.4,269.1 83.8,269.1 83.8,262.7 
	77.3,262.7 77.3,27.3 83.8,27.3 83.8,20.7 221.4,20.7 221.4,27.3 227.8,27.3 227.8,33.8 "/>
<polygon class="st2" points="227.8,27.3 227.8,249.8 221.3,249.8 221.3,256.3 214.8,256.3 214.8,262.7 77.3,262.7 77.3,256.3 
	70.8,256.3 70.8,249.8 64.3,249.8 64.3,27.3 70.8,27.3 70.8,20.9 77.3,20.9 77.3,14.3 214.8,14.3 214.8,20.9 221.3,20.9 221.3,27.3 
	"/>
<g>
	<path class="st3" d="M111.9,44.9h-1.1v-2.1h1.1v-1.1h1.1v-1.1h1.1v1.1h1.1v1.1h1.1v1.1h-1.1v12.8h1.1v1.1h-1.1v-1.1h-1.1v1.1H113
		v1.1h-2.1v-1.1h1.1v-2.1v-1.1v-1.1v-3.2v-1.1V44.9z M115.1,38.5h-1.1v1.1H113v-2.1h-1.1v-2.1h3.2V38.5z"/>
	<path class="st3" d="M126.9,53.4h-1.1v1.1h-1.1v1.1h-1.1v-1.1h-1.1v-1.1h-1.1v1.1h-1.1v1.1h-1.1v-1.1h-1.1v-1.1h-1.1v-3.2v-2.1
		v-2.1h1.1v-1.1h1.1v-1.1h1.1v7.5h1.1v1.1h1.1v-2.1v-1.1v-1.1V47v-2.1h-1.1v-1.1h-1.1v-1.1h1.1v-1.1h1.1v-1.1h1.1v1.1h1.1v1.1h2.1
		v1.1h-1.1v8.5h1.1V53.4z"/>
	<path class="st3" d="M134.3,44.9h-1.1v7.5h1.1v1.1h-1.1v1.1h-1.1v1.1h-1.1v-1.1h-1.1v-1.1H129v-1.1h1.1v-3.2v-1.1v-3.2H129v-1.1
		h-1.1v-1.1h1.1v-1.1h1.1v-1.1h1.1v1.1h1.1v1.1h1.1v1.1h1.1V44.9z M139.7,44.9h-1.1v7.5h1.1v1.1h-1.1v1.1h-1.1v1.1h-1.1v-1.1h-1.1
		v-2.1v-1.1v-3.2V47v-2.1v-1.1h-1.1v-2.1h1.1v-1.1h1.1v1.1h1.1v1.1h1.1v1.1h1.1V44.9z M145,44.9h-1.1v7.5h1.1v1.1h-1.1v1.1h-1.1v1.1
		h-1.1v-1.1h-1.1v-2.1v-1.1v-1.1v-4.3v-2.1h-1.1v-1.1v-1.1h1.1v-1.1h1.1v1.1h1.1v1.1h1.1v1.1h1.1V44.9z"/>
	<path class="st3" d="M149.3,55.5v-1.1h-1.1v-1.1h-1.1v-1.1h-1.1v-1.1v-1.1v-1.1V47v-2.1h1.1v-1.1h1.1v-1.1h1.1V47h1.1v1.1h-1.1v2.1
		h1.1v1.1h1.1v1.1h1.1v1.1h-1.1v1.1h-1.1v1.1H149.3z M151.4,45.9v-1.1h-1.1v-1.1v-1.1h-1.1v-1.1h1.1v-1.1h1.1h1.1v1.1h1.1v2.1h1.1
		v1.1h-1.1v1.1H151.4z M150.3,47v-1.1h1.1V47H150.3z"/>
	<path class="st3" d="M164.2,38.5v3.2h-1.1v1.1h-1.1v1.1h1.1v1.1h1.1V47h1.1v3.2h-1.1v2.1h-1.1v1.1h-1.1v-1.1v-2.1v-2.1H161V47h-2.1
		v1.1h-1.1V47h-1.1v-1.1h-1.1v-2.1h1.1v-1.1h1.1v-1.1h1.1v-1.1h1.1v-1.1h1.1v1.1h2.1v-1.1h-1.1v-1.1h-3.2v-1.1h1.1h1.1h1.1h1.1v1.1
		H164.2z M162.1,53.4v1.1H161v1.1h-1.1v-1.1h-2.1v-1.1h-1.1v-1.1h-1.1v-3.2h1.1v-1.1h1.1v2.1h1.1h1.1v1.1h1.1v2.1H162.1z
		 M157.8,39.5v-1.1h1.1v1.1H157.8z M161,45.9v-1.1h1.1v-1.1h-2.1v-1.1h-1.1v1.1h1.1v2.1H161z"/>
	<path class="st3" d="M174.9,47v-1.1h1.1v-2.1v-1.1h-1.1v-1.1h-2.1v3.2h-3.2v-1.1v-1.1h1.1v-1.1h1.1v-1.1h2.1h1.1h1.1h1.1v1.1h1.1
		v1.1h1.1v3.2H178V47H177v1.1h-2.1v1.1h-1.1v1.1h1.1v1.1h1.1v1.1h2.1v-1.1h1.1v2.1H178v1.1h-5.3v-1.1h-2.1v1.1h-1.1v-2.1h1.1v-2.1
		h1.1v-1.1h1.1v-1.1h1.1V47H174.9z M180.2,50.2v1.1h-1.1v-1.1H180.2z"/>
</g>
<polygon class="st4" points="211.5,92.6 211.5,236.5 205,236.5 205,242.9 198.5,242.9 198.5,249.5 100.2,249.5 100.2,243.1 
	93.7,243.1 93.7,236.5 87.1,236.5 87.1,92.5 93.7,92.5 93.7,86.1 100.2,86.1 100.2,79.6 198.5,79.6 198.5,85.9 205,85.9 205,92.6 
	"/>
<rect x="133.6" y="120.2" class="st5" width="37.8" height="37.8"/>
<rect x="139.9" y="126.5" class="st6" width="6.3" height="12.6"/>
<rect x="146.2" y="126.5" class="st7" width="6.3" height="12.6"/>
<rect x="158.8" y="126.5" class="st7" width="6.3" height="12.6"/>
<rect x="127.3" y="126.5" class="st6" width="6.3" height="12.6"/>
<rect x="152.5" y="126.5" class="st6" width="6.3" height="12.6"/>
<rect x="165.1" y="126.5" class="st6" width="6.3" height="12.6"/>
<rect x="171.4" y="126.5" class="st7" width="6.3" height="12.6"/>
<rect x="133.6" y="126.5" class="st7" width="6.3" height="12.6"/>
<rect x="139.9" y="139.1" width="6.3" height="6.3"/>
<rect x="158.8" y="139.1" width="6.3" height="6.3"/>
<polygon class="st8" points="127.3,151.7 152.5,151.7 152.5,164.3 146.2,164.3 146.2,170.6 152.5,170.6 152.5,183.1 158.8,183.1 
	158.8,170.6 165.1,170.6 165.1,164.3 158.8,164.3 158.8,151.7 177.7,151.7 177.7,195.7 121,195.7 121,183.1 127.3,183.1 
	127.3,170.6 133.6,170.6 133.6,158 127.3,158 "/>
<rect x="121" y="195.7" class="st9" width="56.7" height="6.3"/>
<polygon class="st6" points="152.5,158 158.8,158 158.8,164.3 165.1,164.3 165.1,170.6 158.8,170.6 158.8,183.1 152.5,183.1 
	152.5,170.6 146.2,170.6 146.2,164.3 152.5,164.3 "/>
</svg>
