<?xml version="1.0" encoding="utf-8"?>
<!-- Generator: Adobe Illustrator 25.2.0, SVG Export Plug-In . SVG Version: 6.00 Build 0)  -->
<svg version="1.1" id="Calque_1" xmlns="http://www.w3.org/2000/svg" xmlns:xlink="http://www.w3.org/1999/xlink" x="0px" y="0px"
	 viewBox="0 0 283.5 283.5" style="enable-background:new 0 0 283.5 283.5;" xml:space="preserve">
<style type="text/css">
	.st0{fill:#48306D;}
	.st1{fill:#2E2150;}
	.st2{fill:#FFFFFF;}
	.st3{fill:#48306D;stroke:#8473B2;stroke-width:6.3971;stroke-miterlimit:10;}
	.st4{fill:#F2C474;}
	.st5{fill:#F29D13;}
	.st6{fill:#EFA42B;}
	.st7{fill:#745FA5;}
	.st8{fill:#8473B2;}
</style>
<polygon class="st0" points="230.9,36.2 230.9,258.7 224.4,258.7 224.4,265.2 217.9,265.2 217.9,271.6 80.4,271.6 80.4,265.2 
	73.9,265.2 73.9,29.7 80.4,29.7 80.4,23.2 217.9,23.2 217.9,29.7 224.4,29.7 224.4,36.2 "/>
<polygon class="st1" points="224.4,29.8 224.4,252.3 217.9,252.3 217.9,258.7 211.4,258.7 211.4,265.2 73.9,265.2 73.9,258.7 
	67.3,258.7 67.3,252.3 60.8,252.3 60.8,29.8 67.3,29.8 67.3,23.3 73.9,23.3 73.9,16.8 211.4,16.8 211.4,23.3 217.9,23.3 217.9,29.8 
	"/>
<g>
	<path class="st2" d="M115.4,47.3h-1.1v-2.1h1.1v-1.1h1.1v-1.1h1.1v1.1h1.1v1.1h1.1v1.1h-1.1v12.8h1.1v1.1h-1.1v-1.1h-1.1v1.1h-1.1
		v1.1h-2.1v-1.1h1.1V58v-1.1v-1.1v-3.2v-1.1V47.3z M118.6,40.9h-1.1V42h-1.1v-2.1h-1.1v-2.1h3.2V40.9z"/>
	<path class="st2" d="M124,58v-1.1h-2.1v-1.1h-1.1v-1.1h1.1v-1.1v-2.1v-1.1v-3.2h1.1v-1.1h1.1v-1.1h1.1v8.5h1.1v1.1h1.1v1.1h-1.1
		v1.1H125V58H124z M128.2,53.7v1.1h-1.1v-3.2v-1.1v-3.2v-1.1h-1.1v-1.1H125v-1.1h1.1v-1.1h1.1h1.1v1.1h1.1v1.1h1.1v7.5h-1.1v1.1
		H128.2z"/>
	<path class="st2" d="M137.8,55.9h-1.1v1.1h-1.1V58h-1.1v-1.1h-2.1v-1.1h-1.1v-1.1h1.1v-1.1v-2.1v-5.3v-6.4h-1.1v-1.1h1.1v1.1h1.1
		v-1.1h1.1v-1.1h2.1v1.1h-1.1v6.4h1.1v1.1h-1.1v7.5h1.1v1.1h1.1V55.9z M142.1,53.7H141v3.2h-1.1v2.1h-1.1v1.1h-1.1v1.1h-1.1v-2.1
		h1.1V58v-1.1h1.1v-1.1v-2.1v-1.1v-2.1v-3.2h-1.1v-1.1v-1.1h-1.1v-1.1h1.1v-1.1h1.1h1.1v1.1h1.1v2.1h1.1V53.7z"/>
	<path class="st2" d="M148.5,47.3v7.5h1.1v1.1h-1.1v1.1h-1.1V58h-1.1v-1.1h-1.1v-1.1h-1.1v-1.1h1.1v-7.5h-1.1v-1.1h-1.1v-1.1h1.1
		v-1.1h1.1v-1.1h1.1v1.1h1.1v1.1h1.1v1.1h1.1v1.1H148.5z M153.8,47.3v7.5h1.1v1.1h-1.1v1.1h-1.1V58h-1.1v-1.1h-1.1v-3.2v-1.1v-1.1
		v-5.3h-1.1v-2.1h1.1v-1.1h1.1v1.1h1.1v1.1h1.1v1.1h1.1v1.1H153.8z"/>
	<path class="st2" d="M166.6,49.5v1.1h1.1v1.1h1.1V58h-1.1v1.1h-1.1v1.1h-5.3v-1.1h-1.1V58h-1.1v-1.1v-1.1h1.1h2.1V58h1.1v1.1h1.1
		h1.1v-2.1v-2.1v-1.1v-1.1h-1.1v-1.1h-2.1v1.1h-2.1v-1.1v-7.5h1.1v-1.1h1.1v1.1h1.1h1.1v1.1h1.1h1.1v-1.1h1.1v2.1h-1.1v1.1h-3.2
		v-1.1h-2.1v3.2h1.1v1.1h1.1v-1.1h1.1H166.6z M168.7,43.1v1.1h-1.1v-1.1H168.7z"/>
</g>
<polygon class="st3" points="204.8,95 204.8,238.9 198.3,238.9 198.3,245.4 191.8,245.4 191.8,252 93.5,252 93.5,245.6 87,245.6 
	87,238.9 80.4,238.9 80.4,95 87,95 87,88.6 93.5,88.6 93.5,82.1 191.8,82.1 191.8,88.4 198.3,88.4 198.3,95 "/>
<rect x="126.7" y="123" class="st4" width="37.8" height="37.8"/>
<rect x="133" y="129.3" class="st5" width="6.3" height="12.6"/>
<rect x="139.3" y="129.3" class="st6" width="6.3" height="12.6"/>
<rect x="151.9" y="129.3" class="st6" width="6.3" height="12.6"/>
<rect x="120.4" y="129.3" class="st5" width="6.3" height="12.6"/>
<rect x="145.6" y="129.3" class="st5" width="6.3" height="12.6"/>
<rect x="158.2" y="129.3" class="st5" width="6.3" height="12.6"/>
<rect x="164.4" y="129.3" class="st6" width="6.3" height="12.6"/>
<rect x="126.7" y="129.3" class="st6" width="6.3" height="12.6"/>
<rect x="133" y="141.9" width="6.3" height="6.3"/>
<rect x="151.9" y="141.9" width="6.3" height="6.3"/>
<polygon class="st7" points="120.4,154.5 145.6,154.5 145.6,167 139.3,167 139.3,173.3 145.6,173.3 145.6,185.9 151.9,185.9 
	151.9,173.3 158.2,173.3 158.2,167 151.9,167 151.9,154.5 170.7,154.5 170.7,198.5 114.1,198.5 114.1,185.9 120.4,185.9 
	120.4,173.3 126.7,173.3 126.7,160.8 120.4,160.8 "/>
<rect x="114.1" y="198.5" class="st8" width="56.7" height="6.3"/>
<polygon class="st5" points="145.6,160.8 151.9,160.8 151.9,167 158.2,167 158.2,173.3 151.9,173.3 151.9,185.9 145.6,185.9 
	145.6,173.3 139.3,173.3 139.3,167 145.6,167 "/>
</svg>
