<?xml version="1.0" encoding="utf-8"?>
<!-- Generator: Adobe Illustrator 25.2.0, SVG Export Plug-In . SVG Version: 6.00 Build 0)  -->
<svg version="1.1" id="Calque_1" xmlns="http://www.w3.org/2000/svg" xmlns:xlink="http://www.w3.org/1999/xlink" x="0px" y="0px"
	 viewBox="0 0 283.5 283.5" style="enable-background:new 0 0 283.5 283.5;" xml:space="preserve">
<style type="text/css">
	.st0{fill:#48306D;}
	.st1{fill:#2E2150;}
	.st2{fill:#FFFFFF;}
	.st3{fill:#2D2150;stroke:#8473B2;stroke-width:6.3971;stroke-miterlimit:10;}
	.st4{fill:#F29D13;}
	.st5{fill:#F2C474;}
	.st6{fill:#EFA42B;}
	.st7{fill:#8473B2;}
	.st8{fill:#AFA5D1;}
</style>
<polygon class="st0" points="227.1,33.8 227.1,256.2 220.6,256.2 220.6,262.7 214.1,262.7 214.1,269.1 76.6,269.1 76.6,262.7 
	70.1,262.7 70.1,27.3 76.6,27.3 76.6,20.7 214.1,20.7 214.1,27.3 220.6,27.3 220.6,33.8 "/>
<polygon class="st1" points="220.6,27.3 220.6,249.8 214.1,249.8 214.1,256.3 207.6,256.3 207.6,262.7 70.1,262.7 70.1,256.3 
	63.6,256.3 63.6,249.8 57.1,249.8 57.1,27.3 63.6,27.3 63.6,20.9 70.1,20.9 70.1,14.3 207.6,14.3 207.6,20.9 214.1,20.9 214.1,27.3 
	"/>
<g>
	<path class="st2" d="M117,44.9h-1.1v-2.1h1.1v-1.1h1.1v-1.1h1.1v1.1h1.1v1.1h1.1v1.1h-1.1v12.8h1.1v1.1h-1.1v-1.1h-1.1v1.1h-1.1
		v1.1h-2.1v-1.1h1.1v-2.1v-1.1v-1.1v-3.2v-1.1V44.9z M120.2,38.5h-1.1v1.1h-1.1v-2.1H117v-2.1h3.2V38.5z"/>
	<path class="st2" d="M125.5,55.5v-1.1h-1.1v-1.1h-1.1v-3.2v-4.3v-1.1h-1.1v-2.1h1.1v-1.1h1.1v-1.1h1.1v1.1h1.1v1.1h1.1v1.1h-1.1
		v7.5h1.1v1.1h1.1v1.1h-1.1v1.1h-1.1v1.1H125.5z M123.4,37.4v-2.1h1.1h1.1h1.1v3.2h-1.1v1.1h-1.1v-1.1v-1.1H123.4z"/>
	<path class="st2" d="M136.2,44.9h-1.1v7.5h1.1v1.1h-1.1v1.1h-1.1v1.1H133v-1.1h-1.1v-1.1h-1.1v-1.1h1.1v-3.2v-1.1v-3.2h-1.1v-1.1
		h-1.1v-1.1h1.1v-1.1h1.1v-1.1h1.1v1.1h1.1v1.1h1.1v1.1h1.1V44.9z M141.5,44.9h-1.1v7.5h1.1v1.1h-1.1v1.1h-1.1v1.1h-1.1v-1.1h-1.1
		v-2.1v-1.1v-3.2V47v-2.1v-1.1h-1.1v-2.1h1.1v-1.1h1.1v1.1h1.1v1.1h1.1v1.1h1.1V44.9z M146.8,44.9h-1.1v7.5h1.1v1.1h-1.1v1.1h-1.1
		v1.1h-1.1v-1.1h-1.1v-2.1v-1.1v-1.1v-4.3v-2.1h-1.1v-1.1v-1.1h1.1v-1.1h1.1v1.1h1.1v1.1h1.1v1.1h1.1V44.9z"/>
	<path class="st2" d="M153.2,45.9v-1.1h-1.1v-1.1h-1.1v-3.2v-1.1h1.1v-1.1h1.1v-1.1h2.1h1.1h2.1v1.1h1.1v1.1h1.1v4.3h-1.1v1.1h-1.1
		v1.1h1.1V47h1.1v5.3h-1.1v1.1h-1.1v1.1h-5.3v-1.1h-1.1v-1.1h-1.1v-2.1v-1.1v-1.1V47h1.1v-1.1H153.2z M157.5,44.9v-2.1v-3.2h-1.1
		v-1.1h-2.1v5.3h1.1v1.1h1.1H157.5z M157.5,47h-1.1v-1.1h-2.1v6.4h1.1v1.1h1.1h1.1v-2.1v-1.1v-1.1v-1.1V47z"/>
</g>
<polygon class="st3" points="203.4,92.6 203.4,236.5 196.8,236.5 196.8,242.9 190.4,242.9 190.4,249.5 92.1,249.5 92.1,243.1 
	85.5,243.1 85.5,236.5 79,236.5 79,92.5 85.5,92.5 85.5,86.1 92.1,86.1 92.1,79.6 190.4,79.6 190.4,85.9 196.8,85.9 196.8,92.6 "/>
<rect x="119.2" y="124.3" class="st4" width="6.3" height="12.6"/>
<rect x="125.4" y="118" class="st5" width="37.8" height="37.8"/>
<rect x="131.7" y="124.3" class="st4" width="6.3" height="12.6"/>
<rect x="138" y="124.3" class="st6" width="6.3" height="12.6"/>
<rect x="150.6" y="124.3" class="st6" width="6.3" height="12.6"/>
<rect x="144.3" y="124.3" class="st4" width="6.3" height="12.6"/>
<rect x="156.9" y="124.3" class="st4" width="6.3" height="12.6"/>
<rect x="163.2" y="124.3" class="st6" width="6.3" height="12.6"/>
<rect x="125.4" y="124.3" class="st6" width="6.3" height="12.6"/>
<rect x="131.7" y="136.9" width="6.3" height="6.3"/>
<rect x="150.6" y="136.9" width="6.3" height="6.3"/>
<polygon class="st7" points="119.2,149.4 144.3,149.4 144.3,162 138,162 138,168.3 144.3,168.3 144.3,180.9 150.6,180.9 
	150.6,168.3 156.9,168.3 156.9,162 150.6,162 150.6,149.4 169.5,149.4 169.5,193.5 112.9,193.5 112.9,180.9 119.2,180.9 
	119.2,168.3 125.4,168.3 125.4,155.7 119.2,155.7 "/>
<rect x="112.9" y="193.5" class="st8" width="56.7" height="6.3"/>
<polygon class="st4" points="144.3,155.7 150.6,155.7 150.6,162 156.9,162 156.9,168.3 150.6,168.3 150.6,180.9 144.3,180.9 
	144.3,168.3 138,168.3 138,162 144.3,162 "/>
</svg>
