<svg id="Calque_1" data-name="Calque 1" xmlns="http://www.w3.org/2000/svg" viewBox="0 0 148.2 37.99"><defs><style>.cls-1{fill:#2d2150;}</style></defs><title>typoletsgofoncé</title><path class="cls-1" d="M710.12,404.35v1.9h3.8v-1.9h1.9v-1.9h1.9v5.7h-1.9v1.9h-11.4v-1.9h-3.8v-1.9h-1.9v-1.9h-1.9v-1.9h-5.7v-3.8h-1.9v-3.79h1.9v1.9H693v1.89h1.9v-1.89h1.9v-1.9h-1.9v-3.8H693v-3.8h1.9v-3.8h1.9v-1.9h1.9v-1.9H712v1.9h1.9v1.9h1.9v7.6h-1.9V393H712v1.9h1.9v1.9h1.9v1.89h-5.7v-1.89h-1.9v-1.9h-1.9v-5.7h1.9v-3.8h1.9v-1.9h-1.9v-1.9h-5.7v1.9h-1.9v3.8h1.9v3.8h1.9v7.59h-1.9v1.9h3.8v1.9h1.9v1.9Zm-15.2,3.8v1.9h-3.8v-1.9h-1.9v-5.7h1.9v1.9h5.7v3.8Zm20.9-11.39V393h1.9v3.8Z" transform="translate(-689.22 -379.66)"/><path class="cls-1" d="M725.32,412v-1.9h-1.9v-1.9h-1.9v-1.9h-1.9V393h1.9v-1.9h1.9v-1.9h1.9v7.6h1.9v1.89h-1.9v3.8h1.9v1.9h1.9v1.9H731v1.9h-1.9v1.9h-1.9V412Zm3.8-17.09V393h-1.9v-3.8h-1.9v-1.9h1.9v-1.9H731v1.9h1.9v3.8h1.9V393h-1.9v1.9Zm-1.9,1.9v-1.9h1.9v1.9Z" transform="translate(-689.22 -379.66)"/><path class="cls-1" d="M748.12,389.16h-3.8v15.19h1.9v1.9h1.9v1.9h-1.9v1.9h-1.9V412h-1.9v-1.9h-1.9v-1.9h-1.9v-19h-1.9v-1.9h1.9v-3.8h1.9v-1.9h1.9v-1.9h1.9v5.7h3.8Z" transform="translate(-689.22 -379.66)"/><path class="cls-1" d="M757.62,389.16h-1.9v-1.9h-1.9v-1.9h-1.9v-1.9h1.9v-1.9h1.9v1.9h1.9Zm-1.9,1.9h-1.9v-1.9h1.9Z" transform="translate(-689.22 -379.66)"/><path class="cls-1" d="M774.72,381.56v5.7h-1.9v1.9h-1.9v1.9h1.9V393h1.9v3.8h1.9v5.69h-1.9v3.8h-1.9v1.9h-1.9v-9.5H769v-1.89h-3.8v1.89h-1.9v-1.89h-1.9v-1.9h-1.9v-3.8h1.9v-1.9h1.9v-1.9h1.9v-1.9h1.9v-1.9H769v1.9h3.8v-1.9h-1.9v-1.9h-5.7v-1.9h7.6v1.9Zm-3.8,26.59v1.9H769V412h-1.9v-1.9h-3.8v-1.9h-1.9v-1.9h-1.9v-5.7h1.9v-1.9h1.9v3.8h3.8v1.9H769v3.8Zm-7.6-24.69v-1.9h1.9v1.9Zm5.7,11.4V393h1.9v-1.9h-3.8v-1.9h-1.9v1.9h1.9v3.8Z" transform="translate(-689.22 -379.66)"/><path class="cls-1" d="M797.52,412h-1.9v-1.9h-1.9v-1.9h-1.9v1.9h-1.9V412H788v-1.9h-1.9v-1.9h-1.9V394.86h1.9V393H788v-1.9h1.9v13.29h1.9v1.9h1.9V393h-1.9v-1.9h-1.9v-1.9h1.9v-1.9h1.9v-1.9h1.9v1.9h1.9v1.9h3.8v1.9h-1.9v17.09h1.9v1.9h1.9v5.7h-1.9v1.9h-15.2v-1.9h-1.9V412H788v1.9h1.9v1.9h7.6V412Z" transform="translate(-689.22 -379.66)"/><path class="cls-1" d="M808.92,412v-1.9h-3.8v-1.9h-1.9v-1.9h1.9V393H807v-1.9h1.9v-1.9h1.9v15.19h1.9v1.9h1.9v1.9h-1.9v1.9h-1.9V412Zm7.6-7.6v1.9h-1.9V391.06h-1.9v-1.9h-1.9v-1.9h1.9v-1.9h3.8v1.9h1.9v1.9h1.9v13.29h-1.9v1.9Z" transform="translate(-689.22 -379.66)"/><path class="cls-1" d="M835.52,381.56v1.9h1.9v17.09h-1.9v1.9h-1.9v-7.59h-1.9v-13.3h3.8Zm1.9,24.69v3.8h-1.9V412h-1.9v-1.9h-1.9v-3.8h1.9v-1.9h1.9v1.9Z" transform="translate(-689.22 -379.66)"/></svg>