<?xml version="1.0" encoding="utf-8"?>
<!-- Generator: Adobe Illustrator 25.2.0, SVG Export Plug-In . SVG Version: 6.00 Build 0)  -->
<svg version="1.1" id="Calque_1" xmlns="http://www.w3.org/2000/svg" xmlns:xlink="http://www.w3.org/1999/xlink" x="0px" y="0px"
	 viewBox="0 0 119.9 73.5" style="enable-background:new 0 0 119.9 73.5;" xml:space="preserve">
<style type="text/css">
	.st0{fill:#8473B2;}
	.st1{fill:#2E2150;}
	.st2{fill:#FFFFFF;}
</style>
<rect x="101.5" y="45.9" class="st0" width="0" height="0"/>
<rect x="101.5" y="45.9" class="st0" width="0" height="0"/>
<rect x="110.7" y="45.9" class="st0" width="0" height="0"/>
<path class="st1" d="M110.7,27.6L110.7,27.6L110.7,27.6L110.7,27.6L110.7,27.6v-9.2h-9.2V9.2h-9.2v9.2h-0.1V0H27.6v9.2h-9.2v9.2H9.2
	v9.2H0v18.3h18.4l0,0H9.3v9.2h9.2v9.2h9.2l0,0l0,0l0,0l0,0v9.1h64.5v-9.2h9.2v-9.2h9.2v-9.2h9.2V27.6H110.7z M101.5,45.9L101.5,45.9
	L101.5,45.9L101.5,45.9z"/>
<rect x="27.6" y="64.4" class="st0" width="0.1" height="1.3"/>
<rect x="27.7" y="64.3" class="st0" width="0" height="0"/>
<rect x="27.7" y="64.3" class="st0" width="0" height="0"/>
<rect x="110.7" y="27.6" class="st0" width="0" height="0"/>
<rect x="27.7" y="64.3" class="st0" width="0" height="0"/>
<rect x="110.7" y="27.6" class="st0" width="0" height="0"/>
<rect x="101.5" y="45.9" class="st0" width="0" height="0"/>
<polygon class="st0" points="36.8,8.9 82.9,8.9 82.7,18.5 92.2,18.4 92.1,27.6 101.3,27.6 101.4,45.9 92.1,45.9 92.1,55.2 
	82.9,55.2 82.9,64.5 36.9,64.5 36.9,55.1 27.6,55.1 27.6,45.9 18.4,46 18.4,27.7 27.3,27.7 27.3,18.5 36.7,18.5 "/>
<path class="st2" d="M57.8,25.8v18.6h-2.9v-2.9h-1.4v-2.9h-1.4v-2.9h-1.4v-2.9h-1.4v-2.9h-1.4v12.8h1.4v1.5h-4.3v-1.5h1.4V25.8h-1.4
	v-1.5h4.3v2.9h1.4V30h1.4v2.8h1.4v2.9H55v2.9h1.4V25.8h-1.4v-1.5h4.4v1.5H57.8z"/>
<path class="st2" d="M73.5,40v2.9h-2.8v1.4h-4.4v-1.4h-2.9V40H62v-5.8h1.4v-2.9h2.9V30h4.3v1.4h2.8v2.9h1.4V40H73.5z M72.1,34.3
	h-1.4v-2.9h-4.2v2.9H65V40h1.4v2.8h4.2V40h1.4L72.1,34.3z"/>
</svg>
