<?xml version="1.0" encoding="utf-8"?>
<!-- Generator: Adobe Illustrator 25.2.0, SVG Export Plug-In . SVG Version: 6.00 Build 0)  -->
<svg version="1.1" id="Calque_1" xmlns="http://www.w3.org/2000/svg" xmlns:xlink="http://www.w3.org/1999/xlink" x="0px" y="0px"
	 viewBox="0 0 157.7 41.8" style="enable-background:new 0 0 157.7 41.8;" xml:space="preserve">
<style type="text/css">
	.st0{fill:#FFFFFF;}
</style>
<path class="st0" d="M15.2,34.2v-1.9h-3.8v-1.9H9.5v-1.9H7.6v-1.9H3.8v-3.8H1.9v-1.9H0v-3.8h1.9V19h1.9v1.9h3.8V19H5.7v-3.8H1.9
	v-1.9H0V7.6h1.9V5.7h1.9V3.8h5.7v1.9h1.9V3.8h15.2v1.9h3.8v1.9h1.9v3.8h1.9v3.8h1.9v9.5h-1.9v1.9h-1.9V19h-1.9v-3.8h-1.9v-1.9h-1.9
	v-1.9h-3.8V9.5H7.6V5.7H5.7v3.8h1.9v1.9h3.8v1.9h1.9V19h-1.9v1.9H9.5v1.9h3.8v1.9h3.8v1.9H19v1.9h1.9v1.9h7.6v-1.9h1.9v-1.9h1.9v3.8
	h-1.9v1.9h-1.9v1.9L15.2,34.2z M5.7,32.3v1.9H1.9v-1.9H0v-5.7h1.9v1.9h5.7v3.8L5.7,32.3z M1.9,26.6v-1.9h1.9v1.9L1.9,26.6z"/>
<path class="st0" d="M49.4,32.3h-1.9v1.9h-1.9v1.9h-1.9v-1.9h-3.8v-1.9H38v-1.9h1.9V3.8H38V1.9h1.9v1.9h1.9V1.9h1.9V0h3.8v1.9h-1.9
	v11.4h1.9v1.9h-1.9v13.3h1.9v1.9h1.9V32.3z M57,28.5h-1.9v5.7h-1.9V38h-1.9v1.9h-1.9v1.9h-1.9V38h1.9v-3.8h1.9V17.1h-1.9v-3.8h-1.9
	v-1.9h1.9V9.5h3.8v1.9h1.9v3.8H57L57,28.5z"/>
<path class="st0" d="M74.1,17.1v13.3H76v1.9h-1.9v1.9h-1.9v1.9h-1.9v-1.9h-1.9v-1.9h-1.9v-1.9h1.9V17.1h-1.9v-1.9h-1.9v-1.9h1.9
	v-1.9h1.9V9.5h1.9v1.9h1.9v1.9h1.9v1.9H76v1.9H74.1z M83.6,17.1v13.3h1.9v1.9h-1.9v1.9h-1.9v1.9h-1.9v-1.9h-1.9v-19H76v-3.8h1.9V9.5
	h1.9v1.9h1.9v1.9h1.9v1.9h1.9v1.9L83.6,17.1z"/>
<path class="st0" d="M93.1,36.1v-1.9h-3.8v-1.9h-1.9v-1.9h1.9V17.1h1.9v-1.9h1.9v-1.9H95v15.2h1.9v1.9h1.9v1.9h-1.9v1.9H95v1.9
	L93.1,36.1z M100.7,28.5v1.9h-1.9V15.2h-1.9v-1.9H95v-1.9h1.9V9.5h3.8v1.9h1.9v1.9h1.9v13.3h-1.9v1.9L100.7,28.5z"/>
<path class="st0" d="M112.1,36.1v-1.9h-1.9v-1.9h-1.9v-1.9h-1.9V17.1h1.9v-1.9h1.9v-1.9h1.9v7.6h1.9v1.9h-1.9v3.8h1.9v1.9h1.9v1.9
	h1.9v1.9h-1.9v1.9H114v1.9L112.1,36.1z M115.9,19v-1.9H114v-3.8h-1.9v-1.9h1.9V9.5h3.8v1.9h1.9v3.8h1.9v1.9h-1.9V19H115.9z
	 M114,20.9V19h1.9v1.9H114z"/>
<path class="st0" d="M138.7,5.7v5.7h-1.9v1.9h-1.9v1.9h1.9v1.9h1.9v3.8h1.9v5.7h-1.9v3.8h-1.9v1.9h-1.9v-9.5H133v-1.9h-3.8v1.9h-1.9
	v-1.9h-1.9V19h-1.9v-3.8h1.9v-1.9h1.9v-1.9h1.9V9.5h1.9V7.6h1.9v1.9h3.8V7.6h-1.9V5.7h-5.7V3.8h7.6v1.9L138.7,5.7z M134.9,32.3v1.9
	H133v1.9h-1.9v-1.9h-3.8v-1.9h-1.9v-1.9h-1.9v-5.7h1.9v-1.9h1.9v3.8h3.8v1.9h1.9v3.8L134.9,32.3z M127.3,7.6V5.7h1.9v1.9L127.3,7.6z
	 M133,19v-1.9h1.9v-1.9h-3.8v-1.9h-1.9v1.9h1.9V19H133z"/>
<path class="st0" d="M155.8,5.7v1.9h1.9v17.1h-1.9v1.9h-1.9V19H152V5.7L155.8,5.7L155.8,5.7z M157.7,30.4v3.8h-1.9v1.9h-1.9v-1.9
	H152v-3.8h1.9v-1.9h1.9v1.9H157.7z"/>
</svg>
