<?xml version="1.0" encoding="utf-8"?>
<!-- Generator: Adobe Illustrator 25.2.0, SVG Export Plug-In . SVG Version: 6.00 Build 0)  -->
<svg version="1.1" id="Calque_1" xmlns="http://www.w3.org/2000/svg" xmlns:xlink="http://www.w3.org/1999/xlink" x="0px" y="0px"
	 viewBox="0 0 220.2 83.6" style="enable-background:new 0 0 220.2 83.6;" xml:space="preserve">
<style type="text/css">
	.st0{fill:#2D2150;}
	.st1{fill:#745FA5;}
	.st2{fill:#FFFFFF;}
</style>
<g id="Calque_1_1_">
	<polygon class="st0" points="219.9,20.8 219.9,62.6 209.5,62.6 209.5,73.3 199,73.3 199,83.6 21,83.6 21,73.2 10.2,73.2 10.2,62.6 
		-0.3,62.6 -0.3,20.8 10.2,20.8 10.2,10.5 21,10.5 21,0 199,0 199,10.2 209.5,10.2 209.5,20.8 	"/>
	<polygon class="st1" points="209.3,31 209.3,52.2 198.8,52.2 198.8,62.7 188.3,62.7 188.3,73.5 31.8,73.5 31.8,63 21.3,63 
		21.3,52.2 10.2,52.2 10.2,31 21.3,31 21.3,20.8 31.8,20.8 31.8,10 188.3,10 188.3,20.5 198.8,20.5 198.8,31 	"/>
</g>
<g id="Calque_2_1_">
	<path class="st2" d="M48.1,48v1.3h-1.3v1.4H36.1v-1.4h1.3v-16h-1.3v-1.4h9.4v1.4h1.3v1.3h1.3v4h-1.3v2.6h1.3v1.3h1.3v5.4L48.1,48z
		 M45.4,34.7H44v-1.4h-3.9v6.6H44v-1.3h1.3L45.4,34.7z M46.7,42.7h-1.3v-1.3h-5.3v7.9h5.3V48h1.3V42.7z"/>
	<path class="st2" d="M61.4,50.7v-1.4h-1.3v1.4h-6.8v-1.4H52v-4h1.3V44h2.8v-1.4h4v-4h-4V40h-1.3v1.3h-1.4v-2.7h2.7v-1.4h5.4v1.4
		h1.3v10.6h1.3v1.4h-2.7V50.7z M60.1,44h-4v1.3h-1.3v4h4V48h1.3V44z"/>
	<path class="st2" d="M74.8,49.3v1.4h-5.4v-1.4H68V48h-1.3v-8.1H68v-1.3h1.3v-1.3h5.4v1.3H76v2.7h-2.7v-2.7h-2.6V40h-1.3v8h1.3v1.3
		H74.8L74.7,48h1.4v1.4L74.8,49.3z"/>
	<path class="st2" d="M88.1,50.7v-1.4h-1.3V48h-1.3v-1.3h-1.3v-1.3h-1.3v4h1.3v1.4h-5.4v-1.4h1.3V34.7h-1.3v-1.4h1.3v-1.4h2.7v10.7
		h1.3v-1.3h1.3V40h1.3v-1.3h-1.3v-1.4h4.1v1.4h-1.4V40h-1.3v1.3h-1.3v1.3h-1.3v1.3h1.3v1.3h1.3v1.3h1.3v1.3h1.3v1.3h1.3v1.4h-2.6
		V50.7z"/>
	<path class="st2" d="M104.1,50.7v-1.4h-1.3V38.7h-1.4v-1.4h1.3V36h1.4v-1.3h1.4v2.7h2.6v1.4h-2.7v10.6h2.7v1.4h-4V50.7z"/>
	<path class="st2" d="M121.5,46.7v2.7h-2.7v1.3h-4v-1.4h-2.7v-2.6h-1.3v-5.4h1.3v-2.7h2.7v-1.3h4v1.3h2.7v2.7h1.3v5.4H121.5z
		 M120.1,41.3h-1.3v-2.6h-4v2.7h-1.3v5.3h1.3v2.7h4v-2.7h1.3V41.3z"/>
	<path class="st2" d="M140.1,49.3v1.4h-6.7V48h1.4v1.3h4v-2.6h-1.3v-1.3h-1.3V44h-1.3v-1.3h-1.3v-4.1h1.3v-1.3h6.7V40h-1.4v-1.3h-4
		v2.6h1.3v1.3h1.3V44h1.3v1.3h1.3v4H140.1z"/>
	<path class="st2" d="M146.8,50.7v-1.4h-1.3V38.7h-1.3v-1.4h1.3V36h1.3v-1.3h1.3v2.7h2.7v1.4h-2.7v10.6h2.7v1.4h-4V50.7z"/>
	<path class="st2" d="M162.8,50.7v-1.4h-1.3v1.4h-6.7v-1.4h-1.3v-4h1.3V44h2.7v-1.4h4v-4h-4V40h-1.3v1.3h-1.4v-2.7h2.7v-1.4h5.4v1.4
		h1.3v10.6h1.3v1.4h-2.7V50.7z M161.4,44h-4v1.3h-1.3v4h4V48h1.3V44z"/>
	<path class="st2" d="M173.5,40v1.3h-1.3v7.9h1.3v1.4h-5.3v-1.4h1.3V40h-1.3v-1.4h1.3v-1.3h2.7V40H173.5l-0.1-1.4h1.3v-1.3h2.7V40
		H173.5z"/>
	<path class="st2" d="M181.4,50.7v-1.4h-1.3V38.7h-1.3v-1.4h1.3V36h1.3v-1.3h1.4v2.7h2.7v1.4h-2.7v10.6h2.7v1.4h-4.1V50.7z"/>
</g>
</svg>
