<?xml version="1.0" encoding="utf-8"?>
<!-- Generator: Adobe Illustrator 25.2.0, SVG Export Plug-In . SVG Version: 6.00 Build 0)  -->
<svg version="1.1" id="Calque_1" xmlns="http://www.w3.org/2000/svg" xmlns:xlink="http://www.w3.org/1999/xlink" x="0px" y="0px"
	 viewBox="0 0 424.3 175.1" style="enable-background:new 0 0 424.3 175.1;" xml:space="preserve">
<style type="text/css">
	.st0{fill:#FFFFFF;}
</style>
<path class="st0" d="M185.1,64.7h-18.4v73.6h9.2v9.2h9.2v9.2h-9.2v9.2h-9.2v9.2h-9.2v-9.2h-9.2v-9.2h-9.2v-92h-9.2v-9.2h9.2V37.1
	h9.2v-9.2h9.2v-9.2h9.2v27.6h18.4L185.1,64.7z"/>
<path class="st0" d="M277.1,156.7h-9.2v9.2h-9.2v9.2h-9.2v-9.2h-9.2v-9.2h-9.2v9.2h-9.2v9.2h-9.2v-9.2h-9.2v-9.2h-9.2V92.3h9.2v-9.2
	h9.2v-9.2h9.2v64.4h9.2v9.2h9.2V83.1h-9.2v-9.2h-9.2v-9.2h9.2v-9.2h9.2v-9.2h9.2v9.2h9.2v9.2h18.4v9.2h-9.2v73.6h9.2L277.1,156.7z"
	/>
<path class="st0" d="M313.9,175.1v-9.2h-18.4v-9.2h-9.2v-9.2h9.2V83.1h-9.2V64.7h9.2v-9.2h9.2v-9.2h9.2v9.2h9.2v9.2h9.2v-9.2h9.2
	v-9.2h9.2v9.2h9.2v27.6h-9.2v9.2h-9.2v-9.2h-9.2v-9.2h-9.2v64.4h9.2v9.2h9.2v9.2h-9.2v9.2h-9.2v9.2H313.9z"/>
<path class="st0" d="M424.3,64.7h-18.4v73.6h9.2v9.2h9.2v9.2h-9.2v9.2h-9.2v9.2h-9.2v-9.2h-9.2v-9.2h-9.2v-92h-9.2v-9.2h9.2V37.1
	h9.2v-9.2h9.2v-9.2h9.2v27.6h18.4L424.3,64.7z"/>
<polygon class="st0" points="110.5,0 110.5,18.6 119.9,18.6 119.9,37 110.5,37 110.5,46.2 101.3,46.2 101.3,27.6 92.2,27.6 92.2,37 
	64.6,37 64.6,46.2 55.4,46.2 55.4,55.3 55.4,55.3 55.4,73.7 55.4,73.7 55.4,82.8 64.6,82.8 64.6,73.7 73.8,73.7 73.8,64.5 
	101.3,64.5 101.3,73.7 110.5,73.7 110.5,82.8 119.9,82.8 119.9,128.9 110.5,128.9 110.5,138.1 101.3,138.1 101.3,147.4 92.2,147.4 
	92.2,156.5 82.9,156.5 82.9,165.7 73.8,165.7 73.8,175 55.4,175 55.4,165.7 46.2,165.7 46.2,156.5 37,156.5 37,147.4 27.7,147.4 
	18.6,147.4 18.6,156.5 0,156.5 0,147.4 9.2,147.4 9.2,138.1 18.6,138.1 18.6,128.9 55.4,128.9 55.4,138.1 64.6,138.1 64.6,147.4 
	82.9,147.4 82.9,128.9 92.2,128.9 92.2,119.8 92.2,119.8 92.2,92.2 92.2,92.2 92.2,82.8 73.8,82.8 73.8,92.2 64.6,92.2 64.6,101.2 
	46.2,101.2 46.2,110.6 37,110.6 37,101.2 27.7,101.2 27.7,92.2 37,92.2 37,82.8 27.7,82.8 27.7,46.2 37,46.2 37,37 27.7,37 
	27.7,27.6 37,27.6 37,18.6 46.2,18.6 46.2,9.2 55.4,9.2 55.4,18.6 82.9,18.6 82.9,9.2 101.3,9.2 101.3,0 "/>
</svg>
