<?xml version="1.0" encoding="utf-8"?>
<!-- Generator: Adobe Illustrator 25.2.0, SVG Export Plug-In . SVG Version: 6.00 Build 0)  -->
<svg version="1.1" id="Calque_1" xmlns="http://www.w3.org/2000/svg" xmlns:xlink="http://www.w3.org/1999/xlink" x="0px" y="0px"
	 viewBox="0 0 412 97.6" style="enable-background:new 0 0 412 97.6;" xml:space="preserve">
<style type="text/css">
	.st0{fill:#FFFFFF;}
</style>
<path class="st0" d="M8.4,0v0.6H9v1.8H8.4V3H7.8v0.6H6v0.6H5.4V3.6H4.8V3H3.6V2.4H3V1.8H1.2v0.6H0.6v1.2h0.6v0.6H3v0.6H1.2V4.2H0.6
	V3.6H0V1.2h0.6V0.6h0.6V0h3v0.6h0.6v0.6h0.6v0.6h1.8V1.2h0.6V0.6H6.6V0H8.4z M0.6,9.6V7.8h0.6V7.2H0.6V6h0.6v1.2h0.6V6.6h0.6V6H1.2
	V5.4H3V6h0.6v2.4H3v1.2H2.4v1.2H3v0.6h2.4v-0.6H6V9.6H5.4V8.4H4.8V7.2H4.2V4.8h0.6V4.2h0.6v1.2H6V6h0.6v0.6h0.6v1.2h0.6v2.4H7.2v1.2
	H6.6V12H1.9v-0.6H1.2v-0.6H0.6L0.6,9.6L0.6,9.6z M3.6,3.6v0.6H3V3.6H3.6z M6.6,0.6v0.6H6V0.6H6.6z M8.4,6.6H7.2V6H6.6V5.4H6V4.8h1.8
	v0.6h0.6L8.4,6.6z M9,5.4H8.4V4.8H9V5.4z"/>
<path class="st0" d="M10.4,4.8h0.8V4h3.2v0.8h0.8v4h-0.8v0.8h-3.2V8.8h-0.8V4.8z M12,4.8v4h1.6v-4H12z"/>
<path class="st0" d="M16.8,4h1.6v4.8H20V4h1.6v4.8h-0.8v0.8h-3.2V8.8h-0.8L16.8,4z"/>
<path class="st0" d="M24.8,4.8h0.8V4h0.8v1.6h-1.6v4h-1.6V4h1.6V4.8z"/>
<path class="st0" d="M38.1,4v0.8h0.8v4.8h-1.7V4.8h-0.8v0.8h-0.8v4H34V4.8h-0.8v0.8h-0.8v4h-1.6V4h1.6v0.8h0.8V4h1.6v0.8h1.6V4H38.1
	z"/>
<path class="st0" d="M40.5,4.8h0.8V4h3.2v0.8h0.8v4h-0.8v0.8h-3.3V8.8h-0.8L40.5,4.8z M42.1,4.8v4h1.6v-4H42.1z"/>
<path class="st0" d="M50.9,4v0.8h0.8v4.8h-1.6V4.8h-0.8v0.8h-0.8v4h-1.6V4h1.6v0.8h0.7V4H50.9z"/>
<path class="st0" d="M58.1,4v0.8h-0.8v0.8h-0.8v1.6h0.8V8h0.8v1.6h-1.6V8h-0.8V7.2h-0.8v2.4h-1.6v-8h1.6v4.8h0.8V5.6h0.8V4.8h0.8V4
	L58.1,4z"/>
<path class="st0" d="M60.5,8.8h1.6V8h-0.8V7.2h-0.8V6.4h-0.8V4.8h0.8V4h3.2v1.6h-0.8V4.8h-1.6v0.8h0.8v0.8h0.8v0.8h0.8v1.6h-0.8v0.8
	h-3.2V8h0.8L60.5,8.8z"/>
<path class="st0" d="M69,6.4h0.8V5.6h2.4V4.8h-2.4V4H73v0.8h0.8v4.8h-4V8.8H69L69,6.4z M70.6,6.4v2.4h1.6V6.4H70.6z"/>
<path class="st0" d="M77,4.8h0.8V4h0.8v1.6H77v4h-1.6V4H77V4.8z"/>
<path class="st0" d="M81,4.8h0.8V4h0.8v1.6H81v4h-1.6V4H81V4.8z"/>
<path class="st0" d="M85,3.2h-1.6V2.4H85V3.2z M85,9.6h-1.6V4H85V9.6z"/>
<path class="st0" d="M91.4,4v2.4h-0.8V8h-0.8v1.6h-1.6V8h-0.8V6.4h-0.8V4h1.7v2.4H89V8h0.8V4L91.4,4z"/>
<path class="st0" d="M97.8,8v0.8H97v0.8h-3.2V8.8H93v-4h0.8V4H97v0.8h0.8v1.6H97v0.8h-2.4v1.6H97V8L97.8,8z M94.6,4.8v1.6h1.6V4.8
	H94.6z"/>
<path class="st0" d="M103.1,6.4h0.8V5.6h2.4V4.8h-2.4V4h3.2v0.8h0.8v4.8h-4V8.8h-0.8L103.1,6.4z M104.7,6.4v2.4h1.6V6.4H104.7z"/>
<path class="st0" d="M108.7,4h0.8V2.4h1.6V4h0.8v0.8h-0.8v4.8h-1.6V4.8h-0.8V4z"/>
<path class="st0" d="M116.4,6.4h0.8V5.6h2.4V4.8h-2.4V4h3.2v0.8h0.8v4.8h-4V8.8h-0.8L116.4,6.4z M118,6.4v2.4h1.6V6.4H118z"/>
<path class="st0" d="M128.1,4.8h0.8V4h0.8v1.6h-1.6v4h-1.6V4h1.6V4.8z"/>
<path class="st0" d="M132.1,3.2h-1.6V2.4h1.6V3.2z M132.1,9.6h-1.6V4h1.6V9.6z"/>
<path class="st0" d="M138.5,4v2.4h-0.8V8h-0.8v1.6h-1.7V8h-0.8V6.4h-0.8V4h1.6v2.4h0.8V8h0.8V4L138.5,4z"/>
<path class="st0" d="M144.9,8v0.8h-0.8v0.8h-3.2V8.8h-0.8v-4h0.8V4h3.2v0.8h0.8v1.6h-0.8v0.8h-2.4v1.6h2.4V8L144.9,8z M141.7,4.8
	v1.6h1.6V4.8H141.7z"/>
<path class="st0" d="M148.1,4.8h0.8V4h0.8v1.6h-1.6v4h-1.6V4h1.6V4.8z"/>
<path class="st0" d="M154.2,6.4h0.8V5.6h2.4V4.8h-2.4V4h3.2v0.8h0.8v4.8h-4V8.8h-0.8L154.2,6.4z M155.8,6.4v2.4h1.6V6.4H155.8z"/>
<path class="st0" d="M159.8,4h0.8V2.4h1.6V4h0.8v0.8h-0.8v4.8h-1.6V4.8h-0.8V4z"/>
<path class="st0" d="M167.4,4.8h0.8V4h2.4V1.6h1.6v8h-4V8.8h-0.8L167.4,4.8z M169.1,4.8v4h1.6v-4H169.1z"/>
<path class="st0" d="M173.8,4h1.6v4.8h1.6V4h1.6v4.8h-0.8v0.8h-3.2V8.8h-0.8L173.8,4z"/>
<path class="st0" d="M181.1,8.8h1.6V8h-0.8V7.2h-0.8V6.4h-0.8V4.8h0.8V4h3.2v1.6h-0.8V4.8h-1.6v0.8h0.8v0.8h0.8v0.8h0.8v1.6h-0.8
	v0.8h-3.2V8h0.8L181.1,8.8z"/>
<path class="st0" d="M190.7,4v0.8h-0.8v0.8h-0.8v1.6h0.8V8h0.8v1.6h-1.6V8h-0.8V7.2h-0.8v2.4h-1.6v-8h1.6v4.8h0.8V5.6h0.8V4.8h0.8V4
	L190.7,4z"/>
<path class="st0" d="M193.9,9.6h-1.6V8h1.6L193.9,9.6z"/>
<path class="st0" d="M198.4,1.6h4.9v0.8h-1.6v7.2H200V2.4h-1.6L198.4,1.6z"/>
<path class="st0" d="M205.6,5.6v4h-1.6v-8h1.6v3.2h0.8V4h1.6v0.8h0.8v4.8h-1.6V4.8h-0.8v0.8L205.6,5.6z"/>
<path class="st0" d="M215.2,8v0.8h-0.8v0.8h-3.2V8.8h-0.8v-4h0.8V4h3.2v0.8h0.8v1.6h-0.8v0.8H212v1.6h2.4V8L215.2,8z M212,4.8v1.6
	h1.6V4.8H212z"/>
<path class="st0" d="M219.2,8.8h-0.8V7.2h-0.8V5.6h-0.8V4h1.6v1.6h0.8v1.6h0.8V4h1.6v1.6h-0.8V8H220v2.4h-0.8v0.8h-1.6V9.6h1.6
	L219.2,8.8z"/>
<path class="st0" d="M234.9,4v2.4h-0.8V8h-0.8v1.6h-1.6V8h-1.6v1.6h-1.6V8h-0.8V6.4h-0.8V4h1.6v2.4h0.8V8h0.8V7.2h0.8V6.4H230V4h1.6
	v2.4h0.8V8h0.8V4L234.9,4z"/>
<path class="st0" d="M236.4,4.8h0.8V4h3.2v0.8h0.8v4h-0.8v0.8h-3.2V8.8h-0.8L236.4,4.8z M238.1,4.8v4h1.6v-4H238.1z"/>
<path class="st0" d="M242.8,4h1.6v4.8h1.6V4h1.6v4.8h-0.8v0.8h-3.2V8.8h-0.8V4z"/>
<path class="st0" d="M250.9,9.6h-1.6v-8h1.6V9.6z"/>
<path class="st0" d="M252.4,4.8h0.8V4h2.4V1.6h1.6v8h-4V8.8h-0.8L252.4,4.8z M254.1,4.8v4h1.6v-4H254.1z"/>
<path class="st0" d="M264.2,9.6h-1.6v-8h1.6V9.6z"/>
<path class="st0" d="M267.4,3.2h-1.6V2.4h1.6V3.2z M267.4,9.6h-1.6V4h1.6V9.6z"/>
<path class="st0" d="M273.8,4v0.8H273v0.8h-0.7v1.6h0.8V8h0.8v1.6h-1.6V8h-0.8V7.2h-0.8v2.4H269v-8h1.6v4.8h0.8V5.6h0.8V4.8h0.8V4
	L273.8,4z"/>
<path class="st0" d="M280.2,8v0.8h-0.8v0.8h-3.2V8.8h-0.8v-4h0.8V4h3.2v0.8h0.8v1.6h-0.8v0.8H277v1.6h2.4V8L280.2,8z M277,4.8v1.6
	h1.6V4.8H277z"/>
<path class="st0" d="M284.7,4h0.8V2.4h1.6V4h0.8v0.8h-0.8v4.8h-1.6V4.8h-0.8V4z"/>
<path class="st0" d="M288.7,4.8h0.8V4h3.2v0.8h0.8v4h-0.8v0.8h-3.2V8.8h-0.8V4.8z M290.3,4.8v4h1.6v-4H290.3z"/>
<path class="st0" d="M299.5,9.6V8.8h-0.8v-4h0.8V4h3.2v1.6H302V4.8h-1.6v4h1.6V8h0.8v0.8H302v0.8L299.5,9.6z"/>
<path class="st0" d="M306,4.8h0.8V4h0.8v1.6H306v4h-1.6V4h1.6V4.8z"/>
<path class="st0" d="M308.3,4.8h0.8V4h3.2v0.8h0.9v4h-0.8v0.8h-3.2V8.8h-0.8L308.3,4.8z M310,4.8v4h1.6v-4H310z"/>
<path class="st0" d="M315.6,8.8h1.6V8h-0.8V7.2h-0.8V6.4h-0.8V4.8h0.8V4h3.2v1.6H318V4.8h-1.6v0.8h0.8v0.8h0.8v0.8h0.8v1.6H318v0.8
	h-3.2V8h0.8V8.8z"/>
<path class="st0" d="M320.4,8.8h1.6V8h-0.8V7.2h-0.8V6.4h-0.8V4.8h0.8V4h3.2v1.6h-0.8V4.8h-1.6v0.8h0.8v0.8h0.8v0.8h0.8v1.6h-0.8
	v0.8h-3.2V8h0.8V8.8z"/>
<path class="st0" d="M328.1,4h0.8V2.4h1.6V4h0.8v0.8h-0.8v4.8h-1.6V4.8h-0.8V4z"/>
<path class="st0" d="M332.1,4.8h0.8V4h3.2v0.8h0.8v4h-0.8v0.8h-3.2V8.8h-0.8V4.8z M333.7,4.8v4h1.5v-4H333.7z"/>
<path class="st0" d="M343.8,4.8h0.8V4h0.8v1.6h-1.6v4h-1.6V4h1.6V4.8z"/>
<path class="st0" d="M351,8v0.8h-0.8v0.8H347V8.8h-0.8v-4h0.8V4h3.2v0.8h0.8v1.6h-0.8v0.8h-2.4v1.6h2.4V8L351,8z M347.8,4.8v1.6h1.6
	V4.8H347.8z"/>
<path class="st0" d="M351.8,4h0.8V2.4h1.6V4h0.8v0.8h-0.8v4.8h-1.6V4.8h-0.8V4z"/>
<path class="st0" d="M355.8,4h1.6v4.8h1.6V4h1.6v4.8h-0.8v0.8h-3.2V8.8h-0.8L355.8,4z"/>
<path class="st0" d="M363.8,4.8h0.8V4h0.8v1.6h-1.6v4h-1.6V4h1.6V4.8z"/>
<path class="st0" d="M370.2,4v0.8h0.8v4.8h-1.6V4.8h-0.8v0.8h-0.8v4h-1.6V4h1.6v0.8h0.8V4H370.2z"/>
<path class="st0" d="M375.5,4h0.8V2.4h1.6V4h0.8v0.8h-0.8v4.8h-1.6V4.8h-0.8L375.5,4z"/>
<path class="st0" d="M379.5,4.8h0.8V4h3.2v0.8h0.8v4h-0.8v0.8h-3.2V8.8h-0.8L379.5,4.8z M381.1,4.8v4h1.6v-4H381.1z"/>
<path class="st0" d="M388.8,4h0.8V2.4h1.6V4h0.8v0.8h-0.8v4.8h-1.6V4.8h-0.8V4z"/>
<path class="st0" d="M394.4,5.6v4h-1.6v-8h1.6v3.2h0.8V4h1.6v0.8h0.8v4.8H396V4.8h-0.7v0.8L394.4,5.6z"/>
<path class="st0" d="M404,8v0.8h-0.8v0.8H400V8.8h-0.8v-4h0.8V4h3.2v0.8h0.8v1.6h-0.8v0.8h-2.4v1.6h2.4V8L404,8z M400.8,4.8v1.6h1.6
	V4.8H400.8z"/>
<path class="st0" d="M407.2,3.2h-1.6V2.4h1.6V3.2z M407.2,9.6h-1.6V4h1.6V9.6z"/>
<path class="st0" d="M410.4,4.8h0.8V4h0.8v1.6h-1.6v4h-1.6V4h1.6L410.4,4.8z"/>
<path class="st0" d="M8,18.4v0.8h0.8V24H7.2v-4.8H6.5V20H5.7v4H4v-4.8H3.2V20H2.4v4H0.8v-5.6h1.6v0.8h0.8v-0.8h1.6v0.8h1.6v-0.8H8z"
	/>
<path class="st0" d="M10.4,19.2h0.8v-0.8h3.2v0.8h0.8v4h-0.8V24h-3.2v-0.8h-0.8V19.2z M12,19.2v4h1.6v-4H12z"/>
<path class="st0" d="M20.8,18.4v0.8h0.8V24H20v-4.8h-0.7V20h-0.8v4h-1.6v-5.6h1.6v0.8h0.8v-0.8H20.8z"/>
<path class="st0" d="M23.2,20.8H24V20h2.4v-0.8H24v-0.8h3.3v0.8h0.8V24h-4v-0.8h-0.8L23.2,20.8z M24.8,20.8v2.4h1.6v-2.4H24.8z"/>
<path class="st0" d="M30.4,23.2H32v-0.8h-0.8v-0.8h-0.8v-0.8h-0.8v-1.6h0.8v-0.8h3.2V20h-0.8v-0.8h-1.5V20H32v0.8h0.8v0.8h0.8v1.6
	h-0.8V24h-3.2v-1.6h0.8L30.4,23.2z"/>
<path class="st0" d="M34.4,18.4h0.8v-1.6h1.6v1.6h0.8v0.8h-0.8V24h-1.6v-4.8h-0.8V18.4z"/>
<path class="st0" d="M43.2,22.4v0.8h-0.8V24h-3.2v-0.8h-0.8v-4h0.8v-0.8h3.2v0.8h0.8v1.6h-0.8v0.8H40v1.6h2.4v-0.8L43.2,22.4z
	 M40,19.2v1.6h1.6v-1.6H40z"/>
<path class="st0" d="M46.4,19.2h0.8v-0.8H48V20h-1.6v4h-1.6v-5.6h1.6V19.2z"/>
<path class="st0" d="M51.2,23.2h-0.8v-1.6h-0.8V20h-0.8v-1.6h1.6V20h0.8v1.6H52v-3.2h1.6V20h-0.8v2.4H52v2.4h-0.8v0.8h-1.6V24h1.6
	L51.2,23.2z"/>
<path class="st0" d="M56.8,24h-1.6v-1.6h1.6V24z"/>
<path class="st0" d="M59.6,16h4.8v0.8h-1.6V24h-1.6v-7.2h-1.6L59.6,16z"/>
<path class="st0" d="M66.9,20v4h-1.6v-8h1.6v3.2h0.8v-0.8h1.6v0.8h0.8V24h-1.6v-4.8h-0.8V20L66.9,20z"/>
<path class="st0" d="M76.5,22.4v0.8h-0.8V24h-3.2v-0.8h-0.8v-4h0.8v-0.8h3.2v0.8h0.8v1.6h-0.8v0.8h-2.4v1.6h2.4v-0.8L76.5,22.4z
	 M73.3,19.2v1.6h1.6v-1.6H73.3z"/>
<path class="st0" d="M79.6,19.2h0.8v-0.8h0.8V20h-1.6v4H78v-5.6h1.6V19.2z"/>
<path class="st0" d="M86.8,22.4v0.8H86V24h-3.2v-0.8H82v-4h0.8v-0.8H86v0.8h0.8v1.6H86v0.8h-2.4v1.6H86v-0.8L86.8,22.4z M83.6,19.2
	v1.6h1.6v-1.6H83.6z"/>
<path class="st0" d="M92.1,17.6h-1.6v-0.8h1.6V17.6z M92.1,24h-1.6v-5.6h1.6V24z"/>
<path class="st0" d="M94.5,23.2h1.6v-0.8h-0.8v-0.8h-0.8v-0.8h-0.8v-1.6h0.8v-0.8h3.2V20h-0.8v-0.8h-1.6V20h0.8v0.8h0.8v0.8h0.8v1.6
	h-0.8V24h-3.2v-1.6h0.8L94.5,23.2z"/>
<path class="st0" d="M101.3,20.8h0.8V20h2.4v-0.8h-2.4v-0.8h3.2v0.8h0.8V24h-4v-0.8h-0.8L101.3,20.8z M103,20.8v2.4h1.6v-2.4H103z"
	/>
<path class="st0" d="M113.8,18.4v0.8h0.8V24H113v-4.8h-0.7V20h-0.8v4h-1.6v-5.6h1.6v0.8h0.8v-0.8H113.8z"/>
<path class="st0" d="M116.2,20.8h0.8V20h2.4v-0.8H117v-0.8h3.3v0.8h0.8V24h-4v-0.8h-0.8L116.2,20.8z M117.8,20.8v2.4h1.6v-2.4H117.8
	z"/>
<path class="st0" d="M124.2,19.2h0.8v-0.8h0.8V20h-1.6v4h-1.6v-5.6h1.6V19.2z"/>
<path class="st0" d="M128.2,19.2h0.8v-0.8h0.8V20h-1.6v4h-1.6v-5.6h1.6V19.2z"/>
<path class="st0" d="M130.6,19.2h0.8v-0.8h3.2v0.8h0.8v4h-0.8V24h-3.2v-0.8h-0.8V19.2z M132.2,19.2v4h1.6v-4H132.2z"/>
<path class="st0" d="M145,18.4v2.4h-0.8v1.6h-0.8V24h-1.6v-1.6h-1.6V24h-1.6v-1.6h-0.8v-1.6H137v-2.4h1.6v2.4h0.8v1.6h0.8v-0.8h0.8
	v-0.8h-0.8v-2.4h1.6v2.4h0.8v1.6h0.8v-4L145,18.4z"/>
<path class="st0" d="M150.2,18.4h2.4v0.8h0.8v4h-0.8V24h-4v-8h1.6V18.4z M150.2,19.2v4h1.6v-4H150.2z"/>
<path class="st0" d="M156.6,19.2h0.8v-0.8h0.8V20h-1.6v4H155v-5.6h1.6V19.2z"/>
<path class="st0" d="M160.6,17.6H159v-0.8h1.6V17.6z M160.6,24H159v-5.6h1.6V24z"/>
<path class="st0" d="M162.2,19.2h0.8v-0.8h2.4V16h1.6v8h-4v-0.8h-0.8V19.2z M163.9,19.2v4h1.6v-4H163.9z"/>
<path class="st0" d="M171.8,24h-2.4v-0.8h-0.8v-4h0.8v-0.8h4.8v0.8h-0.8v5.6h-0.8v0.8h-3.2v-0.8h2.4V24z M170.2,19.2v4h1.6v-4H170.2
	z"/>
<path class="st0" d="M179.8,22.4v0.8H179V24h-3.2v-0.8H175v-4h0.8v-0.8h3.2v0.8h0.8v1.6H179v0.8h-2.4v1.6h2.4v-0.8L179.8,22.4z
	 M176.6,19.2v1.6h1.6v-1.6H176.6z"/>
<path class="st0" d="M181.4,24v-1.6h1.6v2.4h-0.8v0.8h-0.8v-0.8h0.8V24L181.4,24z"/>
<path class="st0" d="M188.2,18.4h2.4v0.8h0.8v4h-0.8V24h-4v-8h1.6V18.4z M188.2,19.2v4h1.6v-4H188.2z"/>
<path class="st0" d="M193,18.4h1.6v4.8h1.6v-4.8h1.6v4.8h-0.8V24h-3.2v-0.8H193L193,18.4z"/>
<path class="st0" d="M198.7,18.4h0.8v-1.6h1.6v1.6h0.8v0.8h-0.8V24h-1.6v-4.8h-0.8V18.4z"/>
<path class="st0" d="M206.3,17.6h-1.6v-0.8h1.6V17.6z M206.3,24h-1.6v-5.6h1.6V24z"/>
<path class="st0" d="M207.1,18.4h0.8v-1.6h1.6v1.6h0.8v0.8h-0.8V24h-1.6v-4.8h-0.8V18.4z"/>
<path class="st0" d="M214,24v-0.8h-0.8v-4h0.8v-0.8h3.3V20h-0.8v-0.8h-1.6v4h1.6v-0.8h0.8v0.8h-0.8v0.8L214,24z"/>
<path class="st0" d="M218.8,20.8h0.8V20h2.4v-0.8h-2.4v-0.8h3.2v0.8h0.8V24h-4v-0.8h-0.8L218.8,20.8z M220.4,20.8v2.4h1.6v-2.4
	H220.4z"/>
<path class="st0" d="M229.2,18.4v0.8h0.8V24h-1.6v-4.8h-0.8V20h-0.8v4h-1.6v-5.6h1.6v0.8h0.8v-0.8H229.2z"/>
<path class="st0" d="M233.6,19.2h0.8v-0.8h3.2v0.8h0.8v4h-0.8V24h-3.2v-0.8h-0.8V19.2z M235.2,19.2v4h1.6v-4H235.2z"/>
<path class="st0" d="M244,18.4v0.8h0.8V24h-1.6v-4.8h-0.8V20h-0.8v4H240v-5.6h1.6v0.8h0.8v-0.8H244z"/>
<path class="st0" d="M248,24h-1.6v-8h1.6V24z"/>
<path class="st0" d="M252,23.2h-0.8v-1.6h-0.8V20h-0.8v-1.6h1.6V20h0.8v1.6h0.8v-3.2h1.6V20h-0.8v2.4h-0.8v2.4H252v0.8h-1.6V24h1.6
	V23.2z"/>
<path class="st0" d="M259.7,20v4H258v-8h1.6v3.2h0.8v-0.8h1.6v0.8h0.8V24h-1.7v-4.8h-0.8V20L259.7,20z"/>
<path class="st0" d="M264.5,19.2h0.8v-0.8h3.2v0.8h0.8v4h-0.8V24h-3.2v-0.8h-0.8L264.5,19.2z M266.1,19.2v4h1.6v-4H266.1z"/>
<path class="st0" d="M272.5,24h-1.6v-8h1.6V24z"/>
<path class="st0" d="M274,19.2h0.8v-0.8h2.4V16h1.6v8h-4v-0.8h-0.8L274,19.2z M275.7,19.2v4h1.6v-4H275.7z"/>
<path class="st0" d="M281.7,18.4h0.8v-1.6h1.6v1.6h0.8v0.8h-0.8V24h-1.6v-4.8h-0.8V18.4z"/>
<path class="st0" d="M293.7,18.4v2.4h-0.8v1.6h-0.8V24h-1.6v-1.6h-1.6V24h-1.6v-1.6h-0.8v-1.6h-0.8v-2.4h1.6v2.4h0.8v1.6h0.8v-0.8
	h0.8v-0.8h-0.8v-2.4h1.6v2.4h0.8v1.6h0.8v-4L293.7,18.4z"/>
<path class="st0" d="M295.3,19.2h0.8v-0.8h3.2v0.8h0.8v4h-0.8V24h-3.2v-0.8h-0.8V19.2z M296.9,19.2v4h1.6v-4H296.9z"/>
<path class="st0" d="M307.8,19.2h0.8v4h-0.8V24h-2.4v1.6h-1.6v-7.2h4L307.8,19.2z M305.4,19.2v4h1.6v-4H305.4z"/>
<path class="st0" d="M315,22.4v0.8h-0.8V24H311v-0.8h-0.8v-4h0.8v-0.8h3.2v0.8h0.8v1.6h-0.8v0.8h-2.4v1.6h2.4v-0.8L315,22.4z
	 M311.8,19.2v1.6h1.6v-1.6H311.8z"/>
<path class="st0" d="M316.5,19.2h0.8v-0.8h3.2v0.8h0.8v4h-0.8V24h-3.2v-0.8h-0.8V19.2z M318.2,19.2v4h1.6v-4H318.2z"/>
<path class="st0" d="M327,19.2h0.8v4H327V24h-2.4v1.6h-1.6v-7.2h4L327,19.2z M324.6,19.2v4h1.6v-4H324.6z"/>
<path class="st0" d="M331,24h-1.6v-8h1.6V24z"/>
<path class="st0" d="M337.4,22.4v0.8h-0.8V24h-3.2v-0.8h-0.8v-4h0.8v-0.8h3.2v0.8h0.8v1.6h-0.8v0.8h-2.4v1.6h2.4v-0.8L337.4,22.4z
	 M334.2,19.2v1.6h1.6v-1.6H334.2z"/>
<path class="st0" d="M341,20.8h0.8V20h2.4v-0.8h-2.4v-0.8h3.2v0.8h0.8V24h-4v-0.8h-0.8L341,20.8z M342.6,20.8v2.4h1.6v-2.4H342.6z"
	/>
<path class="st0" d="M346.6,18.4h0.8v-1.6h1.6v1.6h0.8v0.8H349V24h-1.6v-4.8h-0.8V18.4z"/>
<path class="st0" d="M352.7,20.8h0.8V20h2.4v-0.8h-2.4v-0.8h3.2v0.8h0.8V24h-4v-0.8h-0.8L352.7,20.8z M354.3,20.8v2.4h1.6v-2.4
	H354.3z"/>
<path class="st0" d="M360.3,18.4h0.8v-1.6h1.6v1.6h0.8v0.8h-0.8V24h-1.6v-4.8h-0.8V18.4z"/>
<path class="st0" d="M365.9,17.6h-1.6v-0.8h1.6V17.6z M365.9,24h-1.6v-5.6h1.6V24z"/>
<path class="st0" d="M374.7,18.4v0.8h0.8V24h-1.6v-4.8h-0.8V20h-0.8v4h-1.6v-4.8h-0.8V20h-0.8v4h-1.6v-5.6h1.6v0.8h0.8v-0.8h1.6v0.8
	h1.6v-0.8H374.7z"/>
<path class="st0" d="M381.9,22.4v0.8h-0.8V24h-3.2v-0.8h-0.8v-4h0.8v-0.8h3.2v0.8h0.8v1.6h-0.8v0.8h-2.4v1.6h2.4v-0.8L381.9,22.4z
	 M378.7,19.2v1.6h1.6v-1.6H378.7z"/>
<path class="st0" d="M385.1,24h-1.6v-1.6h1.6V24z"/>
<path class="st0" d="M388,16h4.8v0.8h-1.5V24h-1.6v-7.2H388L388,16z"/>
<path class="st0" d="M395.2,20v4h-1.6v-8h1.6v3.2h0.8v-0.8h1.6v0.8h0.8V24h-1.6v-4.8H396V20L395.2,20z"/>
<path class="st0" d="M404.8,22.4v0.8H404V24h-3.2v-0.8H400v-4h0.8v-0.8h3.2v0.8h0.8v1.6H404v0.8h-2.4v1.6h2.4v-0.8L404.8,22.4z
	 M401.6,19.2v1.6h1.6v-1.6H401.6z"/>
<path class="st0" d="M408.8,23.2H408v-1.6h-0.8V20h-0.8v-1.6h1.6V20h0.8v1.6h0.8v-3.2h1.7V20h-0.8v2.4h-0.8v2.4h-0.8v0.8h-1.6V24
	h1.6L408.8,23.2z"/>
<path class="st0" d="M2.4,34.4v4H0.8v-8h1.6v3.2h0.8v-0.8h1.6v0.8h0.8v4.8H4v-4.8H3.2v0.8L2.4,34.4z"/>
<path class="st0" d="M7.2,35.2H8v-0.8h2.4v-0.8H8v-0.8h3.3v0.8H12v4.8H8v-0.8H7.2L7.2,35.2z M8.8,35.2v2.4h1.6v-2.4H8.8z"/>
<path class="st0" d="M18.4,32.8v2.4h-0.8v1.6h-0.8v1.6h-1.6v-1.6h-0.8v-1.6h-0.8v-2.4h1.7v2.4h0.8v1.6h0.8v-4L18.4,32.8z"/>
<path class="st0" d="M24.8,36.8v0.8H24v0.8h-3.2v-0.8H20v-4h0.8v-0.8H24v0.8h0.8v1.6H24V36h-2.4v1.6H24v-0.8L24.8,36.8z M21.6,33.6
	v1.6h1.6v-1.6H21.6z"/>
<path class="st0" d="M28.9,33.6h0.8v-0.8H33v0.8h0.8v4H33v0.8h-3.2v-0.8h-0.8V33.6z M30.6,33.6v4h1.6v-4H30.6z"/>
<path class="st0" d="M39.4,32.8v0.8h0.8v4.8h-1.6v-4.8h-0.8v0.8h-0.8v4h-1.6v-5.6h1.6v0.8h0.8v-0.8H39.4z"/>
<path class="st0" d="M46.6,36.8v0.8h-0.8v0.8h-3.2v-0.8h-0.8v-4h0.8v-0.8h3.2v0.8h0.8v1.6h-0.8V36h-2.4v1.6h2.4v-0.8L46.6,36.8z
	 M43.4,33.6v1.6h1.6v-1.6H43.4z"/>
<path class="st0" d="M49.9,32.8h0.8v-1.6h1.6v1.6h0.8v0.8h-0.8v4.8h-1.6v-4.8h-0.8V32.8z"/>
<path class="st0" d="M53.9,33.6h0.8v-0.8h3.2v0.8h0.8v4h-0.8v0.8h-3.2v-0.8h-0.8V33.6z M55.5,33.6v4h1.6v-4H55.5z"/>
<path class="st0" d="M61.9,33.6h0.8v-0.8h0.8v1.6h-1.6v4h-1.7v-5.6h1.6L61.9,33.6z"/>
<path class="st0" d="M65.1,38.4v-0.8h-0.8v-4h0.8v-0.8h3.2v1.6h-0.8v-0.8h-1.6v4h1.6v-0.8h0.8v0.8h-0.8v0.8L65.1,38.4z"/>
<path class="st0" d="M71.5,34.4v4h-1.6v-8h1.6v3.2h0.7v-0.8h1.6v0.8h0.8v4.8H73v-4.8h-0.8v0.8L71.5,34.4z"/>
<path class="st0" d="M78.8,35.2h0.8v-0.8H82v-0.8h-2.4v-0.8h3.2v0.8h0.8v4.8h-4v-0.8h-0.8L78.8,35.2z M80.5,35.2v2.4H82v-2.4H80.5z"
	/>
<path class="st0" d="M89.2,32.8v0.8h0.8v4.8h-1.6v-4.8h-0.8v0.8h-0.8v4h-1.6v-5.6h1.6v0.8h0.8v-0.8H89.2z"/>
<path class="st0" d="M91.6,33.6h0.8v-0.8h2.4v-2.4h1.6v8h-4v-0.8h-0.8L91.6,33.6z M93.3,33.6v4h1.6v-4H93.3z"/>
<path class="st0" d="M98,38.4v-1.6h1.6v2.4h-0.8V40H98v-0.8h0.8v-0.8H98z"/>
<path class="st0" d="M105.4,32.8h2.4v0.8h0.8v4h-0.8v0.8h-4v-8h1.6L105.4,32.8z M105.4,33.6v4h1.6v-4H105.4z"/>
<path class="st0" d="M115,36.8v0.8h-0.8v0.8H111v-0.8h-0.8v-4h0.8v-0.8h3.2v0.8h0.8v1.6h-0.8V36h-2.4v1.6h2.4v-0.8L115,36.8z
	 M111.8,33.6v1.6h1.6v-1.6H111.8z"/>
<path class="st0" d="M117.4,38.4v-0.8h-0.8v-4h0.8v-0.8h3.2v1.6h-0.8v-0.8h-1.6v4h1.6v-0.8h0.8v0.8h-0.8v0.8L117.4,38.4z"/>
<path class="st0" d="M122.2,35.2h0.8v-0.8h2.4v-0.8H123v-0.8h3.2v0.8h0.8v4.8h-4v-0.8h-0.8V35.2z M123.9,35.2v2.4h1.6v-2.4H123.9z"
	/>
<path class="st0" d="M128.6,32.8h1.7v4.8h1.6v-4.8h1.6v4.8h-0.8v0.8h-3.2v-0.8h-0.8L128.6,32.8z"/>
<path class="st0" d="M135.8,37.6h1.6v-0.8h-0.8V36h-0.8v-0.8H135v-1.6h0.8v-0.8h3.2v1.6h-0.8v-0.8h-1.6v0.8h0.8v0.8h0.8V36h0.8v1.6
	h-0.8v0.8H135v-1.6h0.8L135.8,37.6z"/>
<path class="st0" d="M145.4,36.8v0.8h-0.8v0.8h-3.2v-0.8h-0.8v-4h0.8v-0.8h3.2v0.8h0.8v1.6h-0.8V36h-2.4v1.6h2.4v-0.8L145.4,36.8z
	 M142.2,33.6v1.6h1.6v-1.6H142.2z"/>
<path class="st0" d="M151.2,32h-1.6v-0.8h1.6V32z M151.2,38.4h-1.6v-5.6h1.6V38.4z"/>
<path class="st0" d="M152,32.8h0.8v-1.6h1.6v1.6h0.8v0.8h-0.8v4.8h-1.6v-4.8H152V32.8z"/>
<path class="st0" d="M156.8,32.8h-0.8v-2.4h0.8V32.8z"/>
<path class="st0" d="M159.2,37.6h1.6v-0.8H160V36h-0.8v-0.8h-0.8v-1.6h0.8v-0.8h3.2v1.6h-0.8v-0.8H160v0.8h0.8v0.8h0.8V36h0.8v1.6
	h-0.8v0.8h-3.2v-1.6h0.8V37.6z"/>
<path class="st0" d="M170.6,32.8v0.8h0.8v4.8h-1.6v-4.8H169v0.8h-0.8v4h-1.6v-5.6h1.6v0.8h0.8v-0.8H170.6z"/>
<path class="st0" d="M174.6,32h-1.6v-0.8h1.6V32z M174.6,38.4h-1.6v-5.6h1.6V38.4z"/>
<path class="st0" d="M179.3,38.4h-2.4v-0.8h-0.8v-4h0.8v-0.8h4.8v0.8H181v5.6h-0.8V40h-3.2v-0.8h2.4V38.4z M177.7,33.6v4h1.6v-4
	H177.7z"/>
<path class="st0" d="M184.2,34.4v4h-1.6v-8h1.6v3.2h0.8v-0.8h1.6v0.8h0.8v4.8h-1.6v-4.8h-0.8v0.8L184.2,34.4z"/>
<path class="st0" d="M188.1,32.8h0.8v-1.6h1.6v1.6h0.8v0.8h-0.8v4.8h-1.6v-4.8h-0.8V32.8z"/>
<path class="st0" d="M192.1,38.4v-1.6h1.6v2.4H193V40h-0.8v-0.8h0.8v-0.8H192.1z"/>
<path class="st0" d="M197.1,32.8h0.8v-1.6h1.6v1.6h0.8v0.8h-0.8v4.8h-1.6v-4.8h-0.8V32.8z"/>
<path class="st0" d="M202.7,34.4v4h-1.6v-8h1.6v3.2h0.8v-0.8h1.6v0.8h0.8v4.8h-1.6v-4.8h-0.8v0.8L202.7,34.4z"/>
<path class="st0" d="M212.3,36.8v0.8h-0.8v0.8h-3.2v-0.8h-0.8v-4h0.8v-0.8h3.2v0.8h0.8v1.6h-0.8V36h-2.4v1.6h2.4v-0.8L212.3,36.8z
	 M209.1,33.6v1.6h1.6v-1.6H209.1z"/>
<path class="st0" d="M215.7,32.8h0.8v-1.6h1.6v1.6h0.8v0.8h-0.8v4.8h-1.6v-4.8h-0.8V32.8z"/>
<path class="st0" d="M219.7,33.6h0.8v-0.8h3.2v0.8h0.8v4h-0.8v0.8h-3.2v-0.8h-0.8V33.6z M221.3,33.6v4h1.6v-4H221.3z"/>
<path class="st0" d="M227.7,33.6h0.8v-0.8h0.8v1.6h-1.6v4H226v-5.6h1.6V33.6z"/>
<path class="st0" d="M230.8,38.4v-0.8H230v-4h0.8v-0.8h3.2v1.6h-0.8v-0.8h-1.6v4h1.6v-0.8h0.8v0.8h-0.8v0.8L230.8,38.4z"/>
<path class="st0" d="M237.2,34.4v4h-1.6v-8h1.6v3.2h0.8v-0.8h1.6v0.8h0.8v4.8h-1.6v-4.8H238v0.8L237.2,34.4z"/>
<path class="st0" d="M246.2,34.4v4h-1.6v-8h1.6v3.2h0.8v-0.8h1.6v0.8h0.8v4.8h-1.6v-4.8H247v0.8L246.2,34.4z"/>
<path class="st0" d="M251,35.2h0.8v-0.8h2.4v-0.8h-2.4v-0.8h3.2v0.8h0.8v4.8h-4v-0.8h-0.8L251,35.2z M252.6,35.2v2.4h1.6v-2.4H252.6
	z"/>
<path class="st0" d="M258.2,37.6h1.6v-0.8H259V36h-0.8v-0.8h-0.8v-1.6h0.8v-0.8h3.2v1.6h-0.8v-0.8h-1.6v0.8h0.8v0.8h0.8V36h0.8v1.6
	h-0.8v0.8h-3.2v-1.6h0.8V37.6z"/>
<path class="st0" d="M264.8,32.8h0.8v-1.6h1.7v1.6h0.8v0.8h-0.8v4.8h-1.6v-4.8h-0.8L264.8,32.8z"/>
<path class="st0" d="M268.8,33.6h0.8v-0.8h3.2v0.8h0.8v4h-0.8v0.8h-3.2v-0.8h-0.8V33.6z M270.4,33.6v4h1.6v-4H270.4z"/>
<path class="st0" d="M279.4,32.8h2.4v0.8h0.8v4h-0.8v0.8h-4v-8h1.6L279.4,32.8z M279.4,33.6v4h1.6v-4H279.4z"/>
<path class="st0" d="M289,36.8v0.8h-0.8v0.8h-3.2v-0.8h-0.8v-4h0.8v-0.8h3.2v0.8h0.8v1.6h-0.8V36h-2.4v1.6h2.4v-0.8L289,36.8z
	 M285.8,33.6v1.6h1.6v-1.6H285.8z"/>
<path class="st0" d="M293.1,32.8h1.6v4.8h1.6v-4.8h1.6v4.8h-0.8v0.8h-3.2v-0.8h-0.8V32.8z"/>
<path class="st0" d="M300.3,37.6h1.6v-0.8h-0.8V36h-0.8v-0.8h-0.8v-1.6h0.8v-0.8h3.2v1.6h-0.8v-0.8h-1.6v0.8h0.8v0.8h0.8V36h0.8v1.6
	h-0.8v0.8h-3.2v-1.6h0.8L300.3,37.6z"/>
<path class="st0" d="M309.9,36.8v0.8h-0.8v0.8h-3.2v-0.8h-0.8v-4h0.8v-0.8h3.2v0.8h0.8v1.6h-0.8V36h-2.4v1.6h2.4v-0.8L309.9,36.8z
	 M306.7,33.6v1.6h1.6v-1.6H306.7z"/>
<path class="st0" d="M311.5,33.6h0.8v-0.8h2.4v-2.4h1.6v8h-4v-0.8h-0.8L311.5,33.6z M313.1,33.6v4h1.6v-4H313.1z"/>
<path class="st0" d="M328.5,32.8v2.4h-0.8v1.6h-0.8v1.6h-1.6v-1.6h-1.6v1.6H322v-1.6h-0.8v-1.6h-0.8v-2.4h1.6v2.4h0.8v1.6h0.8V36
	h0.8v-0.8h-0.8v-2.4h1.6v2.4h0.8v1.6h0.8v-4L328.5,32.8z"/>
<path class="st0" d="M331.7,34.4v4H330v-8h1.6v3.2h0.8v-0.8h1.6v0.8h0.8v4.8h-1.6v-4.8h-0.8v0.8L331.7,34.4z"/>
<path class="st0" d="M341.2,36.8v0.8h-0.8v0.8h-3.2v-0.8h-0.8v-4h0.8v-0.8h3.2v0.8h0.8v1.6h-0.8V36h-2.4v1.6h2.4v-0.8L341.2,36.8z
	 M338,33.6v1.6h1.6v-1.6H338z"/>
<path class="st0" d="M346.9,32.8v0.8h0.8v4.8H346v-4.8h-0.8v0.8h-0.8v4h-1.6v-5.6h1.6v0.8h0.8v-0.8H346.9z"/>
<path class="st0" d="M352.6,38.4v-0.8h-0.8v-4h0.8v-0.8h3.2v1.6H355v-0.8h-1.6v4h1.6v-0.8h0.8v0.8H355v0.8L352.6,38.4z"/>
<path class="st0" d="M359,33.6h0.8v-0.8h0.8v1.6H359v4h-1.6v-5.6h1.6V33.6z"/>
<path class="st0" d="M361.4,33.6h0.8v-0.8h3.2v0.8h0.8v4h-0.8v0.8h-3.2v-0.8h-0.8L361.4,33.6z M363,33.6v4h1.6v-4H363z"/>
<path class="st0" d="M368.6,37.6h1.6v-0.8h-0.8V36h-0.8v-0.8h-0.8v-1.6h0.8v-0.8h3.2v1.6H371v-0.8h-1.6v0.8h0.8v0.8h0.8V36h0.8v1.6
	h-0.8v0.8h-3.2v-1.6h0.8L368.6,37.6z"/>
<path class="st0" d="M373.4,37.6h1.6v-0.8h-0.8V36h-0.8v-0.8h-0.8v-1.6h0.8v-0.8h3.2v1.6h-0.8v-0.8h-1.6v0.8h0.8v0.8h0.8V36h0.8v1.6
	h-0.8v0.8h-3.2v-1.6h0.8L373.4,37.6z"/>
<path class="st0" d="M379.8,32h-1.6v-0.8h1.6L379.8,32z M379.8,38.4h-1.6v-5.6h1.6L379.8,38.4z"/>
<path class="st0" d="M385.4,32.8v0.8h0.8v4.8h-1.6v-4.8h-0.8v0.8H383v4h-1.6v-5.6h1.6v0.8h0.8v-0.8H385.4z"/>
<path class="st0" d="M391,38.4h-2.4v-0.8h-0.8v-4h0.8v-0.8h4.8v0.8h-0.8v5.6h-0.8V40h-3.2v-0.8h2.4L391,38.4z M389.4,33.6v4h1.6v-4
	H389.4z"/>
<path class="st0" d="M396,32.8h0.8v-1.6h1.6v1.6h0.9v0.8h-0.8v4.8h-1.6v-4.8H396L396,32.8z"/>
<path class="st0" d="M401.6,34.4v4h-1.6v-8h1.6v3.2h0.8v-0.8h1.6v0.8h0.8v4.8h-1.6v-4.8h-0.8v0.8L401.6,34.4z"/>
<path class="st0" d="M411.2,36.8v0.8h-0.8v0.8h-3.2v-0.8h-0.8v-4h0.8v-0.8h3.2v0.8h0.8v1.6h-0.8V36H408v1.6h2.4v-0.8L411.2,36.8z
	 M408,33.6v1.6h1.6v-1.6H408z"/>
<path class="st0" d="M2.4,47.2h2.4V48h0.8v4H4.8v0.8h-4v-8h1.6L2.4,47.2z M2.4,48v4H4v-4H2.4z"/>
<path class="st0" d="M8.8,48h0.8v-0.8h0.8v1.6H8.8v4H7.2v-5.6h1.6L8.8,48z"/>
<path class="st0" d="M12.8,46.4h-1.6v-0.8h1.6V46.4z M12.8,52.8h-1.6v-5.6h1.6V52.8z"/>
<path class="st0" d="M14.4,48h0.8v-0.8h2.4v-2.4h1.7v8h-4V52h-0.8L14.4,48z M16,48v4h1.6v-4H16z"/>
<path class="st0" d="M24,52.8h-2.4V52h-0.8v-4h0.8v-0.8h4.8V48h-0.8v5.6h-0.8v0.8h-3.2v-0.8H24V52.8z M22.4,48v4H24v-4H22.4z"/>
<path class="st0" d="M32,51.2V52h-0.8v0.8H28V52h-0.8v-4H28v-0.8h3.2V48H32v1.6h-0.8v0.8h-2.4V52h2.4v-0.8L32,51.2z M28.8,48v1.6
	h1.6V48H28.8z"/>
<path class="st0" d="M35.2,52.8h-1.6v-1.6h1.6V52.8z"/>
<path class="st0" d="M39.1,47.2h0.8v-1.6h1.6v1.6h0.8V48h-0.8v4.8h-1.6V48h-0.8V47.2z"/>
<path class="st0" d="M44.7,48.8v4h-1.6v-8h1.6V48h0.8v-0.8h1.6V48h0.8v4.8h-1.7V48h-0.8v0.8L44.7,48.8z"/>
<path class="st0" d="M54.3,51.2V52h-0.8v0.8h-3.2V52h-0.8v-4h0.8v-0.8h3.2V48h0.8v1.6h-0.8v0.8h-2.4V52h2.4v-0.8L54.3,51.2z
	 M51.1,48v1.6h1.6V48H51.1z"/>
<path class="st0" d="M58.2,47.2h0.8v-1.6h1.6v1.6h0.8V48h-0.8v4.8h-1.6V48h-0.8V47.2z"/>
<path class="st0" d="M62.2,48H63v-0.8h3.3V48H67v4h-0.8v0.8H63V52h-0.8L62.2,48z M63.8,48v4h1.6v-4H63.8z"/>
<path class="st0" d="M70.2,48H71v-0.8h0.8v1.6h-1.6v4h-1.6v-5.6h1.6V48z"/>
<path class="st0" d="M73.4,52.8V52h-0.8v-4h0.8v-0.8h3.2v1.6h-0.8V48h-1.6v4h1.6v-0.8h0.8v0.8h-0.8v0.8L73.4,52.8z"/>
<path class="st0" d="M79.8,48.8v4h-1.6v-8h1.6V48h0.8v-0.8h1.7V48H83v4.8h-1.6V48h-0.8v0.8L79.8,48.8z"/>
<path class="st0" d="M87.7,48h0.8v-0.8h3.2V48h0.8v4h-0.8v0.8h-3.2V52h-0.8V48z M89.3,48v4h1.6v-4H89.3z"/>
<path class="st0" d="M98.1,47.2V48h0.8v4.8h-1.6V48h-0.8v0.8h-0.8v4H94v-5.6h1.6V48h0.8v-0.8H98.1z"/>
<path class="st0" d="M102.1,52.8h-1.6v-8h1.6V52.8z"/>
<path class="st0" d="M106,52h-0.8v-1.6h-0.8v-1.6h-0.8v-1.6h1.6v1.6h0.8v1.6h0.8v-3.2h1.6v1.6h-0.8v2.4h-0.8v2.4H106v0.8h-1.6v-1.6
	h1.6L106,52z"/>
<path class="st0" d="M114.8,52.8h-1.6v-8h1.6V52.8z"/>
<path class="st0" d="M116.3,49.6h0.8v-0.8h2.4V48h-2.4v-0.8h3.2V48h0.8v4.8h-4V52h-0.8L116.3,49.6z M118,49.6V52h1.6v-2.4H118z"/>
<path class="st0" d="M123.6,52h1.6v-0.8h-0.8v-0.8h-0.8v-0.8h-0.8V48h0.8v-0.8h3.2v1.6h-0.8V48h-1.6v0.8h0.8v0.8h0.8v0.8h0.8V52H126
	v0.8h-3.2v-1.6h0.8V52z"/>
<path class="st0" d="M127.6,47.2h0.8v-1.6h1.6v1.6h0.8V48H130v4.8h-1.6V48h-0.8V47.2z"/>
<path class="st0" d="M134.6,45.6h0.8v-0.8h1.6v8h-1.6v-6.4h-0.8L134.6,45.6z"/>
<path class="st0" d="M141.8,48.8h-2.4v-4h4v0.8H141V48h1.6v0.8h0.8V52h-0.8v0.8h-3.2V52h2.4V48.8z"/>
<path class="st0" d="M155.4,47.2V48h0.8v4.8h-1.6V48h-0.8v0.8H153v4h-1.6V48h-0.8v0.8h-0.8v4h-1.6v-5.6h1.6V48h0.8v-0.8h1.6V48h1.6
	v-0.8H155.4z"/>
<path class="st0" d="M159.4,46.4h-1.6v-0.8h1.6V46.4z M159.4,52.8h-1.6v-5.6h1.6V52.8z"/>
<path class="st0" d="M165,47.2V48h0.8v4.8h-1.6V48h-0.8v0.8h-0.8v4h-1.6v-5.6h1.6V48h0.8v-0.8H165z"/>
<path class="st0" d="M167.3,47.2h1.6V52h1.6v-4.8h1.6V52h-0.8v0.8h-3.2V52h-0.8V47.2z"/>
<path class="st0" d="M172.9,47.2h0.8v-1.6h1.6v1.6h0.8V48h-0.8v4.8h-1.6V48h-0.8V47.2z"/>
<path class="st0" d="M181.8,51.2V52H181v0.8h-3.2V52h-0.8v-4h0.8v-0.8h3.2V48h0.8v1.6H181v0.8h-2.4V52h2.4v-0.8L181.8,51.2z
	 M178.6,48v1.6h1.6V48H178.6z"/>
<path class="st0" d="M184.2,52h1.6v-0.8h-0.8v-0.8h-0.8v-0.8h-0.8V48h0.8v-0.8h3.2v1.6h-0.8V48H185v0.8h0.8v0.8h0.8v0.8h0.8V52h-0.8
	v0.8h-3.2v-1.6h0.8V52z"/>
<path class="st0" d="M193.7,47.2h2.4V48h0.8v4h-0.8v0.8h-4v-8h1.6L193.7,47.2z M193.7,48v4h1.6v-4H193.7z"/>
<path class="st0" d="M203.2,51.2V52h-0.8v0.8h-3.2V52h-0.8v-4h0.8v-0.8h3.2V48h0.8v1.6h-0.8v0.8h-2.4V52h2.4v-0.8L203.2,51.2z
	 M200,48v1.6h1.6V48H200z"/>
<path class="st0" d="M204,47.2h0.8v-1.6h0.8v-0.8h2.4v0.8h-1.6v1.6h1.6V48h-1.6v4.8h-1.6V48H204V47.2z"/>
<path class="st0" d="M208.8,48h0.8v-0.8h3.2V48h0.8v4h-0.8v0.8h-3.2V52h-0.8V48z M210.5,48v4h1.6v-4H210.5z"/>
<path class="st0" d="M216.8,48h0.8v-0.8h0.8v1.6h-1.6v4h-1.6v-5.6h1.6L216.8,48z"/>
<path class="st0" d="M224.1,51.2V52h-0.8v0.8H220V52h-0.8v-4h0.8v-0.8h3.2V48h0.8v1.6h-0.8v0.8h-2.4V52h2.4v-0.8L224.1,51.2z
	 M220.8,48v1.6h1.6V48H220.8z"/>
<path class="st0" d="M231.9,52.8h-2.4V52h-0.8v-4h0.8v-0.8h4.8V48h-0.8v5.6h-0.8v0.8h-3.2v-0.8h2.4V52.8z M230.3,48v4h1.6v-4H230.3z
	"/>
<path class="st0" d="M235.1,48h0.8v-0.8h3.2V48h0.8v4h-0.8v0.8h-3.2V52h-0.8V48z M236.7,48v4h1.6v-4H236.7z"/>
<path class="st0" d="M243.1,46.4h-1.6v-0.8h1.6V46.4z M243.1,52.8h-1.6v-5.6h1.6V52.8z"/>
<path class="st0" d="M248.7,47.2V48h0.8v4.8h-1.6V48h-0.8v0.8h-0.8v4h-1.6v-5.6h1.6V48h0.8v-0.8H248.7z"/>
<path class="st0" d="M254.3,52.8h-2.4V52h-0.8v-4h0.8v-0.8h4.8V48h-0.8v5.6h-0.8v0.8h-3.2v-0.8h2.4V52.8z M252.7,48v4h1.6v-4H252.7z
	"/>
<path class="st0" d="M260.6,48h0.8v-0.8h3.2V48h0.8v4h-0.8v0.8h-3.2V52h-0.8V48z M262.2,48v4h1.6v-4H262.2z"/>
<path class="st0" d="M267,47.2h1.6V52h1.6v-4.8h1.6V52h-0.8v0.8h-3.2V52H267L267,47.2z"/>
<path class="st0" d="M272.6,47.2h0.8v-1.6h1.6v1.6h0.8V48H275v4.8h-1.6V48h-0.8V47.2z"/>
<path class="st0" d="M278.2,52.8h-1.6v-1.6h1.6V52.8z"/>
<path class="st0" d="M284.5,44.8h1.6V52h-0.8v0.8h-2.4V52h-0.8v-0.8h0.8V52h1.6V44.8z"/>
<path class="st0" d="M287.7,48h0.8v-0.8h3.2V48h0.8v4h-0.8v0.8h-3.2V52h-0.8V48z M289.3,48v4h1.6v-4H289.3z"/>
<path class="st0" d="M298.9,51.2V52h-0.8v0.8h-3.2V52h-0.8v-4h0.8v-0.8h3.2V48h0.8v1.6h-0.8v0.8h-2.4V52h2.4v-0.8L298.9,51.2z
	 M295.7,48v1.6h1.6V48H295.7z"/>
<path class="st0" d="M304.4,52.8V52h-0.8v-4h0.8v-0.8h3.2v1.6h-0.8V48h-1.5v4h1.6v-0.8h0.8v0.8h-0.8v0.8L304.4,52.8z"/>
<path class="st0" d="M309.2,49.6h0.8v-0.8h2.4V48H310v-0.8h3.2V48h0.8v4.8h-4V52h-0.8L309.2,49.6z M310.8,49.6V52h1.6v-2.4H310.8z"
	/>
<path class="st0" d="M319.6,47.2V48h0.8v4.8h-1.6V48H318v0.8h-0.8v4h-1.6v-5.6h1.6V48h0.8v-0.8H319.6z"/>
<path class="st0" d="M325.9,52.8V52h-0.8v-4h0.8v-0.8h3.2v1.6h-0.9V48h-1.6v4h1.6v-0.8h0.8v0.8h-0.8v0.8L325.9,52.8z"/>
<path class="st0" d="M332.3,48h0.8v-0.8h0.8v1.6h-1.6v4h-1.6v-5.6h1.6V48z"/>
<path class="st0" d="M334.7,48h0.8v-0.8h3.2V48h0.8v4h-0.8v0.8h-3.2V52h-0.8V48z M336.3,48v4h1.6v-4H336.3z"/>
<path class="st0" d="M341.9,52h1.6v-0.8h-0.8v-0.8h-0.8v-0.8h-0.8V48h0.8v-0.8h3.2v1.6h-0.9V48h-1.6v0.8h0.8v0.8h0.8v0.8h0.8V52
	h-0.8v0.8H341v-1.6h0.8L341.9,52z"/>
<path class="st0" d="M346.7,52h1.5v-0.8h-0.8v-0.8h-0.8v-0.8h-0.8V48h0.8v-0.8h3.2v1.6H349V48h-1.6v0.8h0.8v0.8h0.8v0.8h0.8V52h-0.8
	v0.8h-3.2v-1.6h0.8L346.7,52z"/>
<path class="st0" d="M353.8,47.2h0.8v-1.6h1.7v1.6h0.8V48h-0.8v4.8h-1.6V48h-0.8L353.8,47.2z"/>
<path class="st0" d="M359.4,48.8v4h-1.6v-8h1.6V48h0.8v-0.8h1.6V48h0.8v4.8H361V48h-0.7v0.8L359.4,48.8z"/>
<path class="st0" d="M369,51.2V52h-0.8v0.8H365V52h-0.8v-4h0.8v-0.8h3.2V48h0.8v1.6h-0.8v0.8h-2.4V52h2.4v-0.8L369,51.2z M365.8,48
	v1.6h1.6V48H365.8z"/>
<path class="st0" d="M375.3,47.2h2.4V48h0.8v4h-0.8v0.8h-4v-8h1.6L375.3,47.2z M375.3,48v4h1.6v-4H375.3z"/>
<path class="st0" d="M381.7,48h0.8v-0.8h0.8v1.6h-1.6v4h-1.6v-5.6h1.6L381.7,48z"/>
<path class="st0" d="M385.7,46.4H384v-0.8h1.6V46.4z M385.7,52.8H384v-5.6h1.6V52.8z"/>
<path class="st0" d="M390.5,52.8h-2.4V52h-0.8v-4h0.8v-0.8h4.8V48h-0.8v5.6h-0.8v0.8H388v-0.8h2.4L390.5,52.8z M388.9,48v4h1.6v-4
	H388.9z"/>
<path class="st0" d="M398.5,51.2V52h-0.8v0.8h-3.2V52h-0.8v-4h0.8v-0.8h3.2V48h0.8v1.6h-0.8v0.8h-2.4V52h2.4v-0.8L398.5,51.2z
	 M395.3,48v1.6h1.6V48H395.3z"/>
<path class="st0" d="M404.8,46.4h-1.6v-0.8h1.6V46.4z M404.8,52.8h-1.6v-5.6h1.6V52.8z"/>
<path class="st0" d="M410.4,47.2V48h0.9v4.8h-1.6V48h-0.8v0.8H408v4h-1.6v-5.6h1.6V48h0.8v-0.8H410.4z"/>
<path class="st0" d="M0.8,62.4h0.8v-0.8h3.2v0.8h0.8v4H4.8v0.8H1.6v-0.8H0.8V62.4z M2.4,62.4v4H4v-4H2.4z"/>
<path class="st0" d="M11.2,61.6v0.8H12v4.8h-1.6v-4.8H9.6v0.8H8.8v4H7.2v-5.6h1.6v0.8h0.8v-0.8H11.2z"/>
<path class="st0" d="M18.4,65.6v0.8h-0.8v0.8h-3.2v-0.8h-0.8v-4h0.8v-0.8h3.2v0.8h0.8V64h-0.8v0.8h-2.4v1.6h2.4v-0.8L18.4,65.6z
	 M15.2,62.4V64h1.6v-1.6H15.2z"/>
<path class="st0" d="M30,61.6v0.8h0.8v4.8h-1.6v-4.8h-0.8v0.8h-0.8v4H26v-4.8h-0.7v0.8h-0.8v4h-1.6v-5.6h1.6v0.8h0.8v-0.8h1.6v0.8
	h1.6v-0.8H30z"/>
<path class="st0" d="M34,60.8h-1.6V60H34V60.8z M34,67.2h-1.6v-5.6H34V67.2z"/>
<path class="st0" d="M39.6,61.6v0.8h0.8v4.8h-1.6v-4.8H38v0.8h-0.8v4h-1.6v-5.6h1.6v0.8H38v-0.8H39.6z"/>
<path class="st0" d="M42,61.6h1.6v4.8h1.6v-4.8h1.6v4.8H46v0.8h-3.2v-0.8H42L42,61.6z"/>
<path class="st0" d="M47.6,61.6h0.8V60H50v1.6h0.8v0.8H50v4.8h-1.6v-4.8h-0.8V61.6z"/>
<path class="st0" d="M56.4,65.6v0.8h-0.8v0.8h-3.2v-0.8h-0.8v-4h0.8v-0.8h3.2v0.8h0.8V64h-0.8v0.8h-2.4v1.6h2.4v-0.8L56.4,65.6z
	 M53.2,62.4V64h1.6v-1.6H53.2z"/>
<path class="st0" d="M59.6,67.2H58v-1.6h1.6V67.2z"/>
<path class="st0" d="M65.6,59.2h1.7v7.2h-0.8v0.8H64v-0.8h-0.8v-0.8H64v0.8h1.6L65.6,59.2z"/>
<path class="st0" d="M68.8,64h0.8v-0.8H72v-0.8h-2.4v-0.8h3.2v0.8h0.8v4.8h-4v-0.8h-0.8L68.8,64z M70.4,64v2.4H72V64H70.4z"/>
<path class="st0" d="M82.4,61.6v0.8h0.8v4.8h-1.6v-4.8h-0.8v0.8H80v4h-1.6v-4.8h-0.8v0.8h-0.8v4h-1.6v-5.6h1.6v0.8h0.8v-0.8h1.7v0.8
	h1.6v-0.8H82.4z"/>
<path class="st0" d="M89.6,65.6v0.8h-0.8v0.8h-3.2v-0.8h-0.8v-4h0.8v-0.8h3.2v0.8h0.8V64h-0.8v0.8h-2.4v1.6h2.4v-0.8L89.6,65.6z
	 M86.4,62.4V64H88v-1.6H86.4z"/>
<path class="st0" d="M92,66.4h1.6v-0.8h-0.8v-0.8H92V64h-0.8v-1.6H92v-0.8h3.3v1.6h-0.8v-0.8h-1.6v0.8h0.8V64h0.8v0.8h0.8v1.6h-0.8
	v0.8h-3.2v-1.6h0.8L92,66.4z"/>
<path class="st0" d="M101.2,60.8h-1.6V60h1.6V60.8z M101.2,67.2h-1.6v-5.6h1.6V67.2z"/>
<path class="st0" d="M106.8,61.6v0.8h0.8v4.8H106v-4.8h-0.7v0.8h-0.8v4h-1.6v-5.6h1.6v0.8h0.8v-0.8H106.8z"/>
<path class="st0" d="M111.2,61.6h0.8V60h1.6v1.6h0.8v0.8h-0.8v4.8H112v-4.8h-0.8V61.6z"/>
<path class="st0" d="M123.2,61.6V64h-0.8v1.6h-0.8v1.6H120v-1.6h-1.6v1.6h-1.6v-1.6H116V64h-0.8v-2.4h1.6V64h0.8v1.6h0.8v-0.8h0.8
	V64h-0.8v-2.4h1.6V64h0.8v1.6h0.8v-4L123.2,61.6z"/>
<path class="st0" d="M124.8,62.4h0.8v-0.8h3.2v0.8h0.8v4h-0.8v0.8h-3.2v-0.8h-0.8V62.4z M126.4,62.4v4h1.6v-4H126.4z"/>
<path class="st0" d="M141.2,61.6v0.8h0.8v4.8h-1.6v-4.8h-0.8v0.8h-0.8v4h-1.6v-4.8h-0.8v0.8h-0.8v4H134v-5.6h1.6v0.8h0.8v-0.8h1.6
	v0.8h1.6v-0.8H141.2z"/>
<path class="st0" d="M145.2,60.8h-1.6V60h1.6V60.8z M145.2,67.2h-1.6v-5.6h1.6V67.2z"/>
<path class="st0" d="M150.8,61.6v0.8h0.8v4.8H150v-4.8h-0.7v0.8h-0.8v4h-1.6v-5.6h1.6v0.8h0.8v-0.8H150.8z"/>
<path class="st0" d="M153.2,61.6h1.6v4.8h1.6v-4.8h1.6v4.8h-0.8v0.8H154v-0.8h-0.8L153.2,61.6z"/>
<path class="st0" d="M158.8,61.6h0.8V60h1.7v1.6h0.8v0.8h-0.8v4.8h-1.6v-4.8h-0.8L158.8,61.6z"/>
<path class="st0" d="M167.6,65.6v0.8h-0.8v0.8h-3.2v-0.8h-0.8v-4h0.8v-0.8h3.2v0.8h0.8V64h-0.8v0.8h-2.4v1.6h2.4v-0.8L167.6,65.6z
	 M164.4,62.4V64h1.6v-1.6H164.4z"/>
<path class="st0" d="M170,66.4h1.6v-0.8h-0.8v-0.8H170V64h-0.8v-1.6h0.8v-0.8h3.3v1.6h-0.8v-0.8h-1.6v0.8h0.8V64h0.8v0.8h0.8v1.6
	h-0.8v0.8h-3.2v-1.6h0.8L170,66.4z"/>
<path class="st0" d="M174.8,67.2v-1.6h1.6V68h-0.8v0.8h-0.8V68h0.8v-0.8H174.8z"/>
<path class="st0" d="M182.4,59.2h1.6v7.2h-0.8v0.8h-2.4v-0.8H180v-0.8h0.8v0.8h1.6L182.4,59.2z"/>
<path class="st0" d="M185.6,62.4h0.8v-0.8h3.2v0.8h0.8v4h-0.8v0.8h-3.2v-0.8h-0.8V62.4z M187.2,62.4v4h1.6v-4H187.2z"/>
<path class="st0" d="M193.6,63.2v4H192v-8h1.6v3.2h0.8v-0.8h1.6v0.8h0.8v4.8h-1.6v-4.8h-0.8v0.8L193.6,63.2z"/>
<path class="st0" d="M202.4,61.6v0.8h0.9v4.8h-1.6v-4.8h-0.8v0.8H200v4h-1.6v-5.6h1.6v0.8h0.8v-0.8H202.4z"/>
<path class="st0" d="M209.2,60.8h-1.6V60h1.6V60.8z M209.2,67.2h-1.6v-5.6h1.6V67.2z"/>
<path class="st0" d="M214.8,61.6v0.8h0.8v4.8H214v-4.8h-0.7v0.8h-0.8v4h-1.6v-5.6h1.6v0.8h0.8v-0.8H214.8z"/>
<path class="st0" d="M219.2,61.6h0.8V60h0.8v-0.8h4V60h-3.2v1.6h3.2v5.6h-1.6v-4.8h-1.6v4.8h-1.6v-4.8h-0.8L219.2,61.6z"/>
<path class="st0" d="M231.2,61.6V64h-0.8v1.6h-0.8v1.6H228v-1.6h-0.8V64h-0.8v-2.4h1.6V64h0.8v1.6h0.8v-4L231.2,61.6z"/>
<path class="st0" d="M237.6,65.6v0.8h-0.8v0.8h-3.2v-0.8h-0.8v-4h0.8v-0.8h3.2v0.8h0.8V64h-0.8v0.8h-2.4v1.6h2.4v-0.8L237.6,65.6z
	 M234.4,62.4V64h1.6v-1.6H234.4z"/>
<path class="st0" d="M249.2,61.6v0.8h0.8v4.8h-1.6v-4.8h-0.8v0.8h-0.8v4h-1.6v-4.8h-0.8v0.8h-0.8v4H242v-5.6h1.6v0.8h0.8v-0.8h1.6
	v0.8h1.6v-0.8H249.2z"/>
<path class="st0" d="M253.2,60.8h-1.6V60h1.6V60.8z M253.2,67.2h-1.6v-5.6h1.6V67.2z"/>
<path class="st0" d="M258.8,61.6v0.8h0.8v4.8H258v-4.8h-0.7v0.8h-0.8v4h-1.6v-5.6h1.6v0.8h0.8v-0.8H258.8z"/>
<path class="st0" d="M261.2,61.6h1.6v4.8h1.6v-4.8h1.6v4.8h-0.8v0.8H262v-0.8h-0.8V61.6z"/>
<path class="st0" d="M266.8,61.6h0.8V60h1.6v1.6h0.8v0.8h-0.8v4.8h-1.6v-4.8h-0.8V61.6z"/>
<path class="st0" d="M275.6,65.6v0.8h-0.8v0.8h-3.2v-0.8h-0.8v-4h0.8v-0.8h3.2v0.8h0.8V64h-0.8v0.8h-2.4v1.6h2.4v-0.8L275.6,65.6z
	 M272.4,62.4V64h1.6v-1.6H272.4z"/>
<path class="st0" d="M278,66.4h1.6v-0.8h-0.8v-0.8H278V64h-0.8v-1.6h0.8v-0.8h3.2v1.6h-0.8v-0.8h-1.6v0.8h0.8V64h0.8v0.8h0.8v1.6
	h-0.8v0.8h-3.2v-1.6h0.8L278,66.4z"/>
<path class="st0" d="M285.5,64h0.8v-0.8h2.4v-0.8h-2.4v-0.8h3.2v0.8h0.8v4.8h-4v-0.8h-0.8L285.5,64z M287.2,64v2.4h1.6V64H287.2z"/>
<path class="st0" d="M296,61.6v0.8h0.8v4.8h-1.6v-4.8h-0.8v0.8h-0.8v4H292v-5.6h1.6v0.8h0.8v-0.8H296z"/>
<path class="st0" d="M298.3,62.4h0.8v-0.8h2.4v-2.4h1.6v8h-4v-0.8h-0.8L298.3,62.4z M300,62.4v4h1.6v-4H300z"/>
<path class="st0" d="M309.2,59.2h1.6v7.2H310v0.8h-2.4v-0.8h-0.8v-0.8h0.8v0.8h1.6L309.2,59.2z"/>
<path class="st0" d="M314,60.8h-1.6V60h1.6V60.8z M314,67.2h-1.6v-5.6h1.6V67.2z"/>
<path class="st0" d="M322.8,61.6v0.8h0.8v4.8H322v-4.8h-0.8v0.8h-0.8v4h-1.6v-4.8H318v0.8h-0.8v4h-1.6v-5.6h1.6v0.8h0.8v-0.8h1.6
	v0.8h1.6v-0.8H322.8z"/>
<path class="st0" d="M329.6,60.8h-1.6V60h1.6V60.8z M329.6,67.2h-1.6v-5.6h1.6V67.2z"/>
<path class="st0" d="M335.2,61.6v0.8h0.8v4.8h-1.6v-4.8h-0.8v0.8h-0.8v4h-1.6v-5.6h1.6v0.8h0.8v-0.8H335.2z"/>
<path class="st0" d="M345.2,65.6v0.8h-0.8v0.8h-3.2v-0.8h-0.8v-4h0.8v-0.8h3.2v0.8h0.8V64h-0.8v0.8H342v1.6h2.4v-0.8L345.2,65.6z
	 M342,62.4V64h1.6v-1.6H342z"/>
<path class="st0" d="M348.4,60.8h-1.6V60h1.6V60.8z M348.4,67.2h-1.6v-5.6h1.6V67.2z"/>
<path class="st0" d="M353.2,67.2h-2.4v-0.8H350v-4h0.8v-0.8h4.8v0.8h-0.8V68H354v0.8h-3.2V68h2.4V67.2z M351.6,62.4v4h1.6v-4H351.6z
	"/>
<path class="st0" d="M358,63.2v4h-1.6v-8h1.6v3.2h0.8v-0.8h1.6v0.8h0.8v4.8h-1.6v-4.8h-0.8v0.8L358,63.2z"/>
<path class="st0" d="M362,61.6h0.8V60h1.6v1.6h0.8v0.8h-0.8v4.8h-1.6v-4.8H362V61.6z"/>
<path class="st0" d="M376,61.6v0.8h0.8v4.8h-1.6v-4.8h-0.8v0.8h-0.8v4h-1.6v-4.8h-0.8v0.8h-0.8v4h-1.6v-5.6h1.6v0.8h0.8v-0.8h1.6
	v0.8h1.6v-0.8H376z"/>
<path class="st0" d="M380,60.8h-1.6V60h1.6V60.8z M380,67.2h-1.6v-5.6h1.6V67.2z"/>
<path class="st0" d="M385.6,61.6v0.8h0.8v4.8h-1.6v-4.8H384v0.8h-0.8v4h-1.6v-5.6h1.6v0.8h0.8v-0.8H385.6z"/>
<path class="st0" d="M387.9,61.6h1.6v4.8h1.6v-4.8h1.6v4.8H392v0.8h-3.2v-0.8h-0.8L387.9,61.6z"/>
<path class="st0" d="M393.5,61.6h0.8V60h1.6v1.6h0.8v0.8H396v4.8h-1.6v-4.8h-0.8V61.6z"/>
<path class="st0" d="M402.4,65.6v0.8h-0.8v0.8h-3.2v-0.8h-0.8v-4h0.8v-0.8h3.2v0.8h0.8V64h-0.8v0.8h-2.4v1.6h2.4v-0.8L402.4,65.6z
	 M399.2,62.4V64h1.6v-1.6H399.2z"/>
<path class="st0" d="M404.8,66.4h1.6v-0.8h-0.8v-0.8h-0.8V64h-0.8v-1.6h0.8v-0.8h3.2v1.6h-0.8v-0.8h-1.6v0.8h0.8V64h0.8v0.8h0.8v1.6
	h-0.8v0.8h-3.2v-1.6h0.8L404.8,66.4z"/>
<path class="st0" d="M411.2,67.2h-1.6v-1.6h1.6V67.2z"/>
<path class="st0" d="M8.8,73.6V76H8v3.2H7.2v2.4H5.6v-2.4H4.1v2.4H2.4v-2.4H1.6V76H0.8v-2.4h1.6V76h0.8v3.2H4v-0.8h0.8V76H4v-2.4
	h1.6V76h0.8v3.2h0.8v-5.6L8.8,73.6z"/>
<path class="st0" d="M12,77.6v4h-1.6v-8H12v3.2h0.8V76h1.6v0.8h0.8v4.8h-1.6v-4.8h-0.8v0.8L12,77.6z"/>
<path class="st0" d="M21.6,80v0.8h-0.8v0.8h-3.2v-0.8h-0.8v-4h0.8V76h3.2v0.8h0.8v1.6h-0.8v0.8h-2.4v1.6h2.4V80L21.6,80z M18.4,76.8
	v1.6H20v-1.6H18.4z"/>
<path class="st0" d="M27.2,76v0.8h0.8v4.8h-1.6v-4.8h-0.8v0.8h-0.8v4h-1.6V76h1.6v0.8h0.8V76H27.2z"/>
<path class="st0" d="M31,76h0.8v-1.6h1.6V76h0.8v0.8h-0.8v4.8h-1.6v-4.8H31V76z"/>
<path class="st0" d="M43,76v2.4h-0.8V80h-0.8v1.6h-1.6V80h-1.6v1.6h-1.6V80h-0.8v-1.6H35V76h1.6v2.4h0.8V80h0.8v-0.8h0.8v-0.8h-0.8
	V76h1.6v2.4h0.8V80h0.8v-4L43,76z"/>
<path class="st0" d="M44.6,76.8h0.8V76h3.2v0.8h0.8v4h-0.8v0.8h-3.2v-0.8h-0.8V76.8z M46.2,76.8v4h1.6v-4H46.2z"/>
<path class="st0" d="M60.4,76v0.8h0.8v4.8h-1.6v-4.8h-0.8v0.8H58v4h-1.6v-4.8h-0.8v0.8h-0.8v4h-1.6V76h1.6v0.8h0.8V76h1.6v0.8h1.6
	V76H60.4z"/>
<path class="st0" d="M62.8,76.8h0.8V76h3.2v0.8h0.8v4h-0.8v0.8h-3.2v-0.8h-0.8V76.8z M64.4,76.8v4H66v-4H64.4z"/>
<path class="st0" d="M73.2,76v0.8h0.8v4.8h-1.6v-4.8h-0.8v0.8h-0.8v4h-1.6V76h1.6v0.8h0.8V76H73.2z"/>
<path class="st0" d="M80.4,76v0.8h-0.8v0.8h-0.8v1.6h0.8V80h0.8v1.6h-1.6V80H78v-0.8h-0.8v2.4h-1.6v-8h1.6v4.8H78v-0.8h0.8v-0.8h0.8
	V76L80.4,76z"/>
<path class="st0" d="M82.8,80.8h1.6V80h-0.8v-0.8h-0.8v-0.8H82v-1.6h0.8V76H86v1.6h-0.8v-0.8h-1.6v0.8h0.8v0.8h0.8v0.8h0.8v1.6h-0.8
	v0.8H82V80h0.8L82.8,80.8z"/>
<path class="st0" d="M90.6,81.6v-0.8h-0.8v-4h0.8V76h3.2v1.6H93v-0.8h-1.6v4H93V80h0.8v0.8h-0.8v0.8L90.6,81.6z"/>
<path class="st0" d="M97.1,76.8h0.8V76h0.8v1.6h-1.6v4h-1.6V76h1.6V76.8z"/>
<path class="st0" d="M99.4,76.8h0.8V76h3.2v0.8h0.8v4h-0.8v0.8h-3.2v-0.8h-0.8L99.4,76.8z M101.1,76.8v4h1.6v-4H101.1z"/>
<path class="st0" d="M106.7,80.8h1.6V80h-0.8v-0.8h-0.8v-0.8h-0.8v-1.6h0.8V76h3.2v1.6h-0.8v-0.8h-1.6v0.8h0.8v0.8h0.8v0.8h0.8v1.6
	H109v0.8h-3.2V80h0.8L106.7,80.8z"/>
<path class="st0" d="M111.5,80.8h1.6V80h-0.8v-0.8h-0.8v-0.8h-0.8v-1.6h0.8V76h3.2v1.6h-0.8v-0.8h-1.6v0.8h0.8v0.8h0.8v0.8h0.8v1.6
	h-0.8v0.8h-3.2V80h0.8L111.5,80.8z"/>
<path class="st0" d="M117.6,76h0.8v-1.6h1.6V76h0.8v0.8h-0.8v4.8h-1.6v-4.8h-0.8V76z"/>
<path class="st0" d="M123.2,77.6v4h-1.6v-8h1.6v3.2h0.8V76h1.6v0.8h0.8v4.8h-1.6v-4.8h-0.8v0.8L123.2,77.6z"/>
<path class="st0" d="M132.9,80v0.8h-0.8v0.8h-3.2v-0.8H128v-4h0.8V76h3.2v0.8h0.8v1.6h-0.8v0.8h-2.4v1.6h2.4V80L132.9,80z
	 M129.7,76.8v1.6h1.6v-1.6H129.7z"/>
<path class="st0" d="M138.2,76h2.4v0.8h0.8v4h-0.8v0.8h-4v-8h1.6V76z M138.2,76.8v4h1.6v-4H138.2z"/>
<path class="st0" d="M144.7,76.8h0.8V76h0.8v1.6h-1.6v4h-1.6V76h1.6V76.8z"/>
<path class="st0" d="M148.7,75.2H147v-0.8h1.6V75.2z M148.7,81.6H147V76h1.6V81.6z"/>
<path class="st0" d="M150.2,76.8h0.8V76h2.4v-2.4h1.6v8h-4v-0.8h-0.8V76.8z M151.9,76.8v4h1.6v-4H151.9z"/>
<path class="st0" d="M159.8,81.6h-2.4v-0.8h-0.8v-4h0.8V76h4.8v0.8h-0.8v5.6h-0.8v0.8h-3.2v-0.8h2.4L159.8,81.6z M158.3,76.8v4h1.6
	v-4H158.3z"/>
<path class="st0" d="M167.9,80v0.8h-0.8v0.8h-3.2v-0.8H163v-4h0.8V76h3.2v0.8h0.8v1.6h-0.8v0.8h-2.4v1.6h2.4V80L167.9,80z
	 M164.7,76.8v1.6h1.6v-1.6H164.7z"/>
<path class="st0" d="M170.9,76h0.8v-1.6h1.6V76h0.8v0.8h-0.8v4.8h-1.6v-4.8h-0.8V76z"/>
<path class="st0" d="M174.9,76.8h0.8V76h3.2v0.8h0.8v4h-0.8v0.8h-3.2v-0.8h-0.8V76.8z M176.5,76.8v4h1.6v-4H176.5z"/>
<path class="st0" d="M184.5,81.6h-2.4v-0.8h-0.8v-4h0.8V76h4.8v0.8h-0.8v5.6h-0.8v0.8h-3.2v-0.8h2.4L184.5,81.6z M182.9,76.8v4h1.6
	v-4H182.9z"/>
<path class="st0" d="M192.5,80v0.8h-0.8v0.8h-3.2v-0.8h-0.8v-4h0.8V76h3.2v0.8h0.8v1.6h-0.8v0.8h-2.4v1.6h2.4V80L192.5,80z
	 M189.2,76.8v1.6h1.6v-1.6H189.2z"/>
<path class="st0" d="M193.2,76h0.8v-1.6h1.6V76h0.8v0.8h-0.8v4.8H194v-4.8h-0.8V76z"/>
<path class="st0" d="M198.9,77.6v4h-1.6v-8h1.6v3.2h0.8V76h1.6v0.8h0.8v4.8h-1.6v-4.8h-0.8v0.8L198.9,77.6z"/>
<path class="st0" d="M208.5,80v0.8h-0.8v0.8h-3.2v-0.8h-0.8v-4h0.8V76h3.2v0.8h0.8v1.6h-0.8v0.8h-2.4v1.6h2.4V80L208.5,80z
	 M205.3,76.8v1.6h1.6v-1.6H205.3z"/>
<path class="st0" d="M211.7,76.8h0.8V76h0.8v1.6h-1.6v4H210V76h1.6V76.8z"/>
<path class="st0" d="M214,81.6V80h1.6v2.4h-0.8v0.8H214v-0.8h0.8v-0.8H214z"/>
<path class="st0" d="M218.7,76h0.8v-1.6h1.6V76h0.8v0.8h-0.8v4.8h-1.6v-4.8h-0.8V76z"/>
<path class="st0" d="M224.3,77.6v4h-1.6v-8h1.6v3.2h0.8V76h1.6v0.8h0.8v4.8h-1.6v-4.8h-0.8v0.8L224.3,77.6z"/>
<path class="st0" d="M233.9,80v0.8h-0.8v0.8h-3.2v-0.8h-0.8v-4h0.8V76h3.2v0.8h0.8v1.6h-0.8v0.8h-2.4v1.6h2.4V80L233.9,80z
	 M230.7,76.8v1.6h1.5v-1.6H230.7z"/>
<path class="st0" d="M237.9,80.8h-0.8v-1.6h-0.8v-1.6h-0.8V76h1.6v1.6h0.8v1.6h0.8V76h1.6v1.6h-0.8V80h-0.8v2.4h-0.8v0.8h-1.6v-1.6
	h1.6L237.9,80.8z"/>
<path class="st0" d="M251.3,76v0.8h0.8v4.8h-1.6v-4.8h-0.8v0.8h-0.8v4h-1.7v-4.8h-0.8v0.8h-0.8v4H244V76h1.6v0.8h0.8V76h1.6v0.8h1.6
	V76H251.3z"/>
<path class="st0" d="M253.7,76h1.6v4.8h1.6V76h1.6v4.8h-0.8v0.8h-3.2v-0.8h-0.8L253.7,76z"/>
<path class="st0" d="M260.9,80.8h1.6V80h-0.8v-0.8h-0.8v-0.8h-0.8v-1.6h0.8V76h3.2v1.6h-0.9v-0.8h-1.6v0.8h0.8v0.8h0.8v0.8h0.8v1.6
	h-0.8v0.8H260V80h0.8L260.9,80.8z"/>
<path class="st0" d="M264.9,76h0.8v-1.6h1.6V76h0.8v0.8h-0.8v4.8h-1.6v-4.8h-0.8V76z"/>
<path class="st0" d="M278.3,76v0.8h0.8v4.8h-1.6v-4.8h-0.8v0.8h-0.8v4h-1.6v-4.8h-0.8v0.8h-0.8v4h-1.6V76h1.6v0.8h0.8V76h1.6v0.8
	h1.6V76H278.3z"/>
<path class="st0" d="M280.7,76.8h0.8V76h3.2v0.8h0.8v4h-0.8v0.8h-3.2v-0.8h-0.8V76.8z M282.3,76.8v4h1.6v-4H282.3z"/>
<path class="st0" d="M291.9,76v2.4h-0.8V80h-0.8v1.6h-1.6V80h-0.8v-1.6h-0.8V76h1.6v2.4h0.8V80h0.8v-4L291.9,76z"/>
<path class="st0" d="M298.3,80v0.8h-0.8v0.8h-3.2v-0.8h-0.8v-4h0.8V76h3.2v0.8h0.8v1.6h-0.8v0.8h-2.4v1.6h2.4V80L298.3,80z
	 M295.1,76.8v1.6h1.6v-1.6H295.1z"/>
<path class="st0" d="M302.1,78.4h0.8v-0.8h2.4v-0.8h-2.4V76h3.2v0.8h0.8v4.8h-4v-0.8h-0.8L302.1,78.4z M303.7,78.4v2.4h1.6v-2.4
	H303.7z"/>
<path class="st0" d="M307.7,76h0.8v-1.6h1.6V76h0.8v0.8h-0.8v4.8h-1.6v-4.8h-0.8V76z"/>
<path class="st0" d="M313.1,76h0.8v-1.6h1.6V76h0.8v0.8h-0.8v4.8h-1.6v-4.8h-0.8V76z"/>
<path class="st0" d="M318.8,77.6v4h-1.6v-8h1.6v3.2h0.8V76h1.6v0.8h0.8v4.8h-1.6v-4.8h-0.8v0.8L318.8,77.6z"/>
<path class="st0" d="M328.4,80v0.8h-0.8v0.8h-3.2v-0.8h-0.8v-4h0.8V76h3.2v0.8h0.8v1.6h-0.8v0.8h-2.4v1.6h2.4V80L328.4,80z
	 M325.2,76.8v1.6h1.6v-1.6H325.2z"/>
<path class="st0" d="M333,80.8h1.6V80h-0.8v-0.8h-0.8v-0.8h-0.8v-1.6h0.8V76h3.2v1.6h-0.8v-0.8h-1.6v0.8h0.8v0.8h0.8v0.8h0.8v1.6
	h-0.8v0.8h-3.2V80h0.8V80.8z"/>
<path class="st0" d="M339.4,81.6h-1.6v-8h1.6V81.6z"/>
<path class="st0" d="M341,76.8h0.8V76h3.2v0.8h0.8v4H345v0.8h-3.2v-0.8H341V76.8z M342.6,76.8v4h1.6v-4H342.6z"/>
<path class="st0" d="M355.4,76v2.4h-0.8V80h-0.8v1.6h-1.6V80h-1.6v1.6H349V80h-0.8v-1.6h-0.8V76h1.6v2.4h0.8V80h0.8v-0.8h0.8v-0.8
	h-0.8V76h1.6v2.4h0.8V80h0.8v-4L355.4,76z"/>
<path class="st0" d="M361.8,80v0.8H361v0.8h-3.2v-0.8h-0.8v-4h0.8V76h3.2v0.8h0.8v1.6H361v0.8h-2.4v1.6h2.4V80L361.8,80z
	 M358.6,76.8v1.6h1.6v-1.6H358.6z"/>
<path class="st0" d="M365,76.8h0.8V76h0.8v1.6H365v4h-1.6V76h1.6V76.8z"/>
<path class="st0" d="M373.6,76.8h0.8v4h-0.8v0.8h-2.3v1.6h-1.6V76h4L373.6,76.8z M371.2,76.8v4h1.6v-4H371.2z"/>
<path class="st0" d="M380.8,80v0.8H380v0.8h-3.2v-0.8H376v-4h0.8V76h3.2v0.8h0.8v1.6H380v0.8h-2.4v1.6h2.4V80L380.8,80z M377.6,76.8
	v1.6h1.6v-1.6H377.6z"/>
<path class="st0" d="M384,76.8h0.8V76h0.8v1.6H384v4h-1.6V76h1.6L384,76.8z"/>
<path class="st0" d="M387.2,80.8h1.6V80H388v-0.8h-0.8v-0.8h-0.8v-1.6h0.8V76h3.2v1.6h-0.8v-0.8H388v0.8h0.8v0.8h0.8v0.8h0.8v1.6
	h-0.8v0.8h-3.2V80h0.8V80.8z"/>
<path class="st0" d="M392,76.8h0.8V76h3.2v0.8h0.8v4H396v0.8h-3.2v-0.8H392V76.8z M393.6,76.8v4h1.6v-4H393.6z"/>
<path class="st0" d="M402.4,76v0.8h0.8v4.8h-1.6v-4.8h-0.8v0.8H400v4h-1.6V76h1.6v0.8h0.8V76H402.4z"/>
<path class="st0" d="M405.6,76h-0.8v-2.4h0.8V76z"/>
<path class="st0" d="M408,80.8h1.6V80h-0.8v-0.8h-0.8v-0.8h-0.8v-1.6h0.8V76h3.2v1.6h-0.8v-0.8h-1.6v0.8h0.8v0.8h0.8v0.8h0.8v1.6
	h-0.8v0.8h-3.2V80h0.8L408,80.8z"/>
<path class="st0" d="M4.8,91.2h0.8v4H4.8V96H2.4v1.6H0.8v-7.2h4L4.8,91.2z M2.4,91.2v4H4v-4H2.4z"/>
<path class="st0" d="M7.2,92.8H8V92h2.4v-0.8H8v-0.8h3.3v0.8H12V96H8v-0.8H7.2L7.2,92.8z M8.8,92.8v2.4h1.6v-2.4H8.8z"/>
<path class="st0" d="M14.4,96v-0.8h-0.8v-4h0.8v-0.8h3.2V92h-0.8v-0.8h-1.5v4h1.6v-0.8h0.8v0.8h-0.8v0.8L14.4,96z"/>
<path class="st0" d="M24,94.4v0.8h-0.8V96H20v-0.8h-0.8v-4H20v-0.8h3.2v0.8H24v1.6h-0.8v0.8h-2.4v1.6h2.4v-0.8L24,94.4z M20.8,91.2
	v1.6h1.6v-1.6H20.8z"/>
<path class="st0" d="M27.2,96h-1.6v-1.6h1.6V96z"/>
<path class="st0" d="M30.4,88h4.9v0.8h-1.6V96H32v-7.2h-1.6L30.4,88z"/>
<path class="st0" d="M37.6,92v4H36v-8h1.6v3.2h0.8v-0.8H40v0.8h0.8V96h-1.6v-4.8h-0.8V92L37.6,92z"/>
<path class="st0" d="M47.2,94.4v0.8h-0.8V96h-3.2v-0.8h-0.8v-4h0.8v-0.8h3.2v0.8h0.8v1.6h-0.8v0.8H44v1.6h2.4v-0.8L47.2,94.4z
	 M44,91.2v1.6h1.6v-1.6H44z"/>
<path class="st0" d="M52,95.2h-0.8v-4H52v-0.8h4v7.2h-1.6V96h-2.4L52,95.2z M52.8,91.2v4h1.6v-4H52.8z"/>
<path class="st0" d="M57.6,90.4h1.7v4.8h1.6v-4.8h1.6v4.8h-0.8V96h-3.2v-0.8h-0.8L57.6,90.4z"/>
<path class="st0" d="M68.8,94.4v0.8H68V96h-3.2v-0.8H64v-4h0.8v-0.8H68v0.8h0.8v1.6H68v0.8h-2.4v1.6H68v-0.8L68.8,94.4z M65.6,91.2
	v1.6h1.6v-1.6H65.6z"/>
<path class="st0" d="M71.2,95.2h1.6v-0.8H72v-0.8h-0.8v-0.8h-0.8v-1.6h0.8v-0.8h3.2V92h-0.8v-0.8H72V92h0.8v0.8h0.8v0.8h0.8v1.6
	h-0.8V96h-3.2v-1.6h0.8V95.2z"/>
<path class="st0" d="M75.2,90.4H76v-1.6h1.6v1.6h0.8v0.8h-0.8V96H76v-4.8h-0.8V90.4z"/>
<path class="st0" d="M80.8,89.6h-1.6v-0.8h1.6V89.6z M80.8,96h-1.6v-5.6h1.6V96z"/>
<path class="st0" d="M82.4,91.2h0.8v-0.8h3.2v0.8h0.8v4h-0.8V96h-3.2v-0.8h-0.8V91.2z M84,91.2v4h1.6v-4H84z"/>
<path class="st0" d="M92.8,90.4v0.8h0.8V96H92v-4.8h-0.7V92h-0.8v4h-1.6v-5.6h1.6v0.8h0.8v-0.8H92.8z"/>
<path class="st0" d="M99.2,89.6h-1.6v-0.8h1.6V89.6z M99.2,96h-1.6v-5.6h1.6V96z"/>
<path class="st0" d="M101.6,95.2h1.6v-0.8h-0.8v-0.8h-0.8v-0.8h-0.8v-1.6h0.8v-0.8h3.2V92H104v-0.8h-1.6V92h0.9v0.8h0.8v0.8h0.8v1.6
	H104V96h-3.2v-1.6h0.8L101.6,95.2z"/>
<path class="st0" d="M106.4,96v-1.6h1.6v2.4h-0.8v0.8h-0.9v-0.8h0.8V96H106.4z"/>
<path class="st0" d="M112.8,96v-0.8H112v-4h0.8v-0.8h3.2V92h-0.8v-0.8h-1.6v4h1.6v-0.8h0.8v0.8h-0.8v0.8L112.8,96z"/>
<path class="st0" d="M117.6,92.8h0.8V92h2.4v-0.8h-2.4v-0.8h3.2v0.8h0.8V96h-4v-0.8h-0.8L117.6,92.8z M119.2,92.8v2.4h1.6v-2.4
	H119.2z"/>
<path class="st0" d="M128,90.4v0.8h0.8V96h-1.6v-4.8h-0.8V92h-0.8v4H124v-5.6h1.6v0.8h0.8v-0.8H128z"/>
<path class="st0" d="M132,90.4h0.8v-1.6h1.6v1.6h0.8v0.8h-0.8V96h-1.6v-4.8H132V90.4z"/>
<path class="st0" d="M137.6,92v4H136v-8h1.6v3.2h0.8v-0.8h1.6v0.8h0.8V96h-1.6v-4.8h-0.8V92L137.6,92z"/>
<path class="st0" d="M147.2,94.4v0.8h-0.8V96h-3.2v-0.8h-0.8v-4h0.8v-0.8h3.2v0.8h0.8v1.6h-0.8v0.8H144v1.6h2.4v-0.8L147.2,94.4z
	 M144,91.2v1.6h1.6v-1.6H144z"/>
<path class="st0" d="M151.2,95.2h-0.8v-1.6h-0.8V92h-0.8v-1.6h1.6V92h0.8v1.6h0.8v-3.2h1.6V92h-0.8v2.4H152v2.4h-0.8v0.8h-1.6V96
	h1.6L151.2,95.2z"/>
<path class="st0" d="M157.6,92.8h0.8V92h2.4v-0.8h-2.4v-0.8h3.2v0.8h0.8V96h-4v-0.8h-0.8L157.6,92.8z M159.2,92.8v2.4h1.6v-2.4
	H159.2z"/>
<path class="st0" d="M165.6,96h-1.6v-8h1.6V96z"/>
<path class="st0" d="M168.8,96h-1.6v-8h1.6V96z"/>
<path class="st0" d="M176,96h-2.4v-0.8h-0.8v-4h0.8v-0.8h4.8v0.8h-0.8v5.6h-0.8v0.8h-3.2v-0.8h2.4V96z M174.4,91.2v4h1.6v-4H174.4z"
	/>
<path class="st0" d="M184,94.4v0.8h-0.8V96H180v-0.8h-0.8v-4h0.8v-0.8h3.2v0.8h0.8v1.6h-0.8v0.8h-2.4v1.6h2.4v-0.8L184,94.4z
	 M180.8,91.2v1.6h1.6v-1.6H180.8z"/>
<path class="st0" d="M184.8,90.4h0.8v-1.6h1.7v1.6h0.8v0.8h-0.8V96h-1.6v-4.8h-0.8L184.8,90.4z"/>
<path class="st0" d="M191.2,92.8h0.8V92h2.4v-0.8H192v-0.8h3.3v0.8h0.8V96h-4v-0.8h-0.8L191.2,92.8z M192.8,92.8v2.4h1.6v-2.4H192.8
	z"/>
<path class="st0" d="M198.4,96v-0.8h-0.8v-4h0.8v-0.8h3.2V92h-0.8v-0.8h-1.5v4h1.6v-0.8h0.8v0.8h-0.8v0.8L198.4,96z"/>
<path class="st0" d="M204.8,91.2h0.8v-0.8h0.8V92h-1.6v4h-1.6v-5.6h1.6V91.2z"/>
<path class="st0" d="M207.2,91.2h0.8v-0.8h3.3v0.8h0.8v4h-0.8V96H208v-0.8h-0.8L207.2,91.2z M208.8,91.2v4h1.6v-4H208.8z"/>
<path class="st0" d="M214.4,95.2h1.6v-0.8h-0.8v-0.8h-0.8v-0.8h-0.8v-1.6h0.8v-0.8h3.2V92h-0.8v-0.8h-1.6V92h0.8v0.8h0.8v0.8h0.8
	v1.6h-0.8V96h-3.2v-1.6h0.8V95.2z"/>
<path class="st0" d="M219.2,95.2h1.6v-0.8H220v-0.8h-0.8v-0.8h-0.8v-1.6h0.8v-0.8h3.2V92h-0.8v-0.8H220V92h0.8v0.8h0.8v0.8h0.8v1.6
	h-0.8V96h-3.2v-1.6h0.8V95.2z"/>
<path class="st0" d="M225.6,90.4h0.8v-1.6h1.6v1.6h0.8v0.8H228V96h-1.6v-4.8h-0.8V90.4z"/>
<path class="st0" d="M231.2,92v4h-1.6v-8h1.6v3.2h0.8v-0.8h1.6v0.8h0.8V96h-1.6v-4.8H232V92L231.2,92z"/>
<path class="st0" d="M240.8,94.4v0.8H240V96h-3.2v-0.8h-0.8v-4h0.8v-0.8h3.2v0.8h0.8v1.6H240v0.8h-2.4v1.6h2.4v-0.8L240.8,94.4z
	 M237.6,91.2v1.6h1.6v-1.6H237.6z"/>
<path class="st0" d="M246.4,90.4h2.4v0.8h0.8v4h-0.8V96h-4v-8h1.6L246.4,90.4z M246.4,91.2v4h1.6v-4H246.4z"/>
<path class="st0" d="M252.8,91.2h0.8v-0.8h0.8V92h-1.6v4h-1.6v-5.6h1.6V91.2z"/>
<path class="st0" d="M256.8,89.6h-1.6v-0.8h1.6V89.6z M256.8,96h-1.6v-5.6h1.6V96z"/>
<path class="st0" d="M258.3,91.2h0.8v-0.8h2.4V88h1.6v8h-4v-0.8h-0.8L258.3,91.2z M260,91.2v4h1.6v-4H260z"/>
<path class="st0" d="M268,96h-2.4v-0.8h-0.8v-4h0.8v-0.8h4.8v0.8h-0.8v5.6h-0.8v0.8h-3.2v-0.8h2.4V96z M266.4,91.2v4h1.6v-4H266.4z"
	/>
<path class="st0" d="M276,94.4v0.8h-0.8V96h-3.2v-0.8h-0.8v-4h0.8v-0.8h3.2v0.8h0.8v1.6h-0.8v0.8h-2.4v1.6h2.4v-0.8L276,94.4z
	 M272.8,91.2v1.6h1.6v-1.6H272.8z"/>
<path class="st0" d="M281.6,89.6h-1.6v-0.8h1.6V89.6z M281.6,96h-1.6v-5.6h1.6V96z"/>
<path class="st0" d="M287.2,90.4v0.8h0.8V96h-1.6v-4.8h-0.8V92h-0.8v4h-1.6v-5.6h1.6v0.8h0.8v-0.8H287.2z"/>
<path class="st0" d="M291.9,88.8h0.8V88h1.6v8h-1.6v-6.4h-0.8V88.8z"/>
<path class="st0" d="M299.1,92h-2.4v-4h4v0.8h-2.4v2.4h1.6V92h0.8v3.2h-0.8V96h-3.2v-0.8h2.4L299.1,92z"/>
<path class="st0" d="M312,90.4v0.8h0.8V96h-1.6v-4.8h-0.8V92h-0.8v4h-1.6v-4.8h-0.8V92h-0.8v4h-1.6v-5.6h1.6v0.8h0.8v-0.8h1.6v0.8
	h1.6v-0.8H312z"/>
<path class="st0" d="M316,89.6h-1.6v-0.8h1.6V89.6z M316,96h-1.6v-5.6h1.6V96z"/>
<path class="st0" d="M321.6,90.4v0.8h0.8V96h-1.6v-4.8H320V92h-0.8v4h-1.6v-5.6h1.6v0.8h0.8v-0.8H321.6z"/>
<path class="st0" d="M323.9,90.4h1.6v4.8h1.6v-4.8h1.6v4.8H328V96h-3.2v-0.8h-0.8V90.4z"/>
<path class="st0" d="M329.5,90.4h0.8v-1.6h1.6v1.6h0.8v0.8H332V96h-1.6v-4.8h-0.8V90.4z"/>
<path class="st0" d="M338.4,94.4v0.8h-0.8V96h-3.2v-0.8h-0.8v-4h0.8v-0.8h3.2v0.8h0.8v1.6h-0.8v0.8h-2.4v1.6h2.4v-0.8L338.4,94.4z
	 M335.2,91.2v1.6h1.6v-1.6H335.2z"/>
<path class="st0" d="M340.8,95.2h1.6v-0.8h-0.8v-0.8h-0.8v-0.8h-0.8v-1.6h0.8v-0.8h3.2V92h-0.8v-0.8h-1.6V92h0.8v0.8h0.8v0.8h0.8
	v1.6h-0.8V96h-3.2v-1.6h0.8V95.2z"/>
<path class="st0" d="M347.9,91.2h0.8v-0.8h3.2v0.8h0.8v4H352V96h-3.2v-0.8h-0.8V91.2z M349.6,91.2v4h1.6v-4H349.6z"/>
<path class="st0" d="M356,91.2h0.8v-0.8h0.8V92H356v4h-1.6v-5.6h1.6V91.2z"/>
<path class="st0" d="M362.4,96h-1.6v-8h1.6V96z"/>
<path class="st0" d="M368.8,94.4v0.8H368V96h-3.2v-0.8h-0.8v-4h0.8v-0.8h3.2v0.8h0.8v1.6H368v0.8h-2.4v1.6h2.4v-0.8L368.8,94.4z
	 M365.6,91.2v1.6h1.6v-1.6H365.6z"/>
<path class="st0" d="M371.2,95.2h1.6v-0.8h-0.8v-0.8h-0.8v-0.8h-0.8v-1.6h0.8v-0.8h3.2V92h-0.8v-0.8H372V92h0.8v0.8h0.8v0.8h0.8v1.6
	h-0.8V96h-3.2v-1.6h0.8V95.2z"/>
<path class="st0" d="M376,95.2h1.6v-0.8h-0.8v-0.8h-0.8v-0.8h-0.8v-1.6h0.8v-0.8h3.2V92h-0.8v-0.8h-1.6V92h0.8v0.8h0.8v0.8h0.8v1.6
	h-0.8V96h-3.2v-1.6h0.8V95.2z"/>
<path class="st0" d="M384.8,89.6h-1.6v-0.8h0.8V88h3.2v0.8h0.8v2.4h-0.8V92h-0.8v0.8h-0.8v1.6h-0.8V92h0.8v-0.8h0.8v-2.4h-1.6
	L384.8,89.6z M386.4,96h-1.6v-0.8h1.6V96z"/>
</svg>
