<svg id="Calque_1" data-name="Calque 1" xmlns="http://www.w3.org/2000/svg" viewBox="0 0 411.99 97.61"><defs><style>.cls-1{fill:#2d2150;}</style></defs><title>textelettrinefoncé</title><path class="cls-1" d="M150.15,103.92v.6h.6v1.8h-.6v.6h-.6v.6h-1.8v.59h-.6v-.59h-.6v-.6h-1.19v-.6h-.6v-.6H143v.6h-.6v1.2h.6v.59h1.8v.6H143v-.6h-.6v-.59h-.6v-2.4h.6v-.6h.6v-.6h3v.6h.59v.6h.6v.6H149v-.6h.6v-.6h-1.2v-.6Zm-7.79,9.59v-1.8h.6v-.6h-.6v-1.2h.6v1.2h.6v-.6h.6v-.6H143v-.6h1.8v.6h.6v2.4h-.6v1.2h-.6v1.2h.6v.6h2.39v-.6h.6v-1.2h-.6v-1.2h-.6v-1.2H146v-2.4h.59v-.6h.6v1.2h.6v.6h.6v.6h.6v1.2h.6v2.4H149v1.2h-.6v.6h-4.79v-.6H143v-.6h-.6v-1.2Zm3-6v.59h-.6v-.59Zm3-3v.6h-.6v-.6Zm1.8,6H149v-.6h-.6v-.6h-.6v-.6h1.8v.6h.6Zm.6-1.2h-.6v-.6h.6Z" transform="translate(-141.76 -103.92)"/><path class="cls-1" d="M152.14,108.7h.8v-.8h3.23v.8h.8v4h-.8v.79h-3.23v-.79h-.8Zm1.63,0v4h1.57v-4Z" transform="translate(-141.76 -103.92)"/><path class="cls-1" d="M158.53,107.9h1.64v4.8h1.57v-4.8h1.63v4.83h-.8v.79h-3.23v-.79h-.81Z" transform="translate(-141.76 -103.92)"/><path class="cls-1" d="M166.56,108.7h.77v-.8h.84v1.63h-1.61v4h-1.63V107.9h1.63Z" transform="translate(-141.76 -103.92)"/><path class="cls-1" d="M179.87,107.9v.8h.8v4.82H179v-4.8h-.77v.81h-.8v4h-1.64v-4.8h-.76v.81h-.81v4h-1.63V107.9h1.63v.8H175v-.8h1.63v.8h1.57v-.8Z" transform="translate(-141.76 -103.92)"/><path class="cls-1" d="M182.23,108.7h.8v-.8h3.23v.8h.81v4h-.81v.79H183v-.79h-.8Zm1.63,0v4h1.57v-4Z" transform="translate(-141.76 -103.92)"/><path class="cls-1" d="M192.66,107.9v.8h.8v4.82h-1.63v-4.8h-.77v.81h-.8v4h-1.63V107.9h1.63v.8H191v-.8Z" transform="translate(-141.76 -103.92)"/><path class="cls-1" d="M199.86,107.9v.82h-.81v.81h-.79v1.57h.79v.79h.81v1.63h-1.63v-1.59h-.81v-.81h-.77v2.4H195v-8h1.63v4.8h.77v-.81h.81v-.79h.8v-.8Z" transform="translate(-141.76 -103.92)"/><path class="cls-1" d="M202.26,112.7h1.56v-.77H203v-.81h-.81v-.79h-.8V108.7h.8v-.8h3.23v1.63h-.83v-.81h-1.57v.77h.8v.81h.81v.8h.79v1.63h-.79v.79h-3.24v-1.63h.84Z" transform="translate(-141.76 -103.92)"/><path class="cls-1" d="M210.73,110.3h.8v-.8h2.4v-.78h-2.4v-.82h3.23v.8h.8v4.82h-4v-.79h-.8Zm1.63,0v2.37h1.57v-2.37Z" transform="translate(-141.76 -103.92)"/><path class="cls-1" d="M218.75,108.7h.77v-.8h.84v1.63h-1.61v4h-1.63V107.9h1.63Z" transform="translate(-141.76 -103.92)"/><path class="cls-1" d="M222.75,108.7h.77v-.8h.84v1.63h-1.61v4h-1.63V107.9h1.63Z" transform="translate(-141.76 -103.92)"/><path class="cls-1" d="M226.75,107.13h-1.64v-.83h1.64Zm0,6.39h-1.64V107.9h1.64Z" transform="translate(-141.76 -103.92)"/><path class="cls-1" d="M233.15,107.9v2.43h-.8v1.6h-.79v1.59h-1.63v-1.59h-.81v-1.6h-.8V107.9H230v2.4h.8v1.59h.77v-4Z" transform="translate(-141.76 -103.92)"/><path class="cls-1" d="M239.55,111.9v.83h-.8v.79h-3.23v-.79h-.81v-4h.81v-.8h3.23v.8h.8v1.63h-.8v.79h-2.4v1.58h2.37v-.8Zm-3.2-3.18v1.58h1.57v-1.58Z" transform="translate(-141.76 -103.92)"/><path class="cls-1" d="M244.81,110.3h.81v-.8H248v-.78h-2.4v-.82h3.23v.8h.8v4.82h-4v-.79h-.81Zm1.64,0v2.37H248v-2.37Z" transform="translate(-141.76 -103.92)"/><path class="cls-1" d="M250.42,107.9h.79v-1.6h1.63v1.6h.81v.82h-.81v4.8h-1.63v-4.8h-.79Z" transform="translate(-141.76 -103.92)"/><path class="cls-1" d="M258.12,110.3h.8v-.8h2.4v-.78h-2.4v-.82h3.23v.8h.8v4.82h-4v-.79h-.8Zm1.63,0v2.37h1.57v-2.37Z" transform="translate(-141.76 -103.92)"/><path class="cls-1" d="M269.85,108.7h.77v-.8h.84v1.63h-1.61v4h-1.63V107.9h1.63Z" transform="translate(-141.76 -103.92)"/><path class="cls-1" d="M273.85,107.13h-1.64v-.83h1.64Zm0,6.39h-1.64V107.9h1.64Z" transform="translate(-141.76 -103.92)"/><path class="cls-1" d="M280.25,107.9v2.43h-.8v1.6h-.79v1.59H277v-1.59h-.81v-1.6h-.8V107.9h1.63v2.4h.8v1.59h.77v-4Z" transform="translate(-141.76 -103.92)"/><path class="cls-1" d="M286.65,111.9v.83h-.8v.79h-3.23v-.79h-.81v-4h.81v-.8h3.23v.8h.8v1.63h-.8v.79h-2.4v1.58h2.37v-.8Zm-3.2-3.18v1.58H285v-1.58Z" transform="translate(-141.76 -103.92)"/><path class="cls-1" d="M289.84,108.7h.77v-.8h.84v1.63h-1.61v4h-1.63V107.9h1.63Z" transform="translate(-141.76 -103.92)"/><path class="cls-1" d="M295.91,110.3h.8v-.8h2.4v-.78h-2.4v-.82h3.23v.8h.81v4.82h-4v-.79h-.8Zm1.63,0v2.37h1.57v-2.37Z" transform="translate(-141.76 -103.92)"/><path class="cls-1" d="M301.51,107.9h.8v-1.6h1.63v1.6h.8v.82h-.8v4.8h-1.63v-4.8h-.8Z" transform="translate(-141.76 -103.92)"/><path class="cls-1" d="M309.21,108.7H310v-.8h2.4v-2.4h1.63v8h-4v-.79h-.81Zm1.64,0v4h1.57v-4Z" transform="translate(-141.76 -103.92)"/><path class="cls-1" d="M315.61,107.9h1.63v4.8h1.57v-4.8h1.64v4.83h-.81v.79h-3.23v-.79h-.8Z" transform="translate(-141.76 -103.92)"/><path class="cls-1" d="M322.85,112.7h1.56v-.77h-.8v-.81h-.8v-.79H322V108.7h.8v-.8H326v1.63h-.83v-.81h-1.57v.77h.8v.81h.81v.8H326v1.63h-.79v.79H322v-1.63h.84Z" transform="translate(-141.76 -103.92)"/><path class="cls-1" d="M332.45,107.9v.82h-.81v.81h-.79v1.57h.79v.79h.81v1.63h-1.64v-1.59H330v-.81h-.77v2.4h-1.63v-8h1.63v4.8H330v-.81h.8v-.79h.81v-.8Z" transform="translate(-141.76 -103.92)"/><path class="cls-1" d="M335.64,113.52H334v-1.63h1.63Z" transform="translate(-141.76 -103.92)"/><path class="cls-1" d="M340.12,105.5H345v.82h-1.6v7.2h-1.63v-7.2h-1.6Z" transform="translate(-141.76 -103.92)"/><path class="cls-1" d="M347.35,109.53v4h-1.64v-8h1.64v3.2h.76v-.8h1.64v.8h.8v4.82h-1.63v-4.8h-.77v.81Z" transform="translate(-141.76 -103.92)"/><path class="cls-1" d="M357,111.9v.83h-.81v.79h-3.23v-.79h-.8v-4h.8v-.8h3.23v.8H357v1.63h-.81v.79h-2.4v1.58h2.38v-.8Zm-3.21-3.18v1.58h1.57v-1.58Z" transform="translate(-141.76 -103.92)"/><path class="cls-1" d="M360.91,112.73h-.8v-1.61h-.8v-1.59h-.8V107.9h1.63v1.59h.8v1.61h.77v-3.2h1.63v1.63h-.8v2.4h-.79v2.4h-.81v.8h-1.63V113.5h1.6Z" transform="translate(-141.76 -103.92)"/><path class="cls-1" d="M376.65,107.9v2.43h-.81v1.6H375v1.59h-1.63v-1.59h-1.56v1.59h-1.64v-1.59h-.8v-1.6h-.8V107.9h1.63v2.4h.8v1.59h.77v-.79h.8v-.77h-.8V107.9h1.63v2.4h.81v1.59H375v-4Z" transform="translate(-141.76 -103.92)"/><path class="cls-1" d="M378.21,108.7h.8v-.8h3.23v.8h.8v4h-.8v.79H379v-.79h-.8Zm1.63,0v4h1.57v-4Z" transform="translate(-141.76 -103.92)"/><path class="cls-1" d="M384.6,107.9h1.63v4.8h1.58v-4.8h1.63v4.83h-.81v.79h-3.22v-.79h-.81Z" transform="translate(-141.76 -103.92)"/><path class="cls-1" d="M392.63,113.52H391v-8h1.63Z" transform="translate(-141.76 -103.92)"/><path class="cls-1" d="M394.2,108.7H395v-.8h2.4v-2.4H399v8h-4v-.79h-.81Zm1.63,0v4h1.58v-4Z" transform="translate(-141.76 -103.92)"/><path class="cls-1" d="M405.93,113.52H404.3v-8h1.63Z" transform="translate(-141.76 -103.92)"/><path class="cls-1" d="M409.14,107.13h-1.63v-.83h1.63Zm0,6.39h-1.63V107.9h1.63Z" transform="translate(-141.76 -103.92)"/><path class="cls-1" d="M415.55,107.9v.82h-.81v.81H414v1.57h.79v.79h.81v1.63h-1.64v-1.59h-.8v-.81h-.77v2.4h-1.63v-8h1.63v4.8h.77v-.81h.8v-.79h.81v-.8Z" transform="translate(-141.76 -103.92)"/><path class="cls-1" d="M421.94,111.9v.83h-.8v.79h-3.23v-.79h-.8v-4h.8v-.8h3.23v.8h.8v1.63h-.8v.79h-2.4v1.58h2.37v-.8Zm-3.2-3.18v1.58h1.57v-1.58Z" transform="translate(-141.76 -103.92)"/><path class="cls-1" d="M426.41,107.9h.8v-1.6h1.63v1.6h.8v.82h-.8v4.8h-1.63v-4.8h-.8Z" transform="translate(-141.76 -103.92)"/><path class="cls-1" d="M430.41,108.7h.8v-.8h3.23v.8h.81v4h-.81v.79h-3.23v-.79h-.8Zm1.63,0v4h1.57v-4Z" transform="translate(-141.76 -103.92)"/><path class="cls-1" d="M441.31,113.52v-.79h-.8v-4h.8v-.8h3.23v1.63h-.83v-.81h-1.57v4h1.57v-.8h.83v.83h-.79v.79Z" transform="translate(-141.76 -103.92)"/><path class="cls-1" d="M447.75,108.7h.76v-.8h.84v1.63h-1.6v4h-1.64V107.9h1.64Z" transform="translate(-141.76 -103.92)"/><path class="cls-1" d="M450.11,108.7h.8v-.8h3.23v.8H455v4h-.81v.79h-3.23v-.79h-.8Zm1.63,0v4h1.57v-4Z" transform="translate(-141.76 -103.92)"/><path class="cls-1" d="M457.35,112.7h1.56v-.77h-.8v-.81h-.8v-.79h-.8V108.7h.8v-.8h3.23v1.63h-.83v-.81h-1.57v.77h.8v.81h.81v.8h.79v1.63h-.79v.79h-3.24v-1.63h.84Z" transform="translate(-141.76 -103.92)"/><path class="cls-1" d="M462.15,112.7h1.56v-.77h-.8v-.81h-.8v-.79h-.8V108.7h.8v-.8h3.23v1.63h-.83v-.81h-1.57v.77h.8v.81h.81v.8h.79v1.63h-.79v.79h-3.24v-1.63h.84Z" transform="translate(-141.76 -103.92)"/><path class="cls-1" d="M469.82,107.9h.79v-1.6h1.64v1.6h.8v.82h-.8v4.8h-1.64v-4.8h-.79Z" transform="translate(-141.76 -103.92)"/><path class="cls-1" d="M473.82,108.7h.8v-.8h3.23v.8h.8v4h-.8v.79h-3.23v-.79h-.8Zm1.63,0v4H477v-4Z" transform="translate(-141.76 -103.92)"/><path class="cls-1" d="M485.55,108.7h.77v-.8h.84v1.63h-1.61v4h-1.63V107.9h1.63Z" transform="translate(-141.76 -103.92)"/><path class="cls-1" d="M492.75,111.9v.83H492v.79h-3.23v-.79h-.81v-4h.81v-.8H492v.8h.8v1.63H492v.79h-2.4v1.58h2.37v-.8Zm-3.2-3.18v1.58h1.57v-1.58Z" transform="translate(-141.76 -103.92)"/><path class="cls-1" d="M493.52,107.9h.79v-1.6h1.63v1.6h.81v.82h-.81v4.8h-1.63v-4.8h-.79Z" transform="translate(-141.76 -103.92)"/><path class="cls-1" d="M497.51,107.9h1.64v4.8h1.57v-4.8h1.63v4.83h-.8v.79h-3.23v-.79h-.81Z" transform="translate(-141.76 -103.92)"/><path class="cls-1" d="M505.54,108.7h.77v-.8h.84v1.63h-1.61v4h-1.63V107.9h1.63Z" transform="translate(-141.76 -103.92)"/><path class="cls-1" d="M511.94,107.9v.8h.8v4.82h-1.63v-4.8h-.77v.81h-.8v4h-1.63V107.9h1.63v.8h.77v-.8Z" transform="translate(-141.76 -103.92)"/><path class="cls-1" d="M517.21,107.9h.8v-1.6h1.63v1.6h.8v.82h-.8v4.8H518v-4.8h-.8Z" transform="translate(-141.76 -103.92)"/><path class="cls-1" d="M521.21,108.7h.8v-.8h3.23v.8h.81v4h-.81v.79H522v-.79h-.8Zm1.63,0v4h1.57v-4Z" transform="translate(-141.76 -103.92)"/><path class="cls-1" d="M530.52,107.9h.79v-1.6h1.63v1.6h.81v.82h-.81v4.8h-1.63v-4.8h-.79Z" transform="translate(-141.76 -103.92)"/><path class="cls-1" d="M536.15,109.53v4h-1.64v-8h1.64v3.2h.77v-.8h1.63v.8h.8v4.82h-1.63v-4.8H537v.81Z" transform="translate(-141.76 -103.92)"/><path class="cls-1" d="M545.75,111.9v.83h-.81v.79h-3.23v-.79h-.8v-4h.8v-.8h3.23v.8h.81v1.63h-.81v.79h-2.4v1.58h2.38v-.8Zm-3.21-3.18v1.58h1.57v-1.58Z" transform="translate(-141.76 -103.92)"/><path class="cls-1" d="M548.94,107.13h-1.63v-.83h1.63Zm0,6.39h-1.63V107.9h1.63Z" transform="translate(-141.76 -103.92)"/><path class="cls-1" d="M552.14,108.7h.77v-.8h.84v1.63h-1.61v4h-1.63V107.9h1.63Z" transform="translate(-141.76 -103.92)"/><path class="cls-1" d="M149.77,122.3v.8h.81v4.82H149v-4.8h-.77v.81h-.81v4h-1.63v-4.8H145v.81h-.8v4h-1.63V122.3h1.63v.8h.77v-.8h1.63v.8h1.57v-.8Z" transform="translate(-141.76 -103.92)"/><path class="cls-1" d="M152.14,123.1h.8v-.8h3.23v.8h.8v4h-.8v.79h-3.23v-.79h-.8Zm1.63,0v4h1.57v-4Z" transform="translate(-141.76 -103.92)"/><path class="cls-1" d="M162.57,122.3v.8h.8v4.82h-1.63v-4.8H161v.81h-.8v4h-1.64V122.3h1.64v.8h.76v-.8Z" transform="translate(-141.76 -103.92)"/><path class="cls-1" d="M164.93,124.7h.8v-.8h2.4v-.78h-2.4v-.82H169v.8h.81v4.82h-4v-.79h-.8Zm1.63,0v2.37h1.57v-2.37Z" transform="translate(-141.76 -103.92)"/><path class="cls-1" d="M172.17,127.1h1.56v-.77h-.8v-.81h-.8v-.79h-.8V123.1h.8v-.8h3.23v1.63h-.83v-.81H173v.77h.8v.81h.81v.8h.79v1.63h-.79v.79h-3.24v-1.63h.84Z" transform="translate(-141.76 -103.92)"/><path class="cls-1" d="M176.14,122.3h.79v-1.6h1.63v1.6h.81v.82h-.81v4.8h-1.63v-4.8h-.79Z" transform="translate(-141.76 -103.92)"/><path class="cls-1" d="M185,126.3v.83h-.8v.79h-3.23v-.79h-.81v-4h.81v-.8h3.23v.8h.8v1.63h-.8v.79h-2.4v1.58h2.37v-.8Zm-3.2-3.18v1.58h1.57v-1.58Z" transform="translate(-141.76 -103.92)"/><path class="cls-1" d="M188.16,123.1h.77v-.8h.84v1.63h-1.61v4h-1.63V122.3h1.63Z" transform="translate(-141.76 -103.92)"/><path class="cls-1" d="M192.93,127.13h-.8v-1.61h-.8v-1.59h-.8V122.3h1.63v1.59h.8v1.61h.77v-3.2h1.63v1.63h-.8v2.4h-.79v2.4H193v.8h-1.63V127.9h1.6Z" transform="translate(-141.76 -103.92)"/><path class="cls-1" d="M198.55,127.92h-1.63v-1.63h1.63Z" transform="translate(-141.76 -103.92)"/><path class="cls-1" d="M201.39,119.9h4.82v.82h-1.59v7.2H203v-7.2h-1.59Z" transform="translate(-141.76 -103.92)"/><path class="cls-1" d="M208.61,123.93v4H207v-8h1.63v3.2h.77v-.8H211v.8h.81v4.82h-1.64v-4.8h-.76v.81Z" transform="translate(-141.76 -103.92)"/><path class="cls-1" d="M218.21,126.3v.83h-.8v.79h-3.23v-.79h-.8v-4h.8v-.8h3.23v.8h.8v1.63h-.8v.79H215v1.58h2.37v-.8Zm-3.2-3.18v1.58h1.57v-1.58Z" transform="translate(-141.76 -103.92)"/><path class="cls-1" d="M221.4,123.1h.77v-.8H223v1.63H221.4v4h-1.63V122.3h1.63Z" transform="translate(-141.76 -103.92)"/><path class="cls-1" d="M228.6,126.3v.83h-.8v.79h-3.23v-.79h-.8v-4h.8v-.8h3.23v.8h.8v1.63h-.8v.79h-2.4v1.58h2.38v-.8Zm-3.2-3.18v1.58H227v-1.58Z" transform="translate(-141.76 -103.92)"/><path class="cls-1" d="M233.85,121.53h-1.63v-.83h1.63Zm0,6.39h-1.63V122.3h1.63Z" transform="translate(-141.76 -103.92)"/><path class="cls-1" d="M236.26,127.1h1.56v-.77H237v-.81h-.8v-.79h-.81V123.1h.81v-.8h3.22v1.63h-.82v-.81h-1.58v.77h.81v.81h.8v.8h.79v1.63h-.79v.79h-3.24v-1.63h.84Z" transform="translate(-141.76 -103.92)"/><path class="cls-1" d="M243.08,124.7h.8v-.8h2.4v-.78h-2.4v-.82h3.23v.8h.81v4.82h-4v-.79h-.8Zm1.63,0v2.37h1.57v-2.37Z" transform="translate(-141.76 -103.92)"/><path class="cls-1" d="M255.56,122.3v.8h.81v4.82h-1.64v-4.8H254v.81h-.81v4h-1.63V122.3h1.63v.8h.77v-.8Z" transform="translate(-141.76 -103.92)"/><path class="cls-1" d="M257.93,124.7h.8v-.8h2.4v-.78h-2.4v-.82H262v.8h.8v4.82h-4v-.79h-.8Zm1.63,0v2.37h1.57v-2.37Z" transform="translate(-141.76 -103.92)"/><path class="cls-1" d="M266,123.1h.77v-.8h.84v1.63H266v4h-1.63V122.3H266Z" transform="translate(-141.76 -103.92)"/><path class="cls-1" d="M270,123.1h.77v-.8h.84v1.63H270v4h-1.63V122.3H270Z" transform="translate(-141.76 -103.92)"/><path class="cls-1" d="M272.31,123.1h.81v-.8h3.23v.8h.8v4h-.8v.79h-3.23v-.79h-.81Zm1.64,0v4h1.57v-4Z" transform="translate(-141.76 -103.92)"/><path class="cls-1" d="M286.75,122.3v2.43H286v1.6h-.81v1.59h-1.63v-1.59H282v1.59h-1.63v-1.59h-.81v-1.6h-.8V122.3h1.63v2.4h.81v1.59h.76v-.79h.81v-.77h-.81V122.3h1.64v2.4h.8v1.59h.77v-4Z" transform="translate(-141.76 -103.92)"/><path class="cls-1" d="M292,122.3h2.4v.8h.8v4h-.8v.79h-4v-8H292Zm0,.82v4h1.57v-4Z" transform="translate(-141.76 -103.92)"/><path class="cls-1" d="M298.39,123.1h.77v-.8H300v1.63h-1.61v4h-1.63V122.3h1.63Z" transform="translate(-141.76 -103.92)"/><path class="cls-1" d="M302.39,121.53h-1.63v-.83h1.63Zm0,6.39h-1.63V122.3h1.63Z" transform="translate(-141.76 -103.92)"/><path class="cls-1" d="M304,123.1h.8v-.8h2.4v-2.4h1.64v8h-4v-.79H304Zm1.63,0v4h1.57v-4Z" transform="translate(-141.76 -103.92)"/><path class="cls-1" d="M313.56,127.92h-2.4v-.79h-.8v-4h.8v-.8H316v.82h-.81v5.61h-.8v.8h-3.23v-.84h2.4Zm-1.57-4.8v4h1.57v-4Z" transform="translate(-141.76 -103.92)"/><path class="cls-1" d="M321.59,126.3v.83h-.81v.79h-3.22v-.79h-.81v-4h.81v-.8h3.22v.8h.81v1.63h-.81v.79h-2.4v1.58h2.38v-.8Zm-3.21-3.18v1.58H320v-1.58Z" transform="translate(-141.76 -103.92)"/><path class="cls-1" d="M323.15,127.92v-1.63h1.63v2.44H324v.8h-.84v-.84h.8v-.77Z" transform="translate(-141.76 -103.92)"/><path class="cls-1" d="M330,122.3h2.4v.8h.8v4h-.8v.79h-4v-8H330Zm0,.82v4h1.57v-4Z" transform="translate(-141.76 -103.92)"/><path class="cls-1" d="M334.8,122.3h1.63v4.8H338v-4.8h1.63v4.83h-.81v.79h-3.22v-.79h-.81Z" transform="translate(-141.76 -103.92)"/><path class="cls-1" d="M340.41,122.3h.79v-1.6h1.63v1.6h.8v.82h-.8v4.8H341.2v-4.8h-.79Z" transform="translate(-141.76 -103.92)"/><path class="cls-1" d="M348.09,121.53h-1.63v-.83h1.63Zm0,6.39h-1.63V122.3h1.63Z" transform="translate(-141.76 -103.92)"/><path class="cls-1" d="M348.87,122.3h.79v-1.6h1.63v1.6h.81v.82h-.81v4.8h-1.63v-4.8h-.79Z" transform="translate(-141.76 -103.92)"/><path class="cls-1" d="M355.72,127.92v-.79h-.8v-4h.8v-.8H359v1.63h-.83v-.81h-1.57v4h1.57v-.8H359v.83h-.79v.79Z" transform="translate(-141.76 -103.92)"/><path class="cls-1" d="M360.52,124.7h.81v-.8h2.4v-.78h-2.4v-.82h3.22v.8h.81v4.82h-4v-.79h-.81Zm1.63,0v2.37h1.58v-2.37Z" transform="translate(-141.76 -103.92)"/><path class="cls-1" d="M371,122.3v.8h.8v4.82h-1.63v-4.8h-.77v.81h-.8v4h-1.63V122.3h1.63v.8h.77v-.8Z" transform="translate(-141.76 -103.92)"/><path class="cls-1" d="M375.37,123.1h.8v-.8h3.23v.8h.8v4h-.8v.79h-3.23v-.79h-.8Zm1.63,0v4h1.57v-4Z" transform="translate(-141.76 -103.92)"/><path class="cls-1" d="M385.8,122.3v.8h.8v4.82H385v-4.8h-.77v.81h-.8v4h-1.64V122.3h1.64v.8h.76v-.8Z" transform="translate(-141.76 -103.92)"/><path class="cls-1" d="M389.79,127.92h-1.63v-8h1.63Z" transform="translate(-141.76 -103.92)"/><path class="cls-1" d="M393.76,127.13H393v-1.61h-.8v-1.59h-.81V122.3H393v1.59h.8v1.61h.77v-3.2h1.63v1.63h-.8v2.4h-.8v2.4h-.8v.8h-1.63V127.9h1.59Z" transform="translate(-141.76 -103.92)"/><path class="cls-1" d="M401.45,123.93v4h-1.64v-8h1.64v3.2h.76v-.8h1.64v.8h.8v4.82H403v-4.8h-.77v.81Z" transform="translate(-141.76 -103.92)"/><path class="cls-1" d="M406.21,123.1h.8v-.8h3.23v.8h.81v4h-.81v.79H407v-.79h-.8Zm1.63,0v4h1.57v-4Z" transform="translate(-141.76 -103.92)"/><path class="cls-1" d="M414.24,127.92h-1.63v-8h1.63Z" transform="translate(-141.76 -103.92)"/><path class="cls-1" d="M415.81,123.1h.8v-.8H419v-2.4h1.64v8h-4v-.79h-.8Zm1.63,0v4H419v-4Z" transform="translate(-141.76 -103.92)"/><path class="cls-1" d="M423.47,122.3h.79v-1.6h1.63v1.6h.81v.82h-.81v4.8h-1.63v-4.8h-.79Z" transform="translate(-141.76 -103.92)"/><path class="cls-1" d="M435.5,122.3v2.43h-.8v1.6h-.8v1.59h-1.64v-1.59H430.7v1.59h-1.63v-1.59h-.8v-1.6h-.81V122.3h1.64v2.4h.8v1.59h.77v-.79h.8v-.77h-.8V122.3h1.63v2.4h.8v1.59h.77v-4Z" transform="translate(-141.76 -103.92)"/><path class="cls-1" d="M437.06,123.1h.81v-.8h3.23v.8h.8v4h-.8v.79h-3.23v-.79h-.81Zm1.64,0v4h1.57v-4Z" transform="translate(-141.76 -103.92)"/><path class="cls-1" d="M449.55,123.1h.8v4h-.8v.79h-2.4v1.61h-1.64V122.3h4Zm-2.4,0v4h1.57v-4Z" transform="translate(-141.76 -103.92)"/><path class="cls-1" d="M456.75,126.3v.83h-.81v.79h-3.23v-.79h-.8v-4h.8v-.8h3.23v.8h.81v1.63h-.81v.79h-2.4v1.58h2.38v-.8Zm-3.21-3.18v1.58h1.57v-1.58Z" transform="translate(-141.76 -103.92)"/><path class="cls-1" d="M458.31,123.1h.8v-.8h3.23v.8h.8v4h-.8v.79h-3.23v-.79h-.8Zm1.63,0v4h1.57v-4Z" transform="translate(-141.76 -103.92)"/><path class="cls-1" d="M468.73,123.1h.81v4h-.81v.79h-2.4v1.61H464.7V122.3h4Zm-2.4,0v4h1.58v-4Z" transform="translate(-141.76 -103.92)"/><path class="cls-1" d="M472.73,127.92H471.1v-8h1.63Z" transform="translate(-141.76 -103.92)"/><path class="cls-1" d="M479.14,126.3v.83h-.81v.79h-3.22v-.79h-.81v-4h.81v-.8h3.22v.8h.81v1.63h-.81v.79h-2.4v1.58h2.38v-.8Zm-3.21-3.18v1.58h1.58v-1.58Z" transform="translate(-141.76 -103.92)"/><path class="cls-1" d="M482.75,124.7h.81v-.8H486v-.78h-2.4v-.82h3.22v.8h.81v4.82h-4v-.79h-.81Zm1.63,0v2.37H486v-2.37Z" transform="translate(-141.76 -103.92)"/><path class="cls-1" d="M488.36,122.3h.79v-1.6h1.63v1.6h.8v.82h-.8v4.8h-1.63v-4.8h-.79Z" transform="translate(-141.76 -103.92)"/><path class="cls-1" d="M494.41,124.7h.8v-.8h2.4v-.78h-2.4v-.82h3.23v.8h.8v4.82h-4v-.79h-.8Zm1.63,0v2.37h1.57v-2.37Z" transform="translate(-141.76 -103.92)"/><path class="cls-1" d="M502.06,122.3h.8v-1.6h1.63v1.6h.8v.82h-.8v4.8h-1.63v-4.8h-.8Z" transform="translate(-141.76 -103.92)"/><path class="cls-1" d="M507.69,121.53h-1.63v-.83h1.63Zm0,6.39h-1.63V122.3h1.63Z" transform="translate(-141.76 -103.92)"/><path class="cls-1" d="M516.5,122.3v.8h.8v4.82h-1.63v-4.8h-.77v.81h-.8v4h-1.63v-4.8h-.77v.81h-.8v4h-1.64V122.3h1.64v.8h.77v-.8h1.63v.8h1.57v-.8Z" transform="translate(-141.76 -103.92)"/><path class="cls-1" d="M523.7,126.3v.83h-.8v.79h-3.23v-.79h-.81v-4h.81v-.8h3.23v.8h.8v1.63h-.8v.79h-2.4v1.58h2.37v-.8Zm-3.2-3.18v1.58h1.57v-1.58Z" transform="translate(-141.76 -103.92)"/><path class="cls-1" d="M526.89,127.92h-1.63v-1.63h1.63Z" transform="translate(-141.76 -103.92)"/><path class="cls-1" d="M529.73,119.9h4.82v.82H533v7.2h-1.63v-7.2h-1.59Z" transform="translate(-141.76 -103.92)"/><path class="cls-1" d="M537,123.93v4h-1.63v-8H537v3.2h.77v-.8h1.63v.8h.8v4.82h-1.63v-4.8h-.77v.81Z" transform="translate(-141.76 -103.92)"/><path class="cls-1" d="M546.55,126.3v.83h-.8v.79h-3.23v-.79h-.81v-4h.81v-.8h3.23v.8h.8v1.63h-.8v.79h-2.4v1.58h2.37v-.8Zm-3.2-3.18v1.58h1.57v-1.58Z" transform="translate(-141.76 -103.92)"/><path class="cls-1" d="M550.51,127.13h-.79v-1.61h-.81v-1.59h-.8V122.3h1.63v1.59h.81v1.61h.76v-3.2H553v1.63h-.81v2.4h-.79v2.4h-.8v.8h-1.64V127.9h1.6Z" transform="translate(-141.76 -103.92)"/><path class="cls-1" d="M144.17,138.33v4h-1.63v-8h1.63v3.2h.77v-.8h1.63v.8h.8v4.82h-1.63v-4.8H145v.81Z" transform="translate(-141.76 -103.92)"/><path class="cls-1" d="M148.93,139.1h.81v-.8h2.4v-.78h-2.4v-.82H153v.8h.8v4.82h-4v-.79h-.81Zm1.64,0v2.37h1.57v-2.37Z" transform="translate(-141.76 -103.92)"/><path class="cls-1" d="M160.17,136.7v2.43h-.81v1.6h-.79v1.59h-1.63v-1.59h-.81v-1.6h-.8V136.7H157v2.4h.81v1.59h.76v-4Z" transform="translate(-141.76 -103.92)"/><path class="cls-1" d="M166.56,140.7v.83h-.8v.79h-3.23v-.79h-.8v-4h.8v-.8h3.23v.8h.8v1.63h-.8v.79h-2.4v1.58h2.37v-.8Zm-3.2-3.18v1.58h1.57v-1.58Z" transform="translate(-141.76 -103.92)"/><path class="cls-1" d="M170.69,137.5h.8v-.8h3.23v.8h.8v4h-.8v.79h-3.23v-.79h-.8Zm1.63,0v4h1.57v-4Z" transform="translate(-141.76 -103.92)"/><path class="cls-1" d="M181.11,136.7v.8h.81v4.82h-1.63v-4.8h-.77v.81h-.81v4h-1.63V136.7h1.63v.8h.77v-.8Z" transform="translate(-141.76 -103.92)"/><path class="cls-1" d="M188.31,140.7v.83h-.8v.79h-3.23v-.79h-.8v-4h.8v-.8h3.23v.8h.8v1.63h-.8v.79h-2.4v1.58h2.38v-.8Zm-3.2-3.18v1.58h1.57v-1.58Z" transform="translate(-141.76 -103.92)"/><path class="cls-1" d="M191.64,136.7h.8v-1.6h1.63v1.6h.8v.82h-.8v4.8h-1.63v-4.8h-.8Z" transform="translate(-141.76 -103.92)"/><path class="cls-1" d="M195.64,137.5h.8v-.8h3.23v.8h.81v4h-.81v.79h-3.23v-.79h-.8Zm1.63,0v4h1.57v-4Z" transform="translate(-141.76 -103.92)"/><path class="cls-1" d="M203.67,137.5h.77v-.8h.84v1.63h-1.61v4H202V136.7h1.63Z" transform="translate(-141.76 -103.92)"/><path class="cls-1" d="M206.84,142.32v-.79H206v-4h.81v-.8h3.22v1.63h-.82v-.81h-1.57v4h1.57v-.8h.82v.83h-.79v.79Z" transform="translate(-141.76 -103.92)"/><path class="cls-1" d="M213.27,138.33v4h-1.63v-8h1.63v3.2H214v-.8h1.63v.8h.8v4.82h-1.63v-4.8h-.77v.81Z" transform="translate(-141.76 -103.92)"/><path class="cls-1" d="M220.6,139.1h.8v-.8h2.4v-.78h-2.4v-.82h3.23v.8h.8v4.82h-4v-.79h-.8Zm1.63,0v2.37h1.57v-2.37Z" transform="translate(-141.76 -103.92)"/><path class="cls-1" d="M231,136.7v.8h.81v4.82H230.2v-4.8h-.77v.81h-.81v4H227V136.7h1.63v.8h.77v-.8Z" transform="translate(-141.76 -103.92)"/><path class="cls-1" d="M233.39,137.5h.8v-.8h2.4v-2.4h1.64v8h-4v-.79h-.8Zm1.63,0v4h1.57v-4Z" transform="translate(-141.76 -103.92)"/><path class="cls-1" d="M239.78,142.32v-1.63h1.64v2.44h-.8v.8h-.84v-.84h.81v-.77Z" transform="translate(-141.76 -103.92)"/><path class="cls-1" d="M247.18,136.7h2.4v.8h.81v4h-.81v.79h-4v-8h1.63Zm0,.82v4h1.58v-4Z" transform="translate(-141.76 -103.92)"/><path class="cls-1" d="M256.78,140.7v.83H256v.79h-3.23v-.79H252v-4h.8v-.8H256v.8h.8v1.63H256v.79h-2.4v1.58H256v-.8Zm-3.2-3.18v1.58h1.57v-1.58Z" transform="translate(-141.76 -103.92)"/><path class="cls-1" d="M259.15,142.32v-.79h-.81v-4h.81v-.8h3.23v1.63h-.83v-.81H260v4h1.57v-.8h.83v.83h-.8v.79Z" transform="translate(-141.76 -103.92)"/><path class="cls-1" d="M264,139.1h.8v-.8h2.4v-.78h-2.4v-.82H268v.8h.8v4.82h-4v-.79H264Zm1.63,0v2.37h1.57v-2.37Z" transform="translate(-141.76 -103.92)"/><path class="cls-1" d="M270.34,136.7H272v4.8h1.57v-4.8h1.63v4.83h-.8v.79h-3.23v-.79h-.81Z" transform="translate(-141.76 -103.92)"/><path class="cls-1" d="M277.58,141.5h1.56v-.77h-.79v-.81h-.81v-.79h-.8V137.5h.8v-.8h3.23v1.63h-.83v-.81h-1.57v.77h.81v.81h.8v.8h.79v1.63H280v.79h-3.24v-1.63h.84Z" transform="translate(-141.76 -103.92)"/><path class="cls-1" d="M287.18,140.7v.83h-.8v.79h-3.23v-.79h-.81v-4h.81v-.8h3.23v.8h.8v1.63h-.8v.79H284v1.58h2.37v-.8Zm-3.2-3.18v1.58h1.57v-1.58Z" transform="translate(-141.76 -103.92)"/><path class="cls-1" d="M292.94,135.93H291.3v-.83h1.64Zm0,6.39H291.3V136.7h1.64Z" transform="translate(-141.76 -103.92)"/><path class="cls-1" d="M293.72,136.7h.79v-1.6h1.63v1.6h.8v.82h-.8v4.8h-1.63v-4.8h-.79Z" transform="translate(-141.76 -103.92)"/><path class="cls-1" d="M298.55,136.73h-.84V134.3h.84Z" transform="translate(-141.76 -103.92)"/><path class="cls-1" d="M301,141.5h1.56v-.77h-.79v-.81h-.8v-.79h-.81V137.5h.81v-.8h3.22v1.63h-.82v-.81h-1.58v.77h.81v.81h.8v.8h.79v1.63h-.79v.79h-3.24v-1.63H301Z" transform="translate(-141.76 -103.92)"/><path class="cls-1" d="M312.31,136.7v.8h.81v4.82h-1.64v-4.8h-.76v.81h-.81v4h-1.63V136.7h1.63v.8h.77v-.8Z" transform="translate(-141.76 -103.92)"/><path class="cls-1" d="M316.31,135.93h-1.63v-.83h1.63Zm0,6.39h-1.63V136.7h1.63Z" transform="translate(-141.76 -103.92)"/><path class="cls-1" d="M321.08,142.32h-2.4v-.79h-.8v-4h.8v-.8h4.84v.82h-.8v5.61h-.81v.8h-3.23v-.84h2.4Zm-1.57-4.8v4h1.57v-4Z" transform="translate(-141.76 -103.92)"/><path class="cls-1" d="M325.91,138.33v4h-1.63v-8h1.63v3.2h.77v-.8h1.63v.8h.8v4.82h-1.63v-4.8h-.77v.81Z" transform="translate(-141.76 -103.92)"/><path class="cls-1" d="M329.88,136.7h.79v-1.6h1.63v1.6h.81v.82h-.81v4.8h-1.63v-4.8h-.79Z" transform="translate(-141.76 -103.92)"/><path class="cls-1" d="M333.88,142.32v-1.63h1.63v2.44h-.79v.8h-.84v-.84h.8v-.77Z" transform="translate(-141.76 -103.92)"/><path class="cls-1" d="M338.85,136.7h.79v-1.6h1.64v1.6h.8v.82h-.8v4.8h-1.64v-4.8h-.79Z" transform="translate(-141.76 -103.92)"/><path class="cls-1" d="M344.48,138.33v4h-1.63v-8h1.63v3.2h.77v-.8h1.63v.8h.8v4.82h-1.63v-4.8h-.77v.81Z" transform="translate(-141.76 -103.92)"/><path class="cls-1" d="M354.08,140.7v.83h-.8v.79h-3.23v-.79h-.81v-4h.81v-.8h3.23v.8h.8v1.63h-.8v.79h-2.4v1.58h2.37v-.8Zm-3.2-3.18v1.58h1.57v-1.58Z" transform="translate(-141.76 -103.92)"/><path class="cls-1" d="M357.41,136.7h.79v-1.6h1.64v1.6h.8v.82h-.8v4.8H358.2v-4.8h-.79Z" transform="translate(-141.76 -103.92)"/><path class="cls-1" d="M361.41,137.5h.8v-.8h3.23v.8h.8v4h-.8v.79h-3.23v-.79h-.8Zm1.63,0v4h1.57v-4Z" transform="translate(-141.76 -103.92)"/><path class="cls-1" d="M369.44,137.5h.76v-.8H371v1.63h-1.6v4H367.8V136.7h1.64Z" transform="translate(-141.76 -103.92)"/><path class="cls-1" d="M372.6,142.32v-.79h-.8v-4h.8v-.8h3.23v1.63H375v-.81h-1.57v4H375v-.8h.83v.83H375v.79Z" transform="translate(-141.76 -103.92)"/><path class="cls-1" d="M379,138.33v4H377.4v-8H379v3.2h.76v-.8h1.64v.8h.8v4.82h-1.63v-4.8h-.77v.81Z" transform="translate(-141.76 -103.92)"/><path class="cls-1" d="M388,138.33v4h-1.64v-8H388v3.2h.76v-.8h1.64v.8h.8v4.82h-1.63v-4.8h-.77v.81Z" transform="translate(-141.76 -103.92)"/><path class="cls-1" d="M392.76,139.1h.8v-.8H396v-.78h-2.4v-.82h3.23v.8h.81v4.82h-4v-.79h-.8Zm1.63,0v2.37H396v-2.37Z" transform="translate(-141.76 -103.92)"/><path class="cls-1" d="M400,141.5h1.56v-.77h-.8v-.81H400v-.79h-.8V137.5h.8v-.8h3.23v1.63h-.83v-.81h-1.57v.77h.8v.81h.81v.8h.79v1.63h-.79v.79h-3.24v-1.63H400Z" transform="translate(-141.76 -103.92)"/><path class="cls-1" d="M406.53,136.7h.79v-1.6H409v1.6h.8v.82H409v4.8h-1.64v-4.8h-.79Z" transform="translate(-141.76 -103.92)"/><path class="cls-1" d="M410.53,137.5h.8v-.8h3.23v.8h.8v4h-.8v.79h-3.23v-.79h-.8Zm1.63,0v4h1.57v-4Z" transform="translate(-141.76 -103.92)"/><path class="cls-1" d="M421.12,136.7h2.4v.8h.8v4h-.8v.79h-4v-8h1.63Zm0,.82v4h1.57v-4Z" transform="translate(-141.76 -103.92)"/><path class="cls-1" d="M430.72,140.7v.83h-.8v.79h-3.23v-.79h-.81v-4h.81v-.8h3.23v.8h.8v1.63h-.8v.79h-2.4v1.58h2.37v-.8Zm-3.2-3.18v1.58h1.57v-1.58Z" transform="translate(-141.76 -103.92)"/><path class="cls-1" d="M434.84,136.7h1.64v4.8h1.57v-4.8h1.63v4.83h-.8v.79h-3.23v-.79h-.81Z" transform="translate(-141.76 -103.92)"/><path class="cls-1" d="M442.08,141.5h1.56v-.77h-.79v-.81H442v-.79h-.8V137.5h.8v-.8h3.23v1.63h-.83v-.81h-1.57v.77h.81v.81h.8v.8h.79v1.63h-.79v.79h-3.24v-1.63h.84Z" transform="translate(-141.76 -103.92)"/><path class="cls-1" d="M451.68,140.7v.83h-.8v.79h-3.23v-.79h-.81v-4h.81v-.8h3.23v.8h.8v1.63h-.8v.79h-2.4v1.58h2.37v-.8Zm-3.2-3.18v1.58h1.57v-1.58Z" transform="translate(-141.76 -103.92)"/><path class="cls-1" d="M453.24,137.5h.8v-.8h2.4v-2.4h1.64v8h-4v-.79h-.8Zm1.63,0v4h1.57v-4Z" transform="translate(-141.76 -103.92)"/><path class="cls-1" d="M470.24,136.7v2.43h-.8v1.6h-.81v1.59H467v-1.59h-1.56v1.59h-1.63v-1.59H463v-1.6h-.8V136.7h1.63v2.4h.8v1.59h.77v-.79h.81v-.77h-.81V136.7H467v2.4h.8v1.59h.77v-4Z" transform="translate(-141.76 -103.92)"/><path class="cls-1" d="M473.43,138.33v4H471.8v-8h1.63v3.2h.77v-.8h1.63v.8h.8v4.82H475v-4.8h-.77v.81Z" transform="translate(-141.76 -103.92)"/><path class="cls-1" d="M483,140.7v.83h-.8v.79H479v-.79h-.81v-4H479v-.8h3.23v.8h.8v1.63h-.8v.79h-2.4v1.58h2.37v-.8Zm-3.2-3.18v1.58h1.57v-1.58Z" transform="translate(-141.76 -103.92)"/><path class="cls-1" d="M488.62,136.7v.8h.81v4.82h-1.64v-4.8H487v.81h-.81v4h-1.63V136.7h1.63v.8H487v-.8Z" transform="translate(-141.76 -103.92)"/><path class="cls-1" d="M494.35,142.32v-.79h-.8v-4h.8v-.8h3.23v1.63h-.83v-.81h-1.57v4h1.57v-.8h.83v.83h-.79v.79Z" transform="translate(-141.76 -103.92)"/><path class="cls-1" d="M500.79,137.5h.76v-.8h.84v1.63h-1.6v4h-1.64V136.7h1.64Z" transform="translate(-141.76 -103.92)"/><path class="cls-1" d="M503.15,137.5h.8v-.8h3.23v.8H508v4h-.81v.79H504v-.79h-.8Zm1.63,0v4h1.57v-4Z" transform="translate(-141.76 -103.92)"/><path class="cls-1" d="M510.39,141.5H512v-.77h-.8v-.81h-.8v-.79h-.8V137.5h.8v-.8h3.23v1.63h-.83v-.81h-1.57v.77h.8v.81h.81v.8h.79v1.63h-.79v.79h-3.24v-1.63h.84Z" transform="translate(-141.76 -103.92)"/><path class="cls-1" d="M515.19,141.5h1.56v-.77H516v-.81h-.81v-.79h-.8V137.5h.8v-.8h3.23v1.63h-.83v-.81H516v.77h.8v.81h.81v.8h.79v1.63h-.79v.79h-3.24v-1.63h.84Z" transform="translate(-141.76 -103.92)"/><path class="cls-1" d="M521.58,135.93H520v-.83h1.63Zm0,6.39H520V136.7h1.63Z" transform="translate(-141.76 -103.92)"/><path class="cls-1" d="M527.19,136.7v.8h.8v4.82h-1.63v-4.8h-.77v.81h-.8v4h-1.64V136.7h1.64v.8h.77v-.8Z" transform="translate(-141.76 -103.92)"/><path class="cls-1" d="M532.75,142.32h-2.4v-.79h-.8v-4h.8v-.8h4.84v.82h-.8v5.61h-.81v.8h-3.23v-.84h2.4Zm-1.57-4.8v4h1.57v-4Z" transform="translate(-141.76 -103.92)"/><path class="cls-1" d="M537.72,136.7h.79v-1.6h1.63v1.6H541v.82h-.81v4.8h-1.63v-4.8h-.79Z" transform="translate(-141.76 -103.92)"/><path class="cls-1" d="M543.35,138.33v4h-1.64v-8h1.64v3.2h.76v-.8h1.64v.8h.8v4.82h-1.63v-4.8h-.77v.81Z" transform="translate(-141.76 -103.92)"/><path class="cls-1" d="M553,140.7v.83h-.81v.79h-3.23v-.79h-.8v-4h.8v-.8h3.23v.8H553v1.63h-.81v.79h-2.4v1.58h2.38v-.8Zm-3.21-3.18v1.58h1.57v-1.58Z" transform="translate(-141.76 -103.92)"/><path class="cls-1" d="M144.17,151.1h2.4v.8h.8v4h-.8v.79h-4v-8h1.63Zm0,.82v4h1.57v-4Z" transform="translate(-141.76 -103.92)"/><path class="cls-1" d="M150.57,151.9h.76v-.8h.84v1.63h-1.6v4h-1.64V151.1h1.64Z" transform="translate(-141.76 -103.92)"/><path class="cls-1" d="M154.56,150.33h-1.63v-.83h1.63Zm0,6.39h-1.63V151.1h1.63Z" transform="translate(-141.76 -103.92)"/><path class="cls-1" d="M156.13,151.9h.81v-.8h2.4v-2.4H161v8h-4v-.79h-.81Zm1.64,0v4h1.57v-4Z" transform="translate(-141.76 -103.92)"/><path class="cls-1" d="M165.73,156.72h-2.4v-.79h-.8v-4h.8v-.8h4.84v.82h-.8v5.61h-.81v.8h-3.23v-.84h2.4Zm-1.57-4.8v4h1.57v-4Z" transform="translate(-141.76 -103.92)"/><path class="cls-1" d="M173.76,155.1v.83H173v.79h-3.23v-.79h-.8v-4h.8v-.8H173v.8h.8v1.63H173v.79h-2.4v1.58h2.37v-.8Zm-3.2-3.18v1.58h1.57v-1.58Z" transform="translate(-141.76 -103.92)"/><path class="cls-1" d="M177,156.72h-1.63v-1.63H177Z" transform="translate(-141.76 -103.92)"/><path class="cls-1" d="M180.83,151.1h.79v-1.6h1.63v1.6h.81v.82h-.81v4.8h-1.63v-4.8h-.79Z" transform="translate(-141.76 -103.92)"/><path class="cls-1" d="M186.46,152.73v4h-1.63v-8h1.63v3.2h.77v-.8h1.63v.8h.8v4.82H188v-4.8h-.77v.81Z" transform="translate(-141.76 -103.92)"/><path class="cls-1" d="M196.06,155.1v.83h-.81v.79H192v-.79h-.81v-4H192v-.8h3.22v.8h.81v1.63h-.81v.79h-2.4v1.58h2.38v-.8Zm-3.21-3.18v1.58h1.58v-1.58Z" transform="translate(-141.76 -103.92)"/><path class="cls-1" d="M199.92,151.1h.79v-1.6h1.64v1.6h.8v.82h-.8v4.8h-1.64v-4.8h-.79Z" transform="translate(-141.76 -103.92)"/><path class="cls-1" d="M203.92,151.9h.8v-.8H208v.8h.8v4H208v.79h-3.23v-.79h-.8Zm1.63,0v4h1.57v-4Z" transform="translate(-141.76 -103.92)"/><path class="cls-1" d="M212,151.9h.76v-.8h.84v1.63H212v4h-1.64V151.1H212Z" transform="translate(-141.76 -103.92)"/><path class="cls-1" d="M215.11,156.72v-.79h-.8v-4h.8v-.8h3.23v1.63h-.83v-.81h-1.57v4h1.57v-.8h.83v.83h-.79v.79Z" transform="translate(-141.76 -103.92)"/><path class="cls-1" d="M221.55,152.73v4h-1.64v-8h1.64v3.2h.76v-.8H224v.8h.8v4.82h-1.63v-4.8h-.77v.81Z" transform="translate(-141.76 -103.92)"/><path class="cls-1" d="M229.41,151.9h.8v-.8h3.23v.8h.8v4h-.8v.79h-3.23v-.79h-.8Zm1.63,0v4h1.57v-4Z" transform="translate(-141.76 -103.92)"/><path class="cls-1" d="M239.84,151.1v.8h.8v4.82H239v-4.8h-.77v.81h-.8v4H235.8V151.1h1.64v.8h.76v-.8Z" transform="translate(-141.76 -103.92)"/><path class="cls-1" d="M243.83,156.72H242.2v-8h1.63Z" transform="translate(-141.76 -103.92)"/><path class="cls-1" d="M247.8,155.93H247v-1.61h-.8v-1.59h-.81V151.1H247v1.59h.8v1.61h.77v-3.2h1.63v1.63h-.8v2.4h-.8v2.4h-.8v.8h-1.63V156.7h1.59Z" transform="translate(-141.76 -103.92)"/><path class="cls-1" d="M256.53,156.72H254.9v-8h1.63Z" transform="translate(-141.76 -103.92)"/><path class="cls-1" d="M258.1,153.5h.8v-.8h2.4v-.78h-2.4v-.82h3.23v.8h.81v4.82h-4v-.79h-.8Zm1.63,0v2.37h1.57v-2.37Z" transform="translate(-141.76 -103.92)"/><path class="cls-1" d="M265.34,155.9h1.56v-.77h-.8v-.81h-.8v-.79h-.8V151.9h.8v-.8h3.23v1.63h-.83v-.81h-1.57v.77h.8v.81h.81v.8h.79v1.63h-.79v.79H264.5v-1.63h.84Z" transform="translate(-141.76 -103.92)"/><path class="cls-1" d="M269.31,151.1h.79v-1.6h1.63v1.6h.81v.82h-.81v4.8H270.1v-4.8h-.79Z" transform="translate(-141.76 -103.92)"/><path class="cls-1" d="M276.4,149.5h.8v-.8h1.64v8H277.2v-6.39h-.8Z" transform="translate(-141.76 -103.92)"/><path class="cls-1" d="M283.6,152.73h-2.4v-4h4v.82h-2.4v2.38h1.61v.79h.79v3.24h-.79v.79H281.2v-.82h2.4Z" transform="translate(-141.76 -103.92)"/><path class="cls-1" d="M297.14,151.1v.8h.8v4.82h-1.63v-4.8h-.77v.81h-.8v4H293.1v-4.8h-.76v.81h-.81v4H289.9V151.1h1.63v.8h.77v-.8h1.63v.8h1.57v-.8Z" transform="translate(-141.76 -103.92)"/><path class="cls-1" d="M301.13,150.33H299.5v-.83h1.63Zm0,6.39H299.5V151.1h1.63Z" transform="translate(-141.76 -103.92)"/><path class="cls-1" d="M306.74,151.1v.8h.8v4.82h-1.63v-4.8h-.77v.81h-.8v4H302.7V151.1h1.64v.8h.76v-.8Z" transform="translate(-141.76 -103.92)"/><path class="cls-1" d="M309.1,151.1h1.63v4.8h1.57v-4.8h1.64v4.83h-.81v.79H309.9v-.79h-.8Z" transform="translate(-141.76 -103.92)"/><path class="cls-1" d="M314.7,151.1h.8v-1.6h1.63v1.6h.8v.82h-.8v4.8H315.5v-4.8h-.8Z" transform="translate(-141.76 -103.92)"/><path class="cls-1" d="M323.54,155.1v.83h-.81v.79H319.5v-.79h-.8v-4h.8v-.8h3.23v.8h.81v1.63h-.81v.79h-2.4v1.58h2.38v-.8Zm-3.21-3.18v1.58h1.57v-1.58Z" transform="translate(-141.76 -103.92)"/><path class="cls-1" d="M325.94,155.9h1.56v-.77h-.79v-.81h-.81v-.79h-.8V151.9h.8v-.8h3.23v1.63h-.83v-.81h-1.57v.77h.8v.81h.81v.8h.79v1.63h-.79v.79H325.1v-1.63h.84Z" transform="translate(-141.76 -103.92)"/><path class="cls-1" d="M335.43,151.1h2.4v.8h.8v4h-.8v.79h-4v-8h1.63Zm0,.82v4H337v-4Z" transform="translate(-141.76 -103.92)"/><path class="cls-1" d="M345,155.1v.83h-.8v.79H341v-.79h-.81v-4H341v-.8h3.23v.8h.8v1.63h-.8v.79h-2.4v1.58h2.37v-.8Zm-3.2-3.18v1.58h1.57v-1.58Z" transform="translate(-141.76 -103.92)"/><path class="cls-1" d="M345.8,151.1h.79v-1.6h.8v-.8h2.44v.82h-1.61v1.58h1.61v.82h-1.61v4.8h-1.63v-4.8h-.79Z" transform="translate(-141.76 -103.92)"/><path class="cls-1" d="M350.58,151.9h.81v-.8h3.23v.8h.8v4h-.8v.79h-3.23v-.79h-.81Zm1.64,0v4h1.57v-4Z" transform="translate(-141.76 -103.92)"/><path class="cls-1" d="M358.61,151.9h.77v-.8h.84v1.63h-1.61v4H357V151.1h1.63Z" transform="translate(-141.76 -103.92)"/><path class="cls-1" d="M365.81,155.1v.83H365v.79h-3.23v-.79H361v-4h.8v-.8H365v.8h.8v1.63H365v.79h-2.4v1.58H365v-.8Zm-3.2-3.18v1.58h1.57v-1.58Z" transform="translate(-141.76 -103.92)"/><path class="cls-1" d="M373.67,156.72h-2.4v-.79h-.8v-4h.8v-.8h4.84v.82h-.8v5.61h-.81v.8h-3.23v-.84h2.4Zm-1.57-4.8v4h1.57v-4Z" transform="translate(-141.76 -103.92)"/><path class="cls-1" d="M376.87,151.9h.8v-.8h3.23v.8h.8v4h-.8v.79h-3.23v-.79h-.8Zm1.63,0v4h1.57v-4Z" transform="translate(-141.76 -103.92)"/><path class="cls-1" d="M384.89,150.33h-1.63v-.83h1.63Zm0,6.39h-1.63V151.1h1.63Z" transform="translate(-141.76 -103.92)"/><path class="cls-1" d="M390.5,151.1v.8h.8v4.82h-1.63v-4.8h-.77v.81h-.8v4h-1.63V151.1h1.63v.8h.77v-.8Z" transform="translate(-141.76 -103.92)"/><path class="cls-1" d="M396.07,156.72h-2.4v-.79h-.81v-4h.81v-.8h4.83v.82h-.8v5.61h-.81v.8h-3.22v-.84h2.4Zm-1.58-4.8v4h1.58v-4Z" transform="translate(-141.76 -103.92)"/><path class="cls-1" d="M402.35,151.9h.81v-.8h3.23v.8h.8v4h-.8v.79h-3.23v-.79h-.81Zm1.64,0v4h1.57v-4Z" transform="translate(-141.76 -103.92)"/><path class="cls-1" d="M408.75,151.1h1.63v4.8H412v-4.8h1.64v4.83h-.81v.79h-3.23v-.79h-.8Z" transform="translate(-141.76 -103.92)"/><path class="cls-1" d="M414.35,151.1h.8v-1.6h1.63v1.6h.8v.82h-.8v4.8h-1.63v-4.8h-.8Z" transform="translate(-141.76 -103.92)"/><path class="cls-1" d="M420,156.72h-1.63v-1.63H420Z" transform="translate(-141.76 -103.92)"/><path class="cls-1" d="M426.26,148.7h1.63v7.23h-.8v.79h-2.44v-.79h-.79v-.83h.83v.8h1.57Z" transform="translate(-141.76 -103.92)"/><path class="cls-1" d="M429.45,151.9h.8v-.8h3.23v.8h.81v4h-.81v.79h-3.23v-.79h-.8Zm1.63,0v4h1.57v-4Z" transform="translate(-141.76 -103.92)"/><path class="cls-1" d="M440.68,155.1v.83h-.8v.79h-3.23v-.79h-.8v-4h.8v-.8h3.23v.8h.8v1.63h-.8v.79h-2.4v1.58h2.37v-.8Zm-3.2-3.18v1.58h1.57v-1.58Z" transform="translate(-141.76 -103.92)"/><path class="cls-1" d="M446.14,156.72v-.79h-.8v-4h.8v-.8h3.23v1.63h-.83v-.81H447v4h1.57v-.8h.83v.83h-.79v.79Z" transform="translate(-141.76 -103.92)"/><path class="cls-1" d="M450.94,153.5h.81v-.8h2.4v-.78h-2.4v-.82H455v.8h.8v4.82h-4v-.79h-.81Zm1.64,0v2.37h1.57v-2.37Z" transform="translate(-141.76 -103.92)"/><path class="cls-1" d="M461.37,151.1v.8h.81v4.82h-1.64v-4.8h-.76v.81H459v4h-1.63V151.1H459v.8h.77v-.8Z" transform="translate(-141.76 -103.92)"/><path class="cls-1" d="M467.64,156.72v-.79h-.81v-4h.81v-.8h3.22v1.63H470v-.81h-1.58v4H470v-.8h.82v.83h-.79v.79Z" transform="translate(-141.76 -103.92)"/><path class="cls-1" d="M474.07,151.9h.77v-.8h.84v1.63h-1.61v4h-1.63V151.1h1.63Z" transform="translate(-141.76 -103.92)"/><path class="cls-1" d="M476.43,151.9h.81v-.8h3.22v.8h.81v4h-.81v.79h-3.22v-.79h-.81Zm1.63,0v4h1.58v-4Z" transform="translate(-141.76 -103.92)"/><path class="cls-1" d="M483.67,155.9h1.56v-.77h-.79v-.81h-.81v-.79h-.8V151.9h.8v-.8h3.23v1.63H486v-.81h-1.57v.77h.8v.81h.81v.8h.79v1.63h-.79v.79h-3.24v-1.63h.84Z" transform="translate(-141.76 -103.92)"/><path class="cls-1" d="M488.47,155.9H490v-.77h-.79v-.81h-.81v-.79h-.8V151.9h.8v-.8h3.23v1.63h-.83v-.81h-1.57v.77h.8v.81h.81v.8h.79v1.63h-.79v.79h-3.24v-1.63h.84Z" transform="translate(-141.76 -103.92)"/><path class="cls-1" d="M495.54,151.1h.79v-1.6H498v1.6h.8v.82H498v4.8h-1.63v-4.8h-.79Z" transform="translate(-141.76 -103.92)"/><path class="cls-1" d="M501.17,152.73v4h-1.64v-8h1.64v3.2h.76v-.8h1.63v.8h.81v4.82h-1.63v-4.8H502v.81Z" transform="translate(-141.76 -103.92)"/><path class="cls-1" d="M510.77,155.1v.83H510v.79h-3.23v-.79h-.8v-4h.8v-.8H510v.8h.81v1.63H510v.79h-2.4v1.58h2.38v-.8Zm-3.21-3.18v1.58h1.57v-1.58Z" transform="translate(-141.76 -103.92)"/><path class="cls-1" d="M517.05,151.1h2.4v.8h.81v4h-.81v.79h-4v-8h1.63Zm0,.82v4h1.57v-4Z" transform="translate(-141.76 -103.92)"/><path class="cls-1" d="M523.45,151.9h.77v-.8h.84v1.63h-1.61v4h-1.63V151.1h1.63Z" transform="translate(-141.76 -103.92)"/><path class="cls-1" d="M527.45,150.33h-1.64v-.83h1.64Zm0,6.39h-1.64V151.1h1.64Z" transform="translate(-141.76 -103.92)"/><path class="cls-1" d="M532.22,156.72h-2.4v-.79H529v-4h.8v-.8h4.84v.82h-.81v5.61h-.8v.8h-3.23v-.84h2.4Zm-1.57-4.8v4h1.57v-4Z" transform="translate(-141.76 -103.92)"/><path class="cls-1" d="M540.25,155.1v.83h-.8v.79h-3.23v-.79h-.81v-4h.81v-.8h3.23v.8h.8v1.63h-.8v.79h-2.4v1.58h2.37v-.8Zm-3.2-3.18v1.58h1.57v-1.58Z" transform="translate(-141.76 -103.92)"/><path class="cls-1" d="M546.54,150.33h-1.63v-.83h1.63Zm0,6.39h-1.63V151.1h1.63Z" transform="translate(-141.76 -103.92)"/><path class="cls-1" d="M552.14,151.1v.8H553v4.82h-1.64v-4.8h-.76v.81h-.81v4h-1.63V151.1h1.63v.8h.77v-.8Z" transform="translate(-141.76 -103.92)"/><path class="cls-1" d="M142.54,166.3h.8v-.8h3.23v.8h.8v4h-.8v.79h-3.23v-.79h-.8Zm1.63,0v4h1.57v-4Z" transform="translate(-141.76 -103.92)"/><path class="cls-1" d="M153,165.5v.8h.8v4.82h-1.63v-4.8h-.77v.81h-.8v4h-1.64V165.5h1.64v.8h.76v-.8Z" transform="translate(-141.76 -103.92)"/><path class="cls-1" d="M160.17,169.5v.83h-.81v.79h-3.23v-.79h-.8v-4h.8v-.8h3.23v.8h.81v1.63h-.81v.79H157v1.58h2.38v-.8ZM157,166.32v1.58h1.57v-1.58Z" transform="translate(-141.76 -103.92)"/><path class="cls-1" d="M171.76,165.5v.8h.81v4.82h-1.64v-4.8h-.76v.81h-.81v4h-1.63v-4.8H167v.81h-.8v4h-1.63V165.5h1.63v.8h.77v-.8h1.63v.8h1.57v-.8Z" transform="translate(-141.76 -103.92)"/><path class="cls-1" d="M175.76,164.73h-1.63v-.83h1.63Zm0,6.39h-1.63V165.5h1.63Z" transform="translate(-141.76 -103.92)"/><path class="cls-1" d="M181.36,165.5v.8h.81v4.82h-1.64v-4.8h-.76v.81H179v4h-1.63V165.5H179v.8h.77v-.8Z" transform="translate(-141.76 -103.92)"/><path class="cls-1" d="M183.73,165.5h1.63v4.8h1.57v-4.8h1.63v4.83h-.8v.79h-3.23v-.79h-.8Z" transform="translate(-141.76 -103.92)"/><path class="cls-1" d="M189.33,165.5h.79v-1.6h1.63v1.6h.81v.82h-.81v4.8h-1.63v-4.8h-.79Z" transform="translate(-141.76 -103.92)"/><path class="cls-1" d="M198.16,169.5v.83h-.8v.79h-3.23v-.79h-.8v-4h.8v-.8h3.23v.8h.8v1.63h-.8v.79H195v1.58h2.37v-.8Zm-3.2-3.18v1.58h1.57v-1.58Z" transform="translate(-141.76 -103.92)"/><path class="cls-1" d="M201.35,171.12h-1.63v-1.63h1.63Z" transform="translate(-141.76 -103.92)"/><path class="cls-1" d="M207.34,163.1H209v7.23h-.81v.79h-2.43v-.79h-.79v-.83h.82v.8h1.58Z" transform="translate(-141.76 -103.92)"/><path class="cls-1" d="M210.53,167.9h.8v-.8h2.4v-.78h-2.4v-.82h3.23v.8h.8v4.82h-4v-.79h-.8Zm1.63,0v2.37h1.57v-2.37Z" transform="translate(-141.76 -103.92)"/><path class="cls-1" d="M224.16,165.5v.8h.8v4.82h-1.63v-4.8h-.77v.81h-.8v4h-1.63v-4.8h-.77v.81h-.8v4h-1.64V165.5h1.64v.8h.76v-.8H221v.8h1.57v-.8Z" transform="translate(-141.76 -103.92)"/><path class="cls-1" d="M231.36,169.5v.83h-.8v.79h-3.23v-.79h-.81v-4h.81v-.8h3.23v.8h.8v1.63h-.8v.79h-2.4v1.58h2.37v-.8Zm-3.2-3.18v1.58h1.57v-1.58Z" transform="translate(-141.76 -103.92)"/><path class="cls-1" d="M233.76,170.3h1.56v-.77h-.79v-.81h-.81v-.79h-.8V166.3h.8v-.8H237v1.63h-.83v-.81h-1.57v.77h.8v.81h.81v.8H237v1.63h-.79v.79h-3.24v-1.63h.84Z" transform="translate(-141.76 -103.92)"/><path class="cls-1" d="M243,164.73h-1.64v-.83H243Zm0,6.39h-1.64V165.5H243Z" transform="translate(-141.76 -103.92)"/><path class="cls-1" d="M248.56,165.5v.8h.8v4.82h-1.63v-4.8H247v.81h-.8v4h-1.63V165.5h1.63v.8h.77v-.8Z" transform="translate(-141.76 -103.92)"/><path class="cls-1" d="M252.93,165.5h.8v-1.6h1.63v1.6h.8v.82h-.8v4.8h-1.63v-4.8h-.8Z" transform="translate(-141.76 -103.92)"/><path class="cls-1" d="M265,165.5v2.43h-.8v1.6h-.81v1.59h-1.63v-1.59h-1.56v1.59h-1.63v-1.59h-.81v-1.6h-.8V165.5h1.63v2.4h.81v1.59h.76v-.79h.81v-.77h-.81V165.5h1.64v2.4h.8v1.59h.77v-4Z" transform="translate(-141.76 -103.92)"/><path class="cls-1" d="M266.53,166.3h.8v-.8h3.23v.8h.81v4h-.81v.79h-3.23v-.79h-.8Zm1.63,0v4h1.57v-4Z" transform="translate(-141.76 -103.92)"/><path class="cls-1" d="M283,165.5v.8h.81v4.82h-1.64v-4.8h-.76v.81h-.81v4h-1.63v-4.8h-.77v.81h-.8v4h-1.63V165.5h1.63v.8h.77v-.8h1.63v.8h1.57v-.8Z" transform="translate(-141.76 -103.92)"/><path class="cls-1" d="M287,164.73h-1.63v-.83H287Zm0,6.39h-1.63V165.5H287Z" transform="translate(-141.76 -103.92)"/><path class="cls-1" d="M292.56,165.5v.8h.81v4.82h-1.64v-4.8H291v.81h-.81v4h-1.63V165.5h1.63v.8h.77v-.8Z" transform="translate(-141.76 -103.92)"/><path class="cls-1" d="M294.93,165.5h1.63v4.8h1.57v-4.8h1.63v4.83H299v.79h-3.23v-.79h-.8Z" transform="translate(-141.76 -103.92)"/><path class="cls-1" d="M300.53,165.5h.79v-1.6H303v1.6h.81v.82H303v4.8h-1.63v-4.8h-.79Z" transform="translate(-141.76 -103.92)"/><path class="cls-1" d="M309.36,169.5v.83h-.8v.79h-3.23v-.79h-.8v-4h.8v-.8h3.23v.8h.8v1.63h-.8v.79h-2.4v1.58h2.37v-.8Zm-3.2-3.18v1.58h1.57v-1.58Z" transform="translate(-141.76 -103.92)"/><path class="cls-1" d="M311.76,170.3h1.56v-.77h-.79v-.81h-.8v-.79h-.81V166.3h.81v-.8H315v1.63h-.82v-.81h-1.58v.77h.81v.81h.8v.8H315v1.63h-.79v.79h-3.24v-1.63h.84Z" transform="translate(-141.76 -103.92)"/><path class="cls-1" d="M316.53,171.12v-1.63h1.63v2.44h-.79v.8h-.84v-.84h.8v-.77Z" transform="translate(-141.76 -103.92)"/><path class="cls-1" d="M324.14,163.1h1.63v7.23H325v.79h-2.44v-.79h-.79v-.83h.83v.8h1.57Z" transform="translate(-141.76 -103.92)"/><path class="cls-1" d="M327.33,166.3h.8v-.8h3.23v.8h.81v4h-.81v.79h-3.23v-.79h-.8Zm1.63,0v4h1.57v-4Z" transform="translate(-141.76 -103.92)"/><path class="cls-1" d="M335.36,167.13v4h-1.63v-8h1.63v3.2h.77v-.8h1.63v.8h.8v4.82h-1.63v-4.8h-.77v.81Z" transform="translate(-141.76 -103.92)"/><path class="cls-1" d="M344.15,165.5v.8H345v4.82h-1.63v-4.8h-.77v.81h-.81v4h-1.63V165.5h1.63v.8h.77v-.8Z" transform="translate(-141.76 -103.92)"/><path class="cls-1" d="M351,164.73h-1.63v-.83H351Zm0,6.39h-1.63V165.5H351Z" transform="translate(-141.76 -103.92)"/><path class="cls-1" d="M356.56,165.5v.8h.8v4.82h-1.63v-4.8H355v.81h-.8v4h-1.64V165.5h1.64v.8h.76v-.8Z" transform="translate(-141.76 -103.92)"/><path class="cls-1" d="M360.93,165.5h.79v-1.6h.8v-.8l4,0v.84h-3.21v1.58l3.21,0v5.64h-1.64v-4.8h-1.57v4.8h-1.63v-4.8h-.79Z" transform="translate(-141.76 -103.92)"/><path class="cls-1" d="M373,165.5v2.43h-.8v1.6h-.79v1.59h-1.63v-1.59h-.81v-1.6h-.8V165.5h1.63v2.4h.8v1.59h.77v-4Z" transform="translate(-141.76 -103.92)"/><path class="cls-1" d="M379.35,169.5v.83h-.81v.79h-3.22v-.79h-.81v-4h.81v-.8h3.22v.8h.81v1.63h-.81v.79h-2.39v1.58h2.37v-.8Zm-3.2-3.18v1.58h1.57v-1.58Z" transform="translate(-141.76 -103.92)"/><path class="cls-1" d="M391,165.5v.8h.8v4.82h-1.63v-4.8h-.77v.81h-.8v4h-1.64v-4.8h-.76v.81h-.81v4h-1.63V165.5h1.63v.8h.77v-.8h1.63v.8h1.57v-.8Z" transform="translate(-141.76 -103.92)"/><path class="cls-1" d="M394.94,164.73h-1.63v-.83h1.63Zm0,6.39h-1.63V165.5h1.63Z" transform="translate(-141.76 -103.92)"/><path class="cls-1" d="M400.55,165.5v.8h.8v4.82h-1.63v-4.8H399v.81h-.8v4h-1.64V165.5h1.64v.8h.76v-.8Z" transform="translate(-141.76 -103.92)"/><path class="cls-1" d="M402.91,165.5h1.63v4.8h1.57v-4.8h1.64v4.83h-.81v.79h-3.23v-.79h-.8Z" transform="translate(-141.76 -103.92)"/><path class="cls-1" d="M408.51,165.5h.8v-1.6h1.63v1.6h.8v.82h-.8v4.8h-1.63v-4.8h-.8Z" transform="translate(-141.76 -103.92)"/><path class="cls-1" d="M417.35,169.5v.83h-.81v.79h-3.23v-.79h-.8v-4h.8v-.8h3.23v.8h.81v1.63h-.81v.79h-2.4v1.58h2.38v-.8Zm-3.21-3.18v1.58h1.57v-1.58Z" transform="translate(-141.76 -103.92)"/><path class="cls-1" d="M419.75,170.3h1.56v-.77h-.8v-.81h-.8v-.79h-.8V166.3h.8v-.8h3.23v1.63h-.83v-.81h-1.57v.77h.8v.81h.81v.8h.79v1.63h-.79v.79h-3.24v-1.63h.84Z" transform="translate(-141.76 -103.92)"/><path class="cls-1" d="M427.31,167.9h.8v-.8h2.4v-.78h-2.4v-.82h3.23v.8h.81v4.82h-4v-.79h-.8Zm1.63,0v2.37h1.57v-2.37Z" transform="translate(-141.76 -103.92)"/><path class="cls-1" d="M437.74,165.5v.8h.8v4.82h-1.63v-4.8h-.77v.81h-.8v4h-1.63V165.5h1.63v.8h.77v-.8Z" transform="translate(-141.76 -103.92)"/><path class="cls-1" d="M440.1,166.3h.81v-.8h2.4v-2.4h1.63v8h-4v-.79h-.81Zm1.63,0v4h1.58v-4Z" transform="translate(-141.76 -103.92)"/><path class="cls-1" d="M450.91,163.1h1.63v7.23h-.8v.79H449.3v-.79h-.79v-.83h.83v.8h1.57Z" transform="translate(-141.76 -103.92)"/><path class="cls-1" d="M455.73,164.73H454.1v-.83h1.63Zm0,6.39H454.1V165.5h1.63Z" transform="translate(-141.76 -103.92)"/><path class="cls-1" d="M464.54,165.5v.8h.8v4.82h-1.63v-4.8h-.77v.81h-.8v4h-1.63v-4.8h-.77v.81h-.8v4H457.3V165.5h1.64v.8h.76v-.8h1.64v.8h1.57v-.8Z" transform="translate(-141.76 -103.92)"/><path class="cls-1" d="M471.34,164.73H469.7v-.83h1.64Zm0,6.39H469.7V165.5h1.64Z" transform="translate(-141.76 -103.92)"/><path class="cls-1" d="M476.94,165.5v.8h.81v4.82h-1.64v-4.8h-.77v.81h-.8v4h-1.63V165.5h1.63v.8h.77v-.8Z" transform="translate(-141.76 -103.92)"/><path class="cls-1" d="M486.94,169.5v.83h-.8v.79h-3.23v-.79h-.8v-4h.8v-.8h3.23v.8h.8v1.63h-.8v.79h-2.4v1.58h2.37v-.8Zm-3.2-3.18v1.58h1.57v-1.58Z" transform="translate(-141.76 -103.92)"/><path class="cls-1" d="M490.13,164.73H488.5v-.83h1.63Zm0,6.39H488.5V165.5h1.63Z" transform="translate(-141.76 -103.92)"/><path class="cls-1" d="M494.91,171.12h-2.4v-.79h-.8v-4h.8v-.8h4.84v.82h-.81v5.61h-.8v.8h-3.23v-.84h2.4Zm-1.57-4.8v4h1.57v-4Z" transform="translate(-141.76 -103.92)"/><path class="cls-1" d="M499.73,167.13v4H498.1v-8h1.63v3.2h.77v-.8h1.63v.8h.81v4.82h-1.63v-4.8h-.77v.81Z" transform="translate(-141.76 -103.92)"/><path class="cls-1" d="M503.71,165.5h.79v-1.6h1.63v1.6h.8v.82h-.8v4.8H504.5v-4.8h-.79Z" transform="translate(-141.76 -103.92)"/><path class="cls-1" d="M517.74,165.5v.8h.8v4.82h-1.63v-4.8h-.77v.81h-.8v4h-1.63v-4.8h-.77v.81h-.81v4H510.5V165.5h1.63v.8h.77v-.8h1.63v.8h1.58v-.8Z" transform="translate(-141.76 -103.92)"/><path class="cls-1" d="M521.73,164.73H520.1v-.83h1.63Zm0,6.39H520.1V165.5h1.63Z" transform="translate(-141.76 -103.92)"/><path class="cls-1" d="M527.34,165.5v.8h.8v4.82h-1.63v-4.8h-.77v.81h-.8v4h-1.63V165.5h1.63v.8h.77v-.8Z" transform="translate(-141.76 -103.92)"/><path class="cls-1" d="M529.7,165.5h1.63v4.8h1.58v-4.8h1.63v4.83h-.81v.79h-3.22v-.79h-.81Z" transform="translate(-141.76 -103.92)"/><path class="cls-1" d="M535.31,165.5h.79v-1.6h1.63v1.6h.8v.82h-.8v4.8H536.1v-4.8h-.79Z" transform="translate(-141.76 -103.92)"/><path class="cls-1" d="M544.14,169.5v.83h-.81v.79h-3.22v-.79h-.81v-4h.81v-.8h3.22v.8h.81v1.63h-.81v.79h-2.39v1.58h2.37v-.8Zm-3.2-3.18v1.58h1.57v-1.58Z" transform="translate(-141.76 -103.92)"/><path class="cls-1" d="M546.54,170.3h1.56v-.77h-.79v-.81h-.81v-.79h-.8V166.3h.8v-.8h3.23v1.63h-.83v-.81h-1.57v.77h.8v.81h.81v.8h.79v1.63h-.79v.79H545.7v-1.63h.84Z" transform="translate(-141.76 -103.92)"/><path class="cls-1" d="M552.94,171.12H551.3v-1.63h1.64Z" transform="translate(-141.76 -103.92)"/><path class="cls-1" d="M150.58,177.5v2.43h-.81v3.19H149v2.4h-1.63v-2.4h-1.56v2.4h-1.63v-2.4h-.81v-3.19h-.8V177.5h1.63v2.4h.8v3.2h.77v-.8h.81v-2.37h-.81V177.5h1.63v2.4h.81v3.2H149v-5.6Z" transform="translate(-141.76 -103.92)"/><path class="cls-1" d="M153.77,181.53v4h-1.63v-8h1.63v3.2h.77v-.8h1.63v.8h.8v4.82h-1.63v-4.8h-.77v.81Z" transform="translate(-141.76 -103.92)"/><path class="cls-1" d="M163.37,183.9v.83h-.8v.79h-3.23v-.79h-.81v-4h.81v-.8h3.23v.8h.8v1.63h-.8v.79h-2.4v1.58h2.37v-.8Zm-3.2-3.18v1.58h1.57v-1.58Z" transform="translate(-141.76 -103.92)"/><path class="cls-1" d="M169,179.9v.8h.81v4.82h-1.64v-4.8h-.76v.81h-.81v4h-1.63V179.9h1.63v.8h.77v-.8Z" transform="translate(-141.76 -103.92)"/><path class="cls-1" d="M172.75,179.9h.79v-1.6h1.64v1.6h.8v.82h-.8v4.8h-1.64v-4.8h-.79Z" transform="translate(-141.76 -103.92)"/><path class="cls-1" d="M184.79,179.9v2.43H184v1.6h-.81v1.59h-1.63v-1.59H180v1.59h-1.63v-1.59h-.81v-1.6h-.8V179.9h1.63v2.4h.81v1.59H180v-.79h.81v-.77H180V179.9h1.64v2.4h.8v1.59h.77v-4Z" transform="translate(-141.76 -103.92)"/><path class="cls-1" d="M186.35,180.7h.8v-.8h3.23v.8h.81v4h-.81v.79h-3.23v-.79h-.8Zm1.63,0v4h1.57v-4Z" transform="translate(-141.76 -103.92)"/><path class="cls-1" d="M202.2,179.9v.8h.8v4.82h-1.63v-4.8h-.77v.81h-.8v4h-1.63v-4.8h-.77v.81h-.8v4H195V179.9h1.64v.8h.76v-.8H199v.8h1.57v-.8Z" transform="translate(-141.76 -103.92)"/><path class="cls-1" d="M204.56,180.7h.81v-.8h3.23v.8h.8v4h-.8v.79h-3.23v-.79h-.81Zm1.64,0v4h1.57v-4Z" transform="translate(-141.76 -103.92)"/><path class="cls-1" d="M215,179.9v.8h.81v4.82h-1.64v-4.8h-.76v.81h-.81v4H211V179.9h1.63v.8h.77v-.8Z" transform="translate(-141.76 -103.92)"/><path class="cls-1" d="M222.19,179.9v.82h-.8v.81h-.79v1.57h.79v.79h.8v1.63h-1.63v-1.59h-.8v-.81H219v2.4h-1.63v-8H219v4.8h.77v-.81h.8v-.79h.8v-.8Z" transform="translate(-141.76 -103.92)"/><path class="cls-1" d="M224.59,184.7h1.56v-.77h-.79v-.81h-.8v-.79h-.81V180.7h.81v-.8h3.22v1.63H227v-.81h-1.58v.77h.81v.81h.8v.8h.79v1.63H227v.79h-3.24v-1.63h.84Z" transform="translate(-141.76 -103.92)"/><path class="cls-1" d="M232.38,185.52v-.79h-.8v-4h.8v-.8h3.23v1.63h-.83v-.81h-1.57v4h1.57v-.8h.83v.83h-.79v.79Z" transform="translate(-141.76 -103.92)"/><path class="cls-1" d="M238.81,180.7h.77v-.8h.84v1.63h-1.61v4h-1.63V179.9h1.63Z" transform="translate(-141.76 -103.92)"/><path class="cls-1" d="M241.18,180.7h.8v-.8h3.23v.8h.8v4h-.8v.79H242v-.79h-.8Zm1.63,0v4h1.57v-4Z" transform="translate(-141.76 -103.92)"/><path class="cls-1" d="M248.41,184.7H250v-.77h-.79v-.81h-.8v-.79h-.81V180.7h.81v-.8h3.22v1.63h-.82v-.81H249.2v.77H250v.81h.8v.8h.79v1.63h-.79v.79h-3.24v-1.63h.84Z" transform="translate(-141.76 -103.92)"/><path class="cls-1" d="M253.21,184.7h1.56v-.77H254v-.81h-.8v-.79h-.81V180.7h.81v-.8h3.22v1.63h-.82v-.81H254v.77h.81v.81h.8v.8h.79v1.63h-.79v.79h-3.24v-1.63h.84Z" transform="translate(-141.76 -103.92)"/><path class="cls-1" d="M259.4,179.9h.79v-1.6h1.64v1.6h.8v.82h-.8v4.8h-1.64v-4.8h-.79Z" transform="translate(-141.76 -103.92)"/><path class="cls-1" d="M265,181.53v4H263.4v-8H265v3.2h.77v-.8h1.63v.8h.81v4.82H266.6v-4.8h-.77v.81Z" transform="translate(-141.76 -103.92)"/><path class="cls-1" d="M274.63,183.9v.83h-.8v.79H270.6v-.79h-.81v-4h.81v-.8h3.23v.8h.8v1.63h-.8v.79h-2.4v1.58h2.37v-.8Zm-3.2-3.18v1.58H273v-1.58Z" transform="translate(-141.76 -103.92)"/><path class="cls-1" d="M280,179.9h2.4v.8h.81v4h-.81v.79h-4v-8H280Zm0,.82v4h1.57v-4Z" transform="translate(-141.76 -103.92)"/><path class="cls-1" d="M286.44,180.7h.77v-.8h.84v1.63h-1.61v4h-1.63V179.9h1.63Z" transform="translate(-141.76 -103.92)"/><path class="cls-1" d="M290.44,179.13H288.8v-.83h1.64Zm0,6.39H288.8V179.9h1.64Z" transform="translate(-141.76 -103.92)"/><path class="cls-1" d="M292,180.7h.8v-.8h2.4v-2.4h1.63v8h-4v-.79H292Zm1.63,0v4h1.57v-4Z" transform="translate(-141.76 -103.92)"/><path class="cls-1" d="M301.61,185.52h-2.4v-.79h-.81v-4h.81v-.8H304v.82h-.8v5.61h-.8v.8h-3.23v-.84h2.4Zm-1.57-4.8v4h1.57v-4Z" transform="translate(-141.76 -103.92)"/><path class="cls-1" d="M309.64,183.9v.83h-.81v.79H305.6v-.79h-.8v-4h.8v-.8h3.23v.8h.81v1.63h-.81v.79h-2.4v1.58h2.38v-.8Zm-3.21-3.18v1.58H308v-1.58Z" transform="translate(-141.76 -103.92)"/><path class="cls-1" d="M312.62,179.9h.79v-1.6h1.64v1.6h.8v.82h-.8v4.8h-1.64v-4.8h-.79Z" transform="translate(-141.76 -103.92)"/><path class="cls-1" d="M316.62,180.7h.8v-.8h3.23v.8h.8v4h-.8v.79h-3.23v-.79h-.8Zm1.63,0v4h1.57v-4Z" transform="translate(-141.76 -103.92)"/><path class="cls-1" d="M326.22,185.52h-2.4v-.79H323v-4h.81v-.8h4.83v.82h-.8v5.61h-.8v.8h-3.23v-.84h2.4Zm-1.57-4.8v4h1.57v-4Z" transform="translate(-141.76 -103.92)"/><path class="cls-1" d="M334.25,183.9v.83h-.81v.79h-3.23v-.79h-.8v-4h.8v-.8h3.23v.8h.81v1.63h-.81v.79H331v1.58h2.38v-.8ZM331,180.72v1.58h1.57v-1.58Z" transform="translate(-141.76 -103.92)"/><path class="cls-1" d="M335,179.9h.8v-1.6h1.63v1.6h.8v.82h-.8v4.8h-1.63v-4.8H335Z" transform="translate(-141.76 -103.92)"/><path class="cls-1" d="M340.64,181.53v4H339v-8h1.63v3.2h.77v-.8H343v.8h.81v4.82h-1.64v-4.8h-.76v.81Z" transform="translate(-141.76 -103.92)"/><path class="cls-1" d="M350.24,183.9v.83h-.8v.79h-3.23v-.79h-.8v-4h.8v-.8h3.23v.8h.8v1.63h-.8v.79H347v1.58h2.37v-.8Zm-3.2-3.18v1.58h1.57v-1.58Z" transform="translate(-141.76 -103.92)"/><path class="cls-1" d="M353.43,180.7h.77v-.8H355v1.63h-1.61v4H351.8V179.9h1.63Z" transform="translate(-141.76 -103.92)"/><path class="cls-1" d="M355.8,185.52v-1.63h1.63v2.44h-.79v.8h-.84v-.84h.8v-.77Z" transform="translate(-141.76 -103.92)"/><path class="cls-1" d="M360.43,179.9h.79v-1.6h1.63v1.6h.81v.82h-.81v4.8h-1.63v-4.8h-.79Z" transform="translate(-141.76 -103.92)"/><path class="cls-1" d="M366.06,181.53v4h-1.63v-8h1.63v3.2h.77v-.8h1.63v.8h.8v4.82h-1.63v-4.8h-.77v.81Z" transform="translate(-141.76 -103.92)"/><path class="cls-1" d="M375.66,183.9v.83h-.81v.79h-3.22v-.79h-.81v-4h.81v-.8h3.22v.8h.81v1.63h-.81v.79h-2.4v1.58h2.38v-.8Zm-3.21-3.18v1.58H374v-1.58Z" transform="translate(-141.76 -103.92)"/><path class="cls-1" d="M379.62,184.73h-.79v-1.61H378v-1.59h-.8V179.9h1.63v1.59h.8v1.61h.77v-3.2h1.63v1.63h-.8v2.4h-.79v2.4h-.81v.8H378V185.5h1.6Z" transform="translate(-141.76 -103.92)"/><path class="cls-1" d="M393.07,179.9v.8h.8v4.82h-1.63v-4.8h-.77v.81h-.8v4H389v-4.8h-.77v.81h-.8v4h-1.64V179.9h1.64v.8h.76v-.8h1.64v.8h1.57v-.8Z" transform="translate(-141.76 -103.92)"/><path class="cls-1" d="M395.43,179.9h1.64v4.8h1.57v-4.8h1.63v4.83h-.8v.79h-3.23v-.79h-.81Z" transform="translate(-141.76 -103.92)"/><path class="cls-1" d="M402.67,184.7h1.56v-.77h-.79v-.81h-.81v-.79h-.8V180.7h.8v-.8h3.23v1.63H405v-.81h-1.57v.77h.81v.81h.8v.8h.79v1.63h-.79v.79h-3.24v-1.63h.84Z" transform="translate(-141.76 -103.92)"/><path class="cls-1" d="M406.64,179.9h.79v-1.6h1.64v1.6h.8v.82h-.8v4.8h-1.64v-4.8h-.79Z" transform="translate(-141.76 -103.92)"/><path class="cls-1" d="M420.09,179.9v.8h.81v4.82h-1.63v-4.8h-.77v.81h-.81v4h-1.63v-4.8h-.77v.81h-.8v4h-1.63V179.9h1.63v.8h.77v-.8h1.63v.8h1.57v-.8Z" transform="translate(-141.76 -103.92)"/><path class="cls-1" d="M422.46,180.7h.8v-.8h3.23v.8h.8v4h-.8v.79h-3.23v-.79h-.8Zm1.63,0v4h1.57v-4Z" transform="translate(-141.76 -103.92)"/><path class="cls-1" d="M433.69,179.9v2.43h-.8v1.6h-.8v1.59h-1.63v-1.59h-.8v-1.6h-.81V179.9h1.64v2.4h.8v1.59h.77v-4Z" transform="translate(-141.76 -103.92)"/><path class="cls-1" d="M440.09,183.9v.83h-.81v.79h-3.23v-.79h-.8v-4h.8v-.8h3.23v.8h.81v1.63h-.81v.79h-2.4v1.58h2.38v-.8Zm-3.21-3.18v1.58h1.57v-1.58Z" transform="translate(-141.76 -103.92)"/><path class="cls-1" d="M443.86,182.3h.81v-.8h2.4v-.78h-2.4v-.82h3.23v.8h.8v4.82h-4v-.79h-.81Zm1.64,0v2.37h1.57v-2.37Z" transform="translate(-141.76 -103.92)"/><path class="cls-1" d="M449.47,179.9h.79v-1.6h1.63v1.6h.81v.82h-.81v4.8h-1.63v-4.8h-.79Z" transform="translate(-141.76 -103.92)"/><path class="cls-1" d="M454.89,179.9h.79v-1.6h1.64v1.6h.8v.82h-.8v4.8h-1.64v-4.8h-.79Z" transform="translate(-141.76 -103.92)"/><path class="cls-1" d="M460.52,181.53v4h-1.63v-8h1.63v3.2h.77v-.8h1.63v.8h.8v4.82h-1.63v-4.8h-.77v.81Z" transform="translate(-141.76 -103.92)"/><path class="cls-1" d="M470.12,183.9v.83h-.8v.79h-3.23v-.79h-.81v-4h.81v-.8h3.23v.8h.8v1.63h-.8v.79h-2.4v1.58h2.37v-.8Zm-3.2-3.18v1.58h1.57v-1.58Z" transform="translate(-141.76 -103.92)"/><path class="cls-1" d="M474.74,184.7h1.56v-.77h-.79v-.81h-.81v-.79h-.8V180.7h.8v-.8h3.23v1.63h-.83v-.81h-1.57v.77h.81v.81h.8v.8h.79v1.63h-.79v.79H473.9v-1.63h.84Z" transform="translate(-141.76 -103.92)"/><path class="cls-1" d="M481.14,185.52H479.5v-8h1.64Z" transform="translate(-141.76 -103.92)"/><path class="cls-1" d="M482.71,180.7h.8v-.8h3.23v.8h.8v4h-.8v.79h-3.23v-.79h-.8Zm1.63,0v4h1.57v-4Z" transform="translate(-141.76 -103.92)"/><path class="cls-1" d="M497.14,179.9v2.43h-.8v1.6h-.8v1.59H493.9v-1.59h-1.56v1.59h-1.63v-1.59h-.8v-1.6h-.81V179.9h1.64v2.4h.8v1.59h.77v-.79h.8v-.77h-.8V179.9h1.63v2.4h.8v1.59h.77v-4Z" transform="translate(-141.76 -103.92)"/><path class="cls-1" d="M503.54,183.9v.83h-.8v.79h-3.23v-.79h-.81v-4h.81v-.8h3.23v.8h.8v1.63h-.8v.79h-2.4v1.58h2.37v-.8Zm-3.2-3.18v1.58h1.57v-1.58Z" transform="translate(-141.76 -103.92)"/><path class="cls-1" d="M506.73,180.7h.77v-.8h.84v1.63h-1.61v4H505.1V179.9h1.63Z" transform="translate(-141.76 -103.92)"/><path class="cls-1" d="M515.35,180.7h.8v4h-.8v.79H513v1.61h-1.63V179.9h4Zm-2.4,0v4h1.57v-4Z" transform="translate(-141.76 -103.92)"/><path class="cls-1" d="M522.55,183.9v.83h-.81v.79h-3.22v-.79h-.81v-4h.81v-.8h3.22v.8h.81v1.63h-.81v.79h-2.4v1.58h2.38v-.8Zm-3.21-3.18v1.58h1.58v-1.58Z" transform="translate(-141.76 -103.92)"/><path class="cls-1" d="M525.74,180.7h.77v-.8h.84v1.63h-1.61v4h-1.63V179.9h1.63Z" transform="translate(-141.76 -103.92)"/><path class="cls-1" d="M528.94,184.7h1.56v-.77h-.79v-.81h-.8v-.79h-.81V180.7h.81v-.8h3.23v1.63h-.83v-.81h-1.57v.77h.8v.81h.8v.8h.8v1.63h-.8v.79H528.1v-1.63h.84Z" transform="translate(-141.76 -103.92)"/><path class="cls-1" d="M533.71,180.7h.8v-.8h3.23v.8h.8v4h-.8v.79h-3.23v-.79h-.8Zm1.63,0v4h1.57v-4Z" transform="translate(-141.76 -103.92)"/><path class="cls-1" d="M544.14,179.9v.8h.8v4.82h-1.63v-4.8h-.77v.81h-.8v4H540.1V179.9h1.64v.8h.76v-.8Z" transform="translate(-141.76 -103.92)"/><path class="cls-1" d="M547.34,179.93h-.84V177.5h.84Z" transform="translate(-141.76 -103.92)"/><path class="cls-1" d="M549.74,184.7h1.56v-.77h-.79v-.81h-.81v-.79h-.8V180.7h.8v-.8h3.23v1.63h-.83v-.81h-1.57v.77h.81v.81h.8v.8h.79v1.63h-.79v.79H548.9v-1.63h.84Z" transform="translate(-141.76 -103.92)"/><path class="cls-1" d="M146.57,195.1h.8v4h-.8v.79h-2.4v1.61h-1.63V194.3h4Zm-2.4,0v4h1.57v-4Z" transform="translate(-141.76 -103.92)"/><path class="cls-1" d="M148.93,196.7h.81v-.8h2.4v-.78h-2.4v-.82H153v.8h.8v4.82h-4v-.79h-.81Zm1.64,0v2.37h1.57v-2.37Z" transform="translate(-141.76 -103.92)"/><path class="cls-1" d="M156.13,199.92v-.79h-.8v-4h.8v-.8h3.23v1.63h-.83v-.81H157v4h1.57v-.8h.83v.83h-.79v.79Z" transform="translate(-141.76 -103.92)"/><path class="cls-1" d="M165.77,198.3v.83H165v.79h-3.23v-.79h-.81v-4h.81v-.8H165v.8h.8v1.63H165v.79h-2.4v1.58h2.37v-.8Zm-3.2-3.18v1.58h1.57v-1.58Z" transform="translate(-141.76 -103.92)"/><path class="cls-1" d="M169,199.92h-1.63v-1.63H169Z" transform="translate(-141.76 -103.92)"/><path class="cls-1" d="M172.14,191.9H177v.82h-1.6v7.2h-1.63v-7.2h-1.6Z" transform="translate(-141.76 -103.92)"/><path class="cls-1" d="M179.37,195.93v4h-1.64v-8h1.64v3.2h.76v-.8h1.64v.8h.8v4.82h-1.63v-4.8h-.77v.81Z" transform="translate(-141.76 -103.92)"/><path class="cls-1" d="M189,198.3v.83h-.81v.79h-3.23v-.79h-.8v-4h.8v-.8h3.23v.8H189v1.63h-.81v.79h-2.4v1.58h2.38v-.8Zm-3.21-3.18v1.58h1.57v-1.58Z" transform="translate(-141.76 -103.92)"/><path class="cls-1" d="M193.73,199.13h-.81v-4h.81v-.8h4v7.23h-1.63v-1.61h-2.4Zm.83-4v4h1.57v-4Z" transform="translate(-141.76 -103.92)"/><path class="cls-1" d="M199.32,194.3H201v4.8h1.57v-4.8h1.64v4.83h-.81v.79h-3.23v-.79h-.8Z" transform="translate(-141.76 -103.92)"/><path class="cls-1" d="M210.55,198.3v.83h-.8v.79h-3.23v-.79h-.8v-4h.8v-.8h3.23v.8h.8v1.63h-.8v.79h-2.4v1.58h2.38v-.8Zm-3.2-3.18v1.58h1.57v-1.58Z" transform="translate(-141.76 -103.92)"/><path class="cls-1" d="M213,199.1h1.56v-.77h-.79v-.81h-.8v-.79h-.81V195.1h.81v-.8h3.23v1.63h-.83v-.81h-1.57v.77h.8v.81h.8v.8h.8v1.63h-.8v.79h-3.24v-1.63H213Z" transform="translate(-141.76 -103.92)"/><path class="cls-1" d="M216.92,194.3h.8v-1.6h1.63v1.6h.8v.82h-.8v4.8h-1.63v-4.8h-.8Z" transform="translate(-141.76 -103.92)"/><path class="cls-1" d="M222.55,193.53h-1.63v-.83h1.63Zm0,6.39h-1.63V194.3h1.63Z" transform="translate(-141.76 -103.92)"/><path class="cls-1" d="M224.12,195.1h.81v-.8h3.23v.8h.8v4h-.8v.79h-3.23v-.79h-.81Zm1.64,0v4h1.57v-4Z" transform="translate(-141.76 -103.92)"/><path class="cls-1" d="M234.55,194.3v.8h.81v4.82h-1.63v-4.8H233v.81h-.81v4h-1.63V194.3h1.63v.8h.77v-.8Z" transform="translate(-141.76 -103.92)"/><path class="cls-1" d="M241,193.53h-1.63v-.83H241Zm0,6.39h-1.63V194.3H241Z" transform="translate(-141.76 -103.92)"/><path class="cls-1" d="M243.36,199.1h1.56v-.77h-.79v-.81h-.8v-.79h-.81V195.1h.81v-.8h3.22v1.63h-.82v-.81h-1.58v.77H245v.81h.8v.8h.79v1.63h-.79v.79h-3.24v-1.63h.84Z" transform="translate(-141.76 -103.92)"/><path class="cls-1" d="M248.12,199.92v-1.63h1.64v2.44H249v.8h-.85v-.84h.81v-.77Z" transform="translate(-141.76 -103.92)"/><path class="cls-1" d="M254.53,199.92v-.79h-.8v-4h.8v-.8h3.23v1.63h-.83v-.81h-1.57v4h1.57v-.8h.83v.83H257v.79Z" transform="translate(-141.76 -103.92)"/><path class="cls-1" d="M259.33,196.7h.81v-.8h2.4v-.78h-2.4v-.82h3.23v.8h.8v4.82h-4v-.79h-.81Zm1.64,0v2.37h1.57v-2.37Z" transform="translate(-141.76 -103.92)"/><path class="cls-1" d="M269.76,194.3v.8h.81v4.82h-1.64v-4.8h-.76v.81h-.81v4h-1.63V194.3h1.63v.8h.77v-.8Z" transform="translate(-141.76 -103.92)"/><path class="cls-1" d="M273.73,194.3h.79v-1.6h1.64v1.6h.8v.82h-.8v4.8h-1.64v-4.8h-.79Z" transform="translate(-141.76 -103.92)"/><path class="cls-1" d="M279.36,195.93v4h-1.63v-8h1.63v3.2h.77v-.8h1.63v.8h.81v4.82h-1.64v-4.8h-.76v.81Z" transform="translate(-141.76 -103.92)"/><path class="cls-1" d="M289,198.3v.83h-.8v.79h-3.23v-.79h-.81v-4h.81v-.8h3.23v.8h.8v1.63h-.8v.79h-2.4v1.58h2.37v-.8Zm-3.2-3.18v1.58h1.57v-1.58Z" transform="translate(-141.76 -103.92)"/><path class="cls-1" d="M292.92,199.13h-.79v-1.61h-.8v-1.59h-.81V194.3h1.63v1.59H293v1.61h.77v-3.2h1.63v1.63h-.81v2.4h-.79v2.4H293v.8h-1.63V199.9h1.59Z" transform="translate(-141.76 -103.92)"/><path class="cls-1" d="M299.32,196.7h.8v-.8h2.4v-.78h-2.4v-.82h3.23v.8h.8v4.82h-4v-.79h-.8Zm1.63,0v2.37h1.57v-2.37Z" transform="translate(-141.76 -103.92)"/><path class="cls-1" d="M307.35,199.92h-1.64v-8h1.64Z" transform="translate(-141.76 -103.92)"/><path class="cls-1" d="M310.55,199.92h-1.63v-8h1.63Z" transform="translate(-141.76 -103.92)"/><path class="cls-1" d="M317.73,199.92h-2.4v-.79h-.81v-4h.81v-.8h4.83v.82h-.8v5.61h-.81v.8h-3.22v-.84h2.4Zm-1.58-4.8v4h1.58v-4Z" transform="translate(-141.76 -103.92)"/><path class="cls-1" d="M325.75,198.3v.83H325v.79h-3.23v-.79h-.8v-4h.8v-.8H325v.8h.8v1.63H325v.79h-2.4v1.58h2.38v-.8Zm-3.2-3.18v1.58h1.57v-1.58Z" transform="translate(-141.76 -103.92)"/><path class="cls-1" d="M326.52,194.3h.79v-1.6H329v1.6h.8v.82H329v4.8h-1.64v-4.8h-.79Z" transform="translate(-141.76 -103.92)"/><path class="cls-1" d="M332.92,196.7h.8v-.8h2.4v-.78h-2.4v-.82H337v.8h.8v4.82h-4v-.79h-.8Zm1.63,0v2.37h1.57v-2.37Z" transform="translate(-141.76 -103.92)"/><path class="cls-1" d="M340.12,199.92v-.79h-.81v-4h.81v-.8h3.23v1.63h-.83v-.81H341v4h1.57v-.8h.83v.83h-.8v.79Z" transform="translate(-141.76 -103.92)"/><path class="cls-1" d="M346.55,195.1h.77v-.8h.84v1.63h-1.61v4h-1.63V194.3h1.63Z" transform="translate(-141.76 -103.92)"/><path class="cls-1" d="M348.91,195.1h.81v-.8H353v.8h.8v4H353v.79h-3.23v-.79h-.81Zm1.64,0v4h1.57v-4Z" transform="translate(-141.76 -103.92)"/><path class="cls-1" d="M356.15,199.1h1.56v-.77h-.79v-.81h-.81v-.79h-.8V195.1h.8v-.8h3.23v1.63h-.83v-.81h-1.57v.77h.81v.81h.8v.8h.79v1.63h-.79v.79h-3.24v-1.63h.84Z" transform="translate(-141.76 -103.92)"/><path class="cls-1" d="M361,199.1h1.56v-.77h-.79v-.81h-.81v-.79h-.8V195.1h.8v-.8h3.23v1.63h-.83v-.81h-1.57v.77h.81v.81h.8v.8h.79v1.63h-.79v.79h-3.24v-1.63H361Z" transform="translate(-141.76 -103.92)"/><path class="cls-1" d="M367.32,194.3h.79v-1.6h1.64v1.6h.8v.82h-.8v4.8h-1.64v-4.8h-.79Z" transform="translate(-141.76 -103.92)"/><path class="cls-1" d="M373,195.93v4h-1.63v-8H373v3.2h.77v-.8h1.63v.8h.8v4.82h-1.63v-4.8h-.77v.81Z" transform="translate(-141.76 -103.92)"/><path class="cls-1" d="M382.55,198.3v.83h-.8v.79h-3.23v-.79h-.81v-4h.81v-.8h3.23v.8h.8v1.63h-.8v.79h-2.4v1.58h2.37v-.8Zm-3.2-3.18v1.58h1.57v-1.58Z" transform="translate(-141.76 -103.92)"/><path class="cls-1" d="M388.14,194.3h2.4v.8h.81v4h-.81v.79h-4v-8h1.63Zm0,.82v4h1.57v-4Z" transform="translate(-141.76 -103.92)"/><path class="cls-1" d="M394.54,195.1h.77v-.8h.84v1.63h-1.61v4h-1.63V194.3h1.63Z" transform="translate(-141.76 -103.92)"/><path class="cls-1" d="M398.53,193.53H396.9v-.83h1.63Zm0,6.39H396.9V194.3h1.63Z" transform="translate(-141.76 -103.92)"/><path class="cls-1" d="M400.11,195.1h.8v-.8h2.4v-2.4h1.63v8h-4v-.79h-.8Zm1.63,0v4h1.57v-4Z" transform="translate(-141.76 -103.92)"/><path class="cls-1" d="M409.71,199.92h-2.4v-.79h-.81v-4h.81v-.8h4.83v.82h-.8v5.61h-.81v.8h-3.22v-.84h2.4Zm-1.58-4.8v4h1.58v-4Z" transform="translate(-141.76 -103.92)"/><path class="cls-1" d="M417.73,198.3v.83h-.8v.79H413.7v-.79h-.8v-4h.8v-.8h3.23v.8h.8v1.63h-.8v.79h-2.4v1.58h2.38v-.8Zm-3.2-3.18v1.58h1.57v-1.58Z" transform="translate(-141.76 -103.92)"/><path class="cls-1" d="M423.33,193.53h-1.64v-.83h1.64Zm0,6.39h-1.64V194.3h1.64Z" transform="translate(-141.76 -103.92)"/><path class="cls-1" d="M428.93,194.3v.8h.8v4.82H428.1v-4.8h-.77v.81h-.8v4H424.9V194.3h1.63v.8h.77v-.8Z" transform="translate(-141.76 -103.92)"/><path class="cls-1" d="M433.69,192.7h.81v-.8h1.63v8H434.5v-6.39h-.81Z" transform="translate(-141.76 -103.92)"/><path class="cls-1" d="M440.89,195.93h-2.4v-4h4v.82h-2.4v2.38h1.6v.79h.8v3.24h-.8v.79h-3.24v-.82h2.4Z" transform="translate(-141.76 -103.92)"/><path class="cls-1" d="M453.73,194.3v.8h.81v4.82h-1.63v-4.8h-.77v.81h-.81v4H449.7v-4.8h-.77v.81h-.8v4H446.5V194.3h1.63v.8h.77v-.8h1.63v.8h1.57v-.8Z" transform="translate(-141.76 -103.92)"/><path class="cls-1" d="M457.73,193.53H456.1v-.83h1.63Zm0,6.39H456.1V194.3h1.63Z" transform="translate(-141.76 -103.92)"/><path class="cls-1" d="M463.33,194.3v.8h.81v4.82h-1.63v-4.8h-.77v.81h-.81v4H459.3V194.3h1.63v.8h.77v-.8Z" transform="translate(-141.76 -103.92)"/><path class="cls-1" d="M465.7,194.3h1.63v4.8h1.57v-4.8h1.63v4.83h-.8v.79H466.5v-.79h-.8Z" transform="translate(-141.76 -103.92)"/><path class="cls-1" d="M471.3,194.3h.79v-1.6h1.64v1.6h.8v.82h-.8v4.8h-1.64v-4.8h-.79Z" transform="translate(-141.76 -103.92)"/><path class="cls-1" d="M480.13,198.3v.83h-.8v.79H476.1v-.79h-.8v-4h.8v-.8h3.23v.8h.8v1.63h-.8v.79h-2.4v1.58h2.38v-.8Zm-3.2-3.18v1.58h1.57v-1.58Z" transform="translate(-141.76 -103.92)"/><path class="cls-1" d="M482.53,199.1h1.56v-.77h-.79v-.81h-.8v-.79h-.81V195.1h.81v-.8h3.23v1.63h-.83v-.81h-1.57v.77h.8v.81h.8v.8h.8v1.63h-.8v.79h-3.24v-1.63h.84Z" transform="translate(-141.76 -103.92)"/><path class="cls-1" d="M489.7,195.1h.8v-.8h3.23v.8h.8v4h-.8v.79H490.5v-.79h-.8Zm1.63,0v4h1.57v-4Z" transform="translate(-141.76 -103.92)"/><path class="cls-1" d="M497.73,195.1h.76v-.8h.84v1.63h-1.6v4h-1.64V194.3h1.64Z" transform="translate(-141.76 -103.92)"/><path class="cls-1" d="M504.12,199.92h-1.63v-8h1.63Z" transform="translate(-141.76 -103.92)"/><path class="cls-1" d="M510.53,198.3v.83h-.8v.79H506.5v-.79h-.81v-4h.81v-.8h3.23v.8h.8v1.63h-.8v.79h-2.4v1.58h2.37v-.8Zm-3.2-3.18v1.58h1.57v-1.58Z" transform="translate(-141.76 -103.92)"/><path class="cls-1" d="M512.93,199.1h1.56v-.77h-.79v-.81h-.81v-.79h-.8V195.1h.8v-.8h3.23v1.63h-.83v-.81h-1.57v.77h.81v.81h.8v.8h.79v1.63h-.79v.79h-3.24v-1.63h.84Z" transform="translate(-141.76 -103.92)"/><path class="cls-1" d="M517.73,199.1h1.56v-.77h-.79v-.81h-.81v-.79h-.8V195.1h.8v-.8h3.23v1.63h-.83v-.81h-1.57v.77h.81v.81h.8v.8h.79v1.63h-.79v.79h-3.24v-1.63h.84Z" transform="translate(-141.76 -103.92)"/><path class="cls-1" d="M526.53,193.53h-1.64v-.83h.81v-.8h3.23v.8h.8v2.42h-.8v.81h-.8v.8h-.8v1.6h-.83v-2.44h.79v-.79h.81v-2.38h-1.57Zm1.6,6.39H526.5v-.82h1.63Z" transform="translate(-141.76 -103.92)"/></svg>