<svg id="Calque_1" data-name="Calque 1" xmlns="http://www.w3.org/2000/svg" viewBox="0 0 184.3 41.79"><defs><style>.cls-1{fill:#2d2150;}</style></defs><title>typotryagainfoncé</title><path class="cls-1" d="M501.3,393.81v-1.9h1.9v1.9Zm0,1.9v-1.9h1.9v1.9Zm1.9,20.9v-1.9h-1.9v-3.8h1.9v1.9H507v3.8Zm0-24.7V390h1.9v1.9Zm9.5,24.7v-1.9h-3.8v-1.9H507v-1.9h-3.8v-3.8h1.9v-1.9h5.7v1.9h3.8V409h1.9v1.9h1.9v1.9H526v-1.9h1.9v-3.8h-3.8v-1.9h3.8v1.9h1.9v5.7h-1.9v1.9H526v1.9Zm5.7-9.5V409h-1.9v-3.8h-1.9v-1.9h-1.9v-1.9h-1.9v-5.7h1.9v-1.9h3.8v-1.9h-1.9V390h-9.5v-1.9H507v-1.9h13.29v1.9h3.8V390H526v1.9h3.8v3.8h-1.9v1.9h-5.7v-1.9h-1.9v-1.9H518.4v5.7h1.89v1.9h1.9v3.8h-1.9v1.9Zm3.79,1.9v-1.9h1.9V409Zm9.5-20.9v3.8h-1.9V390H526v-3.8h3.8v1.9Z" transform="translate(-501.3 -382.41)"/><path class="cls-1" d="M539.3,418.51v-1.9h-3.8v-1.9h-1.9v-1.9h1.9v-13.3h-1.9v-3.8h1.9v-1.9h1.9v-1.9h1.9v1.9h1.9v1.9h1.9v-1.9H545v-1.9h1.9v1.9h1.89v5.7H546.9v1.9H545v-1.9h-1.9v-1.9h-1.9v13.3h1.9v1.9H545v1.9h-1.9v1.9h-1.9v1.9Z" transform="translate(-501.3 -382.41)"/><path class="cls-1" d="M560.2,414.71v1.9h-1.9v1.9h-1.9v-1.9h-3.8v-1.9h-1.9v-1.9h1.9v-17.1h-1.9V390h1.9v-1.9h3.8V390h-1.9v1.9h1.9v1.9h1.9v1.9h1.9v1.9h-1.9v13.3h1.9v1.9h1.9v1.9Zm1.9,7.6v1.9h-1.9v-3.8h1.9v-3.8H564v-17.1h-1.9v-3.8h-1.9v-1.9h1.9v-1.9h3.8v1.9h1.89v3.8h1.9v13.3h-1.9v5.7H565.9v3.8H564v1.9Z" transform="translate(-501.3 -382.41)"/><path class="cls-1" d="M594.39,414.71h-1.9v1.9h-1.9v1.9h-1.9v-1.9h-1.9v-1.9H584.9v1.9H583v1.9h-1.9v-1.9h-1.9v-1.9h-1.9v-13.3h1.9v-1.9h1.9v-1.9H583v13.3h1.9v1.9h1.89v-13.3H584.9v-1.9H583v-1.9h1.9v-1.9h1.89v-1.9h1.9v1.9h1.9v1.9h3.8v1.9h-1.9v15.2h1.9Z" transform="translate(-501.3 -382.41)"/><path class="cls-1" d="M609.59,418.51h-1.9v-1.9h-1.9v-1.9H603.9v1.9H602v1.9h-1.9v-1.9h-1.9v-1.9h-1.9v-13.3h1.9v-1.9h1.9v-1.9H602v13.3h1.9v1.9h1.89v-13.3H603.9v-1.9H602v-1.9h1.9v-1.9h1.89v-1.9h1.9v1.9h1.9v1.9h3.8v1.9h-1.9v17.1h1.9v1.9h1.9v5.7h-1.9v1.9H598.2v-1.9h-1.9v-3.8h3.8v1.9H602v1.9h7.59v-3.8Z" transform="translate(-501.3 -382.41)"/><path class="cls-1" d="M632.39,414.71h-1.9v1.9h-1.9v1.9h-1.9v-1.9h-1.9v-1.9H622.9v1.9H621v1.9h-1.9v-1.9h-1.9v-1.9h-1.9v-13.3h1.9v-1.9h1.9v-1.9H621v13.3h1.9v1.9h1.89v-13.3H622.9v-1.9H621v-1.9h1.9v-1.9h1.89v-1.9h1.9v1.9h1.9v1.9h3.8v1.9h-1.9v15.2h1.9Z" transform="translate(-501.3 -382.41)"/><path class="cls-1" d="M640,418.51v-1.9h-1.9v-1.9h-1.9v-15.2h-1.9v-3.8h1.9v-1.9h1.9v-1.9H640v1.9h1.9v1.9h1.89v1.9H641.9v13.3h1.89v1.9h1.9v1.9h-1.9v1.9H641.9v1.9Zm-3.8-32.3v-3.8h5.7v5.7H640V390h-1.9v-3.8Z" transform="translate(-501.3 -382.41)"/><path class="cls-1" d="M657.09,399.51v13.3H659v1.9h-1.9v1.9H655.2v1.9h-1.91v-1.9H651.4v-1.9h-1.9v-1.9h1.9v-13.3h-1.9v-1.9h-1.9v-1.9h1.9v-1.9h1.9v-1.9h1.89v1.9h1.91v1.9h1.89v1.9H659v1.9Zm9.5,0v13.3h1.9v1.9h-1.9v1.9h-1.9v1.9h-1.9v-1.9h-1.9v-19H659v-3.8h1.9v-1.9h1.9v1.9h1.9v1.9h1.9v1.9h1.9v1.9Z" transform="translate(-501.3 -382.41)"/><path class="cls-1" d="M683.7,388.11V390h1.89v17.1H683.7V409h-1.91v-7.6H679.9v-13.3h3.8Zm1.89,24.7v3.8H683.7v1.9h-1.91v-1.9H679.9v-3.8h1.89v-1.9h1.91v1.9Z" transform="translate(-501.3 -382.41)"/></svg>