<svg id="Calque_1" data-name="Calque 1" xmlns="http://www.w3.org/2000/svg" viewBox="0 0 176.7 36.09"><defs><style>.cls-1{fill:#2e2150;}</style></defs><title>typowelcomefoncé</title><path class="cls-1" d="M549.29,448.2v1.9h1.9v9.5h-1.9v3.8h-1.9v1.9h-1.9v-9.5h-1.9v-1.9h-1.9V452h-1.9v-1.9H536V452h3.8v1.9h1.9v1.9h1.9v7.6h-1.9v1.9H536v-1.9h-1.9v-3.8H536v3.8h3.8v-1.9h-1.9v-1.9H536v-1.9h-1.9v-1.9h-1.9v-5.7h1.9v-1.9h3.8v-1.9h7.6v1.9h3.8Zm-9.5,22.8v3.8h-1.9v1.9h-3.8v-1.9h-1.9v-5.7h1.9V471h5.7Zm-5.7-1.9v-1.9h9.5v-1.9h1.9v1.9h1.9v1.9h1.9V471h3.8v1.9h3.79V471h1.9v-1.9h-1.9v-5.7H555v-3.8h-1.9V452H555v-1.9h-1.9v-1.9h-3.8v-1.9H555v3.8h1.89v-3.8h1.9v1.9h1.9v1.9h-1.9V452h1.9v3.8h1.9v9.5h-1.9v3.8h1.9V471h1.9v1.9h1.9v1.9h3.8v1.9h-11.4v-1.9h-1.9v1.9h-9.49v-1.9h-3.8v-1.9h-1.9V471h-1.9v-1.9Zm26.59-20.9v-1.9h7.6v1.9h3.8V452h3.8v1.9h-3.8v1.9h-1.9v1.9h-1.9v1.9h1.9v1.9H574v1.9h1.9V471H574v1.9h-1.9v1.9h-1.9v-5.7h-1.9v-1.9h-1.9v-1.9h-1.9v-7.6h1.9v-1.9h1.9v-1.9h-1.9V452h-1.9v-3.8Z" transform="translate(-532.19 -442.5)"/><path class="cls-1" d="M583.49,478.6v-1.9h-1.9v-1.9h-1.9v-1.9h-1.9V459.6h1.9v-1.9h1.9v-1.9h1.9v7.6h1.9v1.9h-1.9v3.8h1.9V471h1.9v1.9h1.9v1.9h-1.9v1.9h-1.9v1.9Zm3.8-17.1v-1.9h-1.9v-3.8h-1.9v-1.9h1.9V452h3.8v1.9h1.9v3.8H593v1.9h-1.9v1.9Zm-1.9,1.9v-1.9h1.9v1.9Z" transform="translate(-532.19 -442.5)"/><path class="cls-1" d="M596.79,461.5V446.3h-1.9v-1.9h1.9v1.9h1.9v-1.9h1.9v-1.9h3.8v1.9h-1.9V471h1.9v1.9h1.9v1.9h-1.9v1.9h-1.9v1.9h-1.9v-1.9h-1.9v-1.9h-1.9v-1.9h-1.9V471h1.9Z" transform="translate(-532.19 -442.5)"/><path class="cls-1" d="M613.89,478.6v-1.9H612v-1.9h-1.9v-1.9h-1.9V459.6h1.9v-1.9H612v-1.9h1.9v13.3h1.9V471h1.9v1.9h1.9v1.9h-1.9v1.9h-1.9v1.9Zm0-22.8v-1.9h1.9v1.9Zm3.8,5.7v-1.9h-1.9V452h3.8v1.9h1.9v1.9h1.9v1.9h-1.9v1.9h-1.9v1.9Zm1.9,11.4V471h1.9v1.9Z" transform="translate(-532.19 -442.5)"/><path class="cls-1" d="M631,478.6v-1.9h-3.8v-1.9h-1.9v-1.9h1.9V459.6h1.9v-1.9H631v-1.9h1.9V471h1.9v1.9h1.9v1.9h-1.9v1.9h-1.9v1.9Zm7.6-7.6v1.9h-1.9V457.7h-1.9v-1.9h-1.9v-1.9h1.9V452h3.8v1.9h1.9v1.9h1.9v13.3h-1.9V471Z" transform="translate(-532.19 -442.5)"/><path class="cls-1" d="M655.69,459.6h-1.9v13.3h1.9v1.9h-1.9v1.9h-1.9v1.9H650v-1.9h-1.9v-1.9h-1.9v-1.9h1.9V459.6h-1.9v-1.9h-1.9v-1.9h1.9v-1.9h1.9V452H650v1.9h1.9v1.9h1.9v1.9h1.9Zm9.5,0h-1.9v13.3h1.9v1.9h-1.9v1.9h-1.9v1.9h-1.9v-1.9h-1.9v-19h-1.9v-3.8h1.9V452h1.9v1.9h1.9v1.9h1.9v1.9h1.9Zm9.49,0h-1.9v13.3h1.9v1.9h-1.9v1.9h-1.9v1.9H669v-1.9h-1.9v-19h-1.9v-3.8h1.9V452H669v1.9h1.89v1.9h1.9v1.9h1.9Z" transform="translate(-532.19 -442.5)"/><path class="cls-1" d="M682.29,478.6v-1.9h-1.9v-1.9h-1.9v-1.9h-1.9V459.6h1.9v-1.9h1.9v-1.9h1.9v7.6h1.9v1.9h-1.9v3.8h1.9V471h1.9v1.9H688v1.9h-1.9v1.9h-1.9v1.9Zm3.8-17.1v-1.9h-1.9v-3.8h-1.9v-1.9h1.9V452H688v1.9h1.9v3.8h1.9v1.9h-1.9v1.9Zm-1.9,1.9v-1.9h1.9v1.9Z" transform="translate(-532.19 -442.5)"/><path class="cls-1" d="M707,448.2v1.9h1.9v17.1H707v1.9h-1.9v-7.6h-1.9V448.2H707Zm1.9,24.7v3.8H707v1.9h-1.9v-1.9h-1.9v-3.8h1.9V471H707v1.9Z" transform="translate(-532.19 -442.5)"/></svg>