<?xml version="1.0" encoding="utf-8"?>
<!-- Generator: Adobe Illustrator 25.2.0, SVG Export Plug-In . SVG Version: 6.00 Build 0)  -->
<svg version="1.1" xmlns="http://www.w3.org/2000/svg" xmlns:xlink="http://www.w3.org/1999/xlink" x="0px" y="0px"
	 viewBox="0 0 814.6 223.2" style="enable-background:new 0 0 814.6 223.2;" xml:space="preserve">
<style type="text/css">
	.st0{fill:#F29D14;}
	.st1{fill:#F2C373;}
</style>
<g id="Calque_1">
	<path class="st0" d="M77.4,77.7h-9.7V68H58v-9.7h-9.7v-9.7H28.9v9.7h19.4v9.7H58v9.7h9.7v38.8H58v9.7h19.4v9.7h9.7v9.7h9.7v9.7h9.7
		v9.7h-9.7v9.7h-9.7v9.7h-9.7v-9.7h-9.7v-9.7H58v-9.7H28.9v-9.7h19.4V136H58v-9.7H28.9v-9.7h-9.7V97.2h9.7v19.4h19.4v-9.7h-9.7v-9.7
		h-9.7v-9.7h-9.7v-9.7H9.5V48.7h9.7V39h19.4v-9.7h48.5V39h9.7v9.7h9.7v48.5h-9.7v19.4h-9.7v9.7h-9.7L77.4,77.7L77.4,77.7z
		 M125.9,77.7h-9.7V48.7h-9.7V39h9.7v-9.7h48.5V39H155v38.8h9.7v87.3H155v29.1h-9.7v9.7h-9.7v9.7h-19.4v9.7H48.3v-9.7H28.9v-9.7
		h-9.7v-29.1h9.7v-9.7h19.4v9.7H58v29.1h9.7v9.7h38.8v-9.7h9.7v-19.4h9.7L125.9,77.7L125.9,77.7z M116.2,155.3h-9.7v-9.7h9.7V155.3z
		"/>
	<path class="st0" d="M203.5,194.1v-9.7h-19.4v-9.7h-9.7V165h9.7V97.1h9.7v-9.7h9.7v-9.7h9.7v77.6h9.7v9.7h9.7v9.7h-9.7v9.7h-9.7
		v9.7H203.5z M242.3,155.3v9.7h-9.7V87.4h-9.7v-9.7h-9.7V68h9.7v-9.7h19.4V68h9.7v9.7h9.7v67.9H252v9.7L242.3,155.3z"/>
	<path class="st0" d="M358.7,87.4V165h9.7v9.7h-9.7v9.7H349v9.7h-9.7v-9.7h-9.7v-9.7h-9.7v9.7h-9.7v9.7h-9.7v-9.7h-9.7v-9.7h-9.7
		V97.1h-9.7V77.7h9.7V68h9.7v-9.7h9.7V68h9.7v87.3h9.7v9.7h9.7V97.1h-9.7V77.7h9.7V68h9.7v-9.7h9.7V68h9.7v9.7h9.7v9.7L358.7,87.4z"
		/>
	<path class="st0" d="M494.5,38.9v9.7h9.7v48.5h-9.7v19.4h-9.7v9.7h-9.7V77.8h-9.7v-9.7h-9.7v-9.7H446v-9.7h-19.4v9.7H446v9.7h9.7
		v9.7h9.7v38.8h-9.7v9.7h-29.1v-9.7h-9.7V97.2h9.7v19.4H446v-9.7h-9.7v-9.7h-9.7v-9.7h-9.7v-9.7h-9.7V48.7h9.7V39h19.4v-9.7h38.8V39
		L494.5,38.9L494.5,38.9z M446,155.3v19.4h-9.7v9.7h-19.4v-9.7h-9.7v-29.1h9.7v9.7L446,155.3L446,155.3z M416.9,145.7V136h48.5v-9.7
		h9.7v9.7h9.7v9.7h9.7v9.7h19.4v9.7h19.4v-9.7h9.7v-9.7h-9.7v-29.1h-9.7V97.2h-9.7V58.4h9.7v-9.7h-9.7V39h-19.4v-9.7h29.1v19.4h9.7
		V29.3h9.7V39h9.7v9.7H543v9.7h9.7v19.4h9.7v48.5h-9.7v19.4h9.7v9.7h9.7v9.7h9.7v9.7h19.4v9.7H543v-9.7h-9.7v9.7h-48.5v-9.7h-19.4
		v-9.7h-9.7v-9.7H446v-9.7H416.9z M552.7,39v-9.7h38.8V39h19.4v19.4h19.4v9.7h-19.4v9.7h-9.7v9.7h-9.7v9.7h9.7v9.7h19.4v9.7h9.7
		v38.8h-9.7v9.7h-9.7v9.7h-9.7v-29.1h-9.7V136h-9.7v-9.7h-9.7V87.5h9.7v-9.7h9.7v-9.7h-9.7v-9.7h-9.7V39L552.7,39z"/>
	<path class="st0" d="M669.1,194.1v-9.7h-9.7v-9.7h-9.7V97.1H640V77.7h9.7V68h9.7v-9.7h9.7V68h9.7v9.7h9.7v9.7h-9.7v67.9h9.7v9.7
		h9.7v9.7h-9.7v9.7h-9.7v9.7L669.1,194.1z M649.7,29.2V9.8h29.1v29.1h-9.7v9.7h-9.7V29.3L649.7,29.2z"/>
	<path class="st0" d="M756.4,97.1V165h9.7v9.7h-9.7v9.7h-9.7v9.7H737v-9.7h-9.7v-9.7h-9.7V165h9.7V97.1h-9.7v-9.7h-9.7v-9.7h9.7V68
		h9.7v-9.7h9.7V68h9.7v9.7h9.7v9.7h9.7v9.7H756.4z M804.9,97.1V165h9.7v9.7h-9.7v9.7h-9.7v9.7h-9.7v-9.7h-9.7v-97h-9.7V68h9.7v-9.7
		h9.7V68h9.7v9.7h9.7v9.7h9.7v9.7L804.9,97.1z"/>
</g>
<g id="Calque_2">
	<path class="st1" d="M67.9,67.9h-9.7v-9.7h-9.7v-9.7h-9.7v-9.7H19.4v9.7h19.4v9.7h9.7v9.7h9.7v38.8h-9.7v9.7h19.4v9.7h9.7v9.7h9.7
		v9.7H97v9.7h-9.7v9.7h-9.7v9.7h-9.7v-9.7h-9.7v-9.7h-9.7v-9.7H19.4v-9.7h19.4v-9.7h9.7v-9.7H19.4v-9.7H9.7V87.3h9.7v19.4h19.4V97
		h-9.7v-9.7h-9.7v-9.7H9.7v-9.7H0V38.8h9.7v-9.7h19.4v-9.7h48.5v9.7h9.7v9.7H97v48.5h-9.7v19.4h-9.7v9.7h-9.7V67.9L67.9,67.9z
		 M116.4,67.9h-9.7V38.8H97v-9.7h9.7v-9.7h48.5v9.7h-9.7v38.8h9.7v87.3h-9.7v29.1h-9.7v9.7h-9.7v9.7h-19.4v9.7H38.8v-9.7H19.4V194
		H9.7v-29.1h9.7v-9.7h19.4v9.7h9.7V194h9.7v9.7H97V194h9.7v-19.4h9.7L116.4,67.9L116.4,67.9z M106.7,145.5H97v-9.7h9.7V145.5z"/>
	<path class="st1" d="M194,184.3v-9.7h-19.4v-9.7h-9.7v-9.7h9.7V87.3h9.7v-9.7h9.7v-9.7h9.7v77.6h9.7v9.7h9.7v9.7h-9.7v9.7h-9.7v9.7
		H194z M232.8,145.5v9.7h-9.7V77.6h-9.7v-9.7h-9.7v-9.7h9.7v-9.7h19.4v9.7h9.7v9.7h9.7v67.9h-9.7v9.7H232.8z"/>
	<path class="st1" d="M349.2,77.6v77.6h9.7v9.7h-9.7v9.7h-9.7v9.7h-9.7v-9.7h-9.7v-9.7h-9.7v9.7h-9.7v9.7H291v-9.7h-9.7v-9.7h-9.7
		V87.3h-9.7V67.9h9.7v-9.7h9.7v-9.7h9.7v9.7h9.7v87.3h9.7v9.7h9.7V87.3h-9.7V67.9h9.7v-9.7h9.7v-9.7h9.7v9.7h9.7v9.7h9.7v9.7
		L349.2,77.6z"/>
	<path class="st1" d="M485,29.1v9.7h9.7v48.5H485v19.4h-9.7v9.7h-9.7V67.9h-9.7v-9.7h-9.7v-9.7h-9.7v-9.7h-19.4v9.7h19.4v9.7h9.7
		v9.7h9.7v38.8h-9.7v9.7h-29.1v-9.7h-9.7V87.3h9.7v19.4h19.4V97h-9.7v-9.7h-9.7v-9.7h-9.7v-9.7h-9.7V38.8h9.7v-9.7h19.4v-9.7h38.8
		v9.7L485,29.1L485,29.1z M436.5,145.5v19.4h-9.7v9.7h-19.4v-9.7h-9.7v-29.1h9.7v9.7H436.5L436.5,145.5z M407.4,135.8v-9.7h48.5
		v-9.7h9.7v9.7h9.7v9.7h9.7v9.7h19.4v9.7h19.4v-9.7h9.7v-9.7h-9.7v-29.1h-9.7V87.3h-9.7V48.5h9.7v-9.7h-9.7v-9.7H485v-9.7h29.1v19.4
		h9.7V19.4h9.7v9.7h9.7v9.7h-9.7v9.7h9.7v19.4h9.7v48.5h-9.7v19.4h9.7v9.7h9.7v9.7h9.7v9.7h19.4v9.7h-58.2v-9.7h-9.7v9.7h-48.5v-9.7
		h-19.4v-9.7h-9.7v-9.7h-9.7v-9.7L407.4,135.8z M543.2,29.1v-9.7H582v9.7h19.4v19.4h19.4v9.7h-19.4v9.7h-9.7v9.7H582v9.7h9.7V97
		h19.4v9.7h9.7v38.8h-9.7v9.7h-9.7v9.7h-9.7v-29.1H582v-9.7h-9.7v-9.7h-9.7V77.6h9.7v-9.7h9.7v-9.7h-9.7v-9.7h-9.7V29.1L543.2,29.1z
		"/>
	<path class="st1" d="M659.6,184.3v-9.7h-9.7v-9.7h-9.7V87.3h-9.7V67.9h9.7v-9.7h9.7v-9.7h9.7v9.7h9.7v9.7h9.7v9.7h-9.7v67.9h9.7
		v9.7h9.7v9.7H679v9.7h-9.7v9.7L659.6,184.3z M640.2,19.4V0h29.1v29.1h-9.7v9.7h-9.7V19.4L640.2,19.4z"/>
	<path class="st1" d="M746.9,87.3v67.9h9.7v9.7h-9.7v9.7h-9.7v9.7h-9.7v-9.7h-9.7v-9.7h-9.7v-9.7h9.7V87.3h-9.7v-9.7h-9.7v-9.7h9.7
		v-9.7h9.7v-9.7h9.7v9.7h9.7v9.7h9.7v9.7h9.7v9.7H746.9z M795.4,87.3v67.9h9.7v9.7h-9.7v9.7h-9.7v9.7H776v-9.7h-9.7v-97h-9.7V58.2
		h9.7v-9.7h9.7v9.7h9.7v9.7h9.7v9.7h9.7v9.7L795.4,87.3z"/>
</g>
</svg>
