<?xml version="1.0" encoding="utf-8"?>
<!-- Generator: Adobe Illustrator 25.2.0, SVG Export Plug-In . SVG Version: 6.00 Build 0)  -->
<svg version="1.1" id="Calque_1" xmlns="http://www.w3.org/2000/svg" xmlns:xlink="http://www.w3.org/1999/xlink" x="0px" y="0px"
	 viewBox="0 0 119.9 73.5" style="enable-background:new 0 0 119.9 73.5;" xml:space="preserve">
<style type="text/css">
	.st0{fill:#8473B2;}
	.st1{fill:#2E2150;}
	.st2{fill:#FFFFFF;}
</style>
<rect x="101.5" y="45.9" class="st0" width="0" height="0"/>
<rect x="101.5" y="45.9" class="st0" width="0" height="0"/>
<rect x="110.7" y="45.9" class="st0" width="0" height="0"/>
<path class="st1" d="M110.7,27.6L110.7,27.6L110.7,27.6L110.7,27.6L110.7,27.6v-9.2h-9.2V9.2h-9.2v9.2h-0.1V0H27.6v9.2h-9.2v9.2H9.2
	v9.2H0v18.3h18.4l0,0H9.3v9.2h9.2v9.2h9.2l0,0l0,0l0,0l0,0v9.1h64.5v-9.2h9.3v-9.2h9.2v-9.2h9.2V27.6H110.7z M101.5,45.9L101.5,45.9
	L101.5,45.9L101.5,45.9z"/>
<rect x="27.6" y="64.4" class="st0" width="0.1" height="1.3"/>
<rect x="27.7" y="64.3" class="st0" width="0" height="0"/>
<rect x="27.7" y="64.3" class="st0" width="0" height="0"/>
<rect x="110.7" y="27.6" class="st0" width="0" height="0"/>
<rect x="27.7" y="64.3" class="st0" width="0" height="0"/>
<rect x="110.7" y="27.6" class="st0" width="0" height="0"/>
<rect x="101.5" y="45.9" class="st0" width="0" height="0"/>
<polygon class="st0" points="36.8,8.9 82.9,8.9 82.7,18.5 92.2,18.4 92.1,27.6 101.3,27.6 101.4,45.9 92.1,45.9 92.1,55.2 
	82.9,55.2 82.9,64.5 36.9,64.5 36.9,55.1 27.6,55.1 27.6,45.9 18.4,46 18.4,27.7 27.3,27.7 27.3,18.5 36.7,18.5 "/>
<path class="st2" d="M53.5,25.8v1.4h-1.4V30h-1.4v2.9h-1.4v9.9h1.4v1.5h-5.8v-1.5h1.4v-8.5h-1.4v-2.9h-1.4v-2.9h-1.4v-2.9h-1.5v-1.5
	h5.8v1.5H45v1.4h1.4V30h1.5v2.9h1.4V30h1.4v-2.9h1.4v-1.4h-1.4v-1.5H55v1.5H53.5z"/>
<path class="st2" d="M65,41.5v1.4h-1.5v1.4h-5.8v-1.4h-1.4v-1.4h-1.4v-8.6h1.4v-1.4h1.4V30h5.8v1.4H65v1.4h1.4v4.4h-8.6v4.2h1.4v1.4
	h4.3v-1.4L65,41.5l0-1.5h1.5v1.5L65,41.5z M63.5,32.9h-1.4v-1.4h-2.8v1.4h-1.4v2.8h5.7V32.9z"/>
<path class="st2" d="M76.4,42.9v1.4h-7.2v-2.9h1.5v1.4h4.2V40h-1.4v-1.4h-1.4v-1.4h-1.4v-1.4h-1.4v-4.4h1.4V30h7.2v2.9h-1.5v-1.4
	h-4.2v2.8h1.4v1.4H75v1.5h1.4v1.4h1.4v4.3L76.4,42.9z"/>
</svg>
