<svg id="Calque_1" data-name="Calque 1" xmlns="http://www.w3.org/2000/svg" viewBox="0 0 482.76 234.7"><defs><style>.cls-1{fill:#2e2150;}</style></defs><title>texte de lerde</title><path class="cls-1" d="M252.32,165.14v1h1v3h-1v1h-1v1h-3v1h-1v-1h-1v-1h-2v-1h-1v-1h-3v1h-1v2h1v1h3v1h-3v-1h-1v-1h-1v-4h1v-1h1v-1h5v1h1v1h1v1h3v-1h1v-1h-2v-1Zm-13,16v-3h1v-1h-1v-2h1v2h1v-1h1v-1h-2v-1h3v1h1v4h-1v2h-1v2h1v1h4v-1h1v-2h-1v-2h-1v-2h-1v-4h1v-1h1v2h1v1h1v1h1v2h1v4h-1v2h-1v1h-8v-1h-1v-1h-1v-2Zm5-10v1h-1v-1Zm5-5v1h-1v-1Zm3,10h-2v-1h-1v-1h-1v-1h3v1h1Zm1-2h-1v-1h1Z" transform="translate(-179.62 -165.14)"/><path class="cls-1" d="M259.69,171.78v1.34H261v6.72h-1.32v1.32h-2.76v-1.32h-1.32v-6.72h1.32v-1.34Zm-2.7,8h2.64v-6.62H257Z" transform="translate(-179.62 -165.14)"/><path class="cls-1" d="M263.61,171.78H265v8h2.64v-8H269v9.38h-4.08v-1.32h-1.32Z" transform="translate(-179.62 -165.14)"/><path class="cls-1" d="M275.67,171.78v1.38h-1.34v1.34H273v6.66h-1.38v-9.38H273v1.34h1.3v-1.34Z" transform="translate(-179.62 -165.14)"/><path class="cls-1" d="M289,171.78v1.34h1.32v8H289v-8h-2.62v8H285v-8h-2.62v8H281v-9.38H285v1.34h1.26v-1.34Z" transform="translate(-179.62 -165.14)"/><path class="cls-1" d="M297,171.78v1.34h1.32v6.72H297v1.32h-2.76v-1.32H293v-6.72h1.32v-1.34Zm-2.7,8H297v-6.62h-2.64Z" transform="translate(-179.62 -165.14)"/><path class="cls-1" d="M302.33,181.16H301v-9.38H305v1.34h1.32v8H305v-8h-2.64Z" transform="translate(-179.62 -165.14)"/><path class="cls-1" d="M314.35,171.78v2.72H313v1.34h-1.34v1.28H313v1.32h1.32v2.72H313V178.5h-1.34v-1.34h-1.3v4H309V167.78h1.38v8h1.3v-1.34H313v-2.66Z" transform="translate(-179.62 -165.14)"/><path class="cls-1" d="M318.33,175.78H321v1.34h1.32v2.72H321v1.32h-2.76v-1.32H317v-1.38h1.38v1.32H321v-2.62h-2.7v-1.32H317v-2.72h1.32v-1.34H321v1.34h1.32v1.38H321v-1.34h-2.64Z" transform="translate(-179.62 -165.14)"/><path class="cls-1" d="M330.27,171.78H333v1.34h1.32v8h-4.08v-1.32H329v-4.06h1.32v-1.32H333v-1.3h-2.7Zm2.7,4.06h-2.64v3.94H333Z" transform="translate(-179.62 -165.14)"/><path class="cls-1" d="M341,171.78v1.38h-1.34v1.34h-1.34v6.66H337v-9.38h1.38v1.34h1.3v-1.34Z" transform="translate(-179.62 -165.14)"/><path class="cls-1" d="M346.35,171.78v1.38H345v1.34h-1.34v6.66h-1.38v-9.38h1.38v1.34H345v-1.34Z" transform="translate(-179.62 -165.14)"/><path class="cls-1" d="M349,170.5h-1.38v-1.38H349Zm0,10.66h-1.38v-9.38H349Z" transform="translate(-179.62 -165.14)"/><path class="cls-1" d="M358.35,171.78v2.72H357v4h-1.32v2.66h-1.4V178.5H353v-4h-1.32v-2.72H353v2.66h1.34v4h1.3v-4H357v-2.66Z" transform="translate(-179.62 -165.14)"/><path class="cls-1" d="M365.05,171.78v1.34h1.32v4h-4v2.62H365v-1.32h1.38v1.38h-1.32v1.32h-2.76v-1.32H361v-6.72h1.32v-1.34Zm-2.7,4H365v-2.62h-2.64Z" transform="translate(-179.62 -165.14)"/><path class="cls-1" d="M374.29,171.78h2.76v1.34h1.32v8h-4.08v-1.32H373v-4.06h1.32v-1.32H377v-1.3h-2.7Zm2.7,4.06h-2.64v3.94H377Z" transform="translate(-179.62 -165.14)"/><path class="cls-1" d="M381,171.78h1.34v-2.66h1.38v2.66H385v1.38h-1.34v8h-1.38v-8H381Z" transform="translate(-179.62 -165.14)"/><path class="cls-1" d="M393,171.78h2.76v1.34H397v8H393v-1.32h-1.32v-4.06H393v-1.32h2.7v-1.3H393Zm2.7,4.06H393v3.94h2.64Z" transform="translate(-179.62 -165.14)"/><path class="cls-1" d="M407.69,171.78v1.38h-1.34v1.34H405v6.66h-1.38v-9.38H405v1.34h1.3v-1.34Z" transform="translate(-179.62 -165.14)"/><path class="cls-1" d="M410.35,170.5H409v-1.38h1.38Zm0,10.66H409v-9.38h1.38Z" transform="translate(-179.62 -165.14)"/><path class="cls-1" d="M419.69,171.78v2.72h-1.32v4h-1.32v2.66h-1.4V178.5h-1.36v-4H413v-2.72h1.38v2.66h1.34v4H417v-4h1.32v-2.66Z" transform="translate(-179.62 -165.14)"/><path class="cls-1" d="M426.39,171.78v1.34h1.32v4h-4v2.62h2.64v-1.32h1.38v1.38h-1.32v1.32h-2.76v-1.32h-1.32v-6.72h1.32v-1.34Zm-2.7,4h2.64v-2.62h-2.64Z" transform="translate(-179.62 -165.14)"/><path class="cls-1" d="M434.37,171.78v1.38H433v1.34h-1.34v6.66h-1.38v-9.38h1.38v1.34H433v-1.34Z" transform="translate(-179.62 -165.14)"/><path class="cls-1" d="M441,171.78h2.76v1.34h1.32v8H441v-1.32h-1.32v-4.06H441v-1.32h2.7v-1.3H441Zm2.7,4.06H441v3.94h2.64Z" transform="translate(-179.62 -165.14)"/><path class="cls-1" d="M447.65,171.78H449v-2.66h1.38v2.66h1.34v1.38h-1.34v8H449v-8h-1.34Z" transform="translate(-179.62 -165.14)"/><path class="cls-1" d="M462.33,171.78v-4h1.38v13.38h-4.08v-1.32h-1.32v-6.72h1.32v-1.34Zm0,1.38h-2.64v6.62h2.64Z" transform="translate(-179.62 -165.14)"/><path class="cls-1" d="M466.31,171.78h1.38v8h2.64v-8h1.38v9.38h-4.08v-1.32h-1.32Z" transform="translate(-179.62 -165.14)"/><path class="cls-1" d="M475.69,175.78h2.7v1.34h1.32v2.72h-1.32v1.32h-2.76v-1.32h-1.32v-1.38h1.38v1.32h2.64v-2.62h-2.7v-1.32h-1.32v-2.72h1.32v-1.34h2.76v1.34h1.32v1.38h-1.38v-1.34h-2.64Z" transform="translate(-179.62 -165.14)"/><path class="cls-1" d="M487.71,171.78v2.72h-1.32v1.34h-1.34v1.28h1.34v1.32h1.32v2.72h-1.38V178.5H485v-1.34h-1.3v4h-1.38V167.78h1.38v8H485v-1.34h1.34v-2.66Z" transform="translate(-179.62 -165.14)"/><path class="cls-1" d="M491.69,181.16h-1.38v-2.72h1.38Z" transform="translate(-179.62 -165.14)"/><path class="cls-1" d="M498.33,167.78h6.72v1.38h-2.68v12H501v-12h-2.66Z" transform="translate(-179.62 -165.14)"/><path class="cls-1" d="M507.69,181.16h-1.38V167.78h1.38v4h2.7v1.34h1.32v8h-1.38v-8h-2.64Z" transform="translate(-179.62 -165.14)"/><path class="cls-1" d="M518.39,171.78v1.34h1.32v4h-4v2.62h2.64v-1.32h1.38v1.38h-1.32v1.32h-2.76v-1.32h-1.32v-6.72h1.32v-1.34Zm-2.7,4h2.64v-2.62h-2.64Z" transform="translate(-179.62 -165.14)"/><path class="cls-1" d="M529,171.78v2.72h-1.32v4h-1.32v2.66H525v2.68h-1.4v-2.72H525V178.5h-1.34v-4h-1.32v-2.72h1.38v2.66H525v4h1.3v-4h1.32v-2.66Z" transform="translate(-179.62 -165.14)"/><path class="cls-1" d="M546.35,171.78v2.72H545v4h-1.32v2.66h-1.38V178.5h-2.62v2.66h-1.39V178.5H537v-4h-1.32v-2.72H537v2.66h1.33v4h1.29v-1.32H541V174.5h-1.34v-2.72H541v2.66h1.33v4h1.29v-4H545v-2.66Z" transform="translate(-179.62 -165.14)"/><path class="cls-1" d="M553.07,171.78v1.34h1.32v6.72h-1.32v1.32h-2.76v-1.32H549v-6.72h1.32v-1.34Zm-2.7,8H553v-6.62h-2.64Z" transform="translate(-179.62 -165.14)"/><path class="cls-1" d="M557,171.78h1.38v8H561v-8h1.38v9.38h-4.08v-1.32H557Z" transform="translate(-179.62 -165.14)"/><path class="cls-1" d="M566.37,181.16H565V167.78h1.38Z" transform="translate(-179.62 -165.14)"/><path class="cls-1" d="M573,171.78v-4h1.38v13.38h-4.08v-1.32H569v-6.72h1.32v-1.34Zm0,1.38h-2.64v6.62H573Z" transform="translate(-179.62 -165.14)"/><path class="cls-1" d="M582.37,181.16H581V167.78h1.38Z" transform="translate(-179.62 -165.14)"/><path class="cls-1" d="M586.37,170.5H585v-1.38h1.38Zm0,10.66H585v-9.38h1.38Z" transform="translate(-179.62 -165.14)"/><path class="cls-1" d="M594.39,171.78v2.72h-1.32v1.34h-1.34v1.28h1.34v1.32h1.32v2.72H593V178.5h-1.34v-1.34h-1.3v4H589V167.78h1.38v8h1.3v-1.34H593v-2.66Z" transform="translate(-179.62 -165.14)"/><path class="cls-1" d="M601.07,171.78v1.34h1.32v4h-4v2.62H601v-1.32h1.38v1.38h-1.32v1.32h-2.76v-1.32H597v-6.72h1.32v-1.34Zm-2.7,4H601v-2.62h-2.64Z" transform="translate(-179.62 -165.14)"/><path class="cls-1" d="M182.46,195.78h1.34v-2.66h1.38v2.66h1.34v1.38h-1.34v8H183.8v-8h-1.34Z" transform="translate(-179.62 -165.14)"/><path class="cls-1" d="M193.2,195.78v1.34h1.32v6.72H193.2v1.32h-2.76v-1.32h-1.32v-6.72h1.32v-1.34Zm-2.7,8h2.64v-6.62H190.5Z" transform="translate(-179.62 -165.14)"/><path class="cls-1" d="M202.5,203.78h2.64v-1.32h1.38v1.38H205.2v1.32h-2.76v-1.32h-1.32v-6.72h1.32v-1.34h2.76v1.34h1.32v1.38h-1.38v-1.34H202.5Z" transform="translate(-179.62 -165.14)"/><path class="cls-1" d="M213.18,195.78v1.38h-1.34v1.34H210.5v6.66h-1.38v-9.38h1.38v1.34h1.3v-1.34Z" transform="translate(-179.62 -165.14)"/><path class="cls-1" d="M218.54,195.78v1.34h1.32v6.72h-1.32v1.32h-2.76v-1.32h-1.32v-6.72h1.32v-1.34Zm-2.7,8h2.64v-6.62h-2.64Z" transform="translate(-179.62 -165.14)"/><path class="cls-1" d="M223.84,199.78h2.7v1.34h1.32v2.72h-1.32v1.32h-2.76v-1.32h-1.32v-1.38h1.38v1.32h2.64v-2.62h-2.7v-1.32h-1.32v-2.72h1.32v-1.34h2.76v1.34h1.32v1.38h-1.38v-1.34h-2.64Z" transform="translate(-179.62 -165.14)"/><path class="cls-1" d="M231.84,199.78h2.7v1.34h1.32v2.72h-1.32v1.32h-2.76v-1.32h-1.32v-1.38h1.38v1.32h2.64v-2.62h-2.7v-1.32h-1.32v-2.72h1.32v-1.34h2.76v1.34h1.32v1.38h-1.38v-1.34h-2.64Z" transform="translate(-179.62 -165.14)"/><path class="cls-1" d="M242.46,195.78h1.34v-2.66h1.38v2.66h1.34v1.38h-1.34v8H243.8v-8h-1.34Z" transform="translate(-179.62 -165.14)"/><path class="cls-1" d="M253.2,195.78v1.34h1.32v6.72H253.2v1.32h-2.76v-1.32h-1.32v-6.72h1.32v-1.34Zm-2.7,8h2.64v-6.62H250.5Z" transform="translate(-179.62 -165.14)"/><path class="cls-1" d="M265.18,195.78v1.38h-1.34v1.34H262.5v6.66h-1.38v-9.38h1.38v1.34h1.3v-1.34Z" transform="translate(-179.62 -165.14)"/><path class="cls-1" d="M270.54,195.78v1.34h1.32v4h-4v2.62h2.64v-1.32h1.38v1.38h-1.32v1.32h-2.76v-1.32h-1.32v-6.72h1.32v-1.34Zm-2.7,4h2.64v-2.62h-2.64Z" transform="translate(-179.62 -165.14)"/><path class="cls-1" d="M274.46,195.78h1.34v-2.66h1.38v2.66h1.34v1.38h-1.34v8H275.8v-8h-1.34Z" transform="translate(-179.62 -165.14)"/><path class="cls-1" d="M281.12,195.78h1.38v8h2.64v-8h1.38v9.38h-4.08v-1.32h-1.32Z" transform="translate(-179.62 -165.14)"/><path class="cls-1" d="M293.18,195.78v1.38h-1.34v1.34H290.5v6.66h-1.38v-9.38h1.38v1.34h1.3v-1.34Z" transform="translate(-179.62 -165.14)"/><path class="cls-1" d="M295.84,205.16h-1.38v-9.38h4.08v1.34h1.32v8h-1.38v-8h-2.64Z" transform="translate(-179.62 -165.14)"/><path class="cls-1" d="M306.46,195.78h1.34v-2.66h1.38v2.66h1.34v1.38h-1.34v8H307.8v-8h-1.34Z" transform="translate(-179.62 -165.14)"/><path class="cls-1" d="M317.2,195.78v1.34h1.32v6.72H317.2v1.32h-2.76v-1.32h-1.32v-6.72h1.32v-1.34Zm-2.7,8h2.64v-6.62H314.5Z" transform="translate(-179.62 -165.14)"/><path class="cls-1" d="M325.12,195.78h1.34v-2.66h1.38v2.66h1.34v1.38h-1.34v8h-1.38v-8h-1.34Z" transform="translate(-179.62 -165.14)"/><path class="cls-1" d="M333.16,205.16h-1.38V191.78h1.38v4h2.7v1.34h1.32v8H335.8v-8h-2.64Z" transform="translate(-179.62 -165.14)"/><path class="cls-1" d="M343.86,195.78v1.34h1.32v4h-4v2.62h2.64v-1.32h1.38v1.38h-1.32v1.32H341.1v-1.32h-1.32v-6.72h1.32v-1.34Zm-2.7,4h2.64v-2.62h-2.64Z" transform="translate(-179.62 -165.14)"/><path class="cls-1" d="M349.16,194.5h-1.38v-1.38h1.38Zm0,10.66h-1.38v-9.38h1.38Z" transform="translate(-179.62 -165.14)"/><path class="cls-1" d="M355.84,195.78v1.38H354.5v1.34h-1.34v6.66h-1.38v-9.38h1.38v1.34h1.3v-1.34Z" transform="translate(-179.62 -165.14)"/><path class="cls-1" d="M359.82,205.14h-1v-1h1Zm7-11h-1v-1h-1v-1h-1v-1h-2v1h2v1h1v1h1v4h-1v1h-3v-1h-1v-2h1v2h2v-1h-1v-1h-1v-1h-1v-1h-1v-3h1v-1h2v-1h4v1h2v1h1v2h1v4h-1v2h-1v1h-1v2h1v-1h2v1h1v-10h-1v-1h-1v-1h1v-1h2v1h1v1h1v1h1v4h1v-1h2v3h1v1h1v1h1v1h1v1h-1v2h-1v1h-2v-1h-1v-1h-1v-2h-1v-5h-1v3h-1v2h-1v2h-1v2h-1v-1h-4v-1h-1v-2h1v-7Zm-2,9h1v1h1v1h-1v-1h-1v1h-1v-1h-4v-1h1v-1h1v-1h2v1h1Zm3-1h-1v1h1Zm8-13h3v1h1v1h1v1h2v1h-1v1h-2v1h-1v-1h-1v-1h-1v-2h-2v-1h1Zm8,12h-1v-1h1Z" transform="translate(-179.62 -165.14)"/><path class="cls-1" d="M390.2,195.78v1.34h1.32v6.72H390.2v1.32h-2.76v-1.32h-1.32v-6.72h1.32v-1.34Zm-2.7,8h2.64v-6.62H387.5Z" transform="translate(-179.62 -165.14)"/><path class="cls-1" d="M395.5,205.16h-1.38v-9.38h4.08v1.34h1.32v8h-1.38v-8H395.5Z" transform="translate(-179.62 -165.14)"/><path class="cls-1" d="M403.44,195.78h2.76v1.34h1.32v8h-4.08v-1.32h-1.32v-4.06h1.32v-1.32h2.7v-1.3h-2.7Zm2.7,4.06H403.5v3.94h2.64Z" transform="translate(-179.62 -165.14)"/><path class="cls-1" d="M411.5,199.78h2.7v1.34h1.32v2.72H414.2v1.32h-2.76v-1.32h-1.32v-1.38h1.38v1.32h2.64v-2.62h-2.7v-1.32h-1.32v-2.72h1.32v-1.34h2.76v1.34h1.32v1.38h-1.38v-1.34H411.5Z" transform="translate(-179.62 -165.14)"/><path class="cls-1" d="M416.78,195.78h1.34v-2.66h1.38v2.66h1.34v1.38H419.5v8h-1.38v-8h-1.34Z" transform="translate(-179.62 -165.14)"/><path class="cls-1" d="M427.52,195.78v1.34h1.32v4h-4v2.62h2.64v-1.32h1.38v1.38h-1.32v1.32h-2.76v-1.32h-1.32v-6.72h1.32v-1.34Zm-2.7,4h2.64v-2.62h-2.64Z" transform="translate(-179.62 -165.14)"/><path class="cls-1" d="M435.5,195.78v1.38h-1.34v1.34h-1.34v6.66h-1.38v-9.38h1.38v1.34h1.3v-1.34Z" transform="translate(-179.62 -165.14)"/><path class="cls-1" d="M443.5,195.78v2.72h-1.32v4h-1.32v2.66H439.5v2.68h-1.4v-2.72h1.34V202.5H438.1v-4h-1.32v-2.72h1.38v2.66h1.34v4h1.3v-4h1.32v-2.66Z" transform="translate(-179.62 -165.14)"/><path class="cls-1" d="M446.16,205.16h-1.38v-2.72h1.38Z" transform="translate(-179.62 -165.14)"/><path class="cls-1" d="M452.8,191.78h6.72v1.38h-2.68v12h-1.38v-12H452.8Z" transform="translate(-179.62 -165.14)"/><path class="cls-1" d="M462.16,205.16h-1.38V191.78h1.38v4h2.7v1.34h1.32v8H464.8v-8h-2.64Z" transform="translate(-179.62 -165.14)"/><path class="cls-1" d="M472.86,195.78v1.34h1.32v4h-4v2.62h2.64v-1.32h1.38v1.38h-1.32v1.32H470.1v-1.32h-1.32v-6.72h1.32v-1.34Zm-2.7,4h2.64v-2.62h-2.64Z" transform="translate(-179.62 -165.14)"/><path class="cls-1" d="M480.84,195.78v1.38H479.5v1.34h-1.34v6.66h-1.38v-9.38h1.38v1.34h1.3v-1.34Z" transform="translate(-179.62 -165.14)"/><path class="cls-1" d="M486.2,195.78v1.34h1.32v4h-4v2.62h2.64v-1.32h1.38v1.38H486.2v1.32h-2.76v-1.32h-1.32v-6.72h1.32v-1.34Zm-2.7,4h2.64v-2.62H483.5Z" transform="translate(-179.62 -165.14)"/><path class="cls-1" d="M495.5,194.5h-1.38v-1.38h1.38Zm0,10.66h-1.38v-9.38h1.38Z" transform="translate(-179.62 -165.14)"/><path class="cls-1" d="M499.5,199.78h2.7v1.34h1.32v2.72H502.2v1.32h-2.76v-1.32h-1.32v-1.38h1.38v1.32h2.64v-2.62h-2.7v-1.32h-1.32v-2.72h1.32v-1.34h2.76v1.34h1.32v1.38h-1.38v-1.34H499.5Z" transform="translate(-179.62 -165.14)"/><path class="cls-1" d="M511.44,195.78h2.76v1.34h1.32v8h-4.08v-1.32h-1.32v-4.06h1.32v-1.32h2.7v-1.3h-2.7Zm2.7,4.06H511.5v3.94h2.64Z" transform="translate(-179.62 -165.14)"/><path class="cls-1" d="M523.5,205.16h-1.38v-9.38h4.08v1.34h1.32v8h-1.38v-8H523.5Z" transform="translate(-179.62 -165.14)"/><path class="cls-1" d="M531.44,195.78h2.76v1.34h1.32v8h-4.08v-1.32h-1.32v-4.06h1.32v-1.32h2.7v-1.3h-2.7Zm2.7,4.06H531.5v3.94h2.64Z" transform="translate(-179.62 -165.14)"/><path class="cls-1" d="M542.18,195.78v1.38h-1.34v1.34H539.5v6.66h-1.38v-9.38h1.38v1.34h1.3v-1.34Z" transform="translate(-179.62 -165.14)"/><path class="cls-1" d="M547.52,195.78v1.38h-1.34v1.34h-1.34v6.66h-1.38v-9.38h1.38v1.34h1.3v-1.34Z" transform="translate(-179.62 -165.14)"/><path class="cls-1" d="M552.88,195.78v1.34h1.32v6.72h-1.32v1.32h-2.76v-1.32H548.8v-6.72h1.32v-1.34Zm-2.7,8h2.64v-6.62h-2.64Z" transform="translate(-179.62 -165.14)"/><path class="cls-1" d="M567.5,195.78v2.72h-1.32v4h-1.32v2.66h-1.38V202.5h-2.62v2.66h-1.39V202.5h-1.35v-4H556.8v-2.72h1.38v2.66h1.33v4h1.29v-1.32h1.34V198.5H560.8v-2.72h1.38v2.66h1.33v4h1.29v-4h1.32v-2.66Z" transform="translate(-179.62 -165.14)"/><path class="cls-1" d="M574.14,205.16V191.78h1.38v4h2.7v1.34h1.32v6.72h-1.32v1.32Zm1.38-1.38h2.64v-6.62h-2.64Z" transform="translate(-179.62 -165.14)"/><path class="cls-1" d="M586.2,195.78v1.38h-1.34v1.34h-1.34v6.66h-1.38v-9.38h1.38v1.34h1.3v-1.34Z" transform="translate(-179.62 -165.14)"/><path class="cls-1" d="M588.86,194.5h-1.38v-1.38h1.38Zm0,10.66h-1.38v-9.38h1.38Z" transform="translate(-179.62 -165.14)"/><path class="cls-1" d="M595.5,195.78v-4h1.38v13.38H592.8v-1.32h-1.32v-6.72h1.32v-1.34Zm0,1.38h-2.64v6.62h2.64Z" transform="translate(-179.62 -165.14)"/><path class="cls-1" d="M599.48,197.12h1.32v-1.34h4.08V206.5h-1.32v1.34H600.8v-1.4h2.7v-1.28h-2.7v-1.32h-1.32Zm4,6.66v-6.62h-2.64v6.62Z" transform="translate(-179.62 -165.14)"/><path class="cls-1" d="M611.56,195.78v1.34h1.32v4h-4v2.62h2.64v-1.32h1.38v1.38h-1.32v1.32H608.8v-1.32h-1.32v-6.72h1.32v-1.34Zm-2.7,4h2.64v-2.62h-2.64Z" transform="translate(-179.62 -165.14)"/><path class="cls-1" d="M615.48,205.16v-1.38h2.7v2.72h-1.32v1.34h-1.38v-1.4h1.32v-1.28Z" transform="translate(-179.62 -165.14)"/><path class="cls-1" d="M624.82,205.16V191.78h1.38v4h2.7v1.34h1.32v6.72H628.9v1.32Zm1.38-1.38h2.64v-6.62H626.2Z" transform="translate(-179.62 -165.14)"/><path class="cls-1" d="M632.82,195.78h1.38v8h2.64v-8h1.38v9.38h-4.08v-1.32h-1.32Z" transform="translate(-179.62 -165.14)"/><path class="cls-1" d="M640.82,195.78h1.34v-2.66h1.38v2.66h1.34v1.38h-1.34v8h-1.38v-8h-1.34Z" transform="translate(-179.62 -165.14)"/><path class="cls-1" d="M652.86,194.5h-1.38v-1.38h1.38Zm0,10.66h-1.38v-9.38h1.38Z" transform="translate(-179.62 -165.14)"/><path class="cls-1" d="M655.48,195.78h1.34v-2.66h1.38v2.66h1.34v1.38H658.2v8h-1.38v-8h-1.34Z" transform="translate(-179.62 -165.14)"/><path class="cls-1" d="M300.34,227.78H303v-1.32h1.38v1.38H303v1.32h-2.76v-1.32H299v-6.72h1.32v-1.34H303v1.34h1.32v1.38H303v-1.34h-2.64Z" transform="translate(-179.62 -165.14)"/><path class="cls-1" d="M308.28,219.78H311v1.34h1.32v8h-4.08v-1.32H307v-4.06h1.32v-1.32H311v-1.3h-2.7Zm2.7,4.06h-2.64v3.94H311Z" transform="translate(-179.62 -165.14)"/><path class="cls-1" d="M316.34,229.16H315v-9.38H319v1.34h1.32v8H319v-8h-2.64Z" transform="translate(-179.62 -165.14)"/><path class="cls-1" d="M331,219.78v1.34h1.32v6.72H331v1.32h-2.76v-1.32H327v-6.72h1.32v-1.34Zm-2.7,8H331v-6.62h-2.64Z" transform="translate(-179.62 -165.14)"/><path class="cls-1" d="M336.34,229.16H335v-9.38H339v1.34h1.32v8H339v-8h-2.64Z" transform="translate(-179.62 -165.14)"/><path class="cls-1" d="M344.34,229.16H343V215.78h1.38Z" transform="translate(-179.62 -165.14)"/><path class="cls-1" d="M353.68,219.78v2.72h-1.32v4H351v2.66h-1.36v2.68h-1.4v-2.72h1.34V226.5h-1.34v-4H347v-2.72h1.38v2.66h1.34v4H351v-4h1.32v-2.66Z" transform="translate(-179.62 -165.14)"/><path class="cls-1" d="M361.68,229.16H360.3V215.78h1.38v4h2.7v1.34h1.32v8h-1.38v-8h-2.64Z" transform="translate(-179.62 -165.14)"/><path class="cls-1" d="M372.38,219.78v1.34h1.32v6.72h-1.32v1.32h-2.76v-1.32H368.3v-6.72h1.32v-1.34Zm-2.7,8h2.64v-6.62h-2.64Z" transform="translate(-179.62 -165.14)"/><path class="cls-1" d="M377.68,229.16H376.3V215.78h1.38Z" transform="translate(-179.62 -165.14)"/><path class="cls-1" d="M384.32,219.78v-4h1.38v13.38h-4.08v-1.32H380.3v-6.72h1.32v-1.34Zm0,1.38h-2.64v6.62h2.64Z" transform="translate(-179.62 -165.14)"/><path class="cls-1" d="M392.3,219.78h1.34v-2.66H395v2.66h1.34v1.38H395v8h-1.38v-8H392.3Z" transform="translate(-179.62 -165.14)"/><path class="cls-1" d="M409.66,219.78v2.72h-1.32v4H407v2.66h-1.38V226.5H403v2.66h-1.39V226.5h-1.35v-4H399v-2.72h1.38v2.66h1.33v4H403v-1.32h1.34V222.5H403v-2.72h1.38v2.66h1.33v4H407v-4h1.32v-2.66Z" transform="translate(-179.62 -165.14)"/><path class="cls-1" d="M416.38,219.78v1.34h1.32v6.72h-1.32v1.32h-2.76v-1.32H412.3v-6.72h1.32v-1.34Zm-2.7,8h2.64v-6.62h-2.64Z" transform="translate(-179.62 -165.14)"/><path class="cls-1" d="M429.7,227.84h-1.32v1.32h-2.7v2.68H424.3V219.78h4.08v1.34h1.32Zm-4-6.68v6.62h2.64v-6.62Z" transform="translate(-179.62 -165.14)"/><path class="cls-1" d="M436.38,219.78v1.34h1.32v4h-4v2.62h2.64v-1.32h1.38v1.38h-1.32v1.32h-2.76v-1.32H432.3v-6.72h1.32v-1.34Zm-2.7,4h2.64v-2.62h-2.64Z" transform="translate(-179.62 -165.14)"/><path class="cls-1" d="M444.38,219.78v1.34h1.32v6.72h-1.32v1.32h-2.76v-1.32H440.3v-6.72h1.32v-1.34Zm-2.7,8h2.64v-6.62h-2.64Z" transform="translate(-179.62 -165.14)"/><path class="cls-1" d="M453.7,227.84h-1.32v1.32h-2.7v2.68H448.3V219.78h4.08v1.34h1.32Zm-4-6.68v6.62h2.64v-6.62Z" transform="translate(-179.62 -165.14)"/><path class="cls-1" d="M457.68,229.16H456.3V215.78h1.38Z" transform="translate(-179.62 -165.14)"/><path class="cls-1" d="M464.38,219.78v1.34h1.32v4h-4v2.62h2.64v-1.32h1.38v1.38h-1.32v1.32h-2.76v-1.32H460.3v-6.72h1.32v-1.34Zm-2.7,4h2.64v-2.62h-2.64Z" transform="translate(-179.62 -165.14)"/><path class="cls-1" d="M473.62,219.78h2.76v1.34h1.32v8h-4.08v-1.32H472.3v-4.06h1.32v-1.32h2.7v-1.3h-2.7Zm2.7,4.06h-2.64v3.94h2.64Z" transform="translate(-179.62 -165.14)"/><path class="cls-1" d="M480.3,219.78h1.34v-2.66H483v2.66h1.34v1.38H483v8h-1.38v-8H480.3Z" transform="translate(-179.62 -165.14)"/><path class="cls-1" d="M492.28,219.78H495v1.34h1.32v8h-4.08v-1.32H491v-4.06h1.32v-1.32H495v-1.3h-2.7Zm2.7,4.06h-2.64v3.94H495Z" transform="translate(-179.62 -165.14)"/><path class="cls-1" d="M501.64,219.78H503v-2.66h2.72v2.66H507v1.38h-1.34v8H503v-8h-1.32Z" transform="translate(-179.62 -165.14)"/><path class="cls-1" d="M511,218.5H508.3v-1.38H511Zm0,10.66H508.3v-9.38H511Z" transform="translate(-179.62 -165.14)"/><path class="cls-1" d="M525.7,219.78v1.34H527v8h-2.72v-8H523v1.34H521.7v6.66H519v-8H517.7v1.34h-1.34v6.66h-2.72v-9.38h2.72v1.34h1.28v-1.34h2.72v1.34H523v-1.34Z" transform="translate(-179.62 -165.14)"/><path class="cls-1" d="M537.7,226.46v1.38h-1.34v1.32H531v-1.32h-1.34v-6.72H531v-1.34h5.38v1.34h1.34v2.72h-1.34v1.32h-4v2.62h4v-1.32Zm-5.34-5.3v2.62H535v-2.62Z" transform="translate(-179.62 -165.14)"/><path class="cls-1" d="M541.68,229.16H540.3v-2.72h1.38Z" transform="translate(-179.62 -165.14)"/><path class="cls-1" d="M185.65,239.78h6.72v1.38h-2.68v12h-1.38v-12h-2.66Z" transform="translate(-179.62 -165.14)"/><path class="cls-1" d="M195,253.16h-1.38V239.78H195v4h2.7v1.34H199v8h-1.38v-8H195Z" transform="translate(-179.62 -165.14)"/><path class="cls-1" d="M205.71,243.78v1.34H207v4h-4v2.62h2.64v-1.32H207v1.38h-1.32v1.32H203v-1.32h-1.32v-6.72H203v-1.34Zm-2.7,4h2.64v-2.62H203Z" transform="translate(-179.62 -165.14)"/><path class="cls-1" d="M216.35,243.78v2.72H215v4h-1.32v2.66h-1.36v2.68H211v-2.72h1.34V250.5H211v-4h-1.32v-2.72H211v2.66h1.34v4h1.3v-4H215v-2.66Z" transform="translate(-179.62 -165.14)"/><path class="cls-1" d="M224.35,253.16H223V239.78h1.38v4h2.7v1.34h1.32v8H227v-8h-2.64Z" transform="translate(-179.62 -165.14)"/><path class="cls-1" d="M232.29,243.78h2.76v1.34h1.32v8h-4.08v-1.32H231v-4.06h1.32v-1.32H235v-1.3h-2.7Zm2.7,4.06h-2.64v3.94H235Z" transform="translate(-179.62 -165.14)"/><path class="cls-1" d="M245.69,243.78v2.72h-1.32v4h-1.32v2.66h-1.4V250.5h-1.36v-4H239v-2.72h1.38v2.66h1.34v4H243v-4h1.32v-2.66Z" transform="translate(-179.62 -165.14)"/><path class="cls-1" d="M252.39,243.78v1.34h1.32v4h-4v2.62h2.64v-1.32h1.38v1.38h-1.32v1.32h-2.76v-1.32h-1.32v-6.72h1.32v-1.34Zm-2.7,4h2.64v-2.62h-2.64Z" transform="translate(-179.62 -165.14)"/><path class="cls-1" d="M264.39,243.78v1.34h1.32v6.72h-1.32v1.32h-2.76v-1.32h-1.32v-6.72h1.32v-1.34Zm-2.7,8h2.64v-6.62h-2.64Z" transform="translate(-179.62 -165.14)"/><path class="cls-1" d="M269.69,253.16h-1.38v-9.38h4.08v1.34h1.32v8h-1.38v-8h-2.64Z" transform="translate(-179.62 -165.14)"/><path class="cls-1" d="M280.39,243.78v1.34h1.32v4h-4v2.62h2.64v-1.32h1.38v1.38h-1.32v1.32h-2.76v-1.32h-1.32v-6.72h1.32v-1.34Zm-2.7,4h2.64v-2.62h-2.64Z" transform="translate(-179.62 -165.14)"/><path class="cls-1" d="M288.31,243.78h1.34v-2.66H291v2.66h1.34v1.38H291v8h-1.38v-8h-1.34Z" transform="translate(-179.62 -165.14)"/><path class="cls-1" d="M299.05,243.78v1.34h1.32v6.72h-1.32v1.32h-2.76v-1.32H295v-6.72h1.32v-1.34Zm-2.7,8H299v-6.62h-2.64Z" transform="translate(-179.62 -165.14)"/><path class="cls-1" d="M307,243.78v1.38h-1.34v1.34h-1.34v6.66H303v-9.38h1.38v1.34h1.3v-1.34Z" transform="translate(-179.62 -165.14)"/><path class="cls-1" d="M309.69,251.78h2.64v-1.32h1.38v1.38h-1.32v1.32h-2.76v-1.32h-1.32v-6.72h1.32v-1.34h2.76v1.34h1.32v1.38h-1.38v-1.34h-2.64Z" transform="translate(-179.62 -165.14)"/><path class="cls-1" d="M317.69,253.16h-1.38V239.78h1.38v4h2.7v1.34h1.32v8h-1.38v-8h-2.64Z" transform="translate(-179.62 -165.14)"/><path class="cls-1" d="M329.63,243.78h2.76v1.34h1.32v8h-4.08v-1.32h-1.32v-4.06h1.32v-1.32h2.7v-1.3h-2.7Zm2.7,4.06h-2.64v3.94h2.64Z" transform="translate(-179.62 -165.14)"/><path class="cls-1" d="M337.69,253.16h-1.38v-9.38h4.08v1.34h1.32v8h-1.38v-8h-2.64Z" transform="translate(-179.62 -165.14)"/><path class="cls-1" d="M348.33,243.78v-4h1.38v13.38h-4.08v-1.32h-1.32v-6.72h1.32v-1.34Zm0,1.38h-2.64v6.62h2.64Z" transform="translate(-179.62 -165.14)"/><path class="cls-1" d="M352.31,253.16v-1.38H355v2.72h-1.32v1.34h-1.38v-1.4h1.32v-1.28Z" transform="translate(-179.62 -165.14)"/><path class="cls-1" d="M361.65,253.16V239.78H363v4h2.7v1.34h1.32v6.72h-1.32v1.32Zm1.38-1.38h2.64v-6.62H363Z" transform="translate(-179.62 -165.14)"/><path class="cls-1" d="M373.73,243.78v1.34h1.32v4h-4v2.62h2.64v-1.32h1.38v1.38h-1.32v1.32H371v-1.32h-1.32v-6.72H371v-1.34Zm-2.7,4h2.64v-2.62H371Z" transform="translate(-179.62 -165.14)"/><path class="cls-1" d="M379,251.78h2.64v-1.32h1.38v1.38h-1.32v1.32H379v-1.32h-1.32v-6.72H379v-1.34h2.76v1.34h1.32v1.38h-1.38v-1.34H379Z" transform="translate(-179.62 -165.14)"/><path class="cls-1" d="M387,243.78h2.76v1.34h1.32v8H387v-1.32h-1.32v-4.06H387v-1.32h2.7v-1.3H387Zm2.7,4.06H387v3.94h2.64Z" transform="translate(-179.62 -165.14)"/><path class="cls-1" d="M393.65,243.78H395v8h2.64v-8h1.38v9.38H395v-1.32h-1.32Z" transform="translate(-179.62 -165.14)"/><path class="cls-1" d="M403,247.78h2.7v1.34h1.32v2.72h-1.32v1.32H403v-1.32h-1.32v-1.38H403v1.32h2.64v-2.62H403v-1.32h-1.32v-2.72H403v-1.34h2.76v1.34h1.32v1.38h-1.38v-1.34H403Z" transform="translate(-179.62 -165.14)"/><path class="cls-1" d="M413.73,243.78v1.34h1.32v4h-4v2.62h2.64v-1.32h1.38v1.38h-1.32v1.32H411v-1.32h-1.32v-6.72H411v-1.34Zm-2.7,4h2.64v-2.62H411Z" transform="translate(-179.62 -165.14)"/><path class="cls-1" d="M423,242.5h-1.38v-1.38H423Zm0,10.66h-1.38v-9.38H423Z" transform="translate(-179.62 -165.14)"/><path class="cls-1" d="M425.65,243.78H427v-2.66h1.38v2.66h1.34v1.38h-1.34v8H427v-8h-1.34Z" transform="translate(-179.62 -165.14)"/><path class="cls-1" d="M433.69,243.84h-1.38v-4.06h1.38Z" transform="translate(-179.62 -165.14)"/><path class="cls-1" d="M437.69,247.78h2.7v1.34h1.32v2.72h-1.32v1.32h-2.76v-1.32h-1.32v-1.38h1.38v1.32h2.64v-2.62h-2.7v-1.32h-1.32v-2.72h1.32v-1.34h2.76v1.34h1.32v1.38h-1.38v-1.34h-2.64Z" transform="translate(-179.62 -165.14)"/><path class="cls-1" d="M449.69,253.16h-1.38v-9.38h4.08v1.34h1.32v8h-1.38v-8h-2.64Z" transform="translate(-179.62 -165.14)"/><path class="cls-1" d="M457.69,242.5h-1.38v-1.38h1.38Zm0,10.66h-1.38v-9.38h1.38Z" transform="translate(-179.62 -165.14)"/><path class="cls-1" d="M460.31,245.12h1.32v-1.34h4.08V254.5h-1.32v1.34h-2.76v-1.4h2.7v-1.28h-2.7v-1.32h-1.32Zm4,6.66v-6.62h-2.64v6.62Z" transform="translate(-179.62 -165.14)"/><path class="cls-1" d="M469.69,253.16h-1.38V239.78h1.38v4h2.7v1.34h1.32v8h-1.38v-8h-2.64Z" transform="translate(-179.62 -165.14)"/><path class="cls-1" d="M476.31,243.78h1.34v-2.66H479v2.66h1.34v1.38H479v8h-1.38v-8h-1.34Z" transform="translate(-179.62 -165.14)"/><path class="cls-1" d="M483,253.16v-1.38h2.7v2.72h-1.32v1.34H483v-1.4h1.32v-1.28Z" transform="translate(-179.62 -165.14)"/><path class="cls-1" d="M492.31,243.78h1.34v-2.66H495v2.66h1.34v1.38H495v8h-1.38v-8h-1.34Z" transform="translate(-179.62 -165.14)"/><path class="cls-1" d="M500.35,253.16H499V239.78h1.38v4h2.7v1.34h1.32v8H503v-8h-2.64Z" transform="translate(-179.62 -165.14)"/><path class="cls-1" d="M511.05,243.78v1.34h1.32v4h-4v2.62H511v-1.32h1.38v1.38h-1.32v1.32h-2.76v-1.32H507v-6.72h1.32v-1.34Zm-2.7,4H511v-2.62h-2.64Z" transform="translate(-179.62 -165.14)"/><path class="cls-1" d="M519,243.78h1.34v-2.66h1.38v2.66H523v1.38h-1.34v8h-1.38v-8H519Z" transform="translate(-179.62 -165.14)"/><path class="cls-1" d="M529.71,243.78v1.34H531v6.72h-1.32v1.32H527v-1.32h-1.32v-6.72H527v-1.34Zm-2.7,8h2.64v-6.62H527Z" transform="translate(-179.62 -165.14)"/><path class="cls-1" d="M537.69,243.78v1.38h-1.34v1.34H535v6.66h-1.38v-9.38H535v1.34h1.3v-1.34Z" transform="translate(-179.62 -165.14)"/><path class="cls-1" d="M540.35,251.78H543v-1.32h1.38v1.38h-1.32v1.32h-2.76v-1.32H539v-6.72h1.32v-1.34h2.76v1.34h1.32v1.38H543v-1.34h-2.64Z" transform="translate(-179.62 -165.14)"/><path class="cls-1" d="M548.35,253.16H547V239.78h1.38v4h2.7v1.34h1.32v8H551v-8h-2.64Z" transform="translate(-179.62 -165.14)"/><path class="cls-1" d="M560.35,253.16H559V239.78h1.38v4h2.7v1.34h1.32v8H563v-8h-2.64Z" transform="translate(-179.62 -165.14)"/><path class="cls-1" d="M568.29,243.78h2.76v1.34h1.32v8h-4.08v-1.32H567v-4.06h1.32v-1.32H571v-1.3h-2.7Zm2.7,4.06h-2.64v3.94H571Z" transform="translate(-179.62 -165.14)"/><path class="cls-1" d="M576.35,247.78h2.7v1.34h1.32v2.72h-1.32v1.32h-2.76v-1.32H575v-1.38h1.38v1.32H579v-2.62h-2.7v-1.32H575v-2.72h1.32v-1.34h2.76v1.34h1.32v1.38H579v-1.34h-2.64Z" transform="translate(-179.62 -165.14)"/><path class="cls-1" d="M587,243.78h1.34v-2.66h1.38v2.66H591v1.38h-1.34v8h-1.38v-8H587Z" transform="translate(-179.62 -165.14)"/><path class="cls-1" d="M597.71,243.78v1.34H599v6.72h-1.32v1.32H595v-1.32h-1.32v-6.72H595v-1.34Zm-2.7,8h2.64v-6.62H595Z" transform="translate(-179.62 -165.14)"/><path class="cls-1" d="M605.63,253.16V239.78H607v4h2.7v1.34H611v6.72h-1.32v1.32Zm1.38-1.38h2.64v-6.62H607Z" transform="translate(-179.62 -165.14)"/><path class="cls-1" d="M617.71,243.78v1.34H619v4h-4v2.62h2.64v-1.32H619v1.38h-1.32v1.32H615v-1.32h-1.32v-6.72H615v-1.34Zm-2.7,4h2.64v-2.62H615Z" transform="translate(-179.62 -165.14)"/><path class="cls-1" d="M625.63,243.78H627v8h2.64v-8H631v9.38H627v-1.32h-1.32Z" transform="translate(-179.62 -165.14)"/><path class="cls-1" d="M635,247.78h2.7v1.34H639v2.72h-1.32v1.32H635v-1.32h-1.32v-1.38H635v1.32h2.64v-2.62H635v-1.32h-1.32v-2.72H635v-1.34h2.76v1.34H639v1.38h-1.38v-1.34H635Z" transform="translate(-179.62 -165.14)"/><path class="cls-1" d="M645.71,243.78v1.34H647v4h-4v2.62h2.64v-1.32H647v1.38h-1.32v1.32H643v-1.32h-1.32v-6.72H643v-1.34Zm-2.7,4h2.64v-2.62H643Z" transform="translate(-179.62 -165.14)"/><path class="cls-1" d="M653.65,243.78v-4H655v13.38H651v-1.32h-1.32v-6.72H651v-1.34Zm0,1.38H651v6.62h2.64Z" transform="translate(-179.62 -165.14)"/><path class="cls-1" d="M190.32,267.78v2.72H189v4h-1.32v2.66H186.3V274.5h-2.62v2.66h-1.39V274.5h-1.35v-4h-1.32v-2.72H181v2.66h1.33v4h1.29v-1.32H185V270.5h-1.34v-2.72H185v2.66h1.33v4h1.29v-4h1.32v-2.66Z" transform="translate(-179.62 -165.14)"/><path class="cls-1" d="M194.34,277.16H193V263.78h1.38v4H197v1.34h1.32v8H197v-8h-2.64Z" transform="translate(-179.62 -165.14)"/><path class="cls-1" d="M205,267.78v1.34h1.32v4h-4v2.62H205v-1.32h1.38v1.38H205v1.32h-2.76v-1.32H201v-6.72h1.32v-1.34Zm-2.7,4H205v-2.62h-2.64Z" transform="translate(-179.62 -165.14)"/><path class="cls-1" d="M210.34,277.16H209v-9.38H213v1.34h1.32v8H213v-8h-2.64Z" transform="translate(-179.62 -165.14)"/><path class="cls-1" d="M222.34,275.78H225v-1.32h1.38v1.38H225v1.32h-2.76v-1.32H221v-6.72h1.32v-1.34H225v1.34h1.32v1.38H225v-1.34h-2.64Z" transform="translate(-179.62 -165.14)"/><path class="cls-1" d="M233,267.78v1.38h-1.34v1.34h-1.34v6.66H229v-9.38h1.38v1.34h1.3v-1.34Z" transform="translate(-179.62 -165.14)"/><path class="cls-1" d="M238.38,267.78v1.34h1.32v6.72h-1.32v1.32h-2.76v-1.32H234.3v-6.72h1.32v-1.34Zm-2.7,8h2.64v-6.62h-2.64Z" transform="translate(-179.62 -165.14)"/><path class="cls-1" d="M243.68,271.78h2.7v1.34h1.32v2.72h-1.32v1.32h-2.76v-1.32H242.3v-1.38h1.38v1.32h2.64v-2.62h-2.7v-1.32H242.3v-2.72h1.32v-1.34h2.76v1.34h1.32v1.38h-1.38v-1.34h-2.64Z" transform="translate(-179.62 -165.14)"/><path class="cls-1" d="M251.68,271.78h2.7v1.34h1.32v2.72h-1.32v1.32h-2.76v-1.32H250.3v-1.38h1.38v1.32h2.64v-2.62h-2.7v-1.32H250.3v-2.72h1.32v-1.34h2.76v1.34h1.32v1.38h-1.38v-1.34h-2.64Z" transform="translate(-179.62 -165.14)"/><path class="cls-1" d="M259.68,266.5H258.3v-1.38h1.38Zm0,10.66H258.3v-9.38h1.38Z" transform="translate(-179.62 -165.14)"/><path class="cls-1" d="M263.68,277.16H262.3v-9.38h4.08v1.34h1.32v8h-1.38v-8h-2.64Z" transform="translate(-179.62 -165.14)"/><path class="cls-1" d="M270.3,269.12h1.32v-1.34h4.08V278.5h-1.32v1.34h-2.76v-1.4h2.7v-1.28h-2.7v-1.32H270.3Zm4,6.66v-6.62h-2.64v6.62Z" transform="translate(-179.62 -165.14)"/><path class="cls-1" d="M282.3,267.78h1.34v-2.66H285v2.66h1.34v1.38H285v8h-1.38v-8H282.3Z" transform="translate(-179.62 -165.14)"/><path class="cls-1" d="M290.34,277.16H289V263.78h1.38v4H293v1.34h1.32v8H293v-8h-2.64Z" transform="translate(-179.62 -165.14)"/><path class="cls-1" d="M301,267.78v1.34h1.32v4h-4v2.62H301v-1.32h1.38v1.38H301v1.32h-2.76v-1.32H297v-6.72h1.32v-1.34Zm-2.7,4H301v-2.62h-2.64Z" transform="translate(-179.62 -165.14)"/><path class="cls-1" d="M309,277.16V263.78h1.38v4H313v1.34h1.32v6.72H313v1.32Zm1.38-1.38H313v-6.62h-2.64Z" transform="translate(-179.62 -165.14)"/><path class="cls-1" d="M321,267.78v1.38h-1.34v1.34h-1.34v6.66H317v-9.38h1.38v1.34h1.3v-1.34Z" transform="translate(-179.62 -165.14)"/><path class="cls-1" d="M323.68,266.5H322.3v-1.38h1.38Zm0,10.66H322.3v-9.38h1.38Z" transform="translate(-179.62 -165.14)"/><path class="cls-1" d="M330.32,267.78v-4h1.38v13.38h-4.08v-1.32H326.3v-6.72h1.32v-1.34Zm0,1.38h-2.64v6.62h2.64Z" transform="translate(-179.62 -165.14)"/><path class="cls-1" d="M334.3,269.12h1.32v-1.34h4.08V278.5h-1.32v1.34h-2.76v-1.4h2.7v-1.28h-2.7v-1.32H334.3Zm4,6.66v-6.62h-2.64v6.62Z" transform="translate(-179.62 -165.14)"/><path class="cls-1" d="M346.38,267.78v1.34h1.32v4h-4v2.62h2.64v-1.32h1.38v1.38h-1.32v1.32h-2.76v-1.32H342.3v-6.72h1.32v-1.34Zm-2.7,4h2.64v-2.62h-2.64Z" transform="translate(-179.62 -165.14)"/><path class="cls-1" d="M351.68,277.16H350.3v-2.72h1.38Z" transform="translate(-179.62 -165.14)"/><path class="cls-1" d="M358.32,263.78H365v1.38h-2.68v12H361v-12h-2.66Z" transform="translate(-179.62 -165.14)"/><path class="cls-1" d="M367.68,277.16H366.3V263.78h1.38v4h2.7v1.34h1.32v8h-1.38v-8h-2.64Z" transform="translate(-179.62 -165.14)"/><path class="cls-1" d="M378.38,267.78v1.34h1.32v4h-4v2.62h2.64v-1.32h1.38v1.38h-1.32v1.32h-2.76v-1.32H374.3v-6.72h1.32v-1.34Zm-2.7,4h2.64v-2.62h-2.64Z" transform="translate(-179.62 -165.14)"/><path class="cls-1" d="M386.3,267.78h1.34v-2.66H389v2.66h1.34v1.38H389v8h-1.38v-8H386.3Z" transform="translate(-179.62 -165.14)"/><path class="cls-1" d="M397,267.78v1.34h1.32v6.72H397v1.32h-2.76v-1.32H393v-6.72h1.32v-1.34Zm-2.7,8H397v-6.62h-2.64Z" transform="translate(-179.62 -165.14)"/><path class="cls-1" d="M405,267.78v1.38h-1.34v1.34h-1.34v6.66H401v-9.38h1.38v1.34h1.3v-1.34Z" transform="translate(-179.62 -165.14)"/><path class="cls-1" d="M407.68,275.78h2.64v-1.32h1.38v1.38h-1.32v1.32h-2.76v-1.32H406.3v-6.72h1.32v-1.34h2.76v1.34h1.32v1.38h-1.38v-1.34h-2.64Z" transform="translate(-179.62 -165.14)"/><path class="cls-1" d="M415.68,277.16H414.3V263.78h1.38v4h2.7v1.34h1.32v8h-1.38v-8h-2.64Z" transform="translate(-179.62 -165.14)"/><path class="cls-1" d="M430.38,267.78v1.34h1.32v6.72h-1.32v1.32h-2.76v-1.32H426.3v-6.72h1.32v-1.34Zm-2.7,8h2.64v-6.62h-2.64Z" transform="translate(-179.62 -165.14)"/><path class="cls-1" d="M435.68,277.16H434.3v-9.38h4.08v1.34h1.32v8h-1.38v-8h-2.64Z" transform="translate(-179.62 -165.14)"/><path class="cls-1" d="M443.68,277.16H442.3V263.78h1.38Z" transform="translate(-179.62 -165.14)"/><path class="cls-1" d="M453,267.78v2.72H451.7v4h-1.32v2.66H449v2.68h-1.4v-2.72H449V274.5h-1.34v-4H446.3v-2.72h1.38v2.66H449v4h1.3v-4h1.32v-2.66Z" transform="translate(-179.62 -165.14)"/><path class="cls-1" d="M461,277.16h-1.38V263.78H461Z" transform="translate(-179.62 -165.14)"/><path class="cls-1" d="M465,267.78h2.76v1.34H469v8H465v-1.32h-1.32v-4.06H465v-1.32h2.7v-1.3H465Zm2.7,4.06H465v3.94h2.64Z" transform="translate(-179.62 -165.14)"/><path class="cls-1" d="M473,271.78h2.7v1.34H477v2.72h-1.32v1.32H473v-1.32h-1.32v-1.38H473v1.32h2.64v-2.62H473v-1.32h-1.32v-2.72H473v-1.34h2.76v1.34H477v1.38h-1.38v-1.34H473Z" transform="translate(-179.62 -165.14)"/><path class="cls-1" d="M478.3,267.78h1.34v-2.66H481v2.66h1.34v1.38H481v8h-1.38v-8H478.3Z" transform="translate(-179.62 -165.14)"/><path class="cls-1" d="M489,265.12h1.34v-1.34H493v13.38H490.3V266.5H489Z" transform="translate(-179.62 -165.14)"/><path class="cls-1" d="M501,270.5h-4v-6.72h6.72v1.38h-4v4h2.68v1.32h1.32v5.4h-1.32v1.32H497v-1.38h4Z" transform="translate(-179.62 -165.14)"/><path class="cls-1" d="M522.36,267.78v1.34h1.34v8H521v-8H519.7v1.34h-1.34v6.66h-2.72v-8h-1.28v1.34H513v6.66H510.3v-9.38H513v1.34h1.28v-1.34H517v1.34h2.62v-1.34Z" transform="translate(-179.62 -165.14)"/><path class="cls-1" d="M529,266.5H526.3v-1.38H529Zm0,10.66H526.3v-9.38H529Z" transform="translate(-179.62 -165.14)"/><path class="cls-1" d="M538.36,267.78v1.34h1.34v8H537v-8H535.7v1.34h-1.34v6.66h-2.72v-9.38h2.72v1.34h1.28v-1.34Z" transform="translate(-179.62 -165.14)"/><path class="cls-1" d="M542.3,267.78H545v8h2.62v-8h2.72v8.06H549v1.32h-5.38v-1.32H542.3Z" transform="translate(-179.62 -165.14)"/><path class="cls-1" d="M551.64,267.78H553v-2.66h2.72v2.66H557v1.38h-1.34v8H553v-8h-1.32Z" transform="translate(-179.62 -165.14)"/><path class="cls-1" d="M566.36,274.46v1.38H565v1.32h-5.38v-1.32H558.3v-6.72h1.34v-1.34H565v1.34h1.34v2.72H565v1.32h-4v2.62h4v-1.32Zm-5.34-5.3v2.62h2.62v-2.62Z" transform="translate(-179.62 -165.14)"/><path class="cls-1" d="M570.36,275.78H573V274.5h-1.32v-1.34H570.3v-1.32H569v-2.72h1.34v-1.34h5.38v2.72H574.3v-1.34h-2.62v1.28H573v1.34h1.34v1.34h1.32v2.72h-1.32v1.32H569v-2.72h1.4Z" transform="translate(-179.62 -165.14)"/><path class="cls-1" d="M582.3,277.16V263.78h1.38v4h2.7v1.34h1.32v6.72h-1.32v1.32Zm1.38-1.38h2.64v-6.62h-2.64Z" transform="translate(-179.62 -165.14)"/><path class="cls-1" d="M594.38,267.78v1.34h1.32v4h-4v2.62h2.64v-1.32h1.38v1.38h-1.32v1.32h-2.76v-1.32H590.3v-6.72h1.32v-1.34Zm-2.7,4h2.64v-2.62h-2.64Z" transform="translate(-179.62 -165.14)"/><path class="cls-1" d="M602.34,263.78v1.38h-2.66v2.62H601v1.38h-1.32v8H598.3v-8H597v-1.38h1.32v-2.66h1.32v-1.34Z" transform="translate(-179.62 -165.14)"/><path class="cls-1" d="M607.72,267.78v1.34H609v6.72h-1.32v1.32H605v-1.32h-1.32v-6.72H605v-1.34Zm-2.7,8h2.64v-6.62H605Z" transform="translate(-179.62 -165.14)"/><path class="cls-1" d="M615.7,267.78v1.38h-1.34v1.34H613v6.66h-1.38v-9.38H613v1.34h1.3v-1.34Z" transform="translate(-179.62 -165.14)"/><path class="cls-1" d="M621.06,267.78v1.34h1.32v4h-4v2.62H621v-1.32h1.38v1.38h-1.32v1.32H618.3v-1.32H617v-6.72h1.32v-1.34Zm-2.7,4H621v-2.62h-2.64Z" transform="translate(-179.62 -165.14)"/><path class="cls-1" d="M629,269.12h1.32v-1.34h4.08V278.5h-1.32v1.34H630.3v-1.4H633v-1.28h-2.7v-1.32H629Zm4,6.66v-6.62h-2.64v6.62Z" transform="translate(-179.62 -165.14)"/><path class="cls-1" d="M641.06,267.78v1.34h1.32v6.72h-1.32v1.32H638.3v-1.32H637v-6.72h1.32v-1.34Zm-2.7,8H641v-6.62h-2.64Z" transform="translate(-179.62 -165.14)"/><path class="cls-1" d="M646.36,266.5H645v-1.38h1.38Zm0,10.66H645v-9.38h1.38Z" transform="translate(-179.62 -165.14)"/><path class="cls-1" d="M650.36,277.16H649v-9.38h4.08v1.34h1.32v8H653v-8h-2.64Z" transform="translate(-179.62 -165.14)"/><path class="cls-1" d="M657,269.12h1.32v-1.34h4.08V278.5h-1.32v1.34H658.3v-1.4H661v-1.28h-2.7v-1.32H657Zm4,6.66v-6.62h-2.64v6.62Z" transform="translate(-179.62 -165.14)"/><path class="cls-1" d="M184.39,291.78v1.34h1.32v6.72h-1.32v1.32h-2.76v-1.32h-1.32v-6.72h1.32v-1.34Zm-2.7,8h2.64v-6.62h-2.64Z" transform="translate(-179.62 -165.14)"/><path class="cls-1" d="M188.31,291.78h1.38v8h2.64v-8h1.38v9.38h-4.08v-1.32h-1.32Z" transform="translate(-179.62 -165.14)"/><path class="cls-1" d="M196.31,291.78h1.34v-2.66H199v2.66h1.34v1.38H199v8h-1.38v-8h-1.34Z" transform="translate(-179.62 -165.14)"/><path class="cls-1" d="M204.35,301.16H203v-2.72h1.38Z" transform="translate(-179.62 -165.14)"/><path class="cls-1" d="M216.37,287.78v12.06H215v1.32h-2.72v-1.32H211v-2.72h1.38v2.66H215v-12Z" transform="translate(-179.62 -165.14)"/><path class="cls-1" d="M223.05,291.78v1.34h1.32v6.72h-1.32v1.32h-2.76v-1.32H219v-6.72h1.32v-1.34Zm-2.7,8H223v-6.62h-2.64Z" transform="translate(-179.62 -165.14)"/><path class="cls-1" d="M231.05,291.78v1.34h1.32v4h-4v2.62H231v-1.32h1.38v1.38h-1.32v1.32h-2.76v-1.32H227v-6.72h1.32v-1.34Zm-2.7,4H231v-2.62h-2.64Z" transform="translate(-179.62 -165.14)"/><path class="cls-1" d="M240.35,299.78H243v-1.32h1.38v1.38h-1.32v1.32h-2.76v-1.32H239v-6.72h1.32v-1.34h2.76v1.34h1.32v1.38H243v-1.34h-2.64Z" transform="translate(-179.62 -165.14)"/><path class="cls-1" d="M248.29,291.78h2.76v1.34h1.32v8h-4.08v-1.32H247v-4.06h1.32v-1.32H251v-1.3h-2.7Zm2.7,4.06h-2.64v3.94H251Z" transform="translate(-179.62 -165.14)"/><path class="cls-1" d="M256.35,301.16H255v-9.38h4.08v1.34h1.32v8H259v-8h-2.64Z" transform="translate(-179.62 -165.14)"/><path class="cls-1" d="M268.35,299.78H271v-1.32h1.38v1.38h-1.32v1.32h-2.76v-1.32H267v-6.72h1.32v-1.34h2.76v1.34h1.32v1.38H271v-1.34h-2.64Z" transform="translate(-179.62 -165.14)"/><path class="cls-1" d="M279,291.78v1.38h-1.34v1.34h-1.34v6.66H275v-9.38h1.38v1.34h1.3v-1.34Z" transform="translate(-179.62 -165.14)"/><path class="cls-1" d="M284.39,291.78v1.34h1.32v6.72h-1.32v1.32h-2.76v-1.32h-1.32v-6.72h1.32v-1.34Zm-2.7,8h2.64v-6.62h-2.64Z" transform="translate(-179.62 -165.14)"/><path class="cls-1" d="M289.69,295.78h2.7v1.34h1.32v2.72h-1.32v1.32h-2.76v-1.32h-1.32v-1.38h1.38v1.32h2.64v-2.62h-2.7v-1.32h-1.32v-2.72h1.32v-1.34h2.76v1.34h1.32v1.38h-1.38v-1.34h-2.64Z" transform="translate(-179.62 -165.14)"/><path class="cls-1" d="M297.69,295.78h2.7v1.34h1.32v2.72h-1.32v1.32h-2.76v-1.32h-1.32v-1.38h1.38v1.32h2.64v-2.62h-2.7v-1.32h-1.32v-2.72h1.32v-1.34h2.76v1.34h1.32v1.38h-1.38v-1.34h-2.64Z" transform="translate(-179.62 -165.14)"/><path class="cls-1" d="M308.31,291.78h1.34v-2.66H311v2.66h1.34v1.38H311v8h-1.38v-8h-1.34Z" transform="translate(-179.62 -165.14)"/><path class="cls-1" d="M316.35,301.16H315V287.78h1.38v4h2.7v1.34h1.32v8H319v-8h-2.64Z" transform="translate(-179.62 -165.14)"/><path class="cls-1" d="M327.05,291.78v1.34h1.32v4h-4v2.62H327v-1.32h1.38v1.38h-1.32v1.32h-2.76v-1.32H323v-6.72h1.32v-1.34Zm-2.7,4H327v-2.62h-2.64Z" transform="translate(-179.62 -165.14)"/><path class="cls-1" d="M335,301.16V287.78h1.38v4h2.7v1.34h1.32v6.72h-1.32v1.32Zm1.38-1.38H339v-6.62h-2.64Z" transform="translate(-179.62 -165.14)"/><path class="cls-1" d="M347,291.78v1.38h-1.34v1.34h-1.34v6.66H343v-9.38h1.38v1.34h1.3v-1.34Z" transform="translate(-179.62 -165.14)"/><path class="cls-1" d="M349.69,290.5h-1.38v-1.38h1.38Zm0,10.66h-1.38v-9.38h1.38Z" transform="translate(-179.62 -165.14)"/><path class="cls-1" d="M352.31,293.12h1.32v-1.34h4.08V302.5h-1.32v1.34h-2.76v-1.4h2.7v-1.28h-2.7v-1.32h-1.32Zm4,6.66v-6.62h-2.64v6.62Z" transform="translate(-179.62 -165.14)"/><path class="cls-1" d="M364.39,291.78v1.34h1.32v4h-4v2.62h2.64v-1.32h1.38v1.38h-1.32v1.32h-2.76v-1.32h-1.32v-6.72h1.32v-1.34Zm-2.7,4h2.64v-2.62h-2.64Z" transform="translate(-179.62 -165.14)"/><path class="cls-1" d="M373.69,290.5h-1.38v-1.38h1.38Zm0,10.66h-1.38v-9.38h1.38Z" transform="translate(-179.62 -165.14)"/><path class="cls-1" d="M377.69,301.16h-1.38v-9.38h4.08v1.34h1.32v8h-1.38v-8h-2.64Z" transform="translate(-179.62 -165.14)"/><path class="cls-1" d="M388.31,293.12h1.34v-1.34H395v1.34h1.34v6.72H395v1.32h-5.38v-1.32h-1.34Zm2.72,0v6.62h2.62v-6.62Z" transform="translate(-179.62 -165.14)"/><path class="cls-1" d="M405.69,291.78v1.34H407v8h-2.72v-8H403v1.34h-1.34v6.66H399v-9.38h2.72v1.34H403v-1.34Z" transform="translate(-179.62 -165.14)"/><path class="cls-1" d="M417.69,298.46v1.38h-1.34v1.32H411v-1.32h-1.34v-6.72H411v-1.34h5.38v1.34h1.34v2.72h-1.34v1.32h-4v2.62h4v-1.32Zm-5.34-5.3v2.62H415v-2.62Z" transform="translate(-179.62 -165.14)"/><path class="cls-1" d="M436.35,291.78v1.34h1.34v8H435v-8h-1.28v1.34h-1.34v6.66h-2.72v-8h-1.28v1.34H427v6.66h-2.72v-9.38H427v1.34h1.28v-1.34H431v1.34h2.62v-1.34Z" transform="translate(-179.62 -165.14)"/><path class="cls-1" d="M443,290.5h-2.72v-1.38H443Zm0,10.66h-2.72v-9.38H443Z" transform="translate(-179.62 -165.14)"/><path class="cls-1" d="M452.35,291.78v1.34h1.34v8H451v-8h-1.28v1.34h-1.34v6.66h-2.72v-9.38h2.72v1.34h1.28v-1.34Z" transform="translate(-179.62 -165.14)"/><path class="cls-1" d="M456.29,291.78H459v8h2.62v-8h2.72v8.06H463v1.32h-5.38v-1.32h-1.34Z" transform="translate(-179.62 -165.14)"/><path class="cls-1" d="M465.63,291.78H467v-2.66h2.72v2.66H471v1.38h-1.34v8H467v-8h-1.32Z" transform="translate(-179.62 -165.14)"/><path class="cls-1" d="M480.35,298.46v1.38H479v1.32h-5.38v-1.32h-1.34v-6.72h1.34v-1.34H479v1.34h1.34v2.72H479v1.32h-4v2.62h4v-1.32Zm-5.34-5.3v2.62h2.62v-2.62Z" transform="translate(-179.62 -165.14)"/><path class="cls-1" d="M483,301.16v-1.38h2.7v2.72h-1.32v1.34H483v-1.4h1.32v-1.28Z" transform="translate(-179.62 -165.14)"/><path class="cls-1" d="M496.35,287.78v12.06H495v1.32h-2.72v-1.32H491v-2.72h1.38v2.66H495v-12Z" transform="translate(-179.62 -165.14)"/><path class="cls-1" d="M500.27,291.78H503v1.34h1.32v8h-4.08v-1.32H499v-4.06h1.32v-1.32H503v-1.3h-2.7Zm2.7,4.06h-2.64v3.94H503Z" transform="translate(-179.62 -165.14)"/><path class="cls-1" d="M515,291.78v1.34h1.32v8H515v-8h-2.62v8H511v-8h-2.62v8H507v-9.38H511v1.34h1.26v-1.34Z" transform="translate(-179.62 -165.14)"/><path class="cls-1" d="M523,291.78v1.34h1.32v4h-4v2.62H523v-1.32h1.38v1.38H523v1.32h-2.76v-1.32H519v-6.72h1.32v-1.34Zm-2.7,4H523v-2.62h-2.64Z" transform="translate(-179.62 -165.14)"/><path class="cls-1" d="M528.33,295.78H531v1.34h1.32v2.72H531v1.32h-2.76v-1.32H527v-1.38h1.38v1.32H531v-2.62h-2.7v-1.32H527v-2.72h1.32v-1.34H531v1.34h1.32v1.38H531v-1.34h-2.64Z" transform="translate(-179.62 -165.14)"/><path class="cls-1" d="M540.33,290.5H539v-1.38h1.38Zm0,10.66H539v-9.38h1.38Z" transform="translate(-179.62 -165.14)"/><path class="cls-1" d="M544.33,301.16H543v-9.38H547v1.34h1.32v8H547v-8h-2.64Z" transform="translate(-179.62 -165.14)"/><path class="cls-1" d="M553.63,291.78H555v-2.66h2.72v2.66H559v1.38h-1.34v8H555v-8h-1.32Z" transform="translate(-179.62 -165.14)"/><path class="cls-1" d="M573.69,291.78v4.06h-1.34v2.66H571v2.66h-2.72V298.5h-2.6v2.66H563V298.5h-1.34v-2.66h-1.34v-4.06H563v4h1.34v2.66h1.28v-1.32H567v-1.28h-1.34v-4.06h2.72v4h1.34v2.66H571v-6.66Z" transform="translate(-179.62 -165.14)"/><path class="cls-1" d="M576.29,293.12h1.34v-1.34H583v1.34h1.34v6.72H583v1.32h-5.38v-1.32h-1.34Zm2.72,0v6.62h2.62v-6.62Z" transform="translate(-179.62 -165.14)"/><path class="cls-1" d="M603,291.78v1.34h1.34v8h-2.72v-8h-1.28v1.34H599v6.66h-2.72v-8H595v1.34h-1.34v6.66H591v-9.38h2.72v1.34H595v-1.34h2.72v1.34h2.62v-1.34Z" transform="translate(-179.62 -165.14)"/><path class="cls-1" d="M609.67,290.5H607v-1.38h2.72Zm0,10.66H607v-9.38h2.72Z" transform="translate(-179.62 -165.14)"/><path class="cls-1" d="M619,291.78v1.34h1.34v8h-2.72v-8h-1.28v1.34H615v6.66h-2.72v-9.38H615v1.34h1.28v-1.34Z" transform="translate(-179.62 -165.14)"/><path class="cls-1" d="M623,291.78h2.72v8h2.62v-8H631v8.06h-1.34v1.32h-5.38v-1.32H623Z" transform="translate(-179.62 -165.14)"/><path class="cls-1" d="M632.29,291.78h1.32v-2.66h2.72v2.66h1.34v1.38h-1.34v8h-2.72v-8h-1.32Z" transform="translate(-179.62 -165.14)"/><path class="cls-1" d="M647,298.46v1.38h-1.34v1.32h-5.38v-1.32H639v-6.72h1.34v-1.34h5.38v1.34H647v2.72h-1.34v1.32h-4v2.62h4v-1.32Zm-5.34-5.3v2.62h2.62v-2.62Z" transform="translate(-179.62 -165.14)"/><path class="cls-1" d="M651,299.78h2.6V298.5h-1.32v-1.34H651v-1.32h-1.34v-2.72H651v-1.34h5.38v2.72H655v-1.34h-2.62v1.28h1.34v1.34H655v1.34h1.32v2.72H655v1.32h-5.4v-2.72H651Z" transform="translate(-179.62 -165.14)"/><path class="cls-1" d="M659,301.16v-1.38h2.7v2.72h-1.32v1.34H659v-1.4h1.32v-1.28Z" transform="translate(-179.62 -165.14)"/><path class="cls-1" d="M251.71,311.78v12.06h-1.34v1.32h-2.72v-1.32h-1.32v-2.72h1.38v2.66h2.62v-12Z" transform="translate(-179.62 -165.14)"/><path class="cls-1" d="M258.39,315.78v1.34h1.32v6.72h-1.32v1.32h-2.76v-1.32h-1.32v-6.72h1.32v-1.34Zm-2.7,8h2.64v-6.62h-2.64Z" transform="translate(-179.62 -165.14)"/><path class="cls-1" d="M263.69,325.16h-1.38V311.78h1.38v4h2.7v1.34h1.32v8h-1.38v-8h-2.64Z" transform="translate(-179.62 -165.14)"/><path class="cls-1" d="M271.69,325.16h-1.38v-9.38h4.08v1.34h1.32v8h-1.38v-8h-2.64Z" transform="translate(-179.62 -165.14)"/><path class="cls-1" d="M283.69,314.5h-1.38v-1.38h1.38Zm0,10.66h-1.38v-9.38h1.38Z" transform="translate(-179.62 -165.14)"/><path class="cls-1" d="M287.69,325.16h-1.38v-9.38h4.08v1.34h1.32v8h-1.38v-8h-2.64Z" transform="translate(-179.62 -165.14)"/><path class="cls-1" d="M306.37,311.78v1.38h-6.66v1.28H301v1.34h5.34v9.38h-2.72v-8H301v8h-2.72v-8H297v-1.38h1.32v-2.66h1.34v-1.34Z" transform="translate(-179.62 -165.14)"/><path class="cls-1" d="M317,315.78v4.06h-1.34v2.66h-1.32v2.66h-2.72V322.5h-1.34v-2.66H309v-4.06h2.72v4H313v2.66h1.28v-6.66Z" transform="translate(-179.62 -165.14)"/><path class="cls-1" d="M327.69,322.46v1.38h-1.34v1.32H321v-1.32h-1.34v-6.72H321v-1.34h5.38v1.34h1.34v2.72h-1.34v1.32h-4v2.62h4v-1.32Zm-5.34-5.3v2.62H325v-2.62Z" transform="translate(-179.62 -165.14)"/><path class="cls-1" d="M345,317.13v-1.35h2.72v9.38H345v-6.64h-1.28v1.32h-1.34v5.32h-2.72v-6.64h-1.28v1.32H337v5.32h-2.72v-9.38H337v2.68h1.28v-1.33h1.34v-1.35h2.72v2.68h1.28v-1.33Z" transform="translate(-179.62 -165.14)"/><path class="cls-1" d="M353,314.5h-2.72v-1.38H353Zm0,10.66h-2.72v-9.38H353Z" transform="translate(-179.62 -165.14)"/><path class="cls-1" d="M361,317.13v-1.35h2.72v9.38H361v-6.64h-1.28v1.32h-1.34v5.32h-2.72v-9.38h2.72v2.68h1.28v-1.33Z" transform="translate(-179.62 -165.14)"/><path class="cls-1" d="M366.29,315.78H369v8h2.62v-8h2.72v8.06H373v1.32h-5.38v-1.32h-1.34Z" transform="translate(-179.62 -165.14)"/><path class="cls-1" d="M378.29,317.16h-2.66v-1.38H377v-2.66h2.72v2.66H381v1.38h-1.34v8H377v-6.72h1.34Z" transform="translate(-179.62 -165.14)"/><path class="cls-1" d="M390.35,322.46v1.38H389v1.32h-5.38v-1.32h-1.34v-6.72h1.34v-1.34H389v1.34h1.34v2.72H389v1.32h-4v2.62h4v-1.32Zm-5.34-5.3v2.62h2.62v-2.62Z" transform="translate(-179.62 -165.14)"/><path class="cls-1" d="M399.67,318.5h-1.38v-1.34h-2.62v1.28H397v1.34h1.34v1.34h1.32v2.72h-1.32v1.32h-4.06v-1.32H393v-1.38h1.4v1.32H397v-1.26h-1.32v-1.35h-1.34v-1.32H393v-2.73h1.34v-1.34h4.06v1.34h1.32Z" transform="translate(-179.62 -165.14)"/><path class="cls-1" d="M407.61,315.78h2.76v1.34h1.32v8h-4.08v-1.32h-1.32v-4.06h1.32v-1.32h2.7v-1.3h-2.7Zm2.7,4.06h-2.64v3.94h2.64Z" transform="translate(-179.62 -165.14)"/><path class="cls-1" d="M415.67,325.16h-1.38v-9.38h4.08v1.34h1.32v8h-1.38v-8h-2.64Z" transform="translate(-179.62 -165.14)"/><path class="cls-1" d="M426.31,315.78v-4h1.38v13.38h-4.08v-1.32h-1.32v-6.72h1.32v-1.34Zm0,1.38h-2.64v6.62h2.64Z" transform="translate(-179.62 -165.14)"/><path class="cls-1" d="M438.35,311.78v12.06H437v1.32h-2.72v-1.32H433v-2.72h1.38v2.66H437v-12Z" transform="translate(-179.62 -165.14)"/><path class="cls-1" d="M442.33,314.5H441v-1.38h1.38Zm0,10.66H441v-9.38h1.38Z" transform="translate(-179.62 -165.14)"/><path class="cls-1" d="M453,315.78v1.34h1.32v8H453v-8h-2.62v8H449v-8h-2.62v8H445v-9.38H449v1.34h1.26v-1.34Z" transform="translate(-179.62 -165.14)"/><path class="cls-1" d="M462.33,314.5H461v-1.38h1.38Zm0,10.66H461v-9.38h1.38Z" transform="translate(-179.62 -165.14)"/><path class="cls-1" d="M466.33,325.16H465v-9.38H469v1.34h1.32v8H469v-8h-2.64Z" transform="translate(-179.62 -165.14)"/><path class="cls-1" d="M485,322.46v1.38h-1.34v1.32h-5.38v-1.32H477v-6.72h1.34v-1.34h5.38v1.34H485v2.72h-1.34v1.32h-4v2.62h4v-1.32Zm-5.34-5.3v2.62h2.62v-2.62Z" transform="translate(-179.62 -165.14)"/><path class="cls-1" d="M490.33,314.5h-2.72v-1.38h2.72Zm0,10.66h-2.72v-9.38h2.72Z" transform="translate(-179.62 -165.14)"/><path class="cls-1" d="M498.29,325.16h-4v-1.32H493v-6.72h1.34v-1.34h8.06v1.38H501v9.34h-1.34v1.34h-5.38v-1.4h4Zm-2.62-8v6.62h2.62v-6.62Z" transform="translate(-179.62 -165.14)"/><path class="cls-1" d="M506.33,318.5v6.66h-2.72V311.78h2.72v5.34h1.28v-1.34h2.72v1.34h1.34v8H509v-8h-1.28v1.34Z" transform="translate(-179.62 -165.14)"/><path class="cls-1" d="M513,315.78h1.32v-2.66H517v2.66h1.34v1.38H517v8h-2.72v-8H513Z" transform="translate(-179.62 -165.14)"/><path class="cls-1" d="M535.67,315.78v1.34H537v8h-2.72v-8H533v1.34h-1.34v6.66H529v-8h-1.28v1.34h-1.34v6.66h-2.72v-9.38h2.72v1.34h1.28v-1.34h2.72v1.34H533v-1.34Z" transform="translate(-179.62 -165.14)"/><path class="cls-1" d="M542.33,314.5h-2.72v-1.38h2.72Zm0,10.66h-2.72v-9.38h2.72Z" transform="translate(-179.62 -165.14)"/><path class="cls-1" d="M551.67,315.78v1.34H553v8h-2.72v-8H549v1.34h-1.34v6.66H545v-9.38h2.72v1.34H549v-1.34Z" transform="translate(-179.62 -165.14)"/><path class="cls-1" d="M555.61,315.78h2.72v8H561v-8h2.72v8.06h-1.34v1.32H557v-1.32h-1.34Z" transform="translate(-179.62 -165.14)"/><path class="cls-1" d="M565,315.78h1.32v-2.66H569v2.66h1.34v1.38H569v8h-2.72v-8H565Z" transform="translate(-179.62 -165.14)"/><path class="cls-1" d="M579.67,322.46v1.38h-1.34v1.32H573v-1.32h-1.34v-6.72H573v-1.34h5.38v1.34h1.34v2.72h-1.34v1.32h-4v2.62h4v-1.32Zm-5.34-5.3v2.62H577v-2.62Z" transform="translate(-179.62 -165.14)"/><path class="cls-1" d="M583.67,323.78h2.6V322.5H585v-1.34h-1.34v-1.32h-1.34v-2.72h1.34v-1.34H589v2.72h-1.38v-1.34H585v1.28h1.34v1.34h1.34v1.34H589v2.72h-1.32v1.32h-5.4v-2.72h1.4Z" transform="translate(-179.62 -165.14)"/><path class="cls-1" d="M593,325.16h-1.38v-2.72H593Z" transform="translate(-179.62 -165.14)"/><path class="cls-1" d="M203.67,335.78v4.06h-1.32v5.32H201v4h-1.38v-4H197v4h-1.39v-4h-1.35v-5.32H193v-4.06h1.38v4h1.33v5.34H197v-1.34h1.32v-3.94H197v-4.06h1.38v4h1.33v5.34H201v-5.34h1.32v-4Z" transform="translate(-179.62 -165.14)"/><path class="cls-1" d="M207.69,349.16h-1.38V335.78h1.38v4h2.7v1.34h1.32v8h-1.38v-8h-2.64Z" transform="translate(-179.62 -165.14)"/><path class="cls-1" d="M218.39,339.78v1.34h1.32v4h-4v2.62h2.64v-1.32h1.38v1.38h-1.32v1.32h-2.76v-1.32h-1.32v-6.72h1.32v-1.34Zm-2.7,4h2.64v-2.62h-2.64Z" transform="translate(-179.62 -165.14)"/><path class="cls-1" d="M223.69,349.16h-1.38v-9.38h4.08v1.34h1.32v8h-1.38v-8h-2.64Z" transform="translate(-179.62 -165.14)"/><path class="cls-1" d="M234.31,339.78h1.34v-2.66H237v2.66h1.34v1.38H237v8h-1.38v-8h-1.34Z" transform="translate(-179.62 -165.14)"/><path class="cls-1" d="M251.67,339.78v2.72h-1.32v4H249v2.66h-1.38V346.5H245v2.66h-1.39V346.5h-1.35v-4H241v-2.72h1.38v2.66h1.33v4H245v-1.32h1.34V342.5H245v-2.72h1.38v2.66h1.33v4H249v-4h1.32v-2.66Z" transform="translate(-179.62 -165.14)"/><path class="cls-1" d="M258.39,339.78v1.34h1.32v6.72h-1.32v1.32h-2.76v-1.32h-1.32v-6.72h1.32v-1.34Zm-2.7,8h2.64v-6.62h-2.64Z" transform="translate(-179.62 -165.14)"/><path class="cls-1" d="M274.37,339.78v1.34h1.32v8h-1.38v-8h-2.62v8h-1.38v-8h-2.62v8h-1.38v-9.38h4.06v1.34h1.26v-1.34Z" transform="translate(-179.62 -165.14)"/><path class="cls-1" d="M282.39,339.78v1.34h1.32v6.72h-1.32v1.32h-2.76v-1.32h-1.32v-6.72h1.32v-1.34Zm-2.7,8h2.64v-6.62h-2.64Z" transform="translate(-179.62 -165.14)"/><path class="cls-1" d="M287.69,349.16h-1.38v-9.38h4.08v1.34h1.32v8h-1.38v-8h-2.64Z" transform="translate(-179.62 -165.14)"/><path class="cls-1" d="M299.71,339.78v2.72h-1.32v1.34h-1.34v1.28h1.34v1.32h1.32v2.72h-1.38V346.5H297v-1.34h-1.3v4h-1.38V335.78h1.38v8H297v-1.34h1.34v-2.66Z" transform="translate(-179.62 -165.14)"/><path class="cls-1" d="M303.69,343.78h2.7v1.34h1.32v2.72h-1.32v1.32h-2.76v-1.32h-1.32v-1.38h1.38v1.32h2.64v-2.62h-2.7v-1.32h-1.32v-2.72h1.32v-1.34h2.76v1.34h1.32v1.38h-1.38v-1.34h-2.64Z" transform="translate(-179.62 -165.14)"/><path class="cls-1" d="M315.69,347.78h2.64v-1.32h1.38v1.38h-1.32v1.32h-2.76v-1.32h-1.32v-6.72h1.32v-1.34h2.76v1.34h1.32v1.38h-1.38v-1.34h-2.64Z" transform="translate(-179.62 -165.14)"/><path class="cls-1" d="M326.37,339.78v1.38H325v1.34h-1.34v6.66h-1.38v-9.38h1.38v1.34H325v-1.34Z" transform="translate(-179.62 -165.14)"/><path class="cls-1" d="M331.73,339.78v1.34h1.32v6.72h-1.32v1.32H329v-1.32h-1.32v-6.72H329v-1.34Zm-2.7,8h2.64v-6.62H329Z" transform="translate(-179.62 -165.14)"/><path class="cls-1" d="M337,343.78h2.7v1.34h1.32v2.72h-1.32v1.32H337v-1.32h-1.32v-1.38H337v1.32h2.64v-2.62H337v-1.32h-1.32v-2.72H337v-1.34h2.76v1.34h1.32v1.38h-1.38v-1.34H337Z" transform="translate(-179.62 -165.14)"/><path class="cls-1" d="M345,343.78h2.7v1.34h1.32v2.72h-1.32v1.32H345v-1.32h-1.32v-1.38H345v1.32h2.64v-2.62H345v-1.32h-1.32v-2.72H345v-1.34h2.76v1.34h1.32v1.38h-1.38v-1.34H345Z" transform="translate(-179.62 -165.14)"/><path class="cls-1" d="M355.65,339.78H357v-2.66h1.38v2.66h1.34v1.38h-1.34v8H357v-8h-1.34Z" transform="translate(-179.62 -165.14)"/><path class="cls-1" d="M363.69,349.16h-1.38V335.78h1.38v4h2.7v1.34h1.32v8h-1.38v-8h-2.64Z" transform="translate(-179.62 -165.14)"/><path class="cls-1" d="M374.39,339.78v1.34h1.32v4h-4v2.62h2.64v-1.32h1.38v1.38h-1.32v1.32h-2.76v-1.32h-1.32v-6.72h1.32v-1.34Zm-2.7,4h2.64v-2.62h-2.64Z" transform="translate(-179.62 -165.14)"/><path class="cls-1" d="M382.31,349.16V335.78h1.38v4h2.7v1.34h1.32v6.72h-1.32v1.32Zm1.38-1.38h2.64v-6.62h-2.64Z" transform="translate(-179.62 -165.14)"/><path class="cls-1" d="M394.37,339.78v1.38H393v1.34h-1.34v6.66h-1.38v-9.38h1.38v1.34H393v-1.34Z" transform="translate(-179.62 -165.14)"/><path class="cls-1" d="M397,338.5h-1.38v-1.38H397Zm0,10.66h-1.38v-9.38H397Z" transform="translate(-179.62 -165.14)"/><path class="cls-1" d="M403.67,339.78v-4h1.38v13.38H401v-1.32h-1.32v-6.72H401v-1.34Zm0,1.38H401v6.62h2.64Z" transform="translate(-179.62 -165.14)"/><path class="cls-1" d="M407.65,341.12H409v-1.34h4.08V350.5h-1.32v1.34H409v-1.4h2.7v-1.28H409v-1.32h-1.32Zm4,6.66v-6.62H409v6.62Z" transform="translate(-179.62 -165.14)"/><path class="cls-1" d="M419.73,339.78v1.34h1.32v4h-4v2.62h2.64v-1.32h1.38v1.38h-1.32v1.32H417v-1.32h-1.32v-6.72H417v-1.34Zm-2.7,4h2.64v-2.62H417Z" transform="translate(-179.62 -165.14)"/><path class="cls-1" d="M427.65,339.78H429v-2.66h1.38v2.66h1.34v1.38h-1.34v8H429v-8h-1.34Z" transform="translate(-179.62 -165.14)"/><path class="cls-1" d="M438.39,339.78v1.34h1.32v6.72h-1.32v1.32h-2.76v-1.32h-1.32v-6.72h1.32v-1.34Zm-2.7,8h2.64v-6.62h-2.64Z" transform="translate(-179.62 -165.14)"/><path class="cls-1" d="M442.31,341.12h1.32v-1.34h4.08V350.5h-1.32v1.34h-2.76v-1.4h2.7v-1.28h-2.7v-1.32h-1.32Zm4,6.66v-6.62h-2.64v6.62Z" transform="translate(-179.62 -165.14)"/><path class="cls-1" d="M454.39,339.78v1.34h1.32v4h-4v2.62h2.64v-1.32h1.38v1.38h-1.32v1.32h-2.76v-1.32h-1.32v-6.72h1.32v-1.34Zm-2.7,4h2.64v-2.62h-2.64Z" transform="translate(-179.62 -165.14)"/><path class="cls-1" d="M458.31,339.78h1.34v-2.66H461v2.66h1.34v1.38H461v8h-1.38v-8h-1.34Z" transform="translate(-179.62 -165.14)"/><path class="cls-1" d="M466.35,349.16H465V335.78h1.38v4h2.7v1.34h1.32v8H469v-8h-2.64Z" transform="translate(-179.62 -165.14)"/><path class="cls-1" d="M477.05,339.78v1.34h1.32v4h-4v2.62H477v-1.32h1.38v1.38h-1.32v1.32h-2.76v-1.32H473v-6.72h1.32v-1.34Zm-2.7,4H477v-2.62h-2.64Z" transform="translate(-179.62 -165.14)"/><path class="cls-1" d="M485,339.78v1.38h-1.34v1.34h-1.34v6.66H481v-9.38h1.38v1.34h1.3v-1.34Z" transform="translate(-179.62 -165.14)"/><path class="cls-1" d="M486.31,349.16v-1.38H489v2.72h-1.32v1.34h-1.38v-1.4h1.32v-1.28Z" transform="translate(-179.62 -165.14)"/><path class="cls-1" d="M495.65,339.78H497v-2.66h1.38v2.66h1.34v1.38h-1.34v8H497v-8h-1.34Z" transform="translate(-179.62 -165.14)"/><path class="cls-1" d="M503.69,349.16h-1.38V335.78h1.38v4h2.7v1.34h1.32v8h-1.38v-8h-2.64Z" transform="translate(-179.62 -165.14)"/><path class="cls-1" d="M514.39,339.78v1.34h1.32v4h-4v2.62h2.64v-1.32h1.38v1.38h-1.32v1.32h-2.76v-1.32h-1.32v-6.72h1.32v-1.34Zm-2.7,4h2.64v-2.62h-2.64Z" transform="translate(-179.62 -165.14)"/><path class="cls-1" d="M525,339.78v2.72h-1.32v4h-1.32v2.66H521v2.68h-1.4v-2.72H521V346.5h-1.34v-4h-1.32v-2.72h1.38v2.66H521v4h1.3v-4h1.32v-2.66Z" transform="translate(-179.62 -165.14)"/><path class="cls-1" d="M539.71,339.78v1.34H541v8h-1.38v-8H537v8h-1.38v-8H533v8h-1.38v-9.38h4.06v1.34H537v-1.34Z" transform="translate(-179.62 -165.14)"/><path class="cls-1" d="M543.65,339.78H545v8h2.64v-8h1.38v9.38H545v-1.32h-1.32Z" transform="translate(-179.62 -165.14)"/><path class="cls-1" d="M553,343.78h2.7v1.34h1.32v2.72h-1.32v1.32H553v-1.32h-1.32v-1.38H553v1.32h2.64v-2.62H553v-1.32h-1.32v-2.72H553v-1.34h2.76v1.34h1.32v1.38h-1.38v-1.34H553Z" transform="translate(-179.62 -165.14)"/><path class="cls-1" d="M558.31,339.78h1.34v-2.66H561v2.66h1.34v1.38H561v8h-1.38v-8h-1.34Z" transform="translate(-179.62 -165.14)"/><path class="cls-1" d="M577,339.78v1.34h1.32v8H577v-8h-2.62v8H573v-8h-2.62v8H569v-9.38H573v1.34h1.26v-1.34Z" transform="translate(-179.62 -165.14)"/><path class="cls-1" d="M585.05,339.78v1.34h1.32v6.72h-1.32v1.32h-2.76v-1.32H581v-6.72h1.32v-1.34Zm-2.7,8H585v-6.62h-2.64Z" transform="translate(-179.62 -165.14)"/><path class="cls-1" d="M595.69,339.78v2.72h-1.32v4h-1.32v2.66h-1.4V346.5h-1.36v-4H589v-2.72h1.38v2.66h1.34v4H593v-4h1.32v-2.66Z" transform="translate(-179.62 -165.14)"/><path class="cls-1" d="M602.39,339.78v1.34h1.32v4h-4v2.62h2.64v-1.32h1.38v1.38h-1.32v1.32h-2.76v-1.32h-1.32v-6.72h1.32v-1.34Zm-2.7,4h2.64v-2.62h-2.64Z" transform="translate(-179.62 -165.14)"/><path class="cls-1" d="M611.63,339.78h2.76v1.34h1.32v8h-4.08v-1.32h-1.32v-4.06h1.32v-1.32h2.7v-1.3h-2.7Zm2.7,4.06h-2.64v3.94h2.64Z" transform="translate(-179.62 -165.14)"/><path class="cls-1" d="M618.31,339.78h1.34v-2.66H621v2.66h1.34v1.38H621v8h-1.38v-8h-1.34Z" transform="translate(-179.62 -165.14)"/><path class="cls-1" d="M629,339.78h1.34v-2.66h1.38v2.66H633v1.38h-1.34v8h-1.38v-8H629Z" transform="translate(-179.62 -165.14)"/><path class="cls-1" d="M637,349.16h-1.38V335.78H637v4h2.7v1.34H641v8h-1.38v-8H637Z" transform="translate(-179.62 -165.14)"/><path class="cls-1" d="M647.71,339.78v1.34H649v4h-4v2.62h2.64v-1.32H649v1.38h-1.32v1.32H645v-1.32h-1.32v-6.72H645v-1.34Zm-2.7,4h2.64v-2.62H645Z" transform="translate(-179.62 -165.14)"/><path class="cls-1" d="M183.69,367.78h2.7v1.34h1.32v2.72h-1.32v1.32h-2.76v-1.32h-1.32v-1.38h1.38v1.32h2.64v-2.62h-2.7v-1.32h-1.32v-2.72h1.32v-1.34h2.76v1.34h1.32v1.38h-1.38v-1.34h-2.64Z" transform="translate(-179.62 -165.14)"/><path class="cls-1" d="M191.69,373.16h-1.38V359.78h1.38Z" transform="translate(-179.62 -165.14)"/><path class="cls-1" d="M198.39,363.78v1.34h1.32v6.72h-1.32v1.32h-2.76v-1.32h-1.32v-6.72h1.32v-1.34Zm-2.7,8h2.64v-6.62h-2.64Z" transform="translate(-179.62 -165.14)"/><path class="cls-1" d="M213,363.78v2.72h-1.32v4h-1.32v2.66H209V370.5h-2.62v2.66H205V370.5h-1.35v-4h-1.32v-2.72h1.38v2.66H205v4h1.29v-1.32h1.34V366.5h-1.34v-2.72h1.38v2.66H209v4h1.29v-4h1.32v-2.66Z" transform="translate(-179.62 -165.14)"/><path class="cls-1" d="M219.73,363.78v1.34h1.32v4h-4v2.62h2.64v-1.32h1.38v1.38h-1.32v1.32H217v-1.32h-1.32v-6.72H217v-1.34Zm-2.7,4h2.64v-2.62H217Z" transform="translate(-179.62 -165.14)"/><path class="cls-1" d="M227.71,363.78v1.38h-1.34v1.34H225v6.66h-1.38v-9.38H225v1.34h1.3v-1.34Z" transform="translate(-179.62 -165.14)"/><path class="cls-1" d="M238.39,371.84h-1.32v1.32h-2.7v2.68H233V363.78h4.08v1.34h1.32Zm-4-6.68v6.62H237v-6.62Z" transform="translate(-179.62 -165.14)"/><path class="cls-1" d="M245.07,363.78v1.34h1.32v4h-4v2.62H245v-1.32h1.38v1.38h-1.32v1.32h-2.76v-1.32H241v-6.72h1.32v-1.34Zm-2.7,4H245v-2.62h-2.64Z" transform="translate(-179.62 -165.14)"/><path class="cls-1" d="M253.05,363.78v1.38h-1.34v1.34h-1.34v6.66H249v-9.38h1.38v1.34h1.3v-1.34Z" transform="translate(-179.62 -165.14)"/><path class="cls-1" d="M255.71,367.78h2.7v1.34h1.32v2.72h-1.32v1.32h-2.76v-1.32h-1.32v-1.38h1.38v1.32h2.64v-2.62h-2.7v-1.32h-1.32v-2.72h1.32v-1.34h2.76v1.34h1.32v1.38h-1.38v-1.34h-2.64Z" transform="translate(-179.62 -165.14)"/><path class="cls-1" d="M266.41,363.78v1.34h1.32v6.72h-1.32v1.32h-2.76v-1.32h-1.32v-6.72h1.32v-1.34Zm-2.7,8h2.64v-6.62h-2.64Z" transform="translate(-179.62 -165.14)"/><path class="cls-1" d="M271.71,373.16h-1.38v-9.38h4.08v1.34h1.32v8h-1.38v-8h-2.64Z" transform="translate(-179.62 -165.14)"/><path class="cls-1" d="M279.71,363.84h-1.38v-4.06h1.38Z" transform="translate(-179.62 -165.14)"/><path class="cls-1" d="M283.71,367.78h2.7v1.34h1.32v2.72h-1.32v1.32h-2.76v-1.32h-1.32v-1.38h1.38v1.32h2.64v-2.62h-2.7v-1.32h-1.32v-2.72h1.32v-1.34h2.76v1.34h1.32v1.38h-1.38v-1.34h-2.64Z" transform="translate(-179.62 -165.14)"/><path class="cls-1" d="M299.73,371.84h-1.32v1.32h-2.7v2.68h-1.38V363.78h4.08v1.34h1.32Zm-4-6.68v6.62h2.64v-6.62Z" transform="translate(-179.62 -165.14)"/><path class="cls-1" d="M303.65,363.78h2.76v1.34h1.32v8h-4.08v-1.32h-1.32v-4.06h1.32v-1.32h2.7v-1.3h-2.7Zm2.7,4.06h-2.64v3.94h2.64Z" transform="translate(-179.62 -165.14)"/><path class="cls-1" d="M311.71,371.78h2.64v-1.32h1.38v1.38h-1.32v1.32h-2.76v-1.32h-1.32v-6.72h1.32v-1.34h2.76v1.34h1.32v1.38h-1.38v-1.34h-2.64Z" transform="translate(-179.62 -165.14)"/><path class="cls-1" d="M322.41,363.78v1.34h1.32v4h-4v2.62h2.64v-1.32h1.38v1.38h-1.32v1.32h-2.76v-1.32h-1.32v-6.72h1.32v-1.34Zm-2.7,4h2.64v-2.62h-2.64Z" transform="translate(-179.62 -165.14)"/><path class="cls-1" d="M327.71,373.16h-1.38v-2.72h1.38Z" transform="translate(-179.62 -165.14)"/><path class="cls-1" d="M334.35,359.78h6.72v1.38h-2.68v12H337v-12h-2.66Z" transform="translate(-179.62 -165.14)"/><path class="cls-1" d="M343.71,373.16h-1.38V359.78h1.38v4h2.7v1.34h1.32v8h-1.38v-8h-2.64Z" transform="translate(-179.62 -165.14)"/><path class="cls-1" d="M354.41,363.78v1.34h1.32v4h-4v2.62h2.64v-1.32h1.38v1.38h-1.32v1.32h-2.76v-1.32h-1.32v-6.72h1.32v-1.34Zm-2.7,4h2.64v-2.62h-2.64Z" transform="translate(-179.62 -165.14)"/><path class="cls-1" d="M362.33,365.12h1.32v-1.34h4.08v12.06h-1.38v-2.68h-2.7v-1.32h-1.32Zm4,6.66v-6.62h-2.64v6.62Z" transform="translate(-179.62 -165.14)"/><path class="cls-1" d="M370.33,363.78h1.38v8h2.64v-8h1.38v9.38h-4.08v-1.32h-1.32Z" transform="translate(-179.62 -165.14)"/><path class="cls-1" d="M382.41,363.78v1.34h1.32v4h-4v2.62h2.64v-1.32h1.38v1.38h-1.32v1.32h-2.76v-1.32h-1.32v-6.72h1.32v-1.34Zm-2.7,4h2.64v-2.62h-2.64Z" transform="translate(-179.62 -165.14)"/><path class="cls-1" d="M387.71,367.78h2.7v1.34h1.32v2.72h-1.32v1.32h-2.76v-1.32h-1.32v-1.38h1.38v1.32h2.64v-2.62h-2.7v-1.32h-1.32v-2.72h1.32v-1.34h2.76v1.34h1.32v1.38h-1.38v-1.34h-2.64Z" transform="translate(-179.62 -165.14)"/><path class="cls-1" d="M393,363.78h1.34v-2.66h1.38v2.66h1.34v1.38h-1.34v8h-1.38v-8H393Z" transform="translate(-179.62 -165.14)"/><path class="cls-1" d="M401,362.5h-1.38v-1.38H401Zm0,10.66h-1.38v-9.38H401Z" transform="translate(-179.62 -165.14)"/><path class="cls-1" d="M407.73,363.78v1.34h1.32v6.72h-1.32v1.32H405v-1.32h-1.32v-6.72H405v-1.34Zm-2.7,8h2.64v-6.62H405Z" transform="translate(-179.62 -165.14)"/><path class="cls-1" d="M413,373.16h-1.38v-9.38h4.08v1.34h1.32v8h-1.38v-8H413Z" transform="translate(-179.62 -165.14)"/><path class="cls-1" d="M425,362.5h-1.38v-1.38H425Zm0,10.66h-1.38v-9.38H425Z" transform="translate(-179.62 -165.14)"/><path class="cls-1" d="M429,367.78h2.7v1.34h1.32v2.72h-1.32v1.32H429v-1.32h-1.32v-1.38H429v1.32h2.64v-2.62H429v-1.32h-1.32v-2.72H429v-1.34h2.76v1.34h1.32v1.38h-1.38v-1.34H429Z" transform="translate(-179.62 -165.14)"/><path class="cls-1" d="M435.65,373.16v-1.38h2.7v2.72H437v1.34h-1.38v-1.4H437v-1.28Z" transform="translate(-179.62 -165.14)"/><path class="cls-1" d="M446.33,373.16v-1.32H445v-6.72h1.34v-1.34h5.38v2.72h-1.38v-1.34h-2.62v6.62h2.62v-1.32h1.38v1.38h-1.32v1.32Z" transform="translate(-179.62 -165.14)"/><path class="cls-1" d="M454.33,367.78h1.34v-1.32h4v-1.3h-4v-1.38h5.38v1.34h1.34v8h-6.72v-1.32h-1.34Zm2.72.06v3.94h2.62v-3.94Z" transform="translate(-179.62 -165.14)"/><path class="cls-1" d="M471.71,363.78v1.34h1.34v8h-2.72v-8h-1.28v1.34h-1.34v6.66H465v-9.38h2.72v1.34H469v-1.34Z" transform="translate(-179.62 -165.14)"/><path class="cls-1" d="M478.33,363.78h1.32v-2.66h2.72v2.66h1.34v1.38h-1.34v8h-2.72v-8h-1.32Z" transform="translate(-179.62 -165.14)"/><path class="cls-1" d="M487.71,366.5v6.66H485V359.78h2.72v5.34H489v-1.34h2.72v1.34h1.34v8h-2.72v-8h-1.28v1.34Z" transform="translate(-179.62 -165.14)"/><path class="cls-1" d="M503.71,370.46v1.38h-1.34v1.32H497v-1.32h-1.34v-6.72H497v-1.34h5.38v1.34h1.34v2.72h-1.34v1.32h-4v2.62h4v-1.32Zm-5.34-5.3v2.62H501v-2.62Z" transform="translate(-179.62 -165.14)"/><path class="cls-1" d="M510.31,371.84H509v-2.68h-1.34V366.5h-1.34v-2.72H509v2.66h1.34v2.68h1.28v-5.34h2.72v2.72H513v4h-1.32v4h-1.34v1.34h-2.72v-2.72h2.66Z" transform="translate(-179.62 -165.14)"/><path class="cls-1" d="M521,367.78h1.34v-1.32h4v-1.3h-4v-1.38h5.38v1.34H529v8h-6.72v-1.32H521Zm2.72.06v3.94h2.62v-3.94Z" transform="translate(-179.62 -165.14)"/><path class="cls-1" d="M534.35,373.16h-2.72V359.78h2.72Z" transform="translate(-179.62 -165.14)"/><path class="cls-1" d="M539.69,373.16H537V359.78h2.72Z" transform="translate(-179.62 -165.14)"/><path class="cls-1" d="M551.65,373.16h-4v-1.32h-1.34v-6.72h1.34v-1.34h8.06v1.38h-1.34v9.34H553v1.34h-5.38v-1.4h4Zm-2.62-8v6.62h2.62v-6.62Z" transform="translate(-179.62 -165.14)"/><path class="cls-1" d="M565,370.46v1.38h-1.34v1.32h-5.38v-1.32H557v-6.72h1.34v-1.34h5.38v1.34H565v2.72h-1.34v1.32h-4v2.62h4v-1.32Zm-5.34-5.3v2.62h2.62v-2.62Z" transform="translate(-179.62 -165.14)"/><path class="cls-1" d="M566.31,363.78h1.32v-2.66h2.72v2.66h1.34v1.38h-1.34v8h-2.72v-8h-1.32Z" transform="translate(-179.62 -165.14)"/><path class="cls-1" d="M577,367.78h1.34v-1.32h4v-1.3h-4v-1.38h5.38v1.34H585v8h-6.72v-1.32H577Zm2.72.06v3.94h2.62v-3.94Z" transform="translate(-179.62 -165.14)"/><path class="cls-1" d="M589,373.16v-1.32h-1.34v-6.72H589v-1.34h5.38v2.72H593v-1.34h-2.62v6.62H593v-1.32h1.38v1.38H593v1.32Z" transform="translate(-179.62 -165.14)"/><path class="cls-1" d="M599.69,365.12H601v-1.34h1.4v2.72h-2.68v6.66H597v-9.38h2.72Z" transform="translate(-179.62 -165.14)"/><path class="cls-1" d="M603.63,365.12H605v-1.34h5.38v1.34h1.34v6.72h-1.34v1.32H605v-1.32h-1.34Zm2.72,0v6.62H609v-6.62Z" transform="translate(-179.62 -165.14)"/><path class="cls-1" d="M615.69,371.78h2.6V370.5H617v-1.34h-1.34v-1.32h-1.34v-2.72h1.34v-1.34H621v2.72h-1.38v-1.34H617v1.28h1.34v1.34h1.34v1.34H621v2.72h-1.32v1.32h-5.4v-2.72h1.4Z" transform="translate(-179.62 -165.14)"/><path class="cls-1" d="M623.69,371.78h2.6V370.5H625v-1.34h-1.34v-1.32h-1.34v-2.72h1.34v-1.34H629v2.72h-1.38v-1.34H625v1.28h1.34v1.34h1.34v1.34H629v2.72h-1.32v1.32h-5.4v-2.72h1.4Z" transform="translate(-179.62 -165.14)"/><path class="cls-1" d="M634.31,363.78h1.32v-2.66h2.72v2.66h1.34v1.38h-1.34v8h-2.72v-8h-1.32Z" transform="translate(-179.62 -165.14)"/><path class="cls-1" d="M643.69,366.5v6.66H641V359.78h2.72v5.34H645v-1.34h2.72v1.34H649v8h-2.72v-8H645v1.34Z" transform="translate(-179.62 -165.14)"/><path class="cls-1" d="M659.69,370.46v1.38h-1.34v1.32H653v-1.32h-1.34v-6.72H653v-1.34h5.38v1.34h1.34v2.72h-1.34v1.32h-4v2.62h4v-1.32Zm-5.34-5.3v2.62H657v-2.62Z" transform="translate(-179.62 -165.14)"/><path class="cls-1" d="M304.37,387.78h4v1.34h1.34v6.72h-1.34v1.32h-6.72V383.78h2.72Zm0,1.38v6.62H307v-6.62Z" transform="translate(-179.62 -165.14)"/><path class="cls-1" d="M315,389.12h1.28v-1.34h1.4v2.72H315v6.66h-2.72v-9.38H315Z" transform="translate(-179.62 -165.14)"/><path class="cls-1" d="M321.69,386.5H319v-1.38h2.72Zm0,10.66H319v-9.38h2.72Z" transform="translate(-179.62 -165.14)"/><path class="cls-1" d="M324.31,389.12h1.34v-1.34h4v-4h2.72v13.38h-6.72v-1.32h-1.34Zm2.72,0v6.62h2.62v-6.62Z" transform="translate(-179.62 -165.14)"/><path class="cls-1" d="M340.31,397.16h-4v-1.32H335v-6.72h1.34v-1.34h8.06v1.38H343v9.34h-1.34v1.34h-5.38v-1.4h4Zm-2.62-8v6.62h2.62v-6.62Z" transform="translate(-179.62 -165.14)"/><path class="cls-1" d="M353.69,394.46v1.38h-1.34v1.32H347v-1.32h-1.34v-6.72H347v-1.34h5.38v1.34h1.34v2.72h-1.34v1.32h-4v2.62h4v-1.32Zm-5.34-5.3v2.62H351v-2.62Z" transform="translate(-179.62 -165.14)"/><path class="cls-1" d="M363,386.5h-2.72v-1.38H363Zm0,10.66h-2.72v-9.38H363Z" transform="translate(-179.62 -165.14)"/><path class="cls-1" d="M372.35,387.78v1.34h1.34v8H371v-8h-1.28v1.34h-1.34v6.66h-2.72v-9.38h2.72v1.34h1.28v-1.34Z" transform="translate(-179.62 -165.14)"/><path class="cls-1" d="M380.29,385.12h1.34v-1.34h2.72v13.38h-2.72V386.5h-1.34Z" transform="translate(-179.62 -165.14)"/><path class="cls-1" d="M392.29,390.5h-4v-6.72H395v1.38h-4v4h2.68v1.32H395v5.4h-1.32v1.32h-5.4v-1.38h4Z" transform="translate(-179.62 -165.14)"/><path class="cls-1" d="M413.69,387.78v1.34H415v8h-2.72v-8H411v1.34h-1.34v6.66H407v-8h-1.28v1.34h-1.34v6.66h-2.72v-9.38h2.72v1.34h1.28v-1.34h2.72v1.34H411v-1.34Z" transform="translate(-179.62 -165.14)"/><path class="cls-1" d="M420.35,386.5h-2.72v-1.38h2.72Zm0,10.66h-2.72v-9.38h2.72Z" transform="translate(-179.62 -165.14)"/><path class="cls-1" d="M429.69,387.78v1.34H431v8h-2.72v-8H427v1.34h-1.34v6.66H423v-9.38h2.72v1.34H427v-1.34Z" transform="translate(-179.62 -165.14)"/><path class="cls-1" d="M433.63,387.78h2.72v8H439v-8h2.72v8.06h-1.34v1.32H435v-1.32h-1.34Z" transform="translate(-179.62 -165.14)"/><path class="cls-1" d="M443,387.78h1.32v-2.66H447v2.66h1.34v1.38H447v8h-2.72v-8H443Z" transform="translate(-179.62 -165.14)"/><path class="cls-1" d="M457.69,394.46v1.38h-1.34v1.32H451v-1.32h-1.34v-6.72H451v-1.34h5.38v1.34h1.34v2.72h-1.34v1.32h-4v2.62h4v-1.32Zm-5.34-5.3v2.62H455v-2.62Z" transform="translate(-179.62 -165.14)"/><path class="cls-1" d="M461.69,395.78h2.6V394.5H463v-1.34h-1.34v-1.32h-1.34v-2.72h1.34v-1.34H467v2.72h-1.38v-1.34H463v1.28h1.34v1.34h1.34v1.34H467v2.72h-1.32v1.32h-5.4v-2.72h1.4Z" transform="translate(-179.62 -165.14)"/><path class="cls-1" d="M473.63,389.12H475v-1.34h5.38v1.34h1.34v6.72h-1.34v1.32H475v-1.32h-1.34Zm2.72,0v6.62H479v-6.62Z" transform="translate(-179.62 -165.14)"/><path class="cls-1" d="M487,389.12h1.28v-1.34h1.4v2.72H487v6.66h-2.72v-9.38H487Z" transform="translate(-179.62 -165.14)"/><path class="cls-1" d="M497.67,397.16H495V383.78h2.72Z" transform="translate(-179.62 -165.14)"/><path class="cls-1" d="M508.35,394.46v1.38H507v1.32h-5.38v-1.32h-1.34v-6.72h1.34v-1.34H507v1.34h1.34v2.72H507v1.32h-4v2.62h4v-1.32Zm-5.34-5.3v2.62h2.62v-2.62Z" transform="translate(-179.62 -165.14)"/><path class="cls-1" d="M512.35,395.78H515V394.5h-1.32v-1.34h-1.34v-1.32H511v-2.72h1.34v-1.34h5.38v2.72h-1.38v-1.34h-2.62v1.28H515v1.34h1.34v1.34h1.32v2.72h-1.32v1.32H511v-2.72h1.4Z" transform="translate(-179.62 -165.14)"/><path class="cls-1" d="M520.35,395.78H523V394.5h-1.32v-1.34h-1.34v-1.32H519v-2.72h1.34v-1.34h5.38v2.72h-1.38v-1.34h-2.62v1.28H523v1.34h1.34v1.34h1.32v2.72h-1.32v1.32H519v-2.72h1.4Z" transform="translate(-179.62 -165.14)"/><path class="cls-1" d="M535,386.5h-2.72v-1.38h1.34v-1.34H539v1.34h1.34v4H539v1.34h-1.32v1.34h-1.34v2.66H535v-4.06h1.32v-1.32h1.34v-4H535Zm2.68,10.66H535v-1.38h2.72Z" transform="translate(-179.62 -165.14)"/></svg>