<svg xmlns="http://www.w3.org/2000/svg" viewBox="0 0 246.96 246.96"><defs><style>.cls-1{fill:#21093a;}.cls-2{fill:#fefdff;}</style></defs><g id="Calque_2" data-name="Calque 2"><g id="lapin"><polygon class="cls-1" points="246.96 58.49 246.96 188.47 240.46 188.47 240.46 194.97 233.96 194.97 233.96 201.47 227.47 201.47 227.47 207.97 220.97 207.97 221.06 214.47 214.37 214.47 214.47 220.97 207.97 220.97 207.97 227.47 201.47 227.47 201.47 233.96 194.97 233.96 194.97 240.46 188.47 240.46 188.47 246.96 58.49 246.96 58.49 240.46 51.99 240.46 51.99 233.96 45.49 233.96 45.49 227.47 38.99 227.47 38.99 220.97 32.49 220.97 32.49 214.47 26 214.47 26 207.97 19.5 207.97 19.5 201.47 13 201.47 13 194.97 6.5 194.97 6.5 188.47 0 188.47 0 58.49 6.5 58.49 6.5 51.99 13 51.99 13 45.49 19.5 45.49 19.5 38.99 26 38.99 26 32.49 32.49 32.49 32.49 26 38.99 26 38.99 19.5 45.49 19.5 45.49 13 51.99 13 51.99 6.5 58.49 6.5 58.49 0 188.47 0 188.47 6.5 194.97 6.5 194.97 13 201.47 13 201.47 19.5 207.97 19.5 207.97 26 214.47 26 214.47 32.49 220.97 32.49 220.97 38.99 227.47 38.99 227.47 45.49 233.96 45.49 233.96 51.99 240.46 51.99 240.46 58.49 246.96 58.49"/><rect class="cls-2" x="71.96" y="203.21" width="6.25" height="6.25"/><rect class="cls-2" x="84.46" y="159.46" width="6.25" height="6.25"/><rect class="cls-2" x="78.21" y="153.21" width="6.25" height="6.25"/><rect class="cls-2" x="71.96" y="146.96" width="6.25" height="6.25"/><rect class="cls-2" x="71.96" y="140.71" width="6.25" height="6.25"/><rect class="cls-2" x="71.96" y="134.46" width="6.25" height="6.25"/><rect class="cls-2" x="71.96" y="128.21" width="6.25" height="6.25"/><rect class="cls-2" x="71.96" y="121.96" width="6.25" height="6.25"/><rect class="cls-2" x="78.21" y="115.71" width="6.25" height="6.25"/><rect class="cls-2" x="84.46" y="109.46" width="6.25" height="6.25"/><rect class="cls-2" x="84.46" y="103.21" width="6.25" height="6.25"/><rect class="cls-2" x="90.71" y="103.21" width="6.25" height="6.25"/><rect class="cls-2" x="84.46" y="96.96" width="6.25" height="6.25"/><rect class="cls-2" x="78.21" y="90.71" width="6.25" height="6.25"/><rect class="cls-2" x="78.21" y="84.46" width="6.25" height="6.25"/><rect class="cls-2" x="78.21" y="78.21" width="6.25" height="6.25"/><rect class="cls-2" x="78.21" y="71.96" width="6.25" height="6.25"/><rect class="cls-2" x="78.21" y="65.71" width="6.25" height="6.25"/><rect class="cls-2" x="78.21" y="59.46" width="6.25" height="6.25"/><rect class="cls-2" x="78.21" y="53.21" width="6.25" height="6.25"/><rect class="cls-2" x="78.21" y="46.96" width="6.25" height="6.25"/><rect class="cls-2" x="78.21" y="40.71" width="6.25" height="6.25"/><rect class="cls-2" x="84.46" y="40.71" width="6.25" height="6.25"/><rect class="cls-2" x="84.46" y="34.46" width="6.25" height="6.25"/><rect class="cls-2" x="90.71" y="28.21" width="6.25" height="6.25"/><rect class="cls-2" x="96.96" y="21.96" width="6.25" height="6.25"/><rect class="cls-2" x="103.21" y="15.71" width="6.25" height="6.25"/><rect class="cls-2" x="109.46" y="15.71" width="6.25" height="6.25"/><rect class="cls-2" x="115.71" y="21.96" width="6.25" height="6.25"/><rect class="cls-2" x="115.71" y="28.21" width="6.25" height="6.25"/><rect class="cls-2" x="121.96" y="28.21" width="6.25" height="6.25"/><rect class="cls-2" x="115.71" y="34.46" width="6.25" height="6.25"/><rect class="cls-2" x="121.96" y="34.46" width="6.25" height="6.25"/><rect class="cls-2" x="115.71" y="40.71" width="6.25" height="6.25"/><rect class="cls-2" x="115.71" y="46.96" width="6.25" height="6.25"/><rect class="cls-2" x="115.71" y="53.21" width="6.25" height="6.25"/><rect class="cls-2" x="109.46" y="59.46" width="6.25" height="6.25"/><rect class="cls-2" x="109.46" y="65.71" width="6.25" height="6.25"/><rect class="cls-2" x="109.46" y="71.96" width="6.25" height="6.25"/><rect class="cls-2" x="109.46" y="78.21" width="6.25" height="6.25"/><rect class="cls-2" x="103.21" y="84.46" width="6.25" height="6.25"/><rect class="cls-2" x="103.21" y="90.71" width="6.25" height="6.25"/><rect class="cls-2" x="103.21" y="96.96" width="6.25" height="6.25"/><rect class="cls-2" x="103.21" y="103.21" width="6.25" height="6.25"/><rect class="cls-2" x="109.46" y="103.21" width="6.25" height="6.25"/><rect class="cls-2" x="115.71" y="103.21" width="6.25" height="6.25"/><rect class="cls-2" x="121.96" y="103.21" width="6.25" height="6.25"/><rect class="cls-2" x="121.96" y="96.96" width="6.25" height="6.25"/><rect class="cls-2" x="121.96" y="90.71" width="6.25" height="6.25"/><rect class="cls-2" x="121.96" y="84.46" width="6.25" height="6.25"/><rect class="cls-2" x="121.96" y="78.21" width="6.25" height="6.25"/><rect class="cls-2" x="121.96" y="71.96" width="6.25" height="6.25"/><rect class="cls-2" x="121.96" y="65.71" width="6.25" height="6.25"/><rect class="cls-2" x="121.96" y="59.46" width="6.25" height="6.25"/><rect class="cls-2" x="128.21" y="53.21" width="6.25" height="6.25"/><rect class="cls-2" x="128.21" y="46.96" width="6.25" height="6.25"/><rect class="cls-2" x="128.21" y="40.71" width="6.25" height="6.25"/><rect class="cls-2" x="134.46" y="34.46" width="6.25" height="6.25"/><rect class="cls-2" x="140.71" y="28.21" width="6.25" height="6.25"/><rect class="cls-2" x="146.96" y="21.96" width="6.25" height="6.25"/><rect class="cls-2" x="153.21" y="15.71" width="6.25" height="6.25"/><rect class="cls-2" x="159.46" y="21.96" width="6.25" height="6.25"/><rect class="cls-2" x="165.71" y="28.21" width="6.25" height="6.25"/><rect class="cls-2" x="165.71" y="34.46" width="6.25" height="6.25"/><rect class="cls-2" x="165.71" y="40.71" width="6.25" height="6.25"/><rect class="cls-2" x="165.71" y="46.96" width="6.25" height="6.25"/><rect class="cls-2" x="165.71" y="53.21" width="6.25" height="6.25"/><rect class="cls-2" x="159.46" y="59.46" width="6.25" height="6.25"/><rect class="cls-2" x="153.21" y="65.71" width="6.25" height="6.25"/><rect class="cls-2" x="153.21" y="71.96" width="6.25" height="6.25"/><rect class="cls-2" x="146.96" y="78.21" width="6.25" height="6.25"/><rect class="cls-2" x="146.96" y="84.46" width="6.25" height="6.25"/><rect class="cls-2" x="140.71" y="90.71" width="6.25" height="6.25"/><rect class="cls-2" x="140.71" y="96.96" width="6.25" height="6.25"/><rect class="cls-2" x="140.71" y="103.21" width="6.25" height="6.25"/><rect class="cls-2" x="146.96" y="109.46" width="6.25" height="6.25"/><rect class="cls-2" x="153.21" y="115.71" width="6.25" height="6.25"/><rect class="cls-2" x="153.21" y="121.96" width="6.25" height="6.25"/><rect class="cls-2" x="121.96" y="121.96" width="6.25" height="6.25"/><rect class="cls-2" x="103.21" y="121.96" width="6.25" height="6.25"/><rect class="cls-2" x="109.46" y="134.46" width="6.25" height="6.25"/><rect class="cls-2" x="115.71" y="134.46" width="6.25" height="6.25"/><rect class="cls-2" x="159.46" y="128.21" width="6.25" height="6.25"/><rect class="cls-2" x="159.46" y="134.46" width="6.25" height="6.25"/><rect class="cls-2" x="159.46" y="140.71" width="6.25" height="6.25"/><rect class="cls-2" x="153.21" y="146.96" width="6.25" height="6.25"/><rect class="cls-2" x="153.21" y="153.21" width="6.25" height="6.25"/><rect class="cls-2" x="146.96" y="159.46" width="6.25" height="6.25"/><rect class="cls-2" x="140.71" y="165.71" width="6.25" height="6.25"/><rect class="cls-2" x="153.21" y="165.71" width="6.25" height="6.25"/><rect class="cls-2" x="159.46" y="171.96" width="6.25" height="6.25"/><rect class="cls-2" x="165.71" y="178.21" width="6.25" height="6.25"/><rect class="cls-2" x="165.71" y="184.46" width="6.25" height="6.25"/><rect class="cls-2" x="165.71" y="190.71" width="6.25" height="6.25"/><rect class="cls-2" x="78.21" y="165.71" width="6.25" height="6.25"/><rect class="cls-2" x="71.96" y="171.96" width="6.25" height="6.25"/><rect class="cls-2" x="78.21" y="171.96" width="6.25" height="6.25"/><rect class="cls-2" x="65.71" y="178.21" width="6.25" height="6.25"/><rect class="cls-2" x="71.96" y="178.21" width="6.25" height="6.25"/><rect class="cls-2" x="65.71" y="184.46" width="6.25" height="6.25"/><rect class="cls-2" x="65.71" y="190.71" width="6.25" height="6.25"/><rect class="cls-2" x="65.71" y="196.96" width="6.25" height="6.25"/></g></g></svg>