<svg xmlns="http://www.w3.org/2000/svg" viewBox="0 0 101.34 101.08"><defs><style>.cls-1{fill:#f2c475;}.cls-2{fill:#f29d14;}</style></defs><g id="Calque_2" data-name="Calque 2"><g id="Calque_2-2" data-name="Calque 2"><polygon class="cls-1" points="18.48 9.21 9.23 9.21 9.23 18.33 0 18.27 0 82.8 9.24 82.8 9.24 92 18.48 91.92 18.58 101.08 82.95 101.08 82.95 92 92.17 92 92.17 82.8 101.34 82.8 101.34 18.33 92.17 18.27 92.17 9.21 82.83 9.21 82.83 0 18.58 0 18.48 9.21"/><polygon class="cls-2" points="27.66 9.26 27.66 18.46 18.44 18.46 18.44 27.59 9.26 27.59 9.26 73.5 18.44 73.5 18.44 82.85 27.66 82.85 27.66 92.05 73.76 92.05 73.76 82.85 83.03 82.85 83.03 73.5 92.2 73.5 92.2 27.59 83.03 27.59 83.03 18.46 73.76 18.46 73.76 9.26 27.66 9.26"/><rect class="cls-1" x="48.46" y="28.12" width="6.25" height="6.25"/><rect class="cls-1" x="48.46" y="34.37" width="6.25" height="6.25"/><rect class="cls-1" x="48.46" y="40.62" width="6.25" height="6.25"/><rect class="cls-1" x="42.21" y="34.37" width="6.25" height="6.25"/><rect class="cls-1" x="42.21" y="40.62" width="6.25" height="6.25"/><rect class="cls-1" x="35.96" y="40.62" width="6.25" height="6.25"/><rect class="cls-1" x="35.96" y="40.62" width="6.25" height="6.25"/><rect class="cls-1" x="35.96" y="46.87" width="6.25" height="6.25"/><rect class="cls-1" x="42.21" y="46.87" width="6.25" height="6.25"/><rect class="cls-1" x="48.46" y="46.87" width="6.25" height="6.25"/><rect class="cls-1" x="54.71" y="46.87" width="6.25" height="6.25"/><rect class="cls-1" x="60.96" y="46.87" width="6.25" height="6.25"/><rect class="cls-1" x="67.21" y="46.87" width="6.25" height="6.25"/><rect class="cls-1" x="60.96" y="40.62" width="6.25" height="6.25"/><rect class="cls-1" x="54.71" y="40.62" width="6.25" height="6.25"/><rect class="cls-1" x="54.71" y="34.37" width="6.25" height="6.25"/><rect class="cls-1" x="54.71" y="53.12" width="6.25" height="6.25"/><rect class="cls-1" x="48.46" y="53.12" width="6.25" height="6.25"/><rect class="cls-1" x="42.21" y="53.12" width="6.25" height="6.25"/><rect class="cls-1" x="35.96" y="53.12" width="6.25" height="6.25"/><rect class="cls-1" x="60.96" y="53.12" width="6.25" height="6.25"/><rect class="cls-1" x="60.96" y="59.37" width="6.25" height="6.25"/><rect class="cls-1" x="60.96" y="65.62" width="6.25" height="6.25"/><rect class="cls-1" x="54.71" y="65.62" width="6.25" height="6.25"/><rect class="cls-1" x="54.71" y="59.37" width="6.25" height="6.25"/><rect class="cls-1" x="42.21" y="59.37" width="6.25" height="6.25"/><rect class="cls-1" x="42.21" y="65.62" width="6.25" height="6.25"/><rect class="cls-1" x="35.96" y="65.62" width="6.25" height="6.25"/><rect class="cls-1" x="35.96" y="59.37" width="6.25" height="6.25"/><rect class="cls-1" x="29.71" y="46.87" width="6.25" height="6.25"/></g></g></svg>