<?xml version="1.0" encoding="utf-8"?>
<!-- Generator: Adobe Illustrator 25.2.0, SVG Export Plug-In . SVG Version: 6.00 Build 0)  -->
<svg version="1.1" id="Calque_1" xmlns="http://www.w3.org/2000/svg" xmlns:xlink="http://www.w3.org/1999/xlink" x="0px" y="0px"
	 viewBox="0 0 101.3 101.1" style="enable-background:new 0 0 101.3 101.1;" xml:space="preserve">
<style type="text/css">
	.st0{fill:#F2C474;}
	.st1{fill:#F39E14;}
	.st2{fill:#745FA5;}
	.st3{fill:#2D2150;}
</style>
<polygon class="st0" points="18.5,9.2 9.2,9.2 9.2,18.3 0,18.3 0,82.8 9.2,82.8 9.2,92 18.5,91.9 18.6,101.1 82.9,101.1 82.9,92 
	92.2,92 92.2,82.8 101.3,82.8 101.3,18.3 92.2,18.3 92.2,9.2 82.8,9.2 82.8,0 18.6,0 "/>
<polygon class="st1" points="27.7,9.3 27.7,18.5 18.4,18.5 18.4,27.6 9.3,27.6 9.3,73.5 18.4,73.5 18.4,82.9 27.7,82.9 27.7,92.1 
	73.8,92.1 73.8,82.9 83,82.9 83,73.5 92.2,73.5 92.2,27.6 83,27.6 83,18.5 73.8,18.5 73.8,9.3 "/>
<polygon class="st2" points="36.9,27.6 36.9,73.5 46.1,73.5 46.1,64.5 55.4,64.5 55.4,55.1 64.6,55.1 64.6,46 55.4,46 55.4,36.8 
	46.1,36.8 46.1,27.6 "/>
<polygon class="st3" points="46.1,27.6 46.1,73.5 55.3,73.5 55.3,64.4 64.6,64.4 64.6,55.1 73.8,55.1 73.8,45.9 64.6,45.9 
	64.6,36.8 55.3,36.8 55.3,27.6 "/>
</svg>
