<svg xmlns="http://www.w3.org/2000/svg" viewBox="0 0 250 247.29"><defs><style>.cls-1{fill:#48306d;}.cls-2{fill:#21093a;}.cls-3{fill:#614c89;}.cls-4{fill:#2f1551;}.cls-5{fill:#8873c9;}</style></defs><g id="Calque_2" data-name="Calque 2"><g id="clair"><polygon class="cls-1" points="246.96 58.49 246.96 188.47 240.46 188.47 240.46 194.97 233.96 194.97 233.96 201.47 227.46 201.47 227.46 207.97 220.96 207.97 221.06 214.46 214.37 214.46 214.46 220.96 207.97 220.96 207.97 227.46 201.47 227.46 201.47 233.96 194.97 233.96 194.97 240.46 188.47 240.46 188.47 246.96 58.49 246.96 58.49 240.46 51.99 240.46 51.99 233.96 45.49 233.96 45.49 227.46 38.99 227.46 38.99 220.96 32.49 220.96 32.49 214.46 25.99 214.46 25.99 207.97 19.49 207.97 19.49 201.47 13 201.47 13 194.97 6.5 194.97 6.5 188.47 0 188.47 0 58.49 6.5 58.49 6.5 51.99 13 51.99 13 45.49 19.49 45.49 19.49 38.99 25.99 38.99 25.99 32.49 32.49 32.49 32.49 25.99 38.99 25.99 38.99 19.49 45.49 19.49 45.49 13 51.99 13 51.99 6.5 58.49 6.5 58.49 0 188.47 0 188.47 6.5 194.97 6.5 194.97 13 201.47 13 201.47 19.49 207.97 19.49 207.97 25.99 214.46 25.99 214.46 32.49 220.96 32.49 220.96 38.99 227.46 38.99 227.46 45.49 233.96 45.49 233.96 51.99 240.46 51.99 240.46 58.49 246.96 58.49"/><polygon class="cls-2" points="112.5 103.54 112.5 128.54 118.75 128.54 118.75 241.04 62.5 241.04 62.5 234.79 61.53 234.79 61.53 234.54 56.25 234.54 56.25 228.54 55.03 228.54 55.03 228.04 50 228.04 50 222.29 48.53 222.29 48.53 221.54 43.75 221.54 43.75 216.04 42.03 216.04 42.03 215.04 37.5 215.04 37.5 209.79 35.53 209.79 35.53 208.54 31.25 208.54 31.25 203.54 29.03 203.54 29.03 202.05 25 202.05 25 197.29 22.53 197.29 22.53 195.55 18.75 195.55 18.75 191.04 16.04 191.04 16.04 189.05 9.54 189.05 9.54 182.55 3.04 182.55 3.04 84.79 6.25 84.79 6.25 78.54 25 78.54 25 72.29 31.25 72.29 31.25 66.04 37.5 66.04 37.5 59.79 43.75 59.79 43.75 53.54 56.25 53.54 56.25 47.29 62.5 47.29 62.5 41.04 81.25 41.04 81.25 47.29 87.5 47.29 87.5 66.04 100 66.04 100 72.29 106.25 72.29 106.25 78.54 112.5 78.54 112.5 97.29 118.75 97.29 118.75 103.54 112.5 103.54"/><polygon class="cls-2" points="231.25 122.29 231.25 159.79 225 159.79 225 178.54 218.75 178.54 218.75 184.79 225 184.79 225 195.55 224.25 195.55 224.25 202.05 217.75 202.05 217.85 208.54 211.16 208.54 211.25 215.04 204.76 215.04 204.76 221.54 198.26 221.54 198.26 228.04 191.76 228.04 191.76 234.54 185.26 234.54 185.26 241.04 112.5 241.04 112.5 72.29 137.5 72.29 137.5 78.54 143.75 78.54 143.75 84.79 150 84.79 150 97.29 168.75 97.29 168.75 78.54 175 78.54 175 72.29 206.25 72.29 206.25 78.54 212.5 78.54 212.5 97.29 218.75 97.29 218.75 109.79 225 109.79 225 122.29 231.25 122.29"/><polygon class="cls-2" points="62.5 209.79 62.5 246.96 58.49 246.96 58.49 240.46 51.99 240.46 51.99 233.96 45.49 233.96 45.49 227.46 38.99 227.46 38.99 220.96 32.49 220.96 32.49 214.46 25.99 214.46 25.99 207.97 19.49 207.97 19.49 201.47 13 201.47 13 194.97 6.5 194.97 6.5 188.47 0 188.47 0 166.04 6.25 166.04 6.25 172.29 12.5 172.29 12.5 184.79 50 184.79 50 209.79 62.5 209.79"/><path class="cls-3" d="M50,153.54v-6.25h6.25V141H50v-6.25H37.5V141H31.25v25H37.5v12.5H50v-6.25h6.25V166H62.5v-12.5Zm-6.25,0H37.5v-6.25h6.25Z"/><polygon class="cls-3" points="0 153.54 0 166.04 6.25 166.04 6.25 178.54 18.75 178.54 18.75 172.29 12.5 172.29 12.5 159.79 6.25 159.79 6.25 153.54 0 153.54"/><rect class="cls-3" x="18.75" y="134.79" width="6.25" height="6.25"/><polygon class="cls-3" points="25 84.79 31.25 84.79 31.25 103.54 37.5 103.54 37.5 109.79 31.25 109.79 31.25 122.29 31.25 128.54 18.75 128.54 18.75 122.29 12.5 122.29 12.5 116.04 6.25 116.04 6.25 122.29 0 122.29 0 109.79 6.25 109.79 6.25 103.54 12.5 103.54 12.5 97.29 12.5 91.04 18.75 91.04 18.75 84.79 25 84.79"/><polygon class="cls-3" points="37.5 78.54 43.75 78.54 43.75 72.29 50 72.29 50 66.04 50 59.79 62.5 59.79 62.5 66.04 62.5 78.54 62.5 84.79 56.25 84.79 56.25 91.04 56.25 97.29 43.75 97.29 43.75 91.04 37.5 91.04 37.5 78.54"/><polygon class="cls-3" points="75 184.79 68.75 184.79 68.75 197.29 68.75 203.54 75 203.54 75 209.79 68.75 209.79 68.75 216.04 62.5 216.04 62.5 234.79 68.75 234.79 68.75 241.04 75 241.04 106.25 241.04 106.25 228.54 106.25 222.29 112.5 222.29 112.5 209.79 112.5 203.54 106.25 203.54 106.25 197.29 112.5 197.29 112.5 191.04 106.25 191.04 106.25 184.79 87.5 184.79 87.5 178.54 75 178.54 75 184.79"/><polygon class="cls-3" points="227.46 207.97 220.96 207.97 221.06 214.46 214.37 214.46 214.46 220.96 207.97 220.96 207.97 227.46 201.47 227.46 201.47 233.96 194.97 233.96 194.97 240.46 188.47 240.46 188.47 246.96 168.75 246.96 168.75 241.04 175 241.04 175 234.79 168.75 234.79 168.75 216.04 175 216.04 175 197.29 181.25 197.29 181.25 184.79 175 184.79 175 178.54 181.25 178.54 181.25 172.29 187.5 172.29 187.5 166.04 181.25 166.04 181.25 147.29 187.5 147.29 187.5 153.54 193.75 153.54 193.75 166.04 200 166.04 200 172.29 212.5 172.29 212.5 191.04 218.75 191.04 218.75 197.29 225 197.29 225 203.54 227.46 203.54 227.46 207.97"/><polygon class="cls-3" points="225 147.29 237.5 147.29 237.5 128.54 231.25 128.54 231.25 122.29 225 122.29 225 109.79 212.5 109.79 212.5 116.04 206.25 116.04 206.25 153.54 200 153.54 200 159.79 200 166.04 206.25 166.04 206.25 172.29 218.75 172.29 218.75 147.29 225 147.29"/><polygon class="cls-3" points="175 84.79 181.25 84.79 181.25 91.04 187.5 91.04 187.5 109.79 175 109.79 175 97.29 168.75 97.29 168.75 91.04 175 91.04 175 84.79"/><polygon class="cls-3" points="125 78.54 137.5 78.54 137.5 84.79 143.75 84.79 143.75 103.54 150 103.54 150 109.79 156.25 109.79 156.25 116.04 162.5 116.04 168.75 116.04 168.75 109.79 181.25 109.79 181.25 166.04 175 166.04 175 172.29 162.5 172.29 162.5 166.04 156.25 166.04 156.25 134.79 150 134.79 150 141.04 143.75 141.04 143.75 147.29 137.5 147.29 137.5 141.04 131.25 141.04 131.25 134.79 137.5 134.79 137.5 122.29 143.75 122.29 143.75 116.04 137.5 116.04 137.5 109.79 125 109.79 125 103.54 118.75 103.54 118.75 78.54 125 78.54"/><polygon class="cls-3" points="118.75 22.29 112.5 22.29 106.25 22.29 106.25 28.54 100 28.54 100 47.29 106.25 47.29 106.25 59.79 112.5 59.79 112.5 72.29 106.25 72.29 106.25 78.54 112.5 78.54 112.5 84.79 118.75 84.79 118.75 72.29 131.25 72.29 131.25 66.04 143.75 66.04 143.75 59.79 150 59.79 150 53.54 143.75 53.54 131.25 53.54 131.25 59.79 125 59.79 125 53.54 125 47.29 131.25 47.29 131.25 28.54 125 28.54 118.75 28.54 118.75 22.29"/><rect class="cls-3" x="162.5" y="28.54" width="6.25" height="6.25"/><polygon class="cls-3" points="175 22.29 175 34.79 168.75 34.79 168.75 41.04 162.5 41.04 162.5 59.79 168.75 59.79 168.75 66.04 175 66.04 175 78.54 181.25 78.54 181.25 72.29 187.5 72.29 187.5 66.04 181.25 66.04 181.25 59.79 175 59.79 175 47.29 181.25 47.29 181.25 41.04 187.5 41.04 187.5 22.29 175 22.29"/><polygon class="cls-4" points="100 41.04 100 34.79 106.25 34.79 106.25 47.29 100 47.29 100 41.04"/><polygon class="cls-4" points="125 47.29 125 53.54 106.25 53.54 106.25 59.79 131.25 59.79 131.25 47.29 125 47.29"/><rect class="cls-4" x="125" y="66.04" width="6.25" height="6.25"/><rect class="cls-1" x="131.25" y="59.79" width="6.25" height="6.25"/><rect class="cls-1" x="137.5" y="59.79" width="6.25" height="6.25"/><rect class="cls-1" x="131.25" y="91.04" width="6.25" height="6.25"/><rect class="cls-1" x="118.75" y="91.04" width="6.25" height="6.25"/><rect class="cls-1" x="118.75" y="97.29" width="6.25" height="6.25"/><rect class="cls-1" x="100" y="84.79" width="6.25" height="6.25"/><rect class="cls-1" x="100" y="97.29" width="6.25" height="6.25"/><rect class="cls-1" x="100" y="103.54" width="6.25" height="6.25"/><rect class="cls-1" x="93.75" y="109.79" width="6.25" height="6.25"/><rect class="cls-1" x="87.5" y="116.04" width="6.25" height="6.25"/><rect class="cls-1" x="87.5" y="122.29" width="6.25" height="6.25"/><rect class="cls-1" x="93.75" y="122.29" width="6.25" height="6.25"/><rect class="cls-1" x="93.75" y="128.54" width="6.25" height="6.25"/><rect class="cls-1" x="93.75" y="134.79" width="6.25" height="6.25"/><rect class="cls-1" x="100" y="134.79" width="6.25" height="6.25"/><rect class="cls-1" x="131.25" y="141.04" width="6.25" height="6.25"/><rect class="cls-1" x="137.5" y="141.04" width="6.25" height="6.25"/><rect class="cls-1" x="156.25" y="159.79" width="6.25" height="6.25"/><rect class="cls-1" x="162.5" y="166.04" width="6.25" height="6.25"/><rect class="cls-1" x="50" y="153.54" width="6.25" height="6.25"/><rect class="cls-1" x="50" y="159.79" width="6.25" height="6.25"/><rect class="cls-1" x="50" y="166.04" width="6.25" height="6.25"/><rect class="cls-1" x="43.75" y="172.29" width="6.25" height="6.25"/><rect class="cls-1" x="56.25" y="153.54" width="6.25" height="6.25"/><rect class="cls-1" x="75" y="191.04" width="6.25" height="6.25"/><rect class="cls-1" x="81.25" y="191.04" width="6.25" height="6.25"/><rect class="cls-1" x="87.5" y="197.29" width="6.25" height="6.25"/><rect class="cls-1" x="87.5" y="128.54" width="6.25" height="6.25"/><polygon class="cls-1" points="81.25 203.54 81.25 209.79 87.5 209.79 87.5 216.04 81.25 216.04 81.25 222.29 93.75 222.29 93.75 228.54 100 228.54 100 222.29 100 216.04 93.75 216.04 93.75 203.54 81.25 203.54"/><rect class="cls-1" x="87.5" y="234.79" width="6.25" height="6.25"/><rect class="cls-1" x="50" y="222.29" width="6.25" height="6.25"/><rect class="cls-1" x="56.25" y="228.54" width="6.25" height="6.25"/><polygon class="cls-1" points="237.5 147.29 237.5 159.79 231.25 159.79 231.25 172.29 231.25 178.54 225 178.54 225 184.79 237.5 184.79 237.5 178.54 243.75 178.54 243.75 172.29 250 172.29 250 91.04 243.75 91.04 243.75 97.29 237.5 97.29 237.5 103.54 231.25 103.54 231.25 109.79 231.25 122.29 237.5 122.29 237.5 128.54 243.75 128.54 243.75 147.29 237.5 147.29"/><rect class="cls-1" x="175" y="84.79" width="6.25" height="6.25"/><rect class="cls-1" x="200" y="159.79" width="6.25" height="6.25"/><rect class="cls-1" x="193.75" y="153.54" width="6.25" height="6.25"/><rect class="cls-1" x="193.75" y="159.79" width="6.25" height="6.25"/><polygon class="cls-1" points="75 72.29 75 66.04 81.25 66.04 81.25 59.79 75 59.79 75 53.54 81.25 53.54 81.25 72.29 75 72.29"/><rect class="cls-1" x="50" y="91.04" width="6.25" height="6.25"/><rect class="cls-1" x="56.25" y="84.79" width="6.25" height="6.25"/><rect class="cls-1" x="62.5" y="72.29" width="6.25" height="6.25"/><rect class="cls-1" x="56.25" y="72.29" width="6.25" height="6.25"/><rect class="cls-1" x="31.25" y="103.54" width="6.25" height="6.25"/><rect class="cls-1" x="31.25" y="109.79" width="6.25" height="6.25"/><rect class="cls-1" x="18.75" y="103.54" width="6.25" height="6.25"/><rect class="cls-1" x="31.25" y="116.04" width="6.25" height="6.25"/><rect class="cls-1" x="31.25" y="122.29" width="6.25" height="6.25"/><rect class="cls-1" x="25" y="122.29" width="6.25" height="6.25"/><rect class="cls-1" x="25" y="128.54" width="6.25" height="6.25"/><rect class="cls-1" x="18.75" y="128.54" width="6.25" height="6.25"/><polygon class="cls-5" points="112.5 28.54 112.5 34.79 118.75 34.79 118.75 41.04 125 41.04 125 28.54 112.5 28.54"/><rect class="cls-5" x="106.25" y="41.04" width="6.25" height="6.25"/><rect class="cls-5" x="75" y="53.54" width="6.25" height="6.25"/><rect class="cls-5" x="50" y="59.79" width="6.25" height="6.25"/><rect class="cls-5" x="43.75" y="72.29" width="6.25" height="6.25"/><polygon class="cls-5" points="25 91.04 25 97.29 18.75 97.29 18.75 103.54 12.5 103.54 12.5 97.29 12.5 91.04 25 91.04"/><rect class="cls-5" x="18.75" y="109.79" width="6.25" height="6.25"/><rect class="cls-5" x="37.5" y="141.04" width="6.25" height="6.25"/><rect class="cls-5" y="153.54" width="6.25" height="6.25"/><polygon class="cls-5" points="31.25 153.54 43.75 153.54 43.75 159.79 37.5 159.79 37.5 166.04 31.25 166.04 31.25 153.54"/><rect class="cls-5" x="81.25" y="184.79" width="6.25" height="6.25"/><rect class="cls-5" x="100" y="191.04" width="6.25" height="6.25"/><rect class="cls-5" x="93.75" y="191.04" width="6.25" height="6.25"/><rect class="cls-5" x="68.75" y="216.04" width="6.25" height="6.25"/><rect class="cls-5" x="100" y="222.29" width="6.25" height="6.25"/><rect class="cls-5" x="87.5" y="234.79" width="6.25" height="6.25"/><rect class="cls-5" x="75" y="241.04" width="6.25" height="6.25"/><rect class="cls-5" x="81.25" y="234.79" width="6.25" height="6.25"/><rect class="cls-5" x="75" y="228.54" width="6.25" height="6.25"/><rect class="cls-5" x="187.5" y="172.29" width="6.25" height="6.25"/><rect class="cls-5" x="193.75" y="178.54" width="6.25" height="6.25"/><rect class="cls-5" x="187.5" y="184.79" width="6.25" height="6.25"/><rect class="cls-5" x="181.25" y="191.04" width="6.25" height="6.25"/><rect class="cls-5" x="187.5" y="197.29" width="6.25" height="6.25"/><rect class="cls-5" x="181.25" y="203.54" width="6.25" height="6.25"/><rect class="cls-5" x="181.25" y="209.79" width="6.25" height="6.25"/><rect class="cls-5" x="175" y="216.04" width="6.25" height="6.25"/><rect class="cls-5" x="187.5" y="216.04" width="6.25" height="6.25"/><rect class="cls-5" x="181.25" y="222.29" width="6.25" height="6.25"/><rect class="cls-5" x="175" y="228.54" width="6.25" height="6.25"/><rect class="cls-5" x="181.25" y="234.79" width="6.25" height="6.25"/><rect class="cls-5" x="193.75" y="203.54" width="6.25" height="6.25"/><rect class="cls-5" x="193.75" y="191.04" width="6.25" height="6.25"/><rect class="cls-5" x="175" y="203.54" width="6.25" height="6.25"/><rect class="cls-5" x="181.25" y="197.29" width="6.25" height="6.25"/><rect class="cls-5" x="156.25" y="122.29" width="6.25" height="6.25"/><rect class="cls-5" x="156.25" y="128.54" width="6.25" height="6.25"/><rect class="cls-5" x="156.25" y="134.79" width="6.25" height="6.25"/><rect class="cls-5" x="162.5" y="141.04" width="6.25" height="6.25"/><rect class="cls-5" x="162.5" y="147.29" width="6.25" height="6.25"/><rect class="cls-5" x="162.5" y="153.54" width="6.25" height="6.25"/><rect class="cls-5" x="168.75" y="153.54" width="6.25" height="6.25"/><rect class="cls-5" x="150" y="116.04" width="6.25" height="6.25"/><rect class="cls-5" x="143.75" y="109.79" width="6.25" height="6.25"/><rect class="cls-5" x="181.25" y="91.04" width="6.25" height="6.25"/><rect class="cls-5" x="175" y="97.29" width="6.25" height="6.25"/><rect class="cls-5" x="212.5" y="116.04" width="6.25" height="6.25"/><rect class="cls-5" x="131.25" y="78.54" width="6.25" height="6.25"/><rect class="cls-5" x="125" y="84.79" width="6.25" height="6.25"/><rect class="cls-5" x="93.75" y="78.54" width="6.25" height="6.25"/><rect class="cls-5" x="100" y="91.04" width="6.25" height="6.25"/><rect class="cls-5" x="112.5" y="66.04" width="6.25" height="6.25"/><rect class="cls-5" x="112.5" y="72.29" width="6.25" height="6.25"/><rect class="cls-5" x="162.5" y="41.04" width="6.25" height="6.25"/><rect class="cls-5" x="162.5" y="47.29" width="6.25" height="6.25"/><rect class="cls-5" x="168.75" y="53.54" width="6.25" height="6.25"/><rect class="cls-5" x="175" y="59.79" width="6.25" height="6.25"/><rect class="cls-5" x="175" y="34.79" width="6.25" height="6.25"/><rect class="cls-5" x="175" y="22.29" width="6.25" height="6.25"/><rect class="cls-5" x="212.5" y="128.54" width="6.25" height="6.25"/><rect class="cls-5" x="212.5" y="122.29" width="6.25" height="6.25"/><rect class="cls-5" x="206.25" y="128.54" width="6.25" height="6.25"/><rect class="cls-5" x="212.5" y="134.79" width="6.25" height="6.25"/><rect class="cls-5" x="206.25" y="141.04" width="6.25" height="6.25"/><rect class="cls-5" x="218.75" y="122.29" width="6.25" height="6.25"/></g></g></svg>