<svg id="Calque_1" data-name="Calque 1" xmlns="http://www.w3.org/2000/svg" viewBox="0 0 115.21 27.54"><defs><style>.cls-1{fill:#f2c474;}.cls-2{fill:#f39d13;}.cls-3{fill:#2d2150;}.cls-4{fill:#48306d;}.cls-5{fill:#8473b2;}.cls-6{fill:#afa5d1;}</style></defs><title>iconeflammejaune</title><polygon class="cls-1" points="115.21 6.87 115.21 20.65 112.9 20.65 112.9 22.92 110.62 22.92 110.62 25.21 108.34 25.21 108.34 27.54 6.89 27.54 6.89 25.21 4.59 25.21 4.59 22.92 2.3 22.92 2.3 20.65 0 20.65 0 6.87 2.3 6.87 2.3 4.57 4.59 4.57 4.59 2.29 6.89 2.29 6.89 0 108.34 0 108.26 2.29 110.59 2.29 110.59 4.57 112.85 4.57 112.85 6.87 115.21 6.87"/><polygon class="cls-2" points="112.87 9.14 112.87 18.29 110.62 18.29 110.62 20.65 108.28 20.65 108.28 22.86 105.99 22.86 105.99 25.14 9.14 25.14 9.14 22.86 6.83 22.86 6.83 20.65 4.59 20.65 4.59 18.29 2.3 18.29 2.3 9.14 4.59 9.14 4.59 6.87 6.89 6.87 6.89 4.57 9.18 4.57 9.18 2.29 106.02 2.29 106.02 4.57 108.34 4.57 108.34 6.87 110.62 6.87 110.62 9.14 112.87 9.14"/><polygon class="cls-3" points="106.02 2.29 106.02 4.57 108.33 4.57 108.33 6.87 110.61 6.87 110.61 9.14 112.9 9.14 112.9 16.02 110.61 16 110.61 13.75 108.33 13.73 108.32 11.43 106.02 11.43 106.02 9.16 103.73 9.16 103.73 6.87 99.15 6.87 99.15 4.57 94.55 4.57 94.55 2.29 106.02 2.29"/><polygon class="cls-4" points="112.9 15.97 112.9 18.3 110.66 18.3 110.66 20.65 108.34 20.65 108.34 22.86 105.99 22.86 105.99 13.75 103.76 13.73 103.76 11.43 101.46 11.43 101.46 9.16 99.17 9.16 99.17 6.87 94.59 6.87 94.59 4.57 89.99 4.57 89.99 2.29 101.45 2.29 101.45 4.57 103.77 4.57 103.77 6.87 106.05 6.87 106.05 9.14 108.34 9.14 108.34 13.71 110.66 13.71 110.66 15.97 112.9 15.97"/><polygon class="cls-5" points="9.19 25.14 9.19 22.86 6.87 22.86 6.87 20.56 4.59 20.56 4.59 18.29 2.3 18.29 2.3 11.41 4.59 11.43 4.6 13.68 6.88 13.7 6.88 16 9.18 16 9.18 18.27 11.47 18.27 11.47 20.56 16.05 20.56 16.05 22.86 20.65 22.86 20.65 25.14 9.19 25.14"/><polygon class="cls-6" points="2.3 11.46 2.3 9.13 4.54 9.13 4.54 6.78 6.87 6.78 6.87 4.57 9.21 4.57 9.21 13.68 11.44 13.7 11.45 16 13.75 16 13.75 18.27 16.03 18.27 16.03 20.56 20.62 20.56 20.62 22.86 25.21 22.86 25.21 25.14 13.75 25.14 13.75 22.86 11.44 22.86 11.44 20.56 9.15 20.56 9.15 18.29 6.86 18.29 6.86 13.72 4.54 13.72 4.54 11.46 2.3 11.46"/></svg>