<?xml version="1.0" encoding="utf-8"?>
<!-- Generator: Adobe Illustrator 25.2.0, SVG Export Plug-In . SVG Version: 6.00 Build 0)  -->
<svg version="1.1" id="Calque_1" xmlns="http://www.w3.org/2000/svg" xmlns:xlink="http://www.w3.org/1999/xlink" x="0px" y="0px"
	 viewBox="0 0 462 110.4" style="enable-background:new 0 0 462 110.4;" xml:space="preserve">
<style type="text/css">
	.st0{fill:#2F1551;}
	.st1{fill:#B0A6D2;}
	.st2{fill:#8573B2;}
	.st3{fill:#48306D;}
	.st4{fill:#F39E14;}
	.st5{fill:#F0A52A;}
	.st6{fill:#2E2150;}
</style>
<polygon class="st0" points="36.8,9.2 36.8,18.3 36.9,18.3 36.9,54.9 45.9,55 45.9,64.2 55.1,64.2 55.1,73.3 64.3,73.3 64.3,82.5 
	82.7,82.5 82.7,91.7 89.7,91.7 89.7,110.4 27.6,110.4 27.6,101.1 18.4,101.1 18.4,91.9 9.2,91.9 9.2,82.8 0,82.8 0,27.5 9.2,27.5 
	9.2,18.3 18.4,18.3 18.4,9.2 27.6,9.2 27.6,0 89.7,0 89.7,9.2 "/>
<polygon class="st1" points="462,27.5 462,82.8 452.7,82.8 452.7,91.9 443.6,91.9 443.6,101.1 434.4,101.1 434.4,110.4 395.4,110.4 
	395.4,100.8 425,100.8 425,91.7 425,91.7 425,55.1 416.1,55 416,45.8 406.8,45.8 406.8,36.7 397.7,36.7 397.7,27.5 397.6,27.5 
	397.6,27.5 395.4,27.5 395.4,0 434.4,0 434.1,9.2 443.5,9.2 443.5,18.3 452.5,18.3 452.5,27.5 "/>
<polygon class="st2" points="89.7,91.7 89.7,100.8 36.7,100.8 36.7,91.7 27.4,91.7 27.4,82.8 18.4,82.8 18.4,73.3 9.2,73.3 
	9.2,36.7 18.4,36.7 18.4,27.5 27.6,27.5 27.6,18.3 36.8,18.3 36.8,18.3 36.9,18.3 36.9,54.9 45.9,55 45.9,64.2 55.1,64.2 55.1,73.3 
	64.3,73.3 64.3,82.5 82.7,82.5 82.7,91.7 "/>
<polygon class="st2" points="452.6,36.7 452.6,73.3 443.6,73.3 443.6,82.8 434.2,82.8 434.2,91.7 425,91.7 425,55.1 416.1,55 
	416,45.8 406.8,45.8 406.8,36.7 397.7,36.7 397.7,27.5 397.6,27.5 397.6,27.5 395.4,27.5 395.4,9.2 425.1,9.2 425.1,18.3 
	434.4,18.3 434.4,27.5 443.6,27.5 443.6,36.7 "/>
<polygon class="st0" points="415.7,100.8 415.7,110.4 65.6,110.4 65.6,82.5 82.7,82.5 82.7,91.7 101.1,91.7 101.1,100.8 "/>
<polygon class="st0" points="397.6,0 397.6,45.8 389.2,45.8 389.2,36.7 380.5,36.7 380.5,27.5 380.4,27.5 380.4,27.5 363,27.5 
	363,18.3 345.6,18.3 345.6,9.2 65.6,9.2 65.6,0 "/>
<polygon class="st3" points="425,55.1 425,91.7 425,91.7 425,100.8 101.1,100.8 101.1,91.7 82.7,91.7 82.7,82.5 64.3,82.5 
	64.3,73.3 55.1,73.3 55.1,64.2 45.9,64.2 45.9,55 36.9,54.9 36.9,18.3 36.8,18.3 36.8,9.2 360.8,9.2 360.8,18.3 379.3,18.3 
	379.3,27.5 397.6,27.5 397.6,27.5 397.7,27.5 397.7,36.7 406.8,36.7 406.8,45.8 416,45.8 416.1,55 "/>
<polygon class="st2" points="101.1,91.7 101.1,100.8 65.6,100.8 65.6,82.5 82.7,82.5 82.7,91.7 "/>
<polygon class="st2" points="415.7,9.2 415.7,45.8 406.8,45.8 406.8,36.7 397.7,36.7 397.7,27.5 397.6,27.5 397.6,27.5 379.3,27.5 
	379.3,18.3 360.8,18.3 360.8,9.2 "/>
<polygon class="st4" points="452.7,36.7 452.7,64.2 452.6,64.2 443.5,64.2 443.5,55.1 434.4,55 434.4,45.8 425.1,45.8 425.1,36.7 
	416,36.7 416,27.5 397.6,27.5 397.6,18.3 379.1,18.3 379.1,9.2 425.1,9.2 425.1,18.3 434.4,18.3 434.4,27.5 443.5,27.5 443.5,36.7 
	"/>
<polygon class="st5" points="452.7,64.1 452.7,73.4 443.7,73.4 443.7,82.8 434.4,82.8 434.4,91.7 425,91.7 425,55.1 416.1,55 
	416,45.8 406.8,45.8 406.8,36.7 397.7,36.7 397.7,27.5 379.3,27.5 379.3,18.3 360.8,18.3 360.8,9.2 406.8,9.2 406.8,18.3 
	416.1,18.3 416.1,27.5 425.2,27.5 425.2,36.7 434.4,36.7 434.4,55 443.7,55 443.7,64.1 "/>
<polygon class="st6" points="82.8,91.7 82.8,100.8 36.8,100.8 36.8,91.7 27.6,91.7 27.6,82.5 18.4,82.5 18.4,73.3 9.2,73.3 
	9.2,45.8 18.4,45.8 18.4,54.9 27.6,55 27.6,64.2 36.8,64.2 36.8,73.3 46,73.3 46,82.5 64.4,82.5 64.4,91.7 "/>
<polygon class="st1" points="101.1,91.7 101.1,100.8 55.2,100.8 55.2,91.7 45.9,91.7 45.9,82.5 36.7,82.5 36.7,73.3 27.5,73.3 
	27.5,55 18.2,55 18.2,45.9 9.2,45.9 9.2,36.6 18.2,36.6 18.2,27.2 27.5,27.2 27.5,18.3 36.9,18.3 36.9,54.9 45.9,55 45.9,64.2 
	55.1,64.2 55.1,73.3 64.3,73.3 64.3,82.5 82.7,82.5 82.7,91.7 "/>
</svg>
