<svg id="Calque_1" data-name="Calque 1" xmlns="http://www.w3.org/2000/svg" viewBox="0 0 101.34 101.08"><defs><style>.cls-1{fill:#f2c474;}.cls-2{fill:#f39e14;}</style></defs><title>icone?clair</title><polygon class="cls-1" points="18.48 9.21 9.23 9.21 9.23 18.33 0 18.27 0 82.8 9.24 82.8 9.24 92 18.48 91.92 18.58 101.08 82.95 101.08 82.95 92 92.17 92 92.17 82.8 101.34 82.8 101.34 18.33 92.17 18.27 92.17 9.21 82.83 9.21 82.83 0 18.58 0 18.48 9.21"/><polygon class="cls-2" points="27.62 9.14 27.62 18.35 18.4 18.35 18.4 27.47 9.22 27.47 9.22 73.38 18.4 73.38 18.4 82.73 27.62 82.73 27.62 91.94 73.72 91.94 73.72 82.73 82.99 82.73 82.99 73.38 92.16 73.38 92.16 27.47 82.99 27.47 82.99 18.35 73.72 18.35 73.72 9.14 27.62 9.14"/><rect class="cls-1" x="46.15" y="73.55" width="9.16" height="9.35"/><rect class="cls-1" x="46.15" y="55.13" width="9.17" height="9.35"/><rect class="cls-1" x="55.32" y="45.87" width="9.17" height="9.35"/><rect class="cls-1" x="64.52" y="27.56" width="9.17" height="18.51"/><rect class="cls-1" x="27.72" y="27.56" width="9.17" height="18.51"/><rect class="cls-1" x="658.32" y="395.88" width="9.17" height="27.65" transform="translate(460.37 -639.83) rotate(90)"/></svg>