<?xml version="1.0" encoding="utf-8"?>
<!-- Generator: Adobe Illustrator 25.2.0, SVG Export Plug-In . SVG Version: 6.00 Build 0)  -->
<svg version="1.1" xmlns="http://www.w3.org/2000/svg" xmlns:xlink="http://www.w3.org/1999/xlink" x="0px" y="0px"
	 viewBox="0 0 283.5 283.5" style="enable-background:new 0 0 283.5 283.5;" xml:space="preserve">
<style type="text/css">
	.st0{fill:#B1A7EA;}
	.st1{fill:#F2C475;}
	.st2{fill:#F29D14;}
	.st3{fill:#EFA42B;}
	.st4{fill:#2F1551;}
	.st5{fill:#48306D;}
	.st6{display:none;}
	.st7{display:inline;}
	.st8{fill:#614C89;}
	.st9{fill:#745EA8;}
	.st10{fill:#8873C9;}
</style>
<g id="J1">
	<g id="tete">
		<polygon class="st0" points="75.1,57.7 84,57.7 84,102 57.4,102 57.4,84.2 66.3,84.2 66.3,93.1 75.1,93.1 		"/>
		<polygon class="st0" points="92.9,93.1 92.9,102 119.4,102 119.4,93.1 110.6,93.1 110.6,57.7 101.7,57.7 101.7,66.5 92.9,66.5 
			92.9,75.4 101.7,75.4 101.7,93.1 		"/>
		<rect x="66.3" y="110.8" class="st1" width="53.1" height="53.1"/>
		<rect x="75.1" y="119.7" class="st2" width="8.9" height="17.7"/>
		<rect x="84" y="119.7" class="st3" width="8.9" height="17.7"/>
		<rect x="101.7" y="119.7" class="st3" width="8.9" height="17.7"/>
		<rect x="57.4" y="119.7" class="st2" width="8.8" height="17.7"/>
		<rect x="92.9" y="119.7" class="st2" width="8.9" height="17.7"/>
		<rect x="110.6" y="119.7" class="st2" width="8.9" height="17.7"/>
		<rect x="119.4" y="119.7" class="st3" width="8.9" height="17.7"/>
		<rect x="66.3" y="119.7" class="st3" width="8.9" height="17.7"/>
		<rect x="75.1" y="137.4" width="8.9" height="8.9"/>
		<rect x="101.7" y="137.4" width="8.9" height="8.9"/>
	</g>
	<g id="corps">
		<polygon class="st4" points="57.4,155.1 92.9,155.1 92.9,172.8 84,172.8 84,181.7 92.9,181.7 92.9,199.4 101.7,199.4 101.7,181.7 
			110.6,181.7 110.6,172.8 101.7,172.8 101.7,155.1 128.3,155.1 128.3,217.1 48.6,217.1 48.6,199.4 57.4,199.4 57.4,181.7 
			66.3,181.7 66.3,164 57.4,164 		"/>
		<rect x="48.6" y="217.1" class="st5" width="79.7" height="8.9"/>
		<polygon class="st2" points="92.9,164 101.7,164 101.7,172.8 110.6,172.8 110.6,181.7 101.7,181.7 101.7,199.4 92.9,199.4 
			92.9,181.7 84,181.7 84,172.8 92.9,172.8 		"/>
	</g>
</g>
<g id="J2" class="st6">
	<g id="tete_2_" class="st7">
		<polygon class="st0" points="190.1,57.6 199,57.6 199,101.9 172.5,101.9 172.5,84.1 181.4,84.1 181.4,93 190.1,93 		"/>
		<rect x="181.4" y="110.7" class="st1" width="53.1" height="53.1"/>
		<rect x="190.1" y="119.6" class="st2" width="8.9" height="17.7"/>
		<rect x="199" y="119.6" class="st3" width="8.9" height="17.7"/>
		<rect x="216.8" y="119.6" class="st3" width="8.9" height="17.7"/>
		<rect x="172.5" y="119.6" class="st2" width="8.8" height="17.7"/>
		<rect x="208" y="119.6" class="st2" width="8.9" height="17.7"/>
		<rect x="225.6" y="119.6" class="st2" width="8.9" height="17.7"/>
		<rect x="234.5" y="119.6" class="st3" width="8.9" height="17.7"/>
		<rect x="181.4" y="119.6" class="st3" width="8.9" height="17.7"/>
		<rect x="190.1" y="137.3" width="8.9" height="8.9"/>
		<rect x="216.8" y="137.3" width="8.9" height="8.9"/>
		<g>
			<rect x="208" y="93" class="st0" width="26.6" height="8.9"/>
			<rect x="208" y="84.2" class="st0" width="8.9" height="8.9"/>
			<rect x="216.8" y="75.3" class="st0" width="8.9" height="8.9"/>
			<rect x="225.6" y="66.4" class="st0" width="8.9" height="8.9"/>
			<rect x="208" y="57.6" class="st0" width="26.6" height="8.9"/>
		</g>
	</g>
	<g id="corps_2_" class="st7">
		<polygon class="st8" points="172.5,155 208,155 208,172.7 199,172.7 199,181.6 208,181.6 208,199.3 216.8,199.3 216.8,181.6 
			225.6,181.6 225.6,172.7 216.8,172.7 216.8,155 243.4,155 243.4,217 163.6,217 163.6,199.3 172.5,199.3 172.5,181.6 181.4,181.6 
			181.4,163.9 172.5,163.9 		"/>
		<rect x="163.6" y="217" class="st9" width="79.7" height="8.9"/>
		<polygon class="st2" points="208,163.9 216.8,163.9 216.8,172.7 225.6,172.7 225.6,181.6 216.8,181.6 216.8,199.3 208,199.3 
			208,181.6 199,181.6 199,172.7 208,172.7 		"/>
	</g>
</g>
<g id="J2_-_copie" class="st6">
	<g id="tete_1_" class="st7">
		<polygon class="st0" points="75.1,57.6 84,57.6 84,101.9 57.4,101.9 57.4,84.1 66.3,84.1 66.3,93 75.1,93 		"/>
		<rect x="66.3" y="110.7" class="st1" width="53.1" height="53.1"/>
		<rect x="75.1" y="119.6" class="st2" width="8.9" height="17.7"/>
		<rect x="84" y="119.6" class="st3" width="8.9" height="17.7"/>
		<rect x="101.7" y="119.6" class="st3" width="8.9" height="17.7"/>
		<rect x="57.4" y="119.6" class="st2" width="8.8" height="17.7"/>
		<rect x="92.9" y="119.6" class="st2" width="8.9" height="17.7"/>
		<rect x="110.6" y="119.6" class="st2" width="8.9" height="17.7"/>
		<rect x="119.4" y="119.6" class="st3" width="8.9" height="17.7"/>
		<rect x="66.3" y="119.6" class="st3" width="8.9" height="17.7"/>
		<rect x="75.1" y="137.3" width="8.9" height="8.9"/>
		<rect x="101.7" y="137.3" width="8.9" height="8.9"/>
		<g>
			<rect x="92.9" y="93" class="st0" width="26.6" height="8.9"/>
			<rect x="92.9" y="84.2" class="st0" width="8.9" height="8.9"/>
			<rect x="101.7" y="75.3" class="st0" width="8.9" height="8.9"/>
			<rect x="110.6" y="66.4" class="st0" width="8.9" height="8.9"/>
			<rect x="92.9" y="57.6" class="st0" width="26.6" height="8.9"/>
		</g>
	</g>
	<g id="corps_1_" class="st7">
		<polygon class="st8" points="57.4,155 92.9,155 92.9,172.7 84,172.7 84,181.6 92.9,181.6 92.9,199.3 101.7,199.3 101.7,181.6 
			110.6,181.6 110.6,172.7 101.7,172.7 101.7,155 128.3,155 128.3,217 48.6,217 48.6,199.3 57.4,199.3 57.4,181.6 66.3,181.6 
			66.3,163.9 57.4,163.9 		"/>
		<rect x="48.6" y="217" class="st9" width="79.7" height="8.9"/>
		<polygon class="st2" points="92.9,163.9 101.7,163.9 101.7,172.7 110.6,172.7 110.6,181.6 101.7,181.6 101.7,199.3 92.9,199.3 
			92.9,181.6 84,181.6 84,172.7 92.9,172.7 		"/>
	</g>
</g>
<g id="J5" class="st6">
	<g id="tete_3_" class="st7">
		<polygon class="st0" points="75.1,57.7 84,57.7 84,102 57.4,102 57.4,84.2 66.3,84.2 66.3,93.1 75.1,93.1 		"/>
		<rect x="66.3" y="110.8" class="st1" width="53.1" height="53.1"/>
		<rect x="75.1" y="119.7" class="st2" width="8.9" height="17.7"/>
		<rect x="84" y="119.7" class="st3" width="8.9" height="17.7"/>
		<rect x="101.7" y="119.7" class="st3" width="8.9" height="17.7"/>
		<rect x="57.4" y="119.7" class="st2" width="8.8" height="17.7"/>
		<rect x="92.9" y="119.7" class="st2" width="8.9" height="17.7"/>
		<rect x="110.6" y="119.7" class="st2" width="8.9" height="17.7"/>
		<rect x="119.4" y="119.7" class="st3" width="8.9" height="17.7"/>
		<rect x="66.3" y="119.7" class="st3" width="8.9" height="17.7"/>
		<rect x="75.1" y="137.4" width="8.9" height="8.9"/>
		<rect x="101.7" y="137.4" width="8.9" height="8.9"/>
		<polygon class="st0" points="92,57.7 118.6,57.7 118.6,66.5 100.9,66.5 100.9,75.4 118.6,75.4 118.6,102 92,102 92,93.1 
			109.7,93.1 109.7,84.3 92,84.3 		"/>
	</g>
	<g id="corps_3_" class="st7">
		<polygon class="st9" points="57.4,155.1 92.9,155.1 92.9,172.8 84,172.8 84,181.7 92.9,181.7 92.9,199.4 101.7,199.4 101.7,181.7 
			110.6,181.7 110.6,172.8 101.7,172.8 101.7,155.1 128.3,155.1 128.3,217.1 48.6,217.1 48.6,199.4 57.4,199.4 57.4,181.7 
			66.3,181.7 66.3,164 57.4,164 		"/>
		<rect x="48.6" y="217.1" class="st10" width="79.7" height="8.9"/>
		<polygon class="st2" points="92.9,164 101.7,164 101.7,172.8 110.6,172.8 110.6,181.7 101.7,181.7 101.7,199.4 92.9,199.4 
			92.9,181.7 84,181.7 84,172.8 92.9,172.8 		"/>
	</g>
</g>
<g id="J8">
	<g id="tete_4_">
		<polygon class="st0" points="190.2,57.5 199.1,57.5 199.1,101.8 172.5,101.8 172.5,84 181.4,84 181.4,92.9 190.2,92.9 		"/>
		<rect x="181.4" y="110.6" class="st1" width="53.1" height="53.1"/>
		<rect x="190.2" y="119.5" class="st2" width="8.9" height="17.7"/>
		<rect x="199.1" y="119.5" class="st3" width="8.9" height="17.7"/>
		<rect x="216.8" y="119.5" class="st3" width="8.9" height="17.7"/>
		<rect x="172.5" y="119.5" class="st2" width="8.8" height="17.7"/>
		<rect x="208" y="119.5" class="st2" width="8.9" height="17.7"/>
		<rect x="225.7" y="119.5" class="st2" width="8.9" height="17.7"/>
		<rect x="234.5" y="119.5" class="st3" width="8.9" height="17.7"/>
		<rect x="181.4" y="119.5" class="st3" width="8.9" height="17.7"/>
		<rect x="190.2" y="137.2" width="8.9" height="8.9"/>
		<rect x="216.8" y="137.2" width="8.9" height="8.9"/>
		<path class="st0" d="M208,57.5v44.3h26.6V57.5H208z M225.7,92.9h-8.9V84h8.9V92.9z M225.7,75.2h-8.9v-8.9h8.9V75.2z"/>
	</g>
	<g id="corps_4_">
		<polygon class="st10" points="172.5,154.9 208,154.9 208,172.6 199.1,172.6 199.1,181.5 208,181.5 208,199.2 216.8,199.2 
			216.8,181.5 225.7,181.5 225.7,172.6 216.8,172.6 216.8,154.9 243.4,154.9 243.4,216.9 163.7,216.9 163.7,199.2 172.5,199.2 
			172.5,181.5 181.4,181.5 181.4,163.8 172.5,163.8 		"/>
		<rect x="163.7" y="216.9" class="st0" width="79.7" height="8.9"/>
		<polygon class="st2" points="208,163.8 216.8,163.8 216.8,172.6 225.7,172.6 225.7,181.5 216.8,181.5 216.8,199.2 208,199.2 
			208,181.5 199.1,181.5 199.1,172.6 208,172.6 		"/>
	</g>
</g>
</svg>
