<?xml version="1.0" encoding="utf-8"?>
<!-- Generator: Adobe Illustrator 25.2.0, SVG Export Plug-In . SVG Version: 6.00 Build 0)  -->
<svg version="1.1" id="torche" xmlns="http://www.w3.org/2000/svg" xmlns:xlink="http://www.w3.org/1999/xlink" x="0px" y="0px"
	 viewBox="0 0 283.5 283.5" style="enable-background:new 0 0 283.5 283.5;" xml:space="preserve">
<style type="text/css">
	.st0{fill:#B1A7EA;}
</style>
<polygon class="st0" points="133.8,103.6 138.9,103.6 138.9,129.2 123.5,129.2 123.5,119 128.6,119 128.6,124.1 133.8,124.1 "/>
<polygon class="st0" points="144,124.1 144,129.2 159.3,129.2 159.3,124.1 154.2,124.1 154.2,103.6 149.1,103.6 149.1,108.7 
	144,108.7 144,113.8 149.1,113.8 149.1,124.1 "/>
<polygon class="st0" points="159.3,149.6 159.3,159.8 164.4,159.8 164.4,200.7 118.4,200.7 118.4,185.4 123.5,185.4 123.5,175.2 
	128.6,175.2 128.6,165 123.5,165 123.5,159.8 128.6,159.8 128.6,149.6 123.5,149.6 123.5,139.4 128.6,139.4 128.6,134.3 
	159.3,134.3 159.3,139.4 164.4,139.4 164.4,149.6 "/>
</svg>
