<?xml version="1.0" encoding="utf-8"?>
<!-- Generator: Adobe Illustrator 25.2.0, SVG Export Plug-In . SVG Version: 6.00 Build 0)  -->
<svg version="1.1" xmlns="http://www.w3.org/2000/svg" xmlns:xlink="http://www.w3.org/1999/xlink" x="0px" y="0px"
	 viewBox="0 0 283.5 283.5" style="enable-background:new 0 0 283.5 283.5;" xml:space="preserve">
<style type="text/css">
	.st0{fill:#B1A7EA;}
	.st1{fill:#F2C475;}
	.st2{fill:#F29D14;}
	.st3{fill:#EFA42B;}
	.st4{fill:#614C89;}
	.st5{fill:#745EA8;}
</style>
<g id="tete">
	<polygon class="st0" points="128.5,57.7 137.4,57.7 137.4,102 110.8,102 110.8,84.2 119.7,84.2 119.7,93.1 128.5,93.1 	"/>
	<rect x="119.7" y="110.8" class="st1" width="53.1" height="53.1"/>
	<rect x="128.5" y="119.7" class="st2" width="8.9" height="17.7"/>
	<rect x="137.4" y="119.7" class="st3" width="8.9" height="17.7"/>
	<rect x="155.1" y="119.7" class="st3" width="8.9" height="17.7"/>
	<rect x="110.8" y="119.7" class="st2" width="8.8" height="17.7"/>
	<rect x="146.3" y="119.7" class="st2" width="8.9" height="17.7"/>
	<rect x="164" y="119.7" class="st2" width="8.9" height="17.7"/>
	<rect x="172.8" y="119.7" class="st3" width="8.9" height="17.7"/>
	<rect x="119.7" y="119.7" class="st3" width="8.9" height="17.7"/>
	<rect x="128.5" y="137.4" width="8.9" height="8.9"/>
	<rect x="155.1" y="137.4" width="8.9" height="8.9"/>
	<g>
		<rect x="146.3" y="93.1" class="st0" width="26.6" height="8.9"/>
		<rect x="146.3" y="84.3" class="st0" width="8.9" height="8.9"/>
		<rect x="155.1" y="75.4" class="st0" width="8.9" height="8.9"/>
		<rect x="164" y="66.5" class="st0" width="8.9" height="8.9"/>
		<rect x="146.3" y="57.7" class="st0" width="26.6" height="8.9"/>
	</g>
</g>
<g id="corps">
	<polygon class="st4" points="110.8,155.1 146.3,155.1 146.3,172.8 137.4,172.8 137.4,181.7 146.3,181.7 146.3,199.4 155.1,199.4 
		155.1,181.7 164,181.7 164,172.8 155.1,172.8 155.1,155.1 181.7,155.1 181.7,217.1 102,217.1 102,199.4 110.8,199.4 110.8,181.7 
		119.7,181.7 119.7,164 110.8,164 	"/>
	<rect x="102" y="217.1" class="st5" width="79.7" height="8.9"/>
	<polygon class="st2" points="146.3,164 155.1,164 155.1,172.8 164,172.8 164,181.7 155.1,181.7 155.1,199.4 146.3,199.4 
		146.3,181.7 137.4,181.7 137.4,172.8 146.3,172.8 	"/>
</g>
</svg>
