<?xml version="1.0" encoding="utf-8"?>
<!-- Generator: Adobe Illustrator 25.2.0, SVG Export Plug-In . SVG Version: 6.00 Build 0)  -->
<svg version="1.1" id="Calque_1" xmlns="http://www.w3.org/2000/svg" xmlns:xlink="http://www.w3.org/1999/xlink" x="0px" y="0px"
	 viewBox="0 0 247 247" style="enable-background:new 0 0 247 247;" xml:space="preserve">
<style type="text/css">
	.st0{fill:#21093A;}
	.st1{fill:#FEFDFF;}
</style>
<g id="Calque_2_1_">
	<g id="icone">
		<polygon class="st0" points="247,58.5 247,188.5 240.5,188.5 240.5,195 234,195 234,201.5 227.5,201.5 227.5,208 221,208 
			221.1,214.5 214.4,214.5 214.5,221 208,221 208,227.5 201.5,227.5 201.5,234 195,234 195,240.5 188.5,240.5 188.5,247 58.5,247 
			58.5,240.5 52,240.5 52,234 45.5,234 45.5,227.5 39,227.5 39,221 32.5,221 32.5,214.5 26,214.5 26,208 19.5,208 19.5,201.5 
			13,201.5 13,195 6.5,195 6.5,188.5 0,188.5 0,58.5 6.5,58.5 6.5,52 13,52 13,45.5 19.5,45.5 19.5,39 26,39 26,32.5 32.5,32.5 
			32.5,26 39,26 39,19.5 45.5,19.5 45.5,13 52,13 52,6.5 58.5,6.5 58.5,0 188.5,0 188.5,6.5 195,6.5 195,13 201.5,13 201.5,19.5 
			208,19.5 208,26 214.5,26 214.5,32.5 221,32.5 221,39 227.5,39 227.5,45.5 234,45.5 234,52 240.5,52 240.5,58.5 		"/>
		<polygon class="st1" points="240.8,61.7 240.8,185.1 234.6,185.1 234.6,191.3 228.4,191.3 228.4,197.5 222.3,197.5 222.3,203.7 
			216.1,203.7 216.1,209.8 209.9,209.8 209.9,216 203.7,216 203.7,222.2 197.6,222.2 197.6,228.4 191.4,228.4 191.4,234.5 
			185.2,234.5 185.2,240.7 61.7,240.7 61.7,234.5 55.6,234.5 55.6,228.4 49.4,228.4 49.4,222.2 43.2,222.2 43.2,216 37,216 
			37,209.8 30.9,209.8 30.9,203.7 24.7,203.7 24.7,197.5 18.5,197.5 18.5,191.3 12.4,191.3 12.4,185.1 6.2,185.1 6.2,61.7 
			12.4,61.7 12.4,55.5 18.5,55.5 18.5,49.3 24.7,49.3 24.7,43.1 30.9,43.1 30.9,37 37,37 37,30.8 43.2,30.8 43.2,24.6 49.4,24.6 
			49.4,18.4 55.6,18.4 55.6,12.3 61.7,12.3 61.7,6.1 185.2,6.1 185.2,12.3 191.4,12.3 191.4,18.4 197.6,18.4 197.6,24.6 203.7,24.6 
			203.7,30.8 209.9,30.8 209.9,37 216.1,37 216.1,43.1 222.3,43.1 222.3,49.3 228.4,49.3 228.4,55.5 234.6,55.5 234.6,61.7 		"/>
		<polygon class="st0" points="187.4,97 181.1,97 181.1,90.7 187.4,90.7 187.4,84.5 181.1,84.5 181.1,72 174.9,72 174.9,65.7 
			168.6,65.7 168.6,59.5 156.1,59.5 156.1,53.2 149.9,53.2 149.9,47 137.4,47 137.4,40.7 118.6,40.7 118.6,34.5 112.4,34.5 
			112.4,40.7 93.6,40.7 93.6,47 93.6,59.5 99.9,59.5 99.9,65.7 99.9,72 106.1,72 106.1,78.2 112.4,78.2 112.4,84.5 118.6,84.5 
			118.6,90.7 124.9,90.7 124.9,97 131.1,97 131.1,103.2 143.6,103.2 143.6,109.5 149.9,109.5 149.9,115.7 162.4,115.7 162.4,122 
			168.6,122 174.9,122 174.9,128.2 181.1,128.2 181.1,134.5 187.4,134.5 187.4,140.7 193.6,140.7 193.6,147 199.9,147 199.9,153.2 
			193.6,153.2 193.6,159.5 199.9,159.5 199.9,190.7 193.6,190.7 193.6,197 193.6,203.2 187.4,203.2 187.4,209.5 181.1,209.5 
			181.1,215.7 174.9,215.7 174.9,222 168.6,222 162.4,222 162.4,228.2 124.9,228.2 124.9,222 118.6,222 118.6,228.2 106.1,228.2 
			106.1,222 93.6,222 93.6,215.7 87.4,215.7 87.4,209.5 93.6,209.5 93.6,203.2 81.1,203.2 81.1,190.7 74.9,190.7 74.9,184.5 
			68.6,184.5 68.6,178.2 68.6,159.5 68.6,153.2 56.1,153.2 56.1,159.5 49.9,159.5 49.9,153.2 43.6,153.2 43.6,159.5 31.1,159.5 
			31.1,153.2 24.9,153.2 24.9,147 18.6,147 18.6,140.7 24.9,140.7 49.9,140.7 49.9,134.5 99.9,134.5 99.9,140.7 106.1,140.7 
			106.1,153.2 112.4,153.2 112.4,165.7 118.6,165.7 118.6,172 112.4,172 112.4,184.5 118.6,184.5 118.6,190.7 124.9,190.7 
			124.9,197 168.6,197 168.6,190.7 174.9,190.7 174.9,178.2 168.6,178.2 168.6,165.7 162.4,165.7 162.4,159.5 156.1,159.5 
			156.1,153.2 143.6,153.2 143.6,147 137.4,147 137.4,140.7 124.9,140.7 124.9,134.5 118.6,134.5 118.6,128.2 112.4,128.2 
			106.1,128.2 106.1,122 99.9,122 99.9,115.7 93.6,115.7 93.6,109.5 87.4,109.5 87.4,103.2 81.1,103.2 81.1,90.7 74.9,90.7 
			74.9,78.2 68.6,78.2 68.6,65.7 74.9,65.7 74.9,59.5 68.6,59.5 68.6,47 74.9,47 74.9,40.7 81.1,40.7 81.1,34.5 87.4,34.5 
			87.4,28.2 93.6,28.2 93.6,22 99.9,22 99.9,15.7 137.4,15.7 137.4,22 156.1,22 156.1,28.2 168.6,28.2 168.6,34.5 181.1,34.5 
			181.1,47 187.4,47 187.4,53.2 193.6,53.2 193.6,65.7 199.9,65.7 199.9,97 193.6,97 193.6,103.2 187.4,103.2 		"/>
	</g>
</g>
</svg>
