<svg id="Calque_1" data-name="Calque 1" xmlns="http://www.w3.org/2000/svg" viewBox="0 0 93.1 36.09"><defs><style>.cls-1{fill:#2d2150;}</style></defs><title>typotimefoncé</title><path class="cls-1" d="M521.33,314.27v-1.9h1.9v1.9Zm0,1.9v-1.9h1.9v1.9Zm1.9,20.9v-1.9h-1.9v-3.8h1.9v1.9H527v3.8Zm0-24.7v-1.9h1.9v1.9Zm9.5,24.7v-1.9h-3.8v-1.9H527v-1.9h-3.8v-3.8h1.9v-1.9h5.7v1.9h3.8v1.9h1.9v1.9h1.9v1.9H546v-1.9h1.9v-3.8h-3.8v-1.9h3.8v1.9h1.9v5.7h-1.9v1.9H546v1.9Zm5.7-9.5v1.9h-1.9v-3.8h-1.9v-1.9h-1.9v-1.9h-1.9v-5.7h1.9v-1.9h3.8v-1.9h-1.9v-1.9h-9.5v-1.9H527v-1.9h13.3v1.9h3.8v1.9H546v1.9h3.8v3.8h-1.9v1.9h-5.7v-1.9h-1.9v-1.9h-1.9V320h1.9v1.9h1.9v3.8h-1.9v1.9Zm3.8,1.9v-1.9h1.9v1.9Zm9.5-20.9v3.8h-1.9v-1.9H546v-3.8h3.8v1.9Z" transform="translate(-521.33 -302.87)"/><path class="cls-1" d="M559.33,339v-1.9h-1.9v-1.9h-1.9V320h-1.9v-3.8h1.9v-1.9h1.9v-1.9h1.9v1.9h1.9v1.9h1.9v1.9h-1.9v13.3h1.9v1.9H565v1.9h-1.9v1.9h-1.9V339Zm-3.8-32.3v-3.8h5.7v5.7h-1.9v1.9h-1.9v-3.8Z" transform="translate(-521.33 -302.87)"/><path class="cls-1" d="M578.33,320h-1.9v13.3h1.9v1.9h-1.9v1.9h-1.9V339h-1.9v-1.9h-1.9v-1.9h-1.9v-1.9h1.9V320h-1.9v-1.9h-1.9v-1.9h1.9v-1.9h1.9v-1.9h1.9v1.9h1.9v1.9h1.9v1.9h1.9Zm9.5,0h-1.9v13.3h1.9v1.9h-1.9v1.9H584V339h-1.9v-1.9h-1.9v-19h-1.9v-3.8h1.9v-1.9h1.9v1.9H584v1.9h1.9v1.9h1.9Zm9.5,0h-1.9v13.3h1.9v1.9h-1.9v1.9h-1.9V339h-1.9v-1.9h-1.9v-19h-1.9v-3.8h1.9v-1.9h1.9v1.9h1.9v1.9h1.9v1.9h1.9Z" transform="translate(-521.33 -302.87)"/><path class="cls-1" d="M604.93,339v-1.9H603v-1.9h-1.9v-1.9h-1.9V320h1.9v-1.9H603v-1.9h1.9v7.6h1.9v1.9h-1.9v3.8h1.9v1.9h1.9v1.9h1.9v1.9h-1.9v1.9h-1.9V339Zm3.8-17.1V320h-1.9v-3.8h-1.9v-1.9h1.9v-1.9h3.8v1.9h1.9v3.8h1.9V320h-1.9v1.9Zm-1.9,1.9v-1.9h1.9v1.9Z" transform="translate(-521.33 -302.87)"/></svg>