<?xml version="1.0" encoding="utf-8"?>
<!-- Generator: Adobe Illustrator 25.2.0, SVG Export Plug-In . SVG Version: 6.00 Build 0)  -->
<svg version="1.1" id="torche" xmlns="http://www.w3.org/2000/svg" xmlns:xlink="http://www.w3.org/1999/xlink" x="0px" y="0px"
	 viewBox="0 0 283.5 283.5" style="enable-background:new 0 0 283.5 283.5;" xml:space="preserve">
<style type="text/css">
	.st0{fill:#B1A7EA;}
</style>
<polygon class="st0" points="149.5,121.4 149.5,126.5 154.6,126.5 154.6,131.6 149.5,131.6 149.5,136.7 154.6,136.7 154.6,152 
	149.5,152 149.5,157.2 144.4,157.2 144.4,172.5 139.3,172.5 139.3,157.2 134.2,157.2 134.2,152 129,152 129,141.8 134.2,141.8 
	134.2,136.7 129,136.7 129,131.6 134.2,131.6 134.2,116.3 144.4,116.3 144.4,121.4 149.5,121.4 149.5,116.3 154.6,116.3 
	154.6,121.4 "/>
<rect x="129" y="111.2" class="st0" width="5.1" height="5.1"/>
</svg>
