<?xml version="1.0" encoding="utf-8"?>
<!-- Generator: Adobe Illustrator 25.2.0, SVG Export Plug-In . SVG Version: 6.00 Build 0)  -->
<svg version="1.1" id="torche" xmlns="http://www.w3.org/2000/svg" xmlns:xlink="http://www.w3.org/1999/xlink" x="0px" y="0px"
	 viewBox="0 0 62.6 94.3" style="enable-background:new 0 0 62.6 94.3;" xml:space="preserve">
<style type="text/css">
	.st0{fill:#B1A7EA;}
</style>
<polygon class="st0" points="39,26.8 39,31.9 44.1,31.9 44.1,37 39,37 39,42.1 44.1,42.1 44.1,57.4 39,57.4 39,62.6 33.9,62.6 
	33.9,77.9 28.8,77.9 28.8,62.6 23.7,62.6 23.7,57.4 18.5,57.4 18.5,47.2 23.7,47.2 23.7,42.1 18.5,42.1 18.5,37 23.7,37 23.7,21.7 
	33.9,21.7 33.9,26.8 39,26.8 39,21.7 44.1,21.7 44.1,26.8 "/>
<rect x="18.5" y="16.6" class="st0" width="5.1" height="5.1"/>
</svg>
